<svg width="974.159" height="911.604" overflow="visible" style="display: block;" viewBox="0 0 974.159 911.604" fill="none" xmlns="http://www.w3.org/2000/svg">
<g id="Lines">
<g id="Vector" opacity="0.6" filter="url(#filter0_f_0_89)">
<path d="M53.2437 32.0799C54.195 33.7905 54.8249 35.4003 55.3236 37.2777C58.0404 46.9403 62.1774 55.6652 66.8836 64.5399C67.9521 66.5668 68.9916 68.6048 70.0236 70.649C79.3906 88.9246 92.2172 105.667 105.694 121.32C107.033 122.881 108.35 124.458 109.672 126.032C111.981 128.744 114.383 131.359 116.837 133.951C118.03 135.216 119.201 136.494 120.363 137.786C126.007 143.999 131.913 149.925 137.987 155.748C139.221 156.931 140.451 158.118 141.681 159.305C145.534 163.013 149.402 166.639 153.561 170.031C154.703 171.033 155.842 172.038 156.978 173.047C159.893 175.603 162.883 178.039 165.953 180.422C167.097 181.309 168.234 182.205 169.364 183.109C172.033 185.242 174.725 187.325 177.515 189.309C177.987 189.645 178.459 189.98 178.944 190.326C179.884 190.991 180.827 191.653 181.772 192.31C182.895 193.103 183.986 193.936 185.071 194.775C185.071 195.184 185.071 195.592 185.071 196.013C185.532 196.162 185.993 196.311 186.468 196.465C188.553 197.365 189.942 198.472 191.663 199.918C203.765 209.857 216.989 218.439 230.26 226.854C231.402 227.581 232.538 228.315 233.673 229.05C238.632 232.261 243.652 235.366 248.718 238.418C251.372 240.022 253.995 241.652 256.577 243.359C267.425 250.516 279.112 256.562 290.534 262.823C291.264 263.224 291.264 263.224 292.008 263.633C298.935 267.438 305.964 271.038 313.041 274.577C313.989 275.051 313.989 275.051 314.957 275.536C318.919 277.518 322.884 279.494 326.851 281.468C329.288 282.68 331.722 283.897 334.155 285.115C343.813 289.952 353.503 294.672 363.359 299.129C365.129 299.94 366.886 300.773 368.641 301.614C380.165 307.105 392.021 311.785 403.898 316.514C408.813 318.473 413.701 320.486 418.584 322.519C423.898 324.727 429.236 326.854 434.62 328.899C441.316 331.442 447.941 334.13 454.555 336.863C455.022 337.056 455.49 337.25 455.972 337.449C458.248 338.39 460.522 339.334 462.794 340.284C464.521 341.004 466.251 341.714 467.986 342.415C473.22 344.548 478.243 346.94 483.253 349.521C488.38 352.151 493.614 354.534 498.877 356.898C513.837 363.629 528.506 370.749 542.779 378.756C544.683 379.819 546.595 380.87 548.507 381.918C558.463 387.387 568.265 393.068 577.983 398.918C578.586 399.281 579.189 399.643 579.81 400.017C597.915 410.93 615.552 422.55 633.026 434.371C634.522 435.382 636.02 436.389 637.519 437.395C642.72 440.895 647.832 444.469 652.824 448.24C653.925 449.072 655.029 449.9 656.132 450.727C662.599 455.584 668.941 460.571 675.195 465.678C678.553 468.417 681.956 471.101 685.374 473.77C686.201 474.416 687.027 475.062 687.853 475.708C688.289 476.049 688.725 476.39 689.174 476.74C690.071 477.442 690.968 478.143 691.864 478.845C693.763 480.33 695.664 481.813 697.577 483.282C701.789 486.533 705.734 490.009 709.667 493.564C711.238 494.98 712.835 496.357 714.473 497.703C716.926 499.733 719.161 501.946 721.398 504.194C723.04 505.759 724.824 507.122 726.628 508.512C730.427 511.473 733.871 514.694 737.301 518.04C737.876 518.593 738.45 519.146 739.042 519.716C741.511 522.107 743.936 524.504 746.214 527.065C748.575 529.709 751.191 532.043 753.86 534.395C757.023 537.182 759.995 540.002 762.782 543.141C764.301 544.814 765.946 546.345 767.606 547.888C769.983 550.136 772.202 552.408 774.277 554.925C776.851 558.042 779.629 560.93 782.477 563.817C783.153 564.504 783.153 564.504 783.843 565.204C784.716 566.09 785.588 566.975 786.461 567.86C790.508 571.968 794.254 576.209 797.853 580.681C800.074 583.426 802.428 586.014 804.873 588.579C809.57 593.593 813.825 598.997 818.14 604.316C819.187 605.604 820.238 606.888 821.289 608.172C825.457 613.277 829.515 618.44 833.439 623.721C835.367 626.314 837.324 628.877 839.332 631.412C844.443 637.869 849.153 644.577 853.856 651.313C854.247 651.869 854.637 652.426 855.039 652.999C862.215 663.242 869.133 673.621 875.685 684.244C876.569 685.667 877.468 687.08 878.366 688.495C888.085 703.896 897.196 719.906 905.355 736.13C905.763 736.94 906.175 737.749 906.589 738.557C910.262 745.718 913.497 753.033 916.633 760.423C918.39 764.559 920.203 768.656 922.142 772.716C927.52 784.212 931.304 796.238 935.083 808.286C935.375 809.206 935.375 809.206 935.673 810.145C937.723 816.631 939.596 823.1 940.929 829.761C941.034 830.285 941.138 830.808 941.246 831.348C942.025 835.493 942.249 839.488 941.956 843.702C940.778 842.001 940.225 840.733 939.565 838.82C938.053 834.733 936.03 830.979 933.918 827.154C933.517 826.421 933.117 825.689 932.718 824.956C931.905 823.467 931.09 821.98 930.274 820.493C929.179 818.493 928.094 816.487 927.015 814.479C923.394 807.746 919.692 801.067 915.819 794.464C914.854 792.816 913.896 791.166 912.938 789.515C906.262 778.043 899.356 767.005 891.154 756.477C890.807 756.031 890.461 755.585 890.103 755.126C882.852 745.833 875.222 736.841 867.361 728.021C867.033 727.652 866.704 727.283 866.366 726.902C861.819 721.794 857.186 716.782 852.41 711.871C851.565 710.991 850.728 710.104 849.896 709.213C844.714 703.689 839.269 698.429 833.794 693.175C832.187 691.633 830.584 690.087 828.982 688.542C827.947 687.546 826.911 686.551 825.876 685.556C825.404 685.101 824.932 684.646 824.446 684.177C821.857 681.697 819.211 679.318 816.437 677.03C814.424 675.348 812.505 673.569 810.57 671.804C807.23 668.779 803.818 665.909 800.231 663.153C798.435 661.735 796.725 660.25 795.016 658.736C791.589 655.709 788.027 652.884 784.406 650.075C783.615 649.451 782.824 648.826 782.034 648.2C776.93 644.166 771.743 640.27 766.438 636.483C764.209 634.89 762.004 633.268 759.805 631.638C754.194 627.479 748.496 623.451 742.73 619.494C741.818 618.868 740.907 618.24 739.996 617.611C723.598 606.288 706.593 595.719 689.479 585.427C687.892 584.469 686.31 583.504 684.729 582.538C677.598 578.207 670.323 574.245 662.885 570.426C659.128 568.494 655.43 566.473 651.734 564.436C645.578 561.054 639.318 557.894 633.01 554.784C629.096 552.85 625.234 550.866 621.43 548.739C617.238 546.406 612.899 544.495 608.468 542.62C605.198 541.235 601.983 539.788 598.802 538.222C592.928 535.341 586.928 532.723 580.934 530.081C574.753 527.354 568.588 524.599 562.466 521.752C550.516 516.214 538.366 511.376 525.987 506.799C523.248 505.783 520.531 504.727 517.826 503.628C514.766 502.387 511.68 501.307 508.532 500.293C503.109 498.51 497.781 496.531 492.455 494.494C485.835 491.968 479.192 489.598 472.455 487.382C470.329 486.674 468.21 485.947 466.092 485.217C453.308 480.82 440.452 476.651 427.557 472.565C420.906 470.452 414.292 468.283 407.731 465.924C404.209 464.659 400.665 463.498 397.081 462.403C391.734 460.731 386.538 458.799 381.366 456.679C377.947 455.289 374.494 454.059 370.984 452.899C364.519 450.746 358.262 448.161 351.986 445.546C350.788 445.049 349.589 444.552 348.39 444.055C339.948 440.547 331.557 436.948 323.245 433.162C321.367 432.308 319.484 431.463 317.6 430.62C309.654 427.039 301.936 423.151 294.268 419.051C292.438 418.082 290.599 417.131 288.755 416.186C278.882 411.119 269.246 405.718 259.667 400.155C258.972 399.754 258.277 399.353 257.561 398.94C232.112 384.225 207.131 367.72 185.293 348.293C183.938 347.09 182.565 345.914 181.173 344.751C178.152 342.222 175.179 339.642 172.21 337.057C171.651 336.572 171.091 336.087 170.515 335.587C165.717 331.398 161.074 327.078 156.493 322.67C155.308 321.531 154.117 320.397 152.926 319.263C152.169 318.537 151.413 317.811 150.658 317.085C150.302 316.747 149.946 316.409 149.58 316.062C147.131 313.691 147.131 313.691 147.131 312.312C146.706 312.312 146.282 312.312 145.845 312.312C144.908 311.314 144.018 310.275 143.152 309.219C141.396 307.106 139.637 305.014 137.766 302.994C135.702 300.75 133.769 298.419 131.838 296.069C130.563 294.553 129.251 293.077 127.921 291.606C123.753 286.977 120.116 282.059 116.499 277.025C114.883 274.796 113.2 272.614 111.519 270.43C108.547 266.38 108.547 266.38 108.547 264.679C108.123 264.679 107.698 264.679 107.261 264.679C106.529 263.749 106.529 263.749 105.719 262.429C105.414 261.938 105.11 261.447 104.797 260.941C104.469 260.401 104.142 259.861 103.804 259.305C103.29 258.466 103.29 258.466 102.766 257.611C101.686 255.846 100.615 254.077 99.5442 252.307C99.2199 251.775 98.8957 251.243 98.5617 250.695C89.7434 236.215 81.979 221.329 75.1078 205.91C74.8117 205.247 74.5157 204.584 74.2107 203.9C69.6852 193.653 66.092 183.197 62.8896 172.505C62.7539 172.055 62.6183 171.604 62.4785 171.139C58.9608 159.429 55.7856 147.859 54.1184 135.752C53.8398 133.827 53.4882 131.921 53.1276 130.009C51.7319 122.57 51.0191 115.048 50.2478 107.53C50.1024 106.314 49.9211 105.103 49.703 103.898C49.3379 101.698 49.1599 99.5093 49.0286 97.2881C49.0015 96.8345 48.9745 96.3809 48.9466 95.9136C48.6656 90.7374 48.6454 85.563 48.6584 80.3809C48.6618 78.7459 48.6584 77.1109 48.6543 75.4759C48.6482 65.3615 49.3664 55.4717 50.7722 45.4497C50.9971 43.8423 51.2151 42.2341 51.4325 40.6257C51.5736 39.6015 51.7151 38.5773 51.857 37.5532C51.922 37.0732 51.987 36.5933 52.054 36.0988C52.5264 32.7699 52.5264 32.7699 53.2437 32.0799Z" fill="url(#paint0_linear_0_89)"/>
</g>
<g id="Vector_2" opacity="0.6" filter="url(#filter1_f_0_89)">
<path d="M33.4308 267.333C35.4035 268.28 35.706 270.122 36.4859 272.004C41.5503 283.603 49.0187 294.188 56.5855 304.398C56.9294 304.867 57.2734 305.337 57.6278 305.82C61.9782 311.758 66.5239 317.483 71.336 323.082C73.1774 325.23 74.9384 327.429 76.685 329.648C79.4523 333.14 82.4102 336.404 85.5288 339.609C86.0521 340.148 86.0521 340.148 86.5859 340.697C88.1581 342.313 89.7306 343.929 91.3051 345.544C93.5537 347.853 95.7573 350.19 97.9126 352.58C104.073 359.37 110.559 365.672 117.889 371.308C120.936 373.652 123.751 376.174 126.572 378.759C130.397 382.253 134.333 385.462 138.524 388.54C140.631 390.091 142.673 391.71 144.71 393.345C159.473 405.188 175.269 415.814 191.654 425.477C192.504 425.98 192.504 425.98 193.371 426.494C211.951 437.49 230.908 447.652 250.305 457.247C251.435 457.806 252.564 458.365 253.693 458.926C264.605 464.34 275.687 469.246 287.127 473.546C288.787 474.174 290.446 474.806 292.104 475.438C292.728 475.675 292.728 475.675 293.365 475.917C297.49 477.493 301.583 479.141 305.678 480.79C312.715 483.621 319.775 486.218 327.003 488.559C329.487 489.382 331.95 490.259 334.417 491.13C341.833 493.741 349.3 496.079 356.863 498.265C360.244 499.245 363.61 500.261 366.973 501.296C367.946 501.595 368.92 501.893 369.894 502.192C371.309 502.626 372.725 503.061 374.138 503.501C379.777 505.257 385.429 506.771 391.193 508.106C399.99 510.159 408.586 512.774 417.201 515.435C418.911 515.963 420.622 516.487 422.333 517.011C433.314 520.374 444.276 523.785 455.189 527.344C457.469 528.081 459.753 528.804 462.039 529.525C486.03 537.097 509.383 546.035 532.706 555.304C537.541 557.224 542.387 559.115 547.256 560.957C553.596 563.371 559.796 566.053 565.988 568.795C566.669 569.096 567.349 569.396 568.05 569.706C578.086 574.142 588.072 578.672 598.02 583.288C600.182 584.287 602.346 585.28 604.512 586.271C612.453 589.911 620.337 593.615 628.081 597.628C629.818 598.527 631.56 599.419 633.302 600.31C645.524 606.59 657.488 613.245 669.23 620.32C672.115 622.048 675.017 623.691 678.021 625.221C686.719 629.655 694.772 635.093 702.92 640.383C706.349 642.608 709.795 644.805 713.248 646.995C722.424 652.825 731.402 658.842 739.945 665.507C742.782 667.716 745.678 669.833 748.613 671.921C752.601 674.764 756.479 677.714 760.318 680.739C763.073 682.91 765.858 685.034 768.672 687.133C775.139 691.983 781.296 697.037 787.031 702.678C788.448 704.006 789.898 705.163 791.465 706.322C799.23 712.116 807.225 719.106 813.414 726.476C814.752 728.004 816.137 729.169 817.75 730.414C819.267 731.69 820.517 733.154 821.823 734.625C823.715 736.702 825.679 738.711 827.644 740.723C840.243 753.652 851.409 767.397 862.126 781.8C863.15 783.168 864.185 784.527 865.223 785.884C882.691 808.764 898.297 834.134 908.831 860.682C909.944 863.461 911.107 866.221 912.263 868.984C912.873 870.447 913.483 871.911 914.089 873.375C914.508 874.375 914.944 875.369 915.384 876.361C915.881 877.671 915.881 877.671 915.881 879.524C915.457 879.524 915.032 879.524 914.595 879.524C913.831 878.602 913.117 877.641 912.424 876.667C907.722 870.301 902.228 864.546 896.739 858.803C895.458 857.452 894.208 856.083 892.968 854.698C891.029 852.551 888.957 850.563 886.848 848.571C885.765 847.512 884.775 846.429 883.802 845.278C882.602 843.671 882.602 843.671 881.149 843.077C881.149 842.669 881.149 842.261 881.149 841.841C880.725 841.841 880.3 841.841 879.863 841.841C879.863 841.434 879.863 841.026 879.863 840.606C879.438 840.606 879.014 840.606 878.577 840.606C878.577 840.198 878.577 839.79 878.577 839.37C877.94 839.166 877.303 838.963 876.647 838.753C875.655 837.785 875.655 837.785 874.597 836.552C870.705 832.154 866.395 828.309 861.854 824.544C855.649 819.353 855.649 819.353 853.533 816.822C851.474 814.415 849.011 812.582 846.483 810.645C844.358 809 842.29 807.302 840.227 805.587C831.726 798.55 822.983 791.785 814.258 785.008C813.671 784.552 813.084 784.096 812.479 783.625C806.432 778.951 800.301 774.412 793.958 770.115C791.496 768.441 789.084 766.714 786.689 764.954C782.652 761.993 778.565 759.253 774.227 756.716C769.884 754.164 765.663 751.44 761.436 748.715C754.348 744.151 747.196 739.698 739.974 735.333C738.435 734.397 736.906 733.45 735.38 732.497C727.433 727.561 719.204 723.177 710.91 718.806C707.703 717.104 704.522 715.361 701.339 713.619C696.038 710.73 690.703 707.906 685.339 705.125C684.685 704.785 684.031 704.445 683.357 704.095C673.88 699.204 664.184 694.735 654.489 690.259C653.105 689.62 651.722 688.979 650.339 688.337C649.716 688.051 649.716 688.051 649.08 687.758C647.369 686.964 645.711 686.149 644.09 685.195C642.329 684.203 640.578 683.554 638.661 682.884C634.306 681.311 630.127 679.472 625.925 677.558C621.024 675.354 616.165 673.248 611.061 671.515C607.954 670.441 604.964 669.182 601.958 667.871C590.42 662.849 578.556 658.747 566.632 654.663C566.118 654.487 565.604 654.311 565.075 654.129C558.215 651.782 551.34 649.477 544.457 647.194C541.973 646.37 539.491 645.542 537.01 644.711C520.441 639.168 503.889 633.901 486.903 629.664C485.541 629.322 484.18 628.976 482.82 628.628C474.131 626.409 465.411 624.317 456.687 622.231C454.523 621.712 452.36 621.194 450.197 620.675C448.784 620.337 447.372 619.999 445.96 619.661C442.74 618.892 439.521 618.119 436.306 617.334C430.461 615.909 424.627 614.579 418.699 613.505C414.736 612.78 410.807 612.016 406.898 611.053C404.305 610.417 401.787 609.923 399.122 609.644C394.769 609.098 390.578 608.155 386.34 607.059C382.337 606.076 378.34 605.541 374.249 605.047C366.868 604.138 359.668 602.671 352.422 601.066C350.337 600.604 348.25 600.151 346.162 599.7C344.811 599.405 343.46 599.11 342.11 598.814C341.498 598.681 340.886 598.548 340.256 598.41C336.835 597.65 333.481 596.783 330.134 595.762C328.552 595.331 326.986 595.051 325.364 594.799C320.533 594.005 315.865 592.655 311.166 591.343C310.677 591.207 310.188 591.072 309.685 590.932C306.141 589.948 302.603 588.951 299.066 587.945C298.381 587.751 298.381 587.751 297.681 587.552C284.191 583.714 270.992 579.309 257.903 574.355C257.169 574.078 257.169 574.078 256.422 573.796C231.866 564.514 207.773 554.033 185.603 540.18C183.731 539.016 181.85 537.867 179.967 536.72C163.446 526.648 147.572 516.044 133.125 503.314C130.81 501.335 128.504 499.378 126.05 497.561C125.625 497.217 125.201 496.873 124.763 496.518C124.763 496.111 124.763 495.703 124.763 495.283C124.381 495.117 123.999 494.951 123.606 494.78C122.184 494.044 121.26 493.305 120.128 492.209C119.753 491.848 119.378 491.487 118.991 491.115C118.601 490.732 118.211 490.349 117.809 489.955C117.202 489.365 117.202 489.365 116.583 488.764C114.23 486.464 111.938 484.134 109.769 481.671C108.43 480.173 107.027 478.737 105.628 477.291C102.268 473.748 99.2029 470.026 96.1599 466.23C95.1165 464.939 94.0588 463.659 92.9983 462.38C56.029 417.635 34.4192 359.955 32.1444 298.22C32.1347 297.632 32.1249 297.044 32.1149 296.438C32.0195 289.561 32.1178 282.698 32.4258 275.827C32.451 275.256 32.4762 274.686 32.5021 274.099C32.5292 273.57 32.5562 273.041 32.5841 272.497C32.6077 272.035 32.6313 271.572 32.6555 271.096C32.7889 269.791 33.0656 268.594 33.4308 267.333Z" fill="#AFD5EB"/>
</g>
</g>
<defs>
<filter id="filter0_f_0_89" x="16.5744" y="-1.86083e-07" width="957.585" height="875.781" filterUnits="userSpaceOnUse" color-interpolation-filters="sRGB">
<feFlood flood-opacity="0" result="BackgroundImageFix"/>
<feBlend mode="normal" in="SourceGraphic" in2="BackgroundImageFix" result="shape"/>
<feGaussianBlur stdDeviation="16.04" result="effect1_foregroundBlur_0_89"/>
</filter>
<filter id="filter1_f_0_89" x="-1.83148e-09" y="235.253" width="947.961" height="676.351" filterUnits="userSpaceOnUse" color-interpolation-filters="sRGB">
<feFlood flood-opacity="0" result="BackgroundImageFix"/>
<feBlend mode="normal" in="SourceGraphic" in2="BackgroundImageFix" result="shape"/>
<feGaussianBlur stdDeviation="16.04" result="effect1_foregroundBlur_0_89"/>
</filter>
<linearGradient id="paint0_linear_0_89" x1="102.679" y1="91.9614" x2="243.155" y2="386.286" gradientUnits="userSpaceOnUse">
<stop stop-color="#AF2838" stop-opacity="0"/>
<stop offset="1" stop-color="#AF2838"/>
</linearGradient>
</defs>
</svg>
