<svg preserveAspectRatio="xMidYMid slice" width="100%" height="100%" overflow="visible" style="display: block;" viewBox="0 0 1720 910" fill="none" xmlns="http://www.w3.org/2000/svg">
<g id="Mask group">
<mask id="mask0_0_60" style="mask-type:alpha" maskUnits="userSpaceOnUse" x="80" y="80" width="1560" height="750">
<path id="Rectangle 20298" d="M80 88C80 83.5817 83.5817 80 88 80H1632C1636.42 80 1640 83.5817 1640 88V745.64C1640 751.623 1633.73 755.685 1628.25 753.285C1580.24 732.261 1390.47 660.98 1159.41 731.018C891.322 812.278 696.878 830 560 830C300.493 830 117.839 771.733 85.2263 760.57C82.0572 759.485 80 756.509 80 753.159V88Z" fill="url(#paint0_linear_0_60)"/>
</mask>
<g mask="url(#mask0_0_60)">
<g id="Group 5" filter="url(#filter0_f_0_60)">
<path id="Vector" d="M88.6225 -345.786C81.3972 -338.76 73.8756 -332.061 65.8586 -325.879C61.4869 -322.495 57.5385 -318.884 53.6262 -315.02C51.6064 -313.074 49.5262 -311.263 47.3591 -309.47C42.2342 -305.224 37.5327 -300.711 33.1239 -295.776C30.3509 -292.677 27.4311 -289.782 24.4071 -286.909C20.837 -283.511 17.4449 -280.051 14.1893 -276.374C12.8933 -274.943 11.5587 -273.543 10.1993 -272.167C2.026 -263.857 -4.80367 -254.694 -11.714 -245.405C-12.294 -244.632 -12.8739 -243.859 -13.4714 -243.062C-23.2093 -230.057 -32.1855 -216.646 -40.8116 -202.936C-41.4766 -201.885 -41.4766 -201.885 -42.155 -200.813C-57.4355 -176.443 -68.327 -149.329 -76.87 -122.161C-77.237 -120.999 -77.6039 -119.836 -77.9819 -118.639C-80.4878 -110.444 -82.3255 -102.257 -83.9563 -93.8689C-84.2488 -92.461 -84.5425 -91.0534 -84.8382 -89.6461C-86.3665 -81.8496 -87.4201 -74.083 -88.1579 -66.1797C-88.2421 -65.2982 -88.3262 -64.4167 -88.4129 -63.5085C-89.517 -50.63 -88.8652 -38.0792 -87.3427 -25.2794C-87.2533 -24.5256 -87.164 -23.7718 -87.072 -22.9952C-80.3964 32.4096 -56.1355 83.4467 -19.2319 126.377C-17.1639 128.793 -15.1328 131.238 -13.0937 133.677C-9.05777 138.423 -4.79242 142.927 -0.449685 147.412C1.64895 149.582 3.66058 151.812 5.66457 154.063C9.40707 158.193 13.4589 161.928 17.6344 165.649C18.3834 166.321 19.1325 166.993 19.9042 167.685C22.07 169.625 24.2412 171.559 26.4138 173.491C26.969 173.988 27.5242 174.484 28.0962 174.996C34.6779 180.88 41.4933 186.408 48.4879 191.83C49.769 192.838 51.0493 193.848 52.3289 194.858C66.5134 206.131 66.5134 206.131 81.6616 216.141C86.7632 219.189 91.5334 222.575 96.3358 226.034C107.509 234.055 119.101 241.436 130.764 248.777C131.964 249.533 131.964 249.533 133.187 250.304C138.047 253.362 142.928 256.386 147.821 259.394C148.521 259.825 149.22 260.257 149.941 260.701C189.229 284.892 229.566 307.688 271.031 328.246C273.493 329.477 275.949 330.717 278.402 331.966C290.638 338.194 302.945 344.275 315.32 350.243C316.814 350.964 316.814 350.964 318.338 351.699C335.23 359.829 352.297 367.449 369.631 374.661C374.983 376.888 380.302 379.182 385.616 381.492C414.21 393.881 443.305 405.09 472.605 415.83C474.521 416.533 476.437 417.238 478.351 417.945C495.867 424.425 495.867 424.425 513.87 429.453C518.255 430.527 522.472 431.97 526.737 433.417C545.798 439.871 565.28 444.656 584.861 449.407C590.777 450.843 596.681 452.318 602.577 453.829C653.144 466.687 705.69 474.287 757.703 479.248C760.037 479.475 762.37 479.713 764.703 479.953C776.003 481.099 787.279 481.915 798.629 482.415C799.494 482.455 800.36 482.494 801.252 482.534C834.392 484.015 867.61 484.337 900.784 484.406C901.477 484.409 902.171 484.411 902.885 484.414C909.838 484.434 916.659 484.242 923.573 483.557C929.445 483.071 935.343 483.035 941.232 482.898C968.54 482.154 995.309 479.95 1022.33 476.207C1028.97 475.291 1035.61 474.451 1042.26 473.608C1049.61 472.673 1056.96 471.73 1064.3 470.742C1091.84 467.063 1119.34 464.371 1147.17 464.016C1148.41 464 1148.41 464 1149.68 463.984C1180.02 463.621 1209.74 464.304 1239.82 468.477C1242.39 468.828 1244.96 469.151 1247.54 469.468C1295.51 475.563 1344.06 493.113 1380.63 523.968C1383.65 526.516 1386.77 528.933 1389.92 531.339C1394.53 534.954 1398.31 538.721 1402.03 543.162C1402.93 544.194 1403.84 545.224 1404.74 546.254C1421.51 565.569 1432.98 587.231 1439.15 611.692C1440 611.757 1440 611.757 1440.87 611.823C1446.91 612.29 1452.94 612.798 1458.97 613.334C1461 613.514 1463.04 613.689 1465.07 613.858C1495.3 616.432 1527.35 621.919 1555.54 632.926C1556.85 633.433 1556.85 633.433 1558.18 633.951C1584.09 644.193 1609.48 658.912 1624.77 682.151C1625.3 682.901 1625.82 683.652 1626.36 684.425C1635.02 697.344 1638.97 713.234 1639.82 728.481C1639.87 729.171 1639.91 729.862 1639.95 730.573C1641.2 774.318 1619.3 816.016 1595.55 851.905C1594.87 852.939 1594.18 853.973 1593.48 855.039C1584.77 868.084 1584.77 868.084 1581.63 871.33C1580.97 871.33 1580.31 871.33 1579.62 871.33C1579.38 870.592 1579.13 869.855 1578.88 869.094C1569.77 843.998 1548.82 824.222 1524.47 812.464C1501.74 801.94 1479.08 798.704 1454.01 798.639C1452.73 798.633 1451.45 798.628 1450.14 798.622C1427.46 798.789 1404.2 804.534 1383.97 814.383C1382.94 814.872 1382.94 814.872 1381.89 815.371C1371.34 820.412 1361.47 826.172 1351.86 832.722C1350.81 833.438 1349.75 834.153 1348.67 834.89C1341.2 840.123 1334.44 845.895 1327.78 852.026C1326.85 852.871 1325.92 853.716 1324.96 854.586C1317.78 861.265 1311.67 868.469 1305.7 876.156C1305.29 876.682 1304.88 877.207 1304.46 877.749C1281.42 907.267 1263.27 941.495 1254.53 977.502C1254.21 978.821 1253.88 980.141 1253.55 981.46C1249.22 999.067 1245.67 1016.39 1244.17 1034.45C1243.71 1039.74 1242.91 1044.92 1242.04 1050.15C1239.98 1062.68 1239.2 1075.3 1238.32 1087.94C1237.36 1101.59 1235.81 1114.96 1233.38 1128.44C1232.44 1133.73 1231.83 1139.02 1231.27 1144.36C1226.68 1181.99 1211.16 1217.75 1192.32 1250.65C1191.86 1251.47 1191.4 1252.28 1190.93 1253.11C1180.48 1271.42 1168.4 1288.14 1154.94 1304.49C1152.04 1308.05 1149.2 1311.66 1146.36 1315.26C1138.27 1325.45 1129.84 1335.16 1120.72 1344.51C1118.96 1346.33 1117.22 1348.17 1115.48 1350.01C1114.89 1350.63 1114.3 1351.26 1113.68 1351.9C1112.53 1353.11 1111.38 1354.33 1110.24 1355.55C1108.88 1356.98 1107.46 1358.36 1106.03 1359.72C1105.37 1359.72 1104.71 1359.72 1104.03 1359.72C1103.98 1358.98 1103.93 1358.24 1103.88 1357.47C1101.54 1324.24 1095.96 1291.43 1085.07 1259.76C1083.82 1256.03 1082.68 1252.28 1081.55 1248.52C1078.94 1239.86 1076.02 1231.31 1072.99 1222.78C1072.71 1222 1072.43 1221.22 1072.14 1220.42C1047.13 1150.3 1009.33 1085.63 965.564 1024.8C964.939 1023.93 964.314 1023.05 963.67 1022.16C955.703 1011.07 947.524 1000.14 939.152 989.328C937.507 987.203 935.867 985.075 934.228 982.946C928.478 975.501 922.605 968.196 916.399 961.094C915.773 960.377 915.773 960.377 915.135 959.645C912.375 956.485 909.602 953.337 906.821 950.196C905.838 949.084 904.856 947.972 903.875 946.859C898.56 940.829 893.206 934.856 887.615 929.061C884.124 925.438 880.797 921.752 877.581 917.901C874.311 913.993 870.876 910.435 867.136 906.944C864.587 904.497 862.271 901.883 859.924 899.257C857.725 896.872 855.377 894.658 853.011 892.427C851.323 890.775 849.768 889.076 848.215 887.307C843.059 881.608 837.456 876.328 831.9 870.995C830.715 869.853 829.529 868.712 828.344 867.571C825.87 865.19 823.395 862.811 820.919 860.433C817.763 857.403 814.613 854.369 811.463 851.334C809.019 848.979 806.573 846.627 804.126 844.276C802.965 843.159 801.803 842.041 800.643 840.923C793.6 834.137 786.451 827.597 778.75 821.502C775.145 818.573 771.898 815.362 768.614 812.106C762.699 806.282 756.464 801.104 749.84 796.045C742.928 790.688 736.164 785.19 729.469 779.585C720.593 772.156 711.605 764.87 702.478 757.727C699.973 755.744 697.494 753.735 695.025 751.71C677.711 737.514 659.495 724.61 641.034 711.835C636.122 708.428 631.26 704.964 626.426 701.455C613.64 692.18 600.595 683.247 587.495 674.388C584.71 672.505 581.933 670.612 579.162 668.71C563.638 658.069 547.816 647.924 531.562 638.344C526.488 635.347 521.487 632.278 516.558 629.065C509.825 624.682 502.936 620.564 496.012 616.468C490.268 613.069 484.558 609.625 478.869 606.142C459.09 594.07 438.955 582.515 418.73 571.153C417.735 570.594 416.741 570.035 415.716 569.459C391.592 555.92 367.114 543.011 342.526 530.272C339.358 528.63 336.193 526.981 333.028 525.333C319.589 518.351 306.072 511.524 292.494 504.796C291.381 504.243 291.381 504.243 290.246 503.678C281.507 499.338 272.713 495.138 263.827 491.083C249.043 484.33 234.412 477.282 219.774 470.24C216.58 468.704 213.385 467.17 210.188 465.64C192.945 457.381 175.776 449.064 158.948 440.04C156.072 438.505 153.176 437.01 150.275 435.52C137.331 428.853 124.603 421.889 111.96 414.711C108.438 412.718 104.908 410.741 101.376 408.766C88.3861 401.496 75.4904 394.13 62.8525 386.302C60.3937 384.787 57.9227 383.292 55.4487 381.801C22.9727 362.174 -8.56163 340.96 -38.8049 318.271C-39.9585 317.411 -41.1121 316.552 -42.2657 315.692C-49.2503 310.469 -56.0704 305.095 -62.7955 299.567C-65.6708 297.208 -68.5989 294.916 -71.5397 292.633C-76.3159 288.895 -80.874 284.964 -85.4065 280.956C-87.5955 279.028 -89.806 277.133 -92.0459 275.259C-104.393 264.921 -116.518 254.329 -127.959 243.065C-129.932 241.02 -129.932 241.02 -132.118 240.09C-132.118 239.453 -132.118 238.816 -132.118 238.16C-132.983 237.816 -132.983 237.816 -133.866 237.466C-136.623 235.961 -138.208 234.199 -140.27 231.886C-143.454 228.386 -146.715 225.055 -150.178 221.812C-154.465 217.739 -158.263 213.436 -162.019 208.91C-164.093 206.464 -166.255 204.154 -168.49 201.844C-174.36 195.645 -179.504 188.913 -184.743 182.22C-186.124 180.47 -187.524 178.737 -188.941 177.013C-222.428 136.099 -249.204 86.5251 -260.549 35.4678C-260.769 34.5001 -260.989 33.5324 -261.215 32.5354C-266.556 8.90999 -268.175 -13.7525 -267.572 -37.8873C-267.552 -38.8458 -267.532 -39.8043 -267.512 -40.7919C-267.128 -53.9071 -264.332 -66.4673 -261.301 -79.2099C-261.021 -80.3942 -261.021 -80.3942 -260.735 -81.6024C-253.47 -111.984 -240.837 -139.965 -223.424 -166.259C-222.97 -166.946 -222.515 -167.633 -222.047 -168.341C-216.919 -176.035 -211.501 -183.401 -205.363 -190.389C-204.724 -191.125 -204.724 -191.125 -204.072 -191.875C-193.258 -204.309 -181.758 -216.063 -169.869 -227.549C-169.13 -228.265 -168.391 -228.98 -167.629 -229.718C-154.567 -242.246 -140.06 -253.346 -124.927 -263.466C-122.978 -264.783 -121.051 -266.125 -119.125 -267.473C-108.444 -274.91 -97.3792 -281.533 -85.963 -287.874C-85.2012 -288.299 -84.4394 -288.725 -83.6545 -289.163C-49.7968 -307.987 -13.157 -321.493 24.1563 -332.454C25.2895 -332.789 26.4228 -333.123 27.5903 -333.468C71.6223 -346.429 71.6223 -346.429 88.6225 -345.786ZM1186.3 574.049C1187.6 573.979 1188.9 573.909 1190.24 573.838C1195.61 573.556 1200.99 573.313 1206.37 573.084C1207.58 573.029 1208.8 572.974 1210.04 572.918C1220.64 572.66 1232.96 573.319 1241.49 579.84C1243.48 582.065 1243.48 582.065 1245.25 584.545C1246.27 585.94 1246.27 585.94 1247.31 587.362C1248.03 588.383 1248.76 589.405 1249.52 590.457C1263.7 610.249 1283.15 627.415 1308.48 632.326C1336.47 636.793 1362.98 626.788 1385.51 611.552C1386.33 610.961 1387.14 610.37 1387.98 609.761C1387.98 609.443 1387.98 609.124 1387.98 608.796C1386.18 608.479 1386.18 608.479 1384.34 608.155C1374.35 606.317 1365.23 604.026 1355.92 600.019C1353.63 599.045 1351.34 598.113 1349.04 597.18C1333.5 590.785 1320.4 582.869 1307.08 572.903C1299.26 567.071 1291.92 562.068 1282.63 558.606C1281.99 558.366 1281.36 558.127 1280.7 557.88C1254.69 548.386 1206.06 553.248 1186.3 574.049Z" fill="#AFD5EB"/>
<path id="Vector_2" d="M-339.8 122.331C-338.316 125 -337.333 127.512 -336.555 130.441C-332.316 145.518 -325.861 159.131 -318.518 172.978C-316.85 176.14 -315.229 179.32 -313.618 182.509C-299.003 211.024 -278.99 237.147 -257.962 261.57C-255.873 264.005 -253.818 266.466 -251.755 268.921C-248.153 273.153 -244.404 277.233 -240.577 281.276C-238.715 283.25 -236.887 285.245 -235.074 287.26C-226.268 296.954 -217.052 306.2 -207.576 315.285C-205.651 317.132 -203.731 318.984 -201.812 320.836C-195.801 326.622 -189.765 332.279 -183.275 337.571C-181.493 339.134 -179.716 340.702 -177.945 342.276C-173.396 346.265 -168.73 350.066 -163.941 353.783C-162.156 355.168 -160.381 356.565 -158.618 357.976C-154.454 361.305 -150.253 364.554 -145.9 367.65C-145.164 368.174 -144.428 368.697 -143.67 369.237C-142.204 370.274 -140.733 371.307 -139.257 372.332C-137.506 373.57 -135.803 374.869 -134.11 376.179C-134.11 376.816 -134.11 377.453 -134.11 378.109C-133.391 378.342 -132.672 378.575 -131.931 378.814C-128.678 380.219 -126.511 381.947 -123.826 384.202C-104.943 399.71 -84.3089 413.101 -63.6021 426.23C-61.8214 427.364 -60.0487 428.509 -58.2776 429.657C-50.5394 434.667 -42.7079 439.511 -34.8029 444.273C-30.6626 446.775 -26.5698 449.318 -22.5403 451.981C-5.61514 463.148 12.6201 472.583 30.4418 482.351C31.5805 482.977 31.5805 482.977 32.7423 483.615C43.5509 489.551 54.5172 495.168 65.5596 500.69C67.0397 501.43 67.0397 501.43 68.5496 502.186C74.7318 505.278 80.9183 508.363 87.1077 511.441C90.9093 513.333 94.7075 515.231 98.5038 517.133C113.573 524.679 128.693 532.044 144.07 538.997C146.832 540.263 149.573 541.563 152.312 542.876C170.293 551.442 188.791 558.744 207.323 566.123C214.992 569.18 222.619 572.321 230.237 575.492C238.529 578.937 246.857 582.256 255.258 585.446C265.706 589.414 276.043 593.608 286.363 597.873C287.092 598.174 287.822 598.476 288.573 598.786C292.125 600.255 295.673 601.728 299.219 603.209C301.912 604.334 304.612 605.442 307.319 606.536C315.486 609.863 323.322 613.596 331.141 617.623C339.14 621.726 347.306 625.443 355.518 629.133C378.86 639.634 401.748 650.744 424.019 663.236C426.99 664.895 429.972 666.534 432.956 668.17C448.489 676.703 463.783 685.566 478.946 694.695C479.887 695.26 480.828 695.826 481.797 696.409C510.046 713.436 537.566 731.566 564.829 750.011C567.163 751.588 569.501 753.159 571.84 754.729C579.955 760.189 587.932 765.766 595.721 771.65C597.438 772.948 599.16 774.239 600.882 775.53C610.972 783.107 620.868 790.889 630.626 798.857C635.865 803.131 641.175 807.318 646.508 811.484C647.798 812.492 649.087 813.499 650.377 814.507C651.057 815.039 651.737 815.57 652.437 816.118C653.837 817.212 655.236 818.306 656.635 819.401C659.597 821.719 662.563 824.032 665.549 826.324C672.121 831.396 678.275 836.821 684.413 842.366C686.864 844.577 689.356 846.725 691.91 848.825C695.739 851.991 699.226 855.445 702.716 858.952C705.278 861.394 708.062 863.522 710.876 865.689C716.803 870.309 722.177 875.335 727.53 880.556C728.426 881.419 729.322 882.281 730.246 883.17C734.098 886.901 737.882 890.641 741.436 894.638C745.12 898.762 749.202 902.404 753.366 906.073C758.302 910.422 762.938 914.823 767.287 919.719C769.657 922.33 772.224 924.719 774.813 927.127C778.523 930.634 781.985 934.179 785.223 938.106C789.239 942.97 793.574 947.475 798.016 951.98C799.072 953.052 799.072 953.052 800.148 954.145C801.51 955.526 802.872 956.907 804.234 958.287C810.548 964.698 816.392 971.314 822.008 978.292C825.473 982.575 829.147 986.614 832.962 990.615C840.291 998.439 846.929 1006.87 853.662 1015.17C855.295 1017.18 856.935 1019.18 858.575 1021.18C865.079 1029.15 871.41 1037.21 877.533 1045.45C880.54 1049.49 883.594 1053.49 886.727 1057.45C894.702 1067.52 902.051 1077.99 909.39 1088.5C909.998 1089.36 910.607 1090.23 911.234 1091.13C922.432 1107.11 933.225 1123.3 943.449 1139.88C944.827 1142.1 946.231 1144.3 947.631 1146.51C962.797 1170.54 977.012 1195.52 989.742 1220.83C990.38 1222.1 991.022 1223.36 991.669 1224.62C997.399 1235.79 1002.45 1247.21 1007.34 1258.74C1010.08 1265.19 1012.91 1271.58 1015.93 1277.92C1024.33 1295.85 1030.23 1314.62 1036.13 1333.42C1036.58 1334.85 1036.58 1334.85 1037.05 1336.32C1040.25 1346.44 1043.17 1356.53 1045.25 1366.92C1045.41 1367.74 1045.58 1368.56 1045.74 1369.4C1046.96 1375.87 1047.31 1382.1 1046.85 1388.67C1045.01 1386.02 1044.15 1384.04 1043.12 1381.06C1040.76 1374.68 1037.61 1368.82 1034.31 1362.85C1033.68 1361.71 1033.06 1360.57 1032.44 1359.42C1031.17 1357.1 1029.9 1354.78 1028.62 1352.46C1026.92 1349.34 1025.22 1346.21 1023.54 1343.08C1017.89 1332.57 1012.11 1322.15 1006.07 1311.85C1004.56 1309.28 1003.07 1306.7 1001.57 1304.13C991.158 1286.23 980.382 1269.01 967.585 1252.58C967.044 1251.88 966.503 1251.19 965.946 1250.47C954.632 1235.97 942.726 1221.94 930.46 1208.18C929.948 1207.6 929.436 1207.03 928.909 1206.44C921.814 1198.47 914.585 1190.64 907.132 1182.98C905.814 1181.61 904.509 1180.23 903.211 1178.83C895.125 1170.22 886.63 1162.01 878.086 1153.81C875.58 1151.41 873.079 1148.99 870.578 1146.58C868.963 1145.03 867.347 1143.48 865.732 1141.92C864.996 1141.21 864.26 1140.5 863.501 1139.77C859.461 1135.9 855.333 1132.19 851.004 1128.62C847.863 1126 844.87 1123.22 841.851 1120.47C836.638 1115.75 831.314 1111.27 825.718 1106.97C822.915 1104.76 820.249 1102.44 817.582 1100.08C812.234 1095.35 806.677 1090.95 801.026 1086.57C799.792 1085.59 798.559 1084.62 797.326 1083.64C789.361 1077.34 781.268 1071.27 772.991 1065.36C769.513 1062.87 766.073 1060.34 762.641 1057.8C753.887 1051.31 744.997 1045.02 736.001 1038.85C734.577 1037.87 733.155 1036.89 731.734 1035.91C706.148 1018.25 679.616 1001.75 652.913 985.697C650.436 984.203 647.969 982.696 645.501 981.189C634.375 974.432 623.025 968.249 611.418 962.292C605.557 959.277 599.786 956.124 594.02 952.946C584.415 947.669 574.647 942.739 564.805 937.887C558.697 934.869 552.672 931.773 546.736 928.454C540.195 924.814 533.425 921.832 526.513 918.907C521.409 916.746 516.393 914.488 511.43 912.045C502.265 907.549 492.903 903.466 483.551 899.343C473.907 895.089 464.288 890.79 454.736 886.347C436.091 877.707 417.133 870.158 397.818 863.016C393.544 861.431 389.305 859.785 385.084 858.07C380.309 856.133 375.495 854.449 370.583 852.867C362.121 850.084 353.807 846.995 345.499 843.818C335.169 839.877 324.804 836.179 314.292 832.721C310.975 831.616 307.669 830.482 304.364 829.344C284.418 822.483 264.359 815.979 244.239 809.603C233.861 806.306 223.541 802.922 213.303 799.242C207.808 797.267 202.278 795.456 196.687 793.748C188.343 791.139 180.236 788.125 172.166 784.817C166.832 782.647 161.444 780.729 155.968 778.919C145.881 775.559 136.117 771.526 126.326 767.446C124.455 766.671 122.585 765.895 120.714 765.12C107.543 759.646 94.4493 754.031 81.4807 748.124C78.55 746.791 75.6121 745.474 72.6733 744.157C60.2752 738.57 48.2334 732.504 36.268 726.108C33.413 724.595 30.5433 723.112 27.6669 721.637C12.2618 713.732 -2.77291 705.304 -17.7197 696.625C-18.8037 695.999 -19.8878 695.373 -21.0046 694.728C-60.7138 671.769 -99.6903 646.017 -133.765 615.707C-135.879 613.829 -138.021 611.995 -140.193 610.179C-144.907 606.233 -149.544 602.208 -154.177 598.175C-155.05 597.418 -155.923 596.661 -156.823 595.882C-164.308 589.346 -171.553 582.605 -178.701 575.728C-180.55 573.951 -182.408 572.181 -184.267 570.412C-185.447 569.279 -186.627 568.146 -187.806 567.013C-188.361 566.486 -188.915 565.96 -189.487 565.417C-193.309 561.718 -193.309 561.718 -193.309 559.567C-193.971 559.567 -194.633 559.567 -195.315 559.567C-196.777 558.009 -198.165 556.388 -199.517 554.741C-202.257 551.444 -205 548.18 -207.92 545.028C-211.141 541.526 -214.157 537.891 -217.17 534.223C-219.159 531.858 -221.207 529.554 -223.282 527.259C-229.784 520.037 -235.459 512.364 -241.103 504.51C-243.625 501.032 -246.251 497.628 -248.874 494.22C-253.511 487.9 -253.511 487.9 -253.511 485.246C-254.173 485.246 -254.835 485.246 -255.517 485.246C-256.659 483.796 -256.659 483.796 -257.924 481.736C-258.398 480.97 -258.873 480.204 -259.362 479.415C-259.873 478.572 -260.384 477.729 -260.91 476.861C-261.713 475.553 -261.713 475.553 -262.531 474.219C-264.215 471.465 -265.887 468.704 -267.558 465.942C-268.064 465.112 -268.569 464.283 -269.091 463.428C-282.85 440.835 -294.964 417.609 -305.686 393.552C-306.147 392.517 -306.609 391.482 -307.085 390.416C-314.146 374.427 -319.753 358.114 -324.749 341.432C-324.961 340.728 -325.173 340.025 -325.391 339.301C-330.88 321.03 -335.834 302.977 -338.435 284.086C-338.87 281.084 -339.418 278.109 -339.981 275.127C-342.159 263.52 -343.271 251.783 -344.474 240.053C-344.701 238.157 -344.984 236.266 -345.324 234.386C-345.894 230.954 -346.172 227.539 -346.377 224.073C-346.419 223.366 -346.461 222.658 -346.505 221.929C-346.943 213.853 -346.975 205.779 -346.954 197.694C-346.949 195.143 -346.954 192.592 -346.961 190.041C-346.97 174.259 -345.85 158.829 -343.656 143.192C-343.305 140.684 -342.965 138.175 -342.626 135.665C-342.406 134.067 -342.185 132.469 -341.963 130.871C-341.862 130.122 -341.761 129.374 -341.656 128.602C-340.919 123.408 -340.919 123.408 -339.8 122.331Z" fill="#AF2838"/>
<path id="Vector_3" d="M-370.896 489.118C-367.819 490.598 -367.347 493.475 -366.13 496.417C-358.23 514.539 -346.579 531.077 -334.775 547.029C-334.238 547.763 -333.702 548.497 -333.149 549.253C-326.362 558.53 -319.271 567.475 -311.764 576.223C-308.892 579.579 -306.145 583.015 -303.42 586.482C-299.103 591.938 -294.489 597.037 -289.624 602.046C-288.807 602.887 -288.807 602.887 -287.975 603.744C-285.522 606.27 -283.069 608.795 -280.613 611.318C-277.105 614.926 -273.667 618.577 -270.305 622.311C-260.695 632.921 -250.576 642.766 -239.142 651.573C-234.389 655.234 -229.998 659.175 -225.596 663.215C-219.629 668.674 -213.489 673.688 -206.952 678.496C-203.664 680.92 -200.48 683.45 -197.302 686.004C-174.271 704.508 -149.63 721.111 -124.068 736.208C-122.743 736.995 -122.743 736.995 -121.39 737.798C-92.4059 754.978 -62.8336 770.856 -32.574 785.847C-30.8116 786.72 -29.0499 787.595 -27.289 788.471C-10.2655 796.93 7.02257 804.595 24.8686 811.313C27.458 812.295 30.0457 813.282 32.633 814.269C33.6061 814.64 33.6061 814.64 34.5988 815.018C41.035 817.48 47.4201 820.056 53.8074 822.632C64.786 827.055 75.799 831.112 87.0743 834.77C90.95 836.056 94.7921 837.427 98.64 838.788C110.209 842.867 121.858 846.52 133.655 849.936C138.93 851.466 144.181 853.054 149.427 854.672C150.946 855.138 152.465 855.604 153.984 856.071C156.192 856.749 158.4 857.429 160.605 858.117C169.402 860.86 178.219 863.226 187.21 865.311C200.934 868.519 214.343 872.606 227.782 876.763C230.45 877.587 233.12 878.406 235.789 879.225C252.918 884.479 270.019 889.809 287.044 895.369C290.6 896.522 294.164 897.651 297.729 898.777C335.155 910.608 371.586 924.574 407.969 939.055C415.513 942.056 423.072 945.01 430.667 947.889C440.558 951.66 450.23 955.85 459.89 960.135C460.951 960.604 462.012 961.073 463.105 961.557C478.762 968.489 494.341 975.566 509.86 982.778C513.231 984.34 516.608 985.891 519.986 987.439C532.374 993.127 544.673 998.914 556.754 1005.18C559.464 1006.59 562.181 1007.98 564.898 1009.37C583.965 1019.19 602.629 1029.58 620.946 1040.64C625.448 1043.34 629.973 1045.91 634.661 1048.3C648.229 1055.22 660.792 1063.72 673.503 1071.99C678.851 1075.46 684.227 1078.9 689.613 1082.32C703.929 1091.43 717.934 1100.83 731.262 1111.24C735.687 1114.69 740.205 1118 744.783 1121.26C751.004 1125.7 757.054 1130.31 763.043 1135.04C767.34 1138.43 771.686 1141.75 776.076 1145.03C786.163 1152.61 795.768 1160.5 804.715 1169.32C806.926 1171.39 809.187 1173.2 811.632 1175.01C823.746 1184.07 836.217 1194.99 845.872 1206.5C847.959 1208.89 850.121 1210.71 852.637 1212.65C855.003 1214.65 856.953 1216.93 858.99 1219.23C861.942 1222.48 865.005 1225.62 868.072 1228.76C887.725 1248.96 905.144 1270.44 921.863 1292.94C923.46 1295.08 925.074 1297.2 926.694 1299.32C953.944 1335.07 978.289 1374.71 994.722 1416.19C996.458 1420.53 998.273 1424.84 1000.08 1429.16C1001.03 1431.45 1001.98 1433.73 1002.93 1436.02C1003.58 1437.58 1004.26 1439.14 1004.94 1440.69C1005.72 1442.73 1005.72 1442.73 1005.72 1445.63C1005.06 1445.63 1004.4 1445.63 1003.71 1445.63C1002.52 1444.19 1001.41 1442.69 1000.33 1441.17C992.992 1431.22 984.422 1422.23 975.859 1413.25C973.861 1411.14 971.911 1409 969.976 1406.84C966.952 1403.49 963.72 1400.38 960.428 1397.27C958.74 1395.61 957.196 1393.92 955.678 1392.12C953.805 1389.61 953.805 1389.61 951.539 1388.68C951.539 1388.05 951.539 1387.41 951.539 1386.75C950.877 1386.75 950.215 1386.75 949.532 1386.75C949.532 1386.12 949.532 1385.48 949.532 1384.82C948.87 1384.82 948.208 1384.82 947.526 1384.82C947.526 1384.19 947.526 1383.55 947.526 1382.89C946.532 1382.57 945.539 1382.25 944.515 1381.93C942.967 1380.41 942.967 1380.41 941.317 1378.49C935.246 1371.62 928.523 1365.61 921.438 1359.73C911.758 1351.62 911.758 1351.62 908.457 1347.66C905.245 1343.9 901.403 1341.04 897.459 1338.01C894.144 1335.44 890.919 1332.79 887.7 1330.11C874.439 1319.11 860.8 1308.54 847.189 1297.95C846.273 1297.24 845.358 1296.53 844.414 1295.79C834.981 1288.49 825.416 1281.4 815.521 1274.68C811.68 1272.07 807.918 1269.37 804.182 1266.62C797.883 1261.99 791.508 1257.71 784.74 1253.75C777.965 1249.76 771.381 1245.51 764.788 1241.25C753.73 1234.12 742.573 1227.16 731.306 1220.34C728.906 1218.88 726.521 1217.4 724.14 1215.91C711.743 1208.2 698.906 1201.35 685.967 1194.52C680.964 1191.86 676.001 1189.13 671.036 1186.41C662.767 1181.9 654.444 1177.49 646.077 1173.14C645.056 1172.61 644.036 1172.08 642.984 1171.53C628.2 1163.89 613.074 1156.91 597.95 1149.91C595.791 1148.92 593.634 1147.91 591.476 1146.91C590.504 1146.46 590.504 1146.46 589.512 1146.01C586.844 1144.77 584.257 1143.49 581.728 1142C578.982 1140.45 576.25 1139.44 573.259 1138.39C566.465 1135.93 559.945 1133.06 553.391 1130.07C545.745 1126.63 538.165 1123.34 530.203 1120.63C525.356 1118.95 520.692 1116.98 516.002 1114.93C498.004 1107.09 479.495 1100.68 460.893 1094.3C460.092 1094.02 459.291 1093.75 458.465 1093.46C447.764 1089.8 437.039 1086.19 426.301 1082.63C422.426 1081.34 418.554 1080.05 414.684 1078.75C388.837 1070.09 363.015 1061.86 336.517 1055.24C334.392 1054.7 332.27 1054.16 330.148 1053.62C316.594 1050.15 302.99 1046.88 289.381 1043.62C286.006 1042.81 282.631 1042 279.256 1041.19C277.053 1040.67 274.849 1040.14 272.646 1039.61C267.623 1038.41 262.602 1037.2 257.586 1035.97C248.468 1033.75 239.367 1031.67 230.119 1029.99C223.937 1028.86 217.808 1027.66 211.71 1026.16C207.665 1025.17 203.737 1024.39 199.58 1023.96C192.789 1023.11 186.251 1021.63 179.64 1019.92C173.396 1018.38 167.16 1017.55 160.778 1016.78C149.264 1015.36 138.032 1013.06 126.727 1010.56C123.475 1009.83 120.219 1009.13 116.963 1008.42C114.855 1007.96 112.748 1007.5 110.641 1007.04C109.686 1006.83 108.732 1006.62 107.749 1006.41C102.412 1005.22 97.18 1003.86 91.959 1002.27C89.4916 1001.6 87.0485 1001.16 84.5179 1000.76C76.982 999.524 69.7 997.414 62.3694 995.364C61.6066 995.152 60.8437 994.94 60.0578 994.722C54.5307 993.185 49.0104 991.627 43.4936 990.056C42.4239 989.752 42.4239 989.752 41.3325 989.441C20.2876 983.444 -0.302416 976.562 -20.7218 968.821C-21.8654 968.389 -21.8654 968.389 -23.0321 967.948C-61.339 953.446 -98.9228 937.07 -133.508 915.424C-136.428 913.606 -139.364 911.812 -142.301 910.02C-168.074 894.282 -192.836 877.714 -215.375 857.824C-218.985 854.732 -222.582 851.674 -226.412 848.835C-227.074 848.298 -227.736 847.76 -228.418 847.206C-228.418 846.569 -228.418 845.932 -228.418 845.276C-229.014 845.017 -229.61 844.757 -230.224 844.49C-232.442 843.34 -233.883 842.185 -235.65 840.473C-236.235 839.909 -236.819 839.345 -237.422 838.764C-238.031 838.166 -238.64 837.567 -239.267 836.951C-240.213 836.03 -240.213 836.03 -241.179 835.091C-244.85 831.497 -248.426 827.856 -251.809 824.008C-253.898 821.668 -256.086 819.425 -258.268 817.165C-263.51 811.629 -268.292 805.813 -273.039 799.883C-274.667 797.865 -276.317 795.865 -277.971 793.868C-335.643 723.956 -369.354 633.835 -372.903 537.378C-372.918 536.459 -372.933 535.54 -372.949 534.593C-373.098 523.848 -372.944 513.125 -372.464 502.389C-372.425 501.498 -372.385 500.607 -372.345 499.69C-372.303 498.863 -372.26 498.037 -372.217 497.186C-372.18 496.464 -372.143 495.742 -372.106 494.998C-371.898 492.959 -371.466 491.089 -370.896 489.118Z" fill="#AFD5EB"/>
</g>
</g>
</g>
<defs>
<filter id="filter0_f_0_60" x="-473.004" y="-445.999" width="2213.01" height="1991.63" filterUnits="userSpaceOnUse" color-interpolation-filters="sRGB">
<feFlood flood-opacity="0" result="BackgroundImageFix"/>
<feBlend mode="normal" in="SourceGraphic" in2="BackgroundImageFix" result="shape"/>
<feGaussianBlur stdDeviation="0" result="effect1_foregroundBlur_0_60"/>
</filter>
<linearGradient id="paint0_linear_0_60" x1="860" y1="80" x2="860" y2="830" gradientUnits="userSpaceOnUse">
<stop stop-color="white"/>
<stop offset="1" stop-color="white" stop-opacity="0"/>
</linearGradient>
</defs>
</svg>
