<svg preserveAspectRatio="none" width="100%" height="100%" overflow="visible" style="display: block;" viewBox="0 0 1496 206" fill="none" xmlns="http://www.w3.org/2000/svg">
<g id="Logo">
<path id="Vector" d="M205 3.03722H250.258L303.979 123.799L357.312 3L402.958 3.03722L403 202H362.804L362.851 69.8416L318.697 170.048H289.629L245.475 69.8416L245.107 201.615L205 201.982V3.03722Z" fill="var(--fill-0, white)"/>
<path id="Vector_2" d="M587.004 3.05013C587.004 3.05013 608.025 3.05807 618.331 3.05013C623.116 3.04635 627.902 3.04119 632.688 3.03275C636.862 3.0254 641.035 3.02067 645.209 3.01904C647.417 3.01809 649.624 3.01586 651.832 3.01048C653.915 3.00545 655.998 3.00396 658.08 3.00505C658.84 3.00485 659.6 3.00342 660.36 3.00057C676.334 2.94374 691.789 7.13151 704.372 17.428C704.562 17.5838 704.753 17.7397 704.95 17.9003C718.072 28.6855 726.689 43.8763 728.947 60.9283C730.528 78.3106 726.381 94.5926 715.236 108.169C715.007 108.437 714.778 108.705 714.542 108.982C714.294 109.273 714.046 109.564 713.791 109.864C707.558 117.02 692.385 126.631 692.385 126.631L753 203H707.504L651.34 133.617H626.641V202.374H587L587.004 3.05013ZM626.641 39.8568C626.641 59.2706 626.641 78.6844 626.641 98.6865C628.948 98.996 628.948 98.996 631.22 99.0943C631.518 99.0939 631.815 99.0934 632.122 99.0929C632.438 99.0905 632.754 99.088 633.08 99.0855C633.421 99.0843 633.762 99.0832 634.114 99.082C635.236 99.0774 636.358 99.0697 637.48 99.0614C637.866 99.0588 638.252 99.0562 638.65 99.0536C640.697 99.0399 642.744 99.0237 644.79 99.0056C646.888 98.9875 648.986 98.9778 651.084 98.9702C652.711 98.9626 654.338 98.9487 655.965 98.9331C656.738 98.9268 657.51 98.9228 658.283 98.9213C667.253 98.8995 674.633 97.1576 681.488 90.9651C687.036 85.1976 689.944 77.1956 689.932 69.2352C689.8 60.6581 686.706 53.3506 680.762 47.2105C680.521 46.9531 680.28 46.6958 680.031 46.4306C676.302 42.7421 670.106 39.8065 664.861 39.8126C664.523 39.8121 664.185 39.8116 663.837 39.811C663.285 39.813 663.285 39.813 662.722 39.815C662.326 39.815 661.93 39.815 661.521 39.8149C660.24 39.8152 658.959 39.818 657.678 39.8209C656.887 39.8214 656.095 39.8218 655.304 39.822C652.371 39.8239 649.438 39.8291 646.505 39.8338C639.95 39.8414 633.395 39.849 626.641 39.8568Z" fill="var(--fill-0, white)"/>
<path id="Vector_3" d="M1350 3L1389.56 3.03473L1389.92 80.4917L1456.5 80.8588V3.03473H1496V202H1456.5L1456.13 118.67L1389.92 118.302L1389.56 202H1350V3Z" fill="var(--fill-0, white)"/>
<path id="Vector_4" d="M1229.03 0.0275673C1230.25 0.0240361 1231.47 0.0126566 1232.69 0.0011062C1240.38 -0.0370962 1247.63 0.914358 1255.07 2.82797C1255.88 3.02805 1256.69 3.2058 1257.5 3.37239C1262.17 4.34027 1266.55 6.03442 1270.96 7.80498C1271.39 7.97437 1271.39 7.97437 1271.82 8.14719C1279.11 11.0925 1285.48 15.3044 1291.84 19.8884C1292.08 20.06 1292.32 20.2316 1292.56 20.4083C1297.25 23.7838 1301.67 27.4864 1305.4 31.9032C1306.02 32.586 1306.65 33.2131 1307.31 33.8498C1308.88 35.4054 1310.17 37.1333 1311.48 38.9061C1311.71 39.2192 1311.95 39.5324 1312.19 39.8551C1314.03 42.3303 1315.7 44.8152 1317.03 47.5982C1317.48 48.4829 1317.48 48.4829 1318.08 49.4261C1321.54 55.0894 1323.81 61.4554 1325.94 67.7186C1326.05 68.0193 1326.15 68.32 1326.26 68.6298C1326.9 70.5737 1328 74.8308 1328 74.8308H1285.89C1285.89 74.8308 1285.58 73.93 1285.25 72.9822C1285.13 72.7408 1285.02 72.4994 1284.9 72.2507C1284.8 72.0168 1284.7 71.7829 1284.6 71.5419C1284.43 71.144 1284.43 71.144 1284.26 70.7381C1284.08 70.3196 1284.08 70.3196 1283.9 69.8927C1277.91 56.2377 1267.1 48.0608 1253.75 42.2244C1253.47 42.1004 1253.19 41.9764 1252.91 41.8486C1250.54 40.8441 1248.19 40.2738 1245.67 39.7986C1245.27 39.7211 1244.86 39.6436 1244.45 39.5637C1232.34 37.2938 1220.21 37.7617 1208.34 41.1259C1207.87 41.2589 1207.87 41.2589 1207.38 41.3945C1198.16 44.0572 1190.35 48.7885 1183.44 55.4063C1183.15 55.674 1182.85 55.9416 1182.55 56.2173C1178.15 60.4087 1174.86 65.4086 1172.08 70.7852C1171.88 71.1581 1171.69 71.531 1171.48 71.9152C1163.38 88.161 1162.86 108.929 1168.38 125.99C1173.62 140.988 1183.57 152.594 1197.4 160.29C1197.87 160.555 1197.87 160.555 1198.35 160.827C1202.71 163.186 1207.49 164.408 1212.3 165.484C1212.54 165.539 1212.78 165.593 1213.03 165.649C1221.31 167.497 1229.54 168.428 1237.98 167.224C1238.44 167.159 1238.9 167.093 1239.37 167.026C1252.6 165.042 1264.27 160.005 1273.89 150.609C1274.13 150.393 1274.36 150.178 1274.6 149.955C1279.31 145.524 1285.98 131.202 1285.98 131.202H1327.36C1327.36 131.202 1326.59 136.445 1325.9 138.535C1325.21 140.624 1324.48 142.695 1323.7 144.75C1323.56 145.141 1323.42 145.532 1323.28 145.935C1321.06 151.863 1317.9 157.572 1314.18 162.692C1314.02 162.914 1313.86 163.135 1313.69 163.363C1309.42 169.241 1304.76 175.357 1299.15 180.031C1298.64 180.457 1298.15 180.899 1297.67 181.353C1284.81 193.47 1267.88 200.49 1250.82 204.069C1250.59 204.119 1250.35 204.168 1250.11 204.22C1243.88 205.506 1237.76 206.024 1231.41 205.995C1230.39 205.991 1229.36 205.995 1228.34 206C1221.68 206.006 1215.14 205.41 1208.59 204.183C1208.34 204.136 1208.08 204.089 1207.82 204.04C1189.99 200.71 1172.81 192.372 1159.27 180.268C1159.08 180.099 1158.88 179.929 1158.69 179.755C1155.12 176.559 1151.72 173.296 1148.75 169.521C1148.42 169.097 1148.08 168.675 1147.75 168.254C1138.33 156.498 1131.24 142.679 1128.14 127.907C1128.04 127.456 1127.94 127.005 1127.84 126.54C1125.33 114.663 1123.86 101.928 1126.11 89.8758C1126.42 88.0345 1126.58 86.1756 1126.76 84.3176C1127.39 79.5881 1128.83 75.0029 1130.35 70.498C1130.63 69.6642 1130.91 68.8285 1131.18 67.9925C1137 50.4816 1147.64 33.5971 1162.56 22.4516C1162.78 22.2827 1163 22.1138 1163.23 21.9399C1182.44 7.24584 1205.03 0.0694477 1229.03 0.0275673Z" fill="var(--fill-0, white)"/>
<path id="Vector_5" d="M68.0058 3L117.347 3.04414L186 202C171.841 202 142.65 202 142.65 202L131.282 166.026L54.2731 166.394L42.5384 202H0L68.0058 3ZM92.4109 47.0934L66.0078 129.319H119.181L92.4109 47.0934Z" fill="var(--fill-0, white)"/>
<path id="Vector_6" d="M439.047 3H559V40.8381H479.14V83.0206H550.548V119.772L479.14 119.727V164.142L559 164.095V202H439L439.047 3Z" fill="var(--fill-0, white)"/>
<path id="Vector_7" d="M988.046 3H1107V40.8381H1027.81V83.0206H1098.62V119.772L1027.81 119.727V164.142L1107 164.095V202H988L988.046 3Z" fill="var(--fill-0, white)"/>
<path id="Vector_8" d="M830 3L966 3.00017V40.4889H917.507V201.633L878.129 202L877.703 40.4889H830L830 3Z" fill="var(--fill-0, white)"/>
<path id="Vector_9" d="M768 3H808V202H768V3Z" fill="var(--fill-0, white)"/>
</g>
</svg>
