<svg preserveAspectRatio="none" width="100%" height="100%" overflow="visible" style="display: block;" viewBox="0 0 822.81 435.324" fill="none" xmlns="http://www.w3.org/2000/svg">
<g id="Mask group">
<mask id="mask0_0_99" style="mask-type:alpha" maskUnits="userSpaceOnUse" x="38" y="38" width="747" height="360">
<path id="Rectangle 20298" d="M38.2702 42.0973C38.2702 39.9837 39.9836 38.2702 42.0972 38.2702H780.713C782.826 38.2702 784.54 39.9836 784.54 42.0972V356.698C784.54 359.56 781.542 361.503 778.92 360.355C755.953 350.297 665.172 316.198 554.636 349.703C426.389 388.576 333.371 397.054 267.892 397.054C143.749 397.054 56.3718 369.18 40.7704 363.84C39.2544 363.321 38.2702 361.897 38.2702 360.295V42.0973Z" fill="url(#paint0_linear_0_99)"/>
</mask>
<g mask="url(#mask0_0_99)">
<g id="Group 5" filter="url(#filter0_f_0_99)">
<path id="Vector" d="M42.3947 -165.416C38.9382 -162.055 35.3401 -158.851 31.5049 -155.893C29.4136 -154.274 27.5248 -152.547 25.6532 -150.699C24.687 -149.768 23.6919 -148.901 22.6552 -148.044C20.2035 -146.012 17.9545 -143.854 15.8454 -141.493C14.5188 -140.01 13.1221 -138.626 11.6755 -137.251C9.96761 -135.625 8.34487 -133.97 6.78746 -132.211C6.16749 -131.527 5.52905 -130.857 4.87876 -130.199C0.968832 -126.223 -2.29833 -121.84 -5.60409 -117.396C-5.88152 -117.027 -6.15894 -116.657 -6.44477 -116.275C-11.1032 -110.054 -15.3972 -103.639 -19.5237 -97.0803C-19.8418 -96.5774 -19.8418 -96.5774 -20.1664 -96.0644C-27.4762 -84.4065 -32.6865 -71.4355 -36.7733 -58.4393C-36.9488 -57.8832 -37.1243 -57.3272 -37.3052 -56.7542C-38.5039 -52.834 -39.3831 -48.9175 -40.1632 -44.9048C-40.3031 -44.2314 -40.4436 -43.558 -40.5851 -42.8848C-41.3162 -39.1551 -41.8202 -35.4397 -42.1731 -31.659C-42.2134 -31.2373 -42.2537 -30.8156 -42.2951 -30.3811C-42.8233 -24.2203 -42.5115 -18.2163 -41.7832 -12.0932C-41.7404 -11.7326 -41.6977 -11.372 -41.6537 -11.0005C-38.4602 15.504 -26.8544 39.919 -9.20048 60.4559C-8.21117 61.6118 -7.23957 62.7813 -6.26407 63.948C-4.3334 66.2183 -2.29295 68.3731 -0.21548 70.5186C0.788461 71.5567 1.75078 72.6232 2.70944 73.7002C4.49977 75.6759 6.43807 77.4629 8.43555 79.2428C8.79387 79.5642 9.15219 79.8856 9.52138 80.2168C10.5574 81.1447 11.5961 82.0698 12.6354 82.9943C12.901 83.2319 13.1666 83.4694 13.4403 83.7142C16.5888 86.5291 19.8491 89.1734 23.1952 91.7672C23.808 92.2495 24.4205 92.7323 25.0326 93.2155C31.8182 98.6082 31.8182 98.6082 39.0648 103.397C41.5052 104.855 43.7872 106.475 46.0846 108.13C51.4295 111.967 56.9748 115.498 62.5541 119.009C63.1281 119.371 63.1281 119.371 63.7136 119.74C66.0384 121.202 68.3732 122.649 70.7139 124.088C71.0487 124.295 71.3834 124.501 71.7283 124.714C90.5224 136.286 109.819 147.191 129.655 157.026C130.833 157.615 132.008 158.208 133.181 158.805C139.034 161.784 144.922 164.694 150.842 167.549C151.557 167.893 151.557 167.893 152.286 168.245C160.366 172.134 168.531 175.779 176.823 179.229C179.383 180.295 181.928 181.392 184.47 182.497C198.149 188.424 212.067 193.786 226.083 198.924C227 199.26 227.916 199.598 228.832 199.935C237.212 203.035 237.212 203.035 245.824 205.441C247.921 205.955 249.939 206.645 251.979 207.337C261.097 210.424 270.417 212.714 279.784 214.986C282.614 215.673 285.438 216.379 288.259 217.102C312.449 223.253 337.586 226.888 362.468 229.262C363.585 229.37 364.701 229.484 365.817 229.599C371.222 230.147 376.616 230.538 382.046 230.777C382.46 230.796 382.874 230.814 383.301 230.834C399.154 231.542 415.045 231.696 430.915 231.729C431.246 231.73 431.578 231.731 431.92 231.733C435.246 231.742 438.509 231.651 441.817 231.323C444.625 231.09 447.447 231.073 450.264 231.008C463.328 230.652 476.134 229.597 489.061 227.807C492.235 227.369 495.414 226.967 498.593 226.563C502.109 226.116 505.624 225.665 509.136 225.193C522.313 223.433 535.468 222.145 548.782 221.975C549.375 221.967 549.375 221.967 549.98 221.96C564.495 221.786 578.711 222.112 593.102 224.109C594.332 224.277 595.563 224.432 596.795 224.583C619.745 227.499 642.966 235.894 660.461 250.655C661.909 251.874 663.401 253.03 664.909 254.181C667.11 255.91 668.919 257.712 670.698 259.837C671.131 260.33 671.564 260.823 671.998 261.316C680.021 270.555 685.507 280.918 688.458 292.62C688.865 292.651 688.865 292.651 689.281 292.682C692.169 292.906 695.054 293.149 697.939 293.405C698.912 293.491 699.885 293.575 700.858 293.656C715.317 294.888 730.651 297.512 744.137 302.778C744.762 303.02 744.762 303.02 745.4 303.268C757.795 308.168 769.938 315.209 777.256 326.326C777.506 326.685 777.757 327.044 778.015 327.414C782.155 333.594 784.048 341.195 784.455 348.489C784.475 348.819 784.495 349.15 784.515 349.49C785.115 370.417 774.635 390.364 763.276 407.533C762.949 408.027 762.622 408.522 762.285 409.031C758.117 415.272 758.117 415.272 756.616 416.825C756.299 416.825 755.983 416.825 755.656 416.825C755.539 416.472 755.421 416.119 755.3 415.755C750.945 403.75 740.922 394.289 729.271 388.665C718.399 383.63 707.559 382.082 695.568 382.051C694.955 382.048 694.343 382.046 693.712 382.043C682.863 382.123 671.74 384.871 662.059 389.583C661.567 389.817 661.567 389.817 661.065 390.055C656.017 392.467 651.296 395.222 646.699 398.356C646.195 398.698 645.692 399.04 645.173 399.393C641.601 401.896 638.366 404.657 635.179 407.59C634.734 407.994 634.288 408.399 633.829 408.815C630.396 412.01 627.472 415.456 624.62 419.134C624.422 419.385 624.225 419.637 624.022 419.896C613.004 434.016 604.322 450.39 600.14 467.615C599.984 468.246 599.828 468.877 599.671 469.509C597.597 477.931 595.899 486.217 595.181 494.859C594.963 497.387 594.581 499.865 594.163 502.368C593.179 508.362 592.807 514.398 592.386 520.448C591.926 526.976 591.182 533.37 590.021 539.819C589.572 542.349 589.279 544.884 589.011 547.437C586.814 565.436 579.39 582.544 570.381 598.285C570.16 598.673 569.94 599.062 569.712 599.462C564.714 608.217 558.934 616.216 552.497 624.041C551.108 625.743 549.752 627.469 548.392 629.192C544.523 634.068 540.489 638.709 536.129 643.183C535.286 644.054 534.453 644.933 533.621 645.814C533.337 646.113 533.054 646.411 532.762 646.719C532.21 647.3 531.66 647.883 531.112 648.467C530.462 649.149 529.784 649.807 529.102 650.46C528.785 650.46 528.468 650.46 528.142 650.46C528.119 650.105 528.095 649.75 528.071 649.384C526.95 633.486 524.281 617.79 519.072 602.642C518.476 600.858 517.932 599.062 517.391 597.262C516.14 593.121 514.744 589.032 513.292 584.952C513.16 584.579 513.027 584.205 512.89 583.82C500.923 550.276 482.841 519.341 461.904 490.24C461.605 489.823 461.306 489.406 460.998 488.977C457.187 483.671 453.274 478.444 449.269 473.272C448.482 472.256 447.698 471.238 446.914 470.22C444.163 466.658 441.353 463.163 438.384 459.766C438.085 459.423 438.085 459.423 437.78 459.073C436.46 457.561 435.133 456.055 433.803 454.552C433.332 454.021 432.863 453.489 432.393 452.956C429.851 450.071 427.29 447.214 424.615 444.442C422.945 442.709 421.353 440.946 419.815 439.103C418.251 437.234 416.607 435.532 414.818 433.862C413.599 432.691 412.491 431.441 411.368 430.184C410.316 429.043 409.193 427.985 408.061 426.917C407.254 426.127 406.51 425.314 405.767 424.468C403.3 421.742 400.62 419.216 397.962 416.664C397.395 416.119 396.828 415.573 396.261 415.026C395.078 413.888 393.894 412.749 392.709 411.612C391.199 410.163 389.692 408.711 388.186 407.259C387.017 406.133 385.846 405.008 384.676 403.883C384.12 403.348 383.565 402.814 383.009 402.279C379.64 399.033 376.22 395.904 372.536 392.988C370.812 391.587 369.258 390.051 367.688 388.493C364.858 385.708 361.875 383.23 358.706 380.81C355.4 378.247 352.164 375.618 348.961 372.936C344.715 369.382 340.416 365.897 336.05 362.48C334.851 361.531 333.665 360.57 332.484 359.601C324.201 352.81 315.487 346.637 306.656 340.526C304.306 338.896 301.98 337.239 299.668 335.561C293.551 331.123 287.311 326.85 281.044 322.612C279.712 321.711 278.383 320.806 277.058 319.896C269.632 314.805 262.063 309.953 254.287 305.37C251.86 303.936 249.467 302.468 247.109 300.931C243.889 298.834 240.593 296.864 237.281 294.904C234.533 293.279 231.801 291.631 229.08 289.965C219.618 284.19 209.986 278.662 200.311 273.227C199.835 272.96 199.359 272.692 198.869 272.416C187.329 265.94 175.619 259.764 163.856 253.67C162.341 252.885 160.827 252.096 159.313 251.307C152.884 247.968 146.418 244.702 139.922 241.483C139.39 241.218 139.39 241.218 138.847 240.948C134.666 238.872 130.459 236.863 126.209 234.923C119.136 231.693 112.137 228.321 105.135 224.952C103.607 224.218 102.078 223.484 100.549 222.752C92.3003 218.801 84.0871 214.822 76.0366 210.505C74.661 209.771 73.2755 209.056 71.8877 208.343C65.6959 205.154 59.607 201.822 53.5586 198.388C51.8741 197.435 50.1854 196.489 48.4958 195.545C42.2816 192.067 36.1126 188.543 30.0669 184.798C28.8907 184.073 27.7086 183.358 26.5251 182.645C10.9893 173.256 -4.09605 163.108 -18.5638 152.254C-19.1156 151.843 -19.6675 151.431 -20.2193 151.02C-23.5606 148.522 -26.8232 145.951 -30.0403 143.306C-31.4158 142.177 -32.8165 141.081 -34.2233 139.989C-36.5082 138.201 -38.6887 136.321 -40.8569 134.403C-41.9041 133.481 -42.9616 132.574 -44.0331 131.678C-49.9395 126.732 -55.74 121.665 -61.2133 116.277C-62.1571 115.298 -62.1571 115.298 -63.2026 114.854C-63.2026 114.549 -63.2026 114.244 -63.2026 113.93C-63.6165 113.766 -63.6165 113.766 -64.0388 113.598C-65.3576 112.878 -66.1158 112.036 -67.1025 110.929C-68.6255 109.255 -70.1854 107.661 -71.8424 106.11C-73.8929 104.161 -75.7101 102.103 -77.5066 99.9376C-78.499 98.7676 -79.5331 97.6628 -80.6021 96.5576C-83.4106 93.592 -85.8709 90.3718 -88.3771 87.1702C-89.038 86.3327 -89.7078 85.5037 -90.3856 84.6789C-106.405 65.1065 -119.214 41.3916 -124.641 16.9669C-124.746 16.504 -124.852 16.0411 -124.96 15.5642C-127.515 4.26228 -128.289 -6.57897 -128.001 -18.1245C-127.991 -18.583 -127.982 -19.0416 -127.972 -19.514C-127.788 -25.788 -126.451 -31.7965 -125.001 -37.8923C-124.867 -38.4589 -124.867 -38.4589 -124.73 -39.0368C-121.255 -53.5708 -115.211 -66.9564 -106.881 -79.5346C-106.664 -79.8633 -106.447 -80.192 -106.223 -80.5306C-103.77 -84.2115 -101.178 -87.7351 -98.2417 -91.0778C-97.9359 -91.4298 -97.9359 -91.4298 -97.6239 -91.7889C-92.4509 -97.7372 -86.9493 -103.36 -81.2621 -108.854C-80.9084 -109.197 -80.5548 -109.539 -80.1904 -109.892C-73.9416 -115.885 -67.0017 -121.195 -59.7628 -126.036C-58.8305 -126.666 -57.9084 -127.308 -56.9871 -127.953C-51.8775 -131.511 -46.5844 -134.679 -41.1232 -137.713C-40.7587 -137.916 -40.3943 -138.12 -40.0188 -138.329C-23.822 -147.334 -6.29436 -153.795 11.5555 -159.039C12.0976 -159.199 12.6397 -159.359 13.1982 -159.524C34.2621 -165.724 34.2621 -165.724 42.3947 -165.416ZM567.501 274.612C568.122 274.579 568.742 274.546 569.382 274.511C571.954 274.377 574.527 274.26 577.101 274.15C577.681 274.124 578.26 274.098 578.858 274.071C583.925 273.948 589.821 274.263 593.9 277.383C594.853 278.447 594.853 278.447 595.7 279.633C596.187 280.3 596.187 280.3 596.683 280.981C597.032 281.469 597.381 281.958 597.74 282.462C604.524 291.93 613.828 300.141 625.945 302.491C639.339 304.628 652.019 299.841 662.799 292.553C663.188 292.27 663.578 291.987 663.979 291.696C663.979 291.544 663.979 291.391 663.979 291.234C663.116 291.083 663.116 291.083 662.237 290.928C657.458 290.049 653.095 288.953 648.64 287.036C647.548 286.57 646.449 286.124 645.349 285.677C637.918 282.619 631.649 278.832 625.28 274.064C621.537 271.274 618.027 268.881 613.58 267.224C613.276 267.11 612.973 266.995 612.66 266.877C600.217 262.336 576.951 264.662 567.501 274.612Z" fill="var(--fill-0, #AFD5EB)"/>
<path id="Vector_2" d="M-162.554 58.5206C-161.844 59.7973 -161.374 60.9989 -161.002 62.4002C-158.974 69.6123 -155.886 76.1245 -152.373 82.7485C-151.576 84.2614 -150.8 85.7825 -150.029 87.3084C-143.038 100.949 -133.464 113.446 -123.405 125.129C-122.405 126.294 -121.422 127.471 -120.435 128.646C-118.712 130.67 -116.919 132.622 -115.088 134.556C-114.197 135.5 -113.323 136.455 -112.455 137.419C-108.243 142.056 -103.834 146.479 -99.301 150.825C-98.3801 151.709 -97.4617 152.595 -96.5436 153.481C-93.6681 156.249 -90.7807 158.955 -87.676 161.486C-86.8237 162.234 -85.9734 162.984 -85.1261 163.737C-82.9502 165.646 -80.7182 167.464 -78.4268 169.242C-77.5731 169.905 -76.7241 170.573 -75.8807 171.248C-73.8887 172.84 -71.8792 174.394 -69.7964 175.876C-69.4445 176.126 -69.0926 176.376 -68.7299 176.634C-68.0285 177.131 -67.3248 177.625 -66.619 178.115C-65.7813 178.707 -64.9665 179.329 -64.1566 179.956C-64.1566 180.26 -64.1566 180.565 -64.1566 180.879C-63.8126 180.99 -63.4686 181.102 -63.1141 181.216C-61.5582 181.888 -60.5214 182.715 -59.2367 183.794C-50.2036 191.212 -40.3328 197.618 -30.4271 203.899C-29.5753 204.441 -28.7272 204.989 -27.88 205.538C-24.1782 207.935 -20.4318 210.252 -16.6502 212.53C-14.6696 213.727 -12.7117 214.944 -10.7841 216.218C-2.68746 221.56 6.03588 226.073 14.5614 230.746C15.1061 231.045 15.1061 231.045 15.6619 231.351C20.8325 234.19 26.0785 236.877 31.361 239.519C32.069 239.873 32.069 239.873 32.7913 240.234C35.7488 241.714 38.7082 243.189 41.6691 244.662C43.4877 245.567 45.3047 246.475 47.1207 247.385C54.3294 250.995 61.5624 254.518 68.9186 257.844C70.2399 258.45 71.5512 259.072 72.8612 259.7C81.4633 263.798 90.3122 267.291 99.1776 270.82C102.846 272.283 106.495 273.785 110.139 275.303C114.106 276.95 118.09 278.538 122.109 280.064C127.107 281.962 132.052 283.969 136.988 286.009C137.337 286.153 137.686 286.297 138.046 286.446C139.745 287.148 141.442 287.853 143.138 288.562C144.427 289.1 145.718 289.63 147.013 290.153C150.92 291.745 154.669 293.531 158.409 295.457C162.236 297.42 166.142 299.198 170.071 300.963C181.237 305.987 192.186 311.301 202.84 317.278C204.261 318.071 205.688 318.855 207.115 319.638C214.546 323.72 221.862 327.96 229.116 332.326C229.566 332.597 230.016 332.868 230.48 333.146C243.993 341.292 257.158 349.965 270.201 358.789C271.317 359.543 272.435 360.295 273.554 361.046C277.436 363.658 281.252 366.325 284.978 369.14C285.8 369.761 286.624 370.379 287.448 370.996C292.274 374.621 297.008 378.344 301.676 382.156C304.183 384.2 306.723 386.203 309.274 388.196C309.891 388.678 310.508 389.16 311.124 389.642C311.45 389.896 311.775 390.151 312.11 390.413C312.78 390.936 313.449 391.459 314.118 391.983C315.535 393.092 316.954 394.199 318.382 395.295C321.526 397.721 324.471 400.316 327.406 402.969C328.579 404.027 329.771 405.054 330.993 406.059C332.825 407.574 334.493 409.226 336.163 410.903C337.388 412.072 338.72 413.09 340.066 414.127C342.901 416.337 345.472 418.741 348.033 421.238C348.462 421.651 348.89 422.064 349.332 422.489C351.175 424.274 352.985 426.063 354.685 427.975C356.448 429.948 358.4 431.69 360.393 433.445C362.753 435.525 364.971 437.631 367.052 439.973C368.186 441.222 369.414 442.365 370.652 443.517C372.427 445.194 374.083 446.891 375.632 448.769C377.553 451.096 379.627 453.251 381.752 455.406C382.257 455.919 382.257 455.919 382.772 456.442C383.423 457.102 384.075 457.763 384.726 458.423C387.747 461.49 390.543 464.655 393.229 467.993C394.887 470.042 396.644 471.974 398.469 473.888C401.975 477.631 405.151 481.664 408.372 485.634C409.153 486.595 409.937 487.554 410.722 488.512C413.833 492.323 416.862 496.176 419.791 500.118C421.23 502.053 422.691 503.966 424.189 505.858C428.004 510.678 431.52 515.685 435.031 520.712C435.322 521.128 435.613 521.543 435.913 521.971C441.27 529.616 446.433 537.363 451.324 545.292C451.983 546.354 452.655 547.408 453.324 548.465C460.579 559.96 467.38 571.91 473.469 584.019C473.774 584.624 474.082 585.228 474.391 585.831C477.132 591.176 479.547 596.636 481.888 602.151C483.199 605.238 484.552 608.296 485.999 611.327C490.014 619.907 492.838 628.883 495.659 637.876C495.877 638.563 495.877 638.563 496.099 639.264C497.629 644.105 499.027 648.933 500.022 653.905C500.1 654.296 500.179 654.687 500.259 655.089C500.84 658.183 501.007 661.165 500.789 664.31C499.909 663.041 499.497 662.094 499.004 660.667C497.875 657.616 496.366 654.814 494.789 651.959C494.49 651.412 494.192 650.865 493.893 650.319C493.287 649.207 492.679 648.097 492.069 646.987C491.252 645.494 490.442 643.998 489.637 642.499C486.934 637.473 484.171 632.488 481.28 627.559C480.56 626.33 479.845 625.098 479.129 623.865C474.147 615.303 468.992 607.064 462.87 599.206C462.611 598.873 462.352 598.541 462.086 598.198C456.673 591.262 450.978 584.55 445.11 577.967C444.865 577.691 444.62 577.416 444.368 577.132C440.974 573.319 437.516 569.578 433.951 565.913C433.32 565.256 432.696 564.594 432.075 563.928C428.207 559.806 424.143 555.879 420.056 551.958C418.857 550.807 417.66 549.654 416.464 548.5C415.691 547.757 414.918 547.014 414.146 546.271C413.793 545.932 413.441 545.592 413.079 545.242C411.146 543.391 409.171 541.616 407.1 539.907C405.598 538.652 404.166 537.324 402.721 536.007C400.228 533.749 397.681 531.607 395.004 529.55C393.663 528.492 392.387 527.383 391.112 526.253C388.553 523.993 385.895 521.885 383.192 519.789C382.602 519.323 382.012 518.856 381.422 518.389C377.612 515.378 373.74 512.47 369.78 509.643C368.117 508.454 366.471 507.244 364.829 506.027C360.642 502.923 356.389 499.916 352.085 496.963C351.404 496.495 350.724 496.027 350.044 495.558C337.804 487.106 325.112 479.217 312.338 471.535C311.153 470.821 309.972 470.1 308.792 469.379C303.47 466.147 298.04 463.189 292.487 460.339C289.684 458.897 286.923 457.388 284.164 455.868C279.57 453.344 274.897 450.985 270.189 448.664C267.267 447.22 264.385 445.74 261.545 444.152C258.416 442.411 255.177 440.984 251.871 439.585C249.429 438.551 247.03 437.471 244.656 436.302C240.271 434.151 235.792 432.198 231.319 430.226C226.705 428.19 222.104 426.134 217.534 424.009C208.615 419.875 199.546 416.264 190.306 412.848C188.261 412.09 186.234 411.302 184.215 410.481C181.93 409.555 179.627 408.749 177.277 407.992C173.229 406.661 169.252 405.184 165.278 403.664C160.336 401.778 155.378 400.009 150.349 398.355C148.762 397.827 147.181 397.284 145.6 396.739C136.058 393.458 126.462 390.346 116.837 387.296C111.873 385.719 106.936 384.1 102.038 382.339C99.4094 381.395 96.7642 380.528 94.0894 379.711C90.098 378.463 86.2197 377.022 82.3591 375.439C79.8072 374.401 77.2301 373.484 74.6105 372.618C69.7849 371.01 65.1141 369.081 60.4302 367.129C59.5354 366.758 58.6405 366.387 57.7456 366.016C51.4447 363.398 45.1812 360.712 38.9773 357.886C37.5753 357.248 36.1699 356.618 34.764 355.988C28.833 353.315 23.0725 350.413 17.3485 347.354C15.9827 346.63 14.61 345.921 13.2339 345.215C5.86446 341.433 -1.3278 337.402 -8.47802 333.25C-8.99659 332.95 -9.51517 332.651 -10.0495 332.343C-29.0454 321.359 -47.691 309.04 -63.9916 294.54C-65.0029 293.642 -66.0277 292.765 -67.0665 291.896C-69.3216 290.008 -71.5401 288.083 -73.7563 286.153C-74.174 285.791 -74.5916 285.429 -75.0219 285.056C-78.6028 281.93 -82.0685 278.705 -85.4877 275.416C-86.3727 274.565 -87.2614 273.719 -88.1504 272.872C-88.7149 272.331 -89.2793 271.789 -89.8434 271.246C-90.1088 270.994 -90.3742 270.742 -90.6477 270.483C-92.4759 268.713 -92.4759 268.713 -92.4759 267.684C-92.7927 267.684 -93.1094 267.684 -93.4358 267.684C-94.135 266.939 -94.7992 266.163 -95.4458 265.376C-96.7567 263.798 -98.069 262.237 -99.4657 260.729C-101.006 259.054 -102.449 257.315 -103.891 255.56C-104.842 254.429 -105.822 253.327 -106.814 252.229C-109.925 248.774 -112.64 245.103 -115.339 241.346C-116.546 239.682 -117.802 238.054 -119.057 236.424C-121.275 233.4 -121.275 233.4 -121.275 232.131C-121.592 232.131 -121.909 232.131 -122.235 232.131C-122.781 231.437 -122.781 231.437 -123.386 230.452C-123.613 230.085 -123.84 229.719 -124.074 229.341C-124.319 228.938 -124.563 228.535 -124.815 228.12C-125.199 227.494 -125.199 227.494 -125.59 226.856C-126.396 225.538 -127.196 224.218 -127.995 222.896C-128.237 222.499 -128.479 222.102 -128.728 221.693C-135.31 210.886 -141.106 199.775 -146.234 188.267C-146.455 187.771 -146.676 187.276 -146.904 186.766C-150.282 179.118 -152.964 171.314 -155.354 163.333C-155.456 162.997 -155.557 162.66 -155.661 162.314C-158.287 153.573 -160.657 144.937 -161.901 135.9C-162.109 134.464 -162.372 133.041 -162.641 131.614C-163.682 126.062 -164.215 120.448 -164.79 114.836C-164.899 113.929 -165.034 113.024 -165.197 112.125C-165.469 110.483 -165.602 108.849 -165.7 107.192C-165.72 106.853 -165.741 106.514 -165.761 106.166C-165.971 102.302 -165.986 98.44 -165.977 94.5721C-165.974 93.3518 -165.977 92.1315 -165.98 90.9111C-165.984 83.3618 -165.448 75.9801 -164.399 68.4997C-164.231 67.3 -164.068 66.0996 -163.906 64.8991C-163.801 64.1346 -163.695 63.3702 -163.589 62.6058C-163.541 62.2476 -163.492 61.8893 -163.442 61.5202C-163.089 59.0356 -163.089 59.0356 -162.554 58.5206Z" fill="var(--fill-0, #AF2838)"/>
<path id="Vector_3" d="M-177.431 233.983C-175.958 234.691 -175.733 236.068 -175.151 237.475C-171.371 246.144 -165.798 254.056 -160.151 261.687C-159.894 262.038 -159.638 262.389 -159.373 262.75C-156.127 267.189 -152.734 271.468 -149.143 275.653C-147.769 277.258 -146.455 278.901 -145.151 280.56C-143.086 283.17 -140.879 285.609 -138.552 288.006C-138.161 288.408 -138.161 288.408 -137.763 288.818C-136.59 290.026 -135.416 291.234 -134.241 292.441C-132.563 294.167 -130.919 295.914 -129.31 297.7C-124.713 302.776 -119.872 307.485 -114.402 311.698C-112.128 313.45 -110.028 315.335 -107.922 317.268C-105.068 319.879 -102.131 322.278 -99.0033 324.578C-97.4305 325.737 -95.9072 326.947 -94.3868 328.169C-83.3695 337.021 -71.5817 344.964 -59.3537 352.186C-58.7195 352.562 -58.7195 352.562 -58.0724 352.946C-44.2071 361.165 -30.0604 368.761 -15.5848 375.932C-14.7417 376.35 -13.899 376.768 -13.0566 377.187C-4.91295 381.234 3.35729 384.901 11.8944 388.114C13.1331 388.584 14.371 389.056 15.6087 389.528C16.0742 389.706 16.0742 389.706 16.5492 389.887C19.6281 391.065 22.6826 392.297 25.7381 393.529C30.99 395.645 36.2584 397.586 41.6523 399.336C43.5063 399.951 45.3443 400.607 47.185 401.258C52.7196 403.209 58.2919 404.957 63.9356 406.591C66.4587 407.323 68.971 408.082 71.4804 408.856C72.207 409.079 72.9336 409.302 73.6602 409.526C74.7167 409.85 75.7728 410.175 76.8276 410.504C81.036 411.817 85.2538 412.948 89.5549 413.946C96.1201 415.48 102.535 417.435 108.964 419.424C110.24 419.818 111.517 420.21 112.794 420.602C120.988 423.115 129.169 425.665 137.313 428.325C139.014 428.876 140.719 429.417 142.425 429.955C160.329 435.615 177.756 442.296 195.161 449.223C198.77 450.659 202.386 452.072 206.019 453.449C210.751 455.253 215.378 457.258 219.999 459.307C220.507 459.532 221.014 459.756 221.537 459.988C229.027 463.304 236.48 466.69 243.903 470.139C245.516 470.887 247.132 471.628 248.748 472.369C254.674 475.09 260.557 477.858 266.337 480.858C267.633 481.53 268.933 482.196 270.233 482.863C279.354 487.557 288.282 492.531 297.044 497.819C299.198 499.111 301.363 500.339 303.605 501.482C310.096 504.796 316.106 508.861 322.187 512.814C324.745 514.477 327.317 516.12 329.894 517.757C336.742 522.114 343.441 526.612 349.817 531.593C351.934 533.244 354.095 534.827 356.286 536.387C359.262 538.512 362.155 540.717 365.021 542.978C367.076 544.601 369.155 546.189 371.255 547.757C376.081 551.383 380.675 555.16 384.955 559.376C386.013 560.368 387.095 561.234 388.265 562.1C394.06 566.431 400.026 571.655 404.644 577.164C405.643 578.306 406.677 579.176 407.88 580.107C409.012 581.061 409.945 582.155 410.92 583.255C412.332 584.807 413.797 586.308 415.264 587.812C424.666 597.476 432.998 607.749 440.997 618.515C441.76 619.537 442.533 620.553 443.308 621.567C456.343 638.668 467.99 657.631 475.851 677.474C476.681 679.551 477.549 681.614 478.412 683.679C478.867 684.773 479.322 685.867 479.775 686.961C480.088 687.709 480.413 688.452 480.741 689.193C481.112 690.172 481.112 690.172 481.112 691.557C480.795 691.557 480.479 691.557 480.152 691.557C479.582 690.868 479.049 690.15 478.532 689.422C475.023 684.664 470.924 680.362 466.827 676.07C465.871 675.06 464.938 674.037 464.013 673.002C462.566 671.397 461.02 669.91 459.445 668.422C458.638 667.63 457.899 666.821 457.173 665.96C456.277 664.759 456.277 664.759 455.193 664.315C455.193 664.011 455.193 663.706 455.193 663.392C454.876 663.392 454.559 663.392 454.233 663.392C454.233 663.087 454.233 662.782 454.233 662.468C453.916 662.468 453.599 662.468 453.273 662.468C453.273 662.164 453.273 661.859 453.273 661.545C452.798 661.393 452.323 661.24 451.833 661.083C451.092 660.36 451.092 660.36 450.303 659.438C447.399 656.151 444.183 653.278 440.793 650.463C436.163 646.583 436.163 646.583 434.583 644.692C433.047 642.893 431.209 641.522 429.322 640.075C427.737 638.845 426.194 637.576 424.654 636.294C418.31 631.035 411.786 625.978 405.274 620.913C404.836 620.572 404.398 620.231 403.947 619.879C399.434 616.385 394.858 612.992 390.125 609.781C388.287 608.53 386.488 607.239 384.7 605.923C381.687 603.71 378.638 601.662 375.4 599.767C372.159 597.859 369.01 595.823 365.855 593.786C360.566 590.375 355.228 587.046 349.838 583.783C348.69 583.084 347.549 582.376 346.41 581.664C340.48 577.975 334.339 574.698 328.149 571.431C325.756 570.159 323.382 568.856 321.006 567.554C317.051 565.394 313.069 563.284 309.067 561.205C308.578 560.951 308.09 560.697 307.587 560.435C300.515 556.78 293.279 553.439 286.044 550.094C285.011 549.616 283.979 549.137 282.947 548.657C282.482 548.443 282.482 548.443 282.007 548.225C280.731 547.631 279.493 547.022 278.284 546.309C276.97 545.567 275.663 545.082 274.232 544.581C270.982 543.405 267.863 542.031 264.728 540.601C261.07 538.953 257.444 537.379 253.635 536.084C251.317 535.281 249.085 534.34 246.842 533.36C238.232 529.606 229.377 526.541 220.479 523.488C220.096 523.356 219.712 523.225 219.318 523.089C214.198 521.335 209.068 519.612 203.931 517.905C202.077 517.29 200.225 516.671 198.373 516.05C186.009 511.907 173.656 507.97 160.98 504.803C159.964 504.548 158.948 504.288 157.933 504.028C151.449 502.37 144.941 500.807 138.431 499.247C136.817 498.86 135.202 498.472 133.588 498.084C132.534 497.831 131.48 497.579 130.426 497.327C128.023 496.751 125.621 496.174 123.221 495.587C118.86 494.522 114.506 493.528 110.082 492.725C107.124 492.183 104.193 491.612 101.275 490.893C99.3401 490.417 97.461 490.048 95.4723 489.839C92.2238 489.431 89.0961 488.727 85.9336 487.907C82.9465 487.172 79.9635 486.773 76.9102 486.403C71.4024 485.724 66.0293 484.627 60.6214 483.428C59.0654 483.082 57.508 482.744 55.9502 482.406C54.942 482.186 53.9339 481.966 52.9259 481.745C52.4693 481.645 52.0128 481.545 51.5424 481.443C48.9897 480.875 46.4866 480.226 43.989 479.463C42.8087 479.141 41.6399 478.932 40.4293 478.743C36.8243 478.15 33.3408 477.141 29.834 476.16C29.4691 476.059 29.1041 475.958 28.7282 475.853C26.0841 475.118 23.4433 474.372 20.8042 473.621C20.2925 473.475 20.2925 473.475 19.7704 473.327C9.70296 470.458 -0.146826 467.166 -9.91499 463.463C-10.4621 463.256 -10.4621 463.256 -11.0202 463.045C-29.3454 456.108 -47.3246 448.274 -63.8695 437.919C-65.2665 437.049 -66.6706 436.191 -68.076 435.333C-80.4049 427.805 -92.2506 419.879 -103.033 410.364C-104.76 408.885 -106.481 407.422 -108.312 406.064C-108.629 405.807 -108.946 405.55 -109.272 405.285C-109.272 404.98 -109.272 404.675 -109.272 404.361C-109.557 404.237 -109.842 404.113 -110.136 403.986C-111.197 403.436 -111.887 402.883 -112.732 402.064C-113.012 401.794 -113.291 401.524 -113.58 401.246C-113.871 400.96 -114.162 400.674 -114.462 400.379C-114.915 399.939 -114.915 399.939 -115.377 399.489C-117.133 397.77 -118.844 396.028 -120.462 394.187C-121.462 393.068 -122.508 391.995 -123.552 390.914C-126.06 388.265 -128.347 385.483 -130.618 382.646C-131.397 381.681 -132.186 380.725 -132.977 379.769C-160.566 346.325 -176.693 303.213 -178.391 257.07C-178.398 256.63 -178.405 256.191 -178.413 255.738C-178.484 250.598 -178.41 245.468 -178.181 240.332C-178.162 239.906 -178.143 239.48 -178.124 239.041C-178.103 238.645 -178.083 238.25 -178.062 237.843C-178.045 237.498 -178.027 237.152 -178.009 236.796C-177.91 235.821 -177.703 234.926 -177.431 233.983Z" fill="var(--fill-0, #AFD5EB)"/>
</g>
</g>
</g>
<defs>
<filter id="filter0_f_0_99" x="-226.277" y="-213.356" width="1058.65" height="952.751" filterUnits="userSpaceOnUse" color-interpolation-filters="sRGB">
<feFlood flood-opacity="0" result="BackgroundImageFix"/>
<feBlend mode="normal" in="SourceGraphic" in2="BackgroundImageFix" result="shape"/>
<feGaussianBlur stdDeviation="0" result="effect1_foregroundBlur_0_99"/>
</filter>
<linearGradient id="paint0_linear_0_99" x1="411.405" y1="38.2702" x2="411.405" y2="397.054" gradientUnits="userSpaceOnUse">
<stop/>
<stop offset="1" stop-color="white" stop-opacity="0"/>
</linearGradient>
</defs>
</svg>
