<svg preserveAspectRatio="none" width="100%" height="100%" overflow="visible" style="display: block;" viewBox="0 0 311 42.8249" fill="none" xmlns="http://www.w3.org/2000/svg">
<g id="Logo">
<path id="Vector" d="M42.617 0.631565H52.0256L63.1935 25.7364L74.2807 0.623828L83.7701 0.631565L83.7787 41.9935H75.4225L75.4324 14.5194L66.2532 35.3511H60.2103L51.0312 14.5194L50.9547 41.9134L42.617 41.9898V0.631565Z" fill="var(--fill-0, white)"/>
<path id="Vector_2" d="M122.031 0.634249C122.031 0.634249 126.401 0.635899 128.543 0.634249C129.538 0.633462 130.533 0.632391 131.528 0.630637C132.396 0.629108 133.263 0.628126 134.131 0.627786C134.59 0.627587 135.049 0.627124 135.508 0.626006C135.941 0.62496 136.374 0.62465 136.807 0.624878C136.965 0.624837 137.123 0.624538 137.281 0.623946C140.601 0.612131 143.814 1.48272 146.43 3.62323C146.47 3.65563 146.51 3.68804 146.55 3.72142C149.278 5.96352 151.07 9.1215 151.539 12.6664C151.868 16.28 151.006 19.6648 148.689 22.4871C148.641 22.5429 148.594 22.5987 148.544 22.6561C148.493 22.7166 148.441 22.7771 148.388 22.8394C147.093 24.3271 143.938 26.3251 143.938 26.3251L156.539 42.2014H147.081L135.406 27.7774H130.271V42.0712H122.03L122.031 0.634249ZM130.271 8.2859C130.271 12.3218 130.271 16.3577 130.271 20.5159C130.75 20.5802 130.75 20.5802 131.223 20.6007C131.285 20.6006 131.347 20.6005 131.41 20.6004C131.476 20.5999 131.542 20.5993 131.609 20.5988C131.68 20.5986 131.751 20.5983 131.824 20.5981C132.058 20.5971 132.291 20.5955 132.524 20.5938C132.604 20.5933 132.685 20.5927 132.768 20.5922C133.193 20.5893 133.619 20.586 134.044 20.5822C134.48 20.5785 134.916 20.5764 135.352 20.5748C135.691 20.5733 136.029 20.5704 136.367 20.5671C136.528 20.5658 136.688 20.565 136.849 20.5647C138.714 20.5602 140.248 20.198 141.673 18.9107C142.826 17.7117 143.431 16.0482 143.428 14.3933C143.401 12.6102 142.758 11.0911 141.522 9.81465C141.472 9.76114 141.422 9.70764 141.37 9.65252C140.595 8.88573 139.307 8.27545 138.216 8.27671C138.146 8.2766 138.076 8.2765 138.003 8.27639C137.889 8.2768 137.889 8.2768 137.772 8.27722C137.689 8.27721 137.607 8.27721 137.522 8.2772C137.256 8.27725 136.99 8.27783 136.723 8.27844C136.559 8.27855 136.394 8.27863 136.23 8.27867C135.62 8.27907 135.01 8.28014 134.4 8.28112C133.038 8.2827 131.675 8.28428 130.271 8.2859Z" fill="var(--fill-0, white)"/>
<path id="Vector_3" d="M280.648 0.623828L288.872 0.631047L288.948 16.7334L302.788 16.8097V0.631047H311V41.9935H302.788L302.712 24.6701L288.948 24.5938L288.872 41.9935H280.648V0.623828Z" fill="var(--fill-0, white)"/>
<path id="Vector_4" d="M255.501 0.0057309C255.755 0.00499681 256.008 0.00263116 256.261 0.000229966C257.861 -0.00771184 259.367 0.190084 260.915 0.587901C261.083 0.629495 261.251 0.666447 261.42 0.701079C262.391 0.90229 263.3 1.25448 264.218 1.62256C264.307 1.65777 264.307 1.65777 264.397 1.6937C265.912 2.306 267.236 3.18159 268.558 4.13455C268.608 4.17022 268.657 4.20589 268.709 4.24264C269.682 4.94435 270.601 5.71408 271.377 6.63228C271.505 6.77423 271.637 6.9046 271.774 7.03697C272.1 7.36035 272.368 7.71955 272.641 8.08809C272.689 8.1532 272.738 8.2183 272.789 8.28538C273.172 8.79996 273.518 9.31652 273.796 9.89507C273.888 10.079 273.888 10.079 274.012 10.2751C274.732 11.4524 275.205 12.7758 275.648 14.0779C275.669 14.1404 275.691 14.2029 275.713 14.2673C275.846 14.6714 276.075 15.5564 276.075 15.5564H267.321C267.321 15.5564 267.256 15.3691 267.187 15.1721C267.164 15.1219 267.14 15.0717 267.115 15.02C267.095 14.9714 267.074 14.9228 267.053 14.8727C267.018 14.79 267.018 14.79 266.982 14.7056C266.945 14.6186 266.945 14.6186 266.907 14.5298C265.663 11.6911 263.414 9.99124 260.64 8.77794C260.582 8.75216 260.524 8.72637 260.464 8.69981C259.973 8.49099 259.484 8.37244 258.96 8.27364C258.876 8.25753 258.792 8.24141 258.705 8.22482C256.189 7.75291 253.668 7.85019 251.199 8.54957C251.101 8.57721 251.101 8.57721 251.001 8.6054C249.084 9.15895 247.46 10.1425 246.022 11.5183C245.962 11.5739 245.901 11.6296 245.839 11.6869C244.923 12.5582 244.239 13.5976 243.662 14.7154C243.621 14.7929 243.58 14.8704 243.537 14.9503C241.853 18.3276 241.744 22.6449 242.893 26.1918C243.982 29.3096 246.051 31.7224 248.925 33.3222C249.023 33.3775 249.023 33.3775 249.123 33.4339C250.03 33.9243 251.022 34.1784 252.023 34.4022C252.073 34.4135 252.123 34.4248 252.175 34.4364C253.895 34.8205 255.607 35.0142 257.361 34.7638C257.457 34.7502 257.552 34.7366 257.651 34.7227C260.401 34.3102 262.827 33.263 264.827 31.3098C264.876 31.2649 264.925 31.2201 264.975 31.1739C265.953 30.2526 267.34 27.2754 267.34 27.2754H275.943C275.943 27.2754 275.782 28.3653 275.639 28.7997C275.496 29.2341 275.344 29.6646 275.182 30.0918C275.152 30.1731 275.123 30.2543 275.093 30.338C274.632 31.5704 273.975 32.7572 273.202 33.8218C273.169 33.8678 273.135 33.9138 273.101 33.9613C272.212 35.1832 271.243 36.4546 270.077 37.4262C269.972 37.5148 269.87 37.6067 269.77 37.701C267.096 40.22 263.578 41.6793 260.031 42.4234C259.982 42.4338 259.933 42.4441 259.882 42.4548C258.588 42.7223 257.316 42.8299 255.996 42.8239C255.783 42.8231 255.57 42.8239 255.357 42.8249C253.972 42.8261 252.613 42.7022 251.252 42.4472C251.198 42.4374 251.145 42.4275 251.09 42.4174C247.385 41.7252 243.814 39.9918 240.997 37.4756C240.958 37.4403 240.918 37.4051 240.878 37.3688C240.136 36.7045 239.428 36.0261 238.812 35.2412C238.743 35.1531 238.673 35.0654 238.603 34.9779C236.644 32.5339 235.171 29.6611 234.526 26.5903C234.506 26.4965 234.486 26.4027 234.465 26.3061C233.943 23.8369 233.637 21.1895 234.105 18.6841C234.169 18.3013 234.203 17.9149 234.24 17.5286C234.37 16.5454 234.67 15.5922 234.986 14.6557C235.045 14.4823 235.102 14.3086 235.159 14.1348C236.37 10.4945 238.58 6.98442 241.683 4.6674C241.728 4.6323 241.774 4.59719 241.821 4.56103C245.814 1.50632 250.51 0.0144373 255.501 0.0057309Z" fill="var(--fill-0, white)"/>
<path id="Vector_5" d="M14.1376 0.623828L24.395 0.633004L38.6671 41.9935C35.7237 41.9935 29.6552 41.9935 29.6552 41.9935L27.2919 34.515L11.2827 34.5913L8.8432 41.9935H0L14.1376 0.623828ZM19.2111 9.7903L13.7222 26.8839H24.7762L19.2111 9.7903Z" fill="var(--fill-0, white)"/>
<path id="Vector_6" d="M91.2724 0.623828H116.209V8.4899H99.6072V17.2591H114.452V24.8994L99.6072 24.89V34.1234L116.209 34.1135V41.9935H91.2627L91.2724 0.623828Z" fill="var(--fill-0, white)"/>
<path id="Vector_7" d="M205.402 0.624023H230.131V8.4901H213.668V17.2593H228.389V24.8996L213.668 24.8902V34.1235L230.131 34.1137V41.9937H205.393L205.402 0.624023Z" fill="var(--fill-0, white)"/>
<path id="Vector_8" d="M172.547 0.623828L200.82 0.623863V8.41731H190.738V41.9172L182.552 41.9935L182.464 8.41731H172.547L172.547 0.623828Z" fill="var(--fill-0, white)"/>
<path id="Vector_9" d="M159.658 0.624023H167.974V41.9937H159.658V0.624023Z" fill="var(--fill-0, white)"/>
</g>
</svg>
