<svg preserveAspectRatio="none" width="100%" height="100%" overflow="visible" style="display: block;" viewBox="0 0 1741 920.096" fill="none" xmlns="http://www.w3.org/2000/svg">
<g id="Mask group">
<mask id="mask0_0_98" style="mask-type:alpha" maskUnits="userSpaceOnUse" x="80" y="80" width="1582" height="761">
<path id="Rectangle 20298" d="M80 88C80 83.5817 83.5817 80 88 80H1653C1657.42 80 1661 83.5817 1661 88V754.777C1661 760.759 1654.73 764.821 1649.25 762.418C1600.86 741.198 1408.37 668.724 1173.94 739.782C902.244 822.136 705.182 840.096 566.462 840.096C303.296 840.096 118.116 780.97 85.2343 769.71C82.0655 768.625 80 765.645 80 762.296V88Z" fill="url(#paint0_linear_0_98)"/>
</mask>
<g mask="url(#mask0_0_98)">
<g id="Group 5" filter="url(#filter0_f_0_98)">
<path id="Vector" d="M88.7391 -351.518C81.4166 -344.397 73.7937 -337.609 65.6688 -331.343C61.2382 -327.914 57.2367 -324.254 53.2717 -320.338C51.2248 -318.365 49.1165 -316.53 46.9203 -314.714C41.7264 -310.41 36.9616 -305.837 32.4934 -300.835C29.6831 -297.695 26.724 -294.761 23.6593 -291.848C20.0412 -288.404 16.6033 -284.898 13.3039 -281.172C11.9905 -279.721 10.6379 -278.303 9.26026 -276.908C0.976918 -268.486 -5.94468 -259.2 -12.9481 -249.786C-13.5358 -249.002 -14.1235 -248.219 -14.7291 -247.411C-24.5981 -234.231 -33.6951 -220.64 -42.4373 -206.746C-43.1113 -205.68 -43.1113 -205.68 -43.7988 -204.593C-59.2851 -179.896 -70.3232 -152.416 -78.9812 -124.883C-79.353 -123.705 -79.7249 -122.527 -80.108 -121.313C-82.6476 -113.008 -84.5101 -104.711 -86.1628 -96.2099C-86.4593 -94.7831 -86.7569 -93.3565 -87.0566 -91.9303C-88.6055 -84.0289 -89.6733 -76.1577 -90.421 -68.148C-90.5063 -67.2546 -90.5916 -66.3612 -90.6794 -65.4408C-91.7984 -52.389 -91.1378 -39.6692 -89.5948 -26.6971C-89.5043 -25.9332 -89.4137 -25.1692 -89.3205 -24.3822C-82.555 31.7685 -57.9675 83.4926 -20.5672 127.001C-18.4713 129.45 -16.4129 131.927 -14.3463 134.399C-10.2561 139.209 -5.93329 143.774 -1.53209 148.319C0.594795 150.518 2.6335 152.778 4.66447 155.059C8.45735 159.245 12.5637 163.031 16.7954 166.802C17.5546 167.483 18.3137 168.164 19.0958 168.865C21.2907 170.831 23.4912 172.791 25.6931 174.749C26.2557 175.253 26.8184 175.756 27.3981 176.274C34.0683 182.238 40.9755 187.84 48.0642 193.335C49.3626 194.357 50.6601 195.38 51.957 196.403C66.3324 207.828 66.3324 207.828 81.6846 217.973C86.8548 221.062 91.6892 224.494 96.5563 228C107.88 236.128 119.628 243.609 131.448 251.048C132.664 251.815 132.664 251.815 133.904 252.596C138.829 255.695 143.776 258.76 148.735 261.808C149.444 262.246 150.153 262.683 150.883 263.133C190.699 287.65 231.58 310.753 273.603 331.588C276.098 332.835 278.587 334.092 281.073 335.357C293.474 341.669 305.947 347.832 318.489 353.881C320.003 354.611 320.003 354.611 321.547 355.356C338.667 363.596 355.963 371.318 373.53 378.627C378.955 380.884 384.345 383.209 389.731 385.55C418.71 398.106 448.197 409.466 477.891 420.35C479.833 421.063 481.774 421.778 483.714 422.493C501.466 429.061 501.466 429.061 519.711 434.156C524.155 435.245 528.429 436.707 532.751 438.174C552.069 444.714 571.814 449.565 591.658 454.379C597.654 455.834 603.637 457.329 609.612 458.861C660.86 471.892 714.113 479.594 766.826 484.623C769.192 484.852 771.557 485.094 773.921 485.336C785.373 486.498 796.8 487.325 808.303 487.832C809.18 487.872 810.057 487.912 810.961 487.953C844.548 489.453 878.213 489.78 911.833 489.849C912.536 489.852 913.239 489.855 913.963 489.857C921.009 489.878 927.922 489.684 934.93 488.989C940.88 488.496 946.858 488.46 952.826 488.321C980.501 487.567 1007.63 485.333 1035.02 481.54C1041.74 480.612 1048.48 479.76 1055.21 478.906C1062.66 477.959 1070.11 477.003 1077.55 476.002C1105.46 472.273 1133.33 469.545 1161.54 469.185C1162.8 469.169 1162.8 469.169 1164.08 469.153C1194.83 468.785 1224.94 469.476 1255.43 473.706C1258.04 474.062 1260.65 474.39 1263.26 474.71C1311.88 480.887 1361.07 498.674 1398.14 529.944C1401.2 532.527 1404.37 534.976 1407.56 537.414C1412.22 541.078 1416.06 544.896 1419.82 549.397C1420.74 550.442 1421.66 551.486 1422.58 552.53C1439.57 572.105 1451.2 594.059 1457.45 618.849C1458.31 618.914 1458.31 618.914 1459.19 618.982C1465.31 619.455 1471.42 619.969 1477.53 620.513C1479.59 620.695 1481.66 620.873 1483.72 621.044C1514.35 623.653 1546.84 629.214 1575.41 640.369C1576.73 640.883 1576.73 640.883 1578.08 641.407C1604.34 651.788 1630.07 666.705 1645.57 690.257C1646.1 691.017 1646.63 691.777 1647.18 692.561C1655.95 705.654 1659.96 721.758 1660.82 737.21C1660.86 737.91 1660.91 738.609 1660.95 739.33C1662.22 783.664 1640.02 825.923 1615.95 862.296C1615.26 863.344 1614.57 864.392 1613.85 865.471C1605.02 878.692 1605.02 878.692 1601.84 881.982C1601.17 881.982 1600.5 881.982 1599.81 881.982C1599.56 881.234 1599.31 880.487 1599.06 879.716C1589.83 854.283 1568.6 834.24 1543.91 822.323C1520.88 811.658 1497.92 808.379 1472.51 808.312C1471.21 808.307 1469.92 808.301 1468.58 808.296C1445.6 808.465 1422.03 814.287 1401.52 824.269C1400.48 824.764 1400.48 824.764 1399.42 825.27C1388.72 830.378 1378.72 836.217 1368.98 842.855C1367.91 843.58 1366.85 844.305 1365.75 845.052C1358.18 850.355 1351.33 856.204 1344.58 862.418C1343.63 863.275 1342.69 864.131 1341.72 865.013C1334.44 871.782 1328.25 879.083 1322.2 886.873C1321.79 887.406 1321.37 887.939 1320.94 888.488C1297.6 918.403 1279.2 953.092 1270.34 989.583C1270.01 990.92 1269.68 992.258 1269.35 993.595C1264.96 1011.44 1261.36 1028.99 1259.84 1047.3C1259.38 1052.66 1258.57 1057.91 1257.68 1063.21C1255.6 1075.91 1254.81 1088.69 1253.92 1101.51C1252.94 1115.34 1251.37 1128.89 1248.91 1142.55C1247.96 1147.91 1247.33 1153.28 1246.77 1158.69C1242.11 1196.82 1226.38 1233.07 1207.3 1266.41C1206.83 1267.23 1206.36 1268.06 1205.88 1268.91C1195.29 1287.45 1183.05 1304.4 1169.41 1320.98C1166.47 1324.58 1163.59 1328.24 1160.71 1331.89C1152.52 1342.22 1143.97 1352.05 1134.73 1361.53C1132.95 1363.38 1131.18 1365.24 1129.42 1367.1C1128.82 1367.74 1128.22 1368.37 1127.6 1369.02C1126.43 1370.25 1125.27 1371.49 1124.11 1372.72C1122.73 1374.17 1121.29 1375.56 1119.85 1376.95C1119.18 1376.95 1118.5 1376.95 1117.81 1376.95C1117.76 1376.19 1117.71 1375.44 1117.66 1374.67C1115.29 1340.99 1109.63 1307.73 1098.6 1275.64C1097.34 1271.86 1096.18 1268.06 1095.04 1264.25C1092.39 1255.47 1089.43 1246.81 1086.35 1238.17C1086.07 1237.37 1085.79 1236.58 1085.5 1235.77C1060.15 1164.7 1021.84 1099.17 977.485 1037.51C976.852 1036.63 976.218 1035.75 975.566 1034.84C967.492 1023.6 959.203 1012.52 950.718 1001.57C949.051 999.415 947.389 997.258 945.728 995.101C939.9 987.556 933.948 980.152 927.658 972.954C927.024 972.227 927.024 972.227 926.377 971.486C923.581 968.284 920.771 965.093 917.952 961.909C916.955 960.783 915.96 959.656 914.966 958.528C909.58 952.416 904.154 946.363 898.487 940.49C894.949 936.818 891.577 933.083 888.318 929.18C885.004 925.219 881.523 921.614 877.732 918.076C875.149 915.596 872.802 912.946 870.424 910.285C868.195 907.867 865.815 905.624 863.418 903.363C861.707 901.688 860.131 899.967 858.557 898.174C853.332 892.398 847.653 887.048 842.023 881.642C840.821 880.486 839.62 879.329 838.418 878.172C835.912 875.759 833.403 873.348 830.893 870.938C827.695 867.868 824.502 864.793 821.31 861.717C818.834 859.331 816.355 856.947 813.875 854.564C812.697 853.432 811.52 852.299 810.344 851.165C803.207 844.289 795.961 837.661 788.156 831.483C784.503 828.515 781.212 825.261 777.884 821.961C771.889 816.059 765.57 810.811 758.858 805.683C751.853 800.254 744.997 794.683 738.212 789.002C729.217 781.473 720.108 774.089 710.858 766.85C708.319 764.84 705.807 762.804 703.305 760.752C685.757 746.365 667.296 733.287 648.587 720.34C643.609 716.887 638.681 713.376 633.782 709.82C620.824 700.42 607.604 691.367 594.327 682.389C591.505 680.48 588.69 678.562 585.882 676.634C570.149 665.85 554.114 655.569 537.641 645.86C532.499 642.823 527.43 639.712 522.435 636.456C515.612 632.013 508.63 627.841 501.613 623.689C495.792 620.244 490.004 616.754 484.239 613.224C464.194 600.99 443.788 589.279 423.29 577.764C422.282 577.198 421.274 576.631 420.236 576.047C395.787 562.326 370.98 549.244 346.06 536.333C342.85 534.668 339.642 532.998 336.435 531.327C322.815 524.251 309.116 517.333 295.355 510.514C294.227 509.953 294.227 509.953 293.077 509.381C284.22 504.983 275.307 500.726 266.302 496.617C251.319 489.772 236.491 482.629 221.656 475.493C218.419 473.936 215.181 472.382 211.941 470.83C194.466 462.461 177.066 454.032 160.011 444.886C157.097 443.33 154.161 441.816 151.221 440.306C138.104 433.549 125.204 426.491 112.39 419.216C108.822 417.197 105.244 415.193 101.665 413.191C88.4996 405.824 75.4303 398.358 62.6222 390.424C60.1304 388.889 57.6261 387.375 55.1188 385.863C22.2056 365.972 -9.75323 344.472 -40.4036 321.478C-41.5727 320.607 -42.7419 319.736 -43.911 318.865C-50.9896 313.571 -57.9015 308.125 -64.7172 302.522C-67.6311 300.131 -70.5987 297.809 -73.579 295.495C-78.4196 291.706 -83.0391 287.723 -87.6325 283.661C-89.851 281.706 -92.0913 279.786 -94.3614 277.887C-106.874 267.41 -119.163 256.675 -130.758 245.259C-132.758 243.187 -132.758 243.187 -134.973 242.245C-134.973 241.599 -134.973 240.953 -134.973 240.288C-135.85 239.94 -135.85 239.94 -136.744 239.585C-139.538 238.06 -141.144 236.275 -143.235 233.93C-146.461 230.383 -149.766 227.008 -153.276 223.72C-157.621 219.593 -161.47 215.232 -165.276 210.644C-167.379 208.166 -169.57 205.825 -171.834 203.484C-177.784 197.201 -182.996 190.379 -188.306 183.596C-189.706 181.822 -191.125 180.065 -192.561 178.318C-226.499 136.853 -253.635 86.6125 -265.132 34.8679C-265.355 33.8872 -265.578 32.9065 -265.808 31.896C-271.22 7.95254 -272.861 -15.0151 -272.25 -39.4747C-272.23 -40.4461 -272.21 -41.4175 -272.189 -42.4184C-271.8 -55.7102 -268.967 -68.4394 -265.895 -81.3536C-265.611 -82.5538 -265.611 -82.5538 -265.321 -83.7783C-257.958 -114.569 -245.155 -142.927 -227.508 -169.574C-227.047 -170.271 -226.587 -170.967 -226.112 -171.684C-220.915 -179.482 -215.425 -186.947 -209.204 -194.029C-208.556 -194.775 -208.556 -194.775 -207.895 -195.536C-196.936 -208.137 -185.281 -220.049 -173.232 -231.689C-172.483 -232.415 -171.734 -233.14 -170.962 -233.888C-157.724 -246.585 -143.021 -257.834 -127.685 -268.09C-125.71 -269.425 -123.757 -270.785 -121.805 -272.151C-110.98 -279.688 -99.7664 -286.401 -88.1966 -292.826C-87.4245 -293.258 -86.6524 -293.689 -85.857 -294.133C-51.5434 -313.21 -14.4104 -326.898 23.4051 -338.007C24.5536 -338.346 25.7021 -338.685 26.8854 -339.034C71.51 -352.17 71.51 -352.17 88.7391 -351.518ZM1201.2 580.699C1202.51 580.628 1203.83 580.558 1205.18 580.485C1210.63 580.2 1216.08 579.954 1221.53 579.721C1222.76 579.665 1223.99 579.61 1225.26 579.553C1235.99 579.292 1248.48 579.959 1257.12 586.568C1259.14 588.823 1259.14 588.823 1260.94 591.337C1261.97 592.75 1261.97 592.75 1263.02 594.191C1263.76 595.226 1264.5 596.262 1265.26 597.328C1279.63 617.387 1299.34 634.783 1325.01 639.761C1353.39 644.288 1380.25 634.148 1403.09 618.707C1403.91 618.108 1404.74 617.509 1405.59 616.892C1405.59 616.569 1405.59 616.247 1405.59 615.914C1403.76 615.592 1403.76 615.592 1401.9 615.264C1391.77 613.402 1382.53 611.08 1373.09 607.019C1370.78 606.032 1368.45 605.087 1366.12 604.141C1350.38 597.661 1337.1 589.638 1323.6 579.537C1315.67 573.627 1308.24 568.557 1298.82 565.048C1298.17 564.805 1297.53 564.563 1296.87 564.312C1270.51 554.691 1221.22 559.618 1201.2 580.699Z" fill="var(--fill-0, #AFD5EB)"/>
<path id="Vector_2" d="M-345.45 122.901C-343.945 125.606 -342.949 128.151 -342.161 131.12C-337.865 146.399 -331.323 160.195 -323.881 174.229C-322.191 177.434 -320.548 180.656 -318.916 183.889C-304.104 212.787 -283.821 239.262 -262.511 264.014C-260.394 266.481 -258.31 268.975 -256.219 271.464C-252.569 275.753 -248.77 279.887 -244.891 283.985C-243.004 285.985 -241.152 288.008 -239.314 290.049C-230.389 299.874 -221.05 309.245 -211.446 318.452C-209.495 320.324 -207.549 322.201 -205.604 324.078C-199.512 329.941 -193.395 335.675 -186.818 341.038C-185.012 342.622 -183.211 344.211 -181.416 345.806C-176.806 349.849 -172.077 353.701 -167.223 357.468C-165.414 358.872 -163.616 360.288 -161.829 361.717C-157.609 365.091 -153.352 368.384 -148.939 371.522C-148.194 372.053 -147.448 372.583 -146.68 373.13C-145.194 374.181 -143.703 375.228 -142.208 376.267C-140.433 377.521 -138.707 378.838 -136.991 380.165C-136.991 380.811 -136.991 381.457 -136.991 382.122C-136.262 382.358 -135.533 382.593 -134.783 382.836C-131.486 384.26 -129.29 386.011 -126.568 388.297C-107.431 404.013 -86.5194 417.584 -65.5339 430.89C-63.7293 432.04 -61.9326 433.2 -60.1378 434.363C-52.2954 439.44 -44.3584 444.35 -36.347 449.176C-32.151 451.712 -28.0031 454.289 -23.9194 456.988C-6.76636 468.305 11.7144 477.867 29.776 487.767C30.93 488.401 30.93 488.401 32.1074 489.048C43.0615 495.064 54.1755 500.756 65.3665 506.352C66.8665 507.103 66.8665 507.103 68.3968 507.869C74.6622 511.003 80.9319 514.129 87.2047 517.249C91.0575 519.166 94.9068 521.09 98.7542 523.017C114.026 530.665 129.349 538.129 144.934 545.176C147.733 546.458 150.511 547.776 153.286 549.106C171.51 557.788 190.257 565.189 209.039 572.666C216.81 575.765 224.54 578.948 232.261 582.162C240.664 585.653 249.105 589.017 257.619 592.25C268.207 596.271 278.684 600.522 289.142 604.844C289.881 605.149 290.621 605.455 291.382 605.77C294.981 607.258 298.578 608.751 302.171 610.252C304.901 611.392 307.637 612.515 310.381 613.623C318.657 616.996 326.599 620.778 334.523 624.859C342.629 629.018 350.906 632.785 359.228 636.524C382.885 647.167 406.081 658.427 428.651 671.087C431.662 672.768 434.684 674.429 437.709 676.088C453.451 684.735 468.951 693.718 484.318 702.969C485.271 703.542 486.225 704.115 487.207 704.706C515.836 721.962 543.726 740.337 571.357 759.03C573.722 760.628 576.092 762.22 578.462 763.812C586.687 769.345 594.77 774.997 602.665 780.961C604.405 782.275 606.15 783.584 607.896 784.892C618.121 792.572 628.15 800.458 638.039 808.534C643.349 812.865 648.731 817.109 654.136 821.33C655.442 822.352 656.749 823.373 658.056 824.395C658.745 824.933 659.435 825.472 660.145 826.027C661.563 827.135 662.981 828.244 664.398 829.354C667.401 831.703 670.407 834.048 673.432 836.37C680.093 841.511 686.33 847.008 692.55 852.628C695.034 854.869 697.56 857.046 700.149 859.174C704.029 862.383 707.563 865.884 711.1 869.437C713.697 871.912 716.518 874.069 719.37 876.266C725.377 880.948 730.823 886.041 736.248 891.332C737.156 892.206 738.065 893.081 739.001 893.982C742.905 897.762 746.74 901.553 750.341 905.604C754.075 909.784 758.212 913.474 762.432 917.193C767.434 921.6 772.133 926.06 776.54 931.023C778.943 933.669 781.544 936.09 784.168 938.53C787.928 942.084 791.436 945.677 794.718 949.657C798.788 954.586 803.181 959.152 807.683 963.718C808.753 964.804 808.753 964.804 809.844 965.911C811.224 967.311 812.604 968.711 813.984 970.11C820.383 976.607 826.306 983.313 831.997 990.383C835.51 994.725 839.233 998.818 843.099 1002.87C850.527 1010.8 857.255 1019.35 864.078 1027.76C865.733 1029.79 867.395 1031.82 869.057 1033.85C875.648 1041.93 882.065 1050.09 888.27 1058.44C891.318 1062.54 894.413 1066.59 897.588 1070.6C905.671 1080.81 913.119 1091.42 920.556 1102.07C921.173 1102.95 921.79 1103.83 922.425 1104.74C933.774 1120.93 944.712 1137.35 955.074 1154.14C956.47 1156.39 957.893 1158.63 959.312 1160.87C974.682 1185.22 989.089 1210.54 1001.99 1236.19C1002.64 1237.47 1003.29 1238.75 1003.94 1240.03C1009.75 1251.35 1014.86 1262.92 1019.82 1274.6C1022.6 1281.14 1025.47 1287.62 1028.54 1294.04C1037.04 1312.22 1043.02 1331.24 1049 1350.29C1049.46 1351.74 1049.46 1351.74 1049.93 1353.23C1053.17 1363.48 1056.14 1373.71 1058.24 1384.25C1058.41 1385.07 1058.57 1385.9 1058.75 1386.75C1059.98 1393.31 1060.33 1399.63 1059.87 1406.29C1058 1403.6 1057.13 1401.6 1056.09 1398.57C1053.69 1392.11 1050.5 1386.17 1047.16 1380.12C1046.52 1378.96 1045.89 1377.81 1045.26 1376.65C1043.97 1374.29 1042.69 1371.94 1041.39 1369.59C1039.66 1366.43 1037.95 1363.26 1036.24 1360.08C1030.52 1349.43 1024.66 1338.87 1018.54 1328.43C1017.01 1325.83 1015.5 1323.22 1013.98 1320.61C1003.42 1302.46 992.504 1285.01 979.535 1268.36C978.986 1267.66 978.438 1266.95 977.873 1266.23C966.407 1251.53 954.341 1237.31 941.91 1223.37C941.391 1222.78 940.872 1222.2 940.338 1221.6C933.148 1213.52 925.821 1205.6 918.268 1197.83C916.932 1196.44 915.609 1195.04 914.294 1193.63C906.099 1184.89 897.49 1176.57 888.831 1168.27C886.291 1165.83 883.756 1163.38 881.222 1160.94C879.585 1159.37 877.948 1157.79 876.31 1156.22C875.564 1155.5 874.818 1154.78 874.05 1154.04C869.955 1150.12 865.771 1146.36 861.385 1142.74C858.201 1140.08 855.168 1137.26 852.108 1134.47C846.825 1129.69 841.43 1125.15 835.758 1120.79C832.918 1118.55 830.215 1116.2 827.512 1113.81C822.092 1109.02 816.46 1104.56 810.734 1100.11C809.483 1099.13 808.233 1098.14 806.984 1097.15C798.912 1090.77 790.71 1084.61 782.321 1078.62C778.796 1076.1 775.31 1073.54 771.832 1070.96C762.96 1064.38 753.95 1058.01 744.833 1051.76C743.39 1050.77 741.949 1049.78 740.509 1048.78C714.578 1030.88 687.689 1014.16 660.627 997.889C658.117 996.374 655.616 994.848 653.115 993.32C641.839 986.472 630.336 980.206 618.573 974.169C612.633 971.113 606.784 967.917 600.94 964.696C591.206 959.348 581.307 954.352 571.332 949.435C565.142 946.376 559.036 943.239 553.02 939.875C546.392 936.187 539.53 933.164 532.525 930.2C527.353 928.01 522.269 925.721 517.239 923.246C507.951 918.689 498.462 914.55 488.985 910.372C479.211 906.06 469.462 901.704 459.782 897.201C440.886 888.445 421.673 880.794 402.098 873.557C397.766 871.95 393.47 870.281 389.193 868.543C384.353 866.581 379.474 864.873 374.496 863.27C365.92 860.45 357.495 857.32 349.074 854.1C338.605 850.105 328.101 846.358 317.447 842.854C314.085 841.734 310.736 840.584 307.386 839.43C287.171 832.478 266.842 825.886 246.451 819.424C235.934 816.083 225.474 812.653 215.099 808.923C209.53 806.922 203.926 805.086 198.259 803.356C189.803 800.712 181.587 797.657 173.408 794.304C168.002 792.106 162.542 790.162 156.992 788.328C146.769 784.922 136.874 780.835 126.951 776.7C125.055 775.914 123.159 775.128 121.263 774.342C107.915 768.795 94.6451 763.105 81.5019 757.118C78.5318 755.767 75.5544 754.431 72.576 753.097C60.011 747.435 47.8071 741.287 35.6806 734.805C32.7871 733.272 29.8789 731.769 26.9637 730.274C11.3512 722.262 -3.88588 713.721 -19.0339 704.925C-20.1325 704.291 -21.2311 703.657 -22.363 703.003C-62.6067 679.735 -102.108 653.636 -136.641 622.918C-138.784 621.015 -140.955 619.156 -143.156 617.316C-147.933 613.317 -152.633 609.238 -157.328 605.15C-158.213 604.383 -159.098 603.616 -160.01 602.826C-167.596 596.202 -174.938 589.37 -182.182 582.401C-184.057 580.6 -185.94 578.807 -187.823 577.013C-189.019 575.865 -190.214 574.717 -191.41 573.569C-191.972 573.035 -192.534 572.501 -193.113 571.951C-196.987 568.202 -196.987 568.202 -196.987 566.022C-197.658 566.022 -198.329 566.022 -199.02 566.022C-200.501 564.443 -201.909 562.8 -203.278 561.131C-206.056 557.789 -208.836 554.482 -211.795 551.288C-215.059 547.739 -218.115 544.054 -221.169 540.337C-223.185 537.94 -225.26 535.606 -227.363 533.279C-233.953 525.96 -239.705 518.184 -245.424 510.224C-247.981 506.699 -250.641 503.249 -253.3 499.795C-257.999 493.391 -257.999 493.391 -257.999 490.701C-258.67 490.701 -259.341 490.701 -260.033 490.701C-261.19 489.231 -261.19 489.231 -262.471 487.144C-262.952 486.367 -263.433 485.591 -263.929 484.791C-264.447 483.937 -264.965 483.083 -265.498 482.203C-266.311 480.878 -266.311 480.878 -267.141 479.525C-268.848 476.734 -270.542 473.936 -272.235 471.137C-272.748 470.296 -273.26 469.455 -273.789 468.589C-287.733 445.692 -300.011 422.153 -310.876 397.773C-311.344 396.724 -311.812 395.675 -312.295 394.594C-319.451 378.39 -325.133 361.858 -330.197 344.95C-330.411 344.238 -330.626 343.525 -330.847 342.791C-336.409 324.274 -341.43 305.978 -344.067 286.833C-344.507 283.79 -345.063 280.775 -345.633 277.753C-347.84 265.99 -348.968 254.095 -350.187 242.207C-350.417 240.285 -350.704 238.369 -351.049 236.464C-351.626 232.986 -351.907 229.524 -352.115 226.012C-352.158 225.295 -352.201 224.578 -352.245 223.839C-352.689 215.654 -352.721 207.472 -352.701 199.277C-352.695 196.692 -352.701 194.107 -352.707 191.521C-352.717 175.528 -351.581 159.89 -349.358 144.042C-349.002 141.5 -348.658 138.957 -348.314 136.414C-348.091 134.794 -347.867 133.175 -347.642 131.556C-347.54 130.797 -347.437 130.038 -347.331 129.256C-346.584 123.992 -346.584 123.992 -345.45 122.901Z" fill="var(--fill-0, #AF2838)"/>
<path id="Vector_3" d="M-376.962 494.624C-373.843 496.125 -373.365 499.041 -372.132 502.022C-364.125 520.388 -352.317 537.149 -340.355 553.316C-339.811 554.059 -339.267 554.803 -338.707 555.569C-331.829 564.972 -324.642 574.037 -317.034 582.902C-314.123 586.304 -311.339 589.785 -308.577 593.3C-304.202 598.829 -299.526 603.996 -294.595 609.073C-293.768 609.925 -293.768 609.925 -292.924 610.794C-290.438 613.354 -287.952 615.913 -285.463 618.47C-281.908 622.127 -278.424 625.826 -275.017 629.611C-265.277 640.364 -255.022 650.342 -243.434 659.266C-238.617 662.978 -234.167 666.972 -229.706 671.066C-223.658 676.598 -217.436 681.679 -210.811 686.553C-207.479 689.009 -204.251 691.573 -201.03 694.162C-177.69 712.914 -152.717 729.741 -126.811 745.042C-125.468 745.839 -125.468 745.839 -124.097 746.652C-94.7227 764.064 -64.7524 780.156 -34.0854 795.348C-32.2992 796.233 -30.5138 797.12 -28.7292 798.008C-11.4766 806.581 6.04421 814.349 24.1305 821.157C26.7547 822.153 29.3773 823.152 31.9994 824.153C32.9856 824.529 32.9856 824.529 33.9917 824.912C40.5145 827.407 46.9856 830.017 53.4588 832.628C64.5853 837.111 75.7465 841.223 87.1736 844.93C91.1015 846.233 94.9953 847.623 98.8949 849.002C110.62 853.136 122.425 856.838 134.382 860.3C139.727 861.851 145.049 863.46 150.366 865.099C151.905 865.572 153.444 866.045 154.984 866.517C157.222 867.205 159.459 867.894 161.694 868.591C170.609 871.372 179.545 873.769 188.657 875.882C202.566 879.133 216.155 883.275 229.776 887.488C232.479 888.323 235.185 889.153 237.89 889.983C255.25 895.308 272.581 900.71 289.835 906.345C293.439 907.513 297.051 908.658 300.664 909.798C338.594 921.789 375.515 935.943 412.388 950.619C420.033 953.66 427.695 956.654 435.392 959.571C445.415 963.393 455.218 967.64 465.008 971.982C466.083 972.458 467.159 972.934 468.267 973.424C484.134 980.449 499.923 987.622 515.651 994.93C519.067 996.513 522.49 998.085 525.913 999.654C538.468 1005.42 550.932 1011.28 563.176 1017.64C565.923 1019.06 568.676 1020.47 571.43 1021.89C590.753 1031.83 609.668 1042.37 628.232 1053.57C632.794 1056.31 637.381 1058.91 642.131 1061.33C655.883 1068.35 668.614 1076.96 681.496 1085.34C686.917 1088.86 692.365 1092.34 697.824 1095.81C712.332 1105.04 726.525 1114.57 740.033 1125.12C744.518 1128.62 749.096 1131.97 753.736 1135.28C760.041 1139.78 766.172 1144.45 772.242 1149.24C776.597 1152.68 781.001 1156.04 785.45 1159.37C795.673 1167.05 805.407 1175.05 814.474 1183.98C816.715 1186.08 819.007 1187.92 821.485 1189.75C833.762 1198.93 846.401 1209.99 856.186 1221.67C858.301 1224.09 860.492 1225.93 863.042 1227.9C865.44 1229.92 867.416 1232.24 869.481 1234.57C872.472 1237.86 875.576 1241.04 878.684 1244.23C898.602 1264.7 916.255 1286.46 933.2 1309.27C934.818 1311.44 936.454 1313.59 938.096 1315.74C965.712 1351.97 990.386 1392.14 1007.04 1434.18C1008.8 1438.58 1010.64 1442.95 1012.47 1447.32C1013.43 1449.64 1014.39 1451.96 1015.35 1454.28C1016.02 1455.86 1016.7 1457.43 1017.4 1459C1018.19 1461.08 1018.19 1461.08 1018.19 1464.01C1017.52 1464.01 1016.84 1464.01 1016.15 1464.01C1014.94 1462.55 1013.82 1461.03 1012.72 1459.49C1005.29 1449.41 996.601 1440.3 987.923 1431.2C985.897 1429.06 983.921 1426.89 981.96 1424.7C978.896 1421.3 975.62 1418.15 972.284 1415C970.573 1413.32 969.008 1411.61 967.47 1409.78C965.572 1407.24 965.572 1407.24 963.275 1406.3C963.275 1405.65 963.275 1405.01 963.275 1404.34C962.604 1404.34 961.933 1404.34 961.242 1404.34C961.242 1403.7 961.242 1403.05 961.242 1402.39C960.57 1402.39 959.899 1402.39 959.208 1402.39C959.208 1401.74 959.208 1401.1 959.208 1400.43C958.201 1400.11 957.194 1399.78 956.157 1399.45C954.588 1397.92 954.588 1397.92 952.916 1395.97C946.763 1389 939.949 1382.92 932.769 1376.95C922.959 1368.73 922.959 1368.73 919.613 1364.73C916.358 1360.91 912.464 1358.01 908.468 1354.94C905.108 1352.34 901.839 1349.65 898.577 1346.94C885.137 1335.79 871.315 1325.08 857.521 1314.35C856.593 1313.63 855.665 1312.9 854.708 1312.16C845.148 1304.76 835.454 1297.57 825.426 1290.77C821.533 1288.12 817.721 1285.38 813.934 1282.59C807.551 1277.9 801.091 1273.57 794.231 1269.55C787.365 1265.51 780.692 1261.2 774.01 1256.88C762.804 1249.65 751.497 1242.6 740.077 1235.69C737.646 1234.21 735.228 1232.71 732.815 1231.2C720.251 1223.38 707.241 1216.44 694.128 1209.52C689.058 1206.83 684.028 1204.07 678.996 1201.31C670.616 1196.73 662.181 1192.26 653.701 1187.86C652.667 1187.32 651.633 1186.78 650.567 1186.23C635.583 1178.48 620.254 1171.4 604.927 1164.32C602.739 1163.3 600.552 1162.29 598.365 1161.27C597.38 1160.82 597.38 1160.82 596.375 1160.36C593.67 1159.1 591.049 1157.81 588.486 1156.3C585.703 1154.73 582.934 1153.7 579.903 1152.64C573.018 1150.15 566.41 1147.24 559.768 1144.21C552.019 1140.71 544.336 1137.38 536.268 1134.64C531.356 1132.94 526.628 1130.94 521.875 1128.87C503.635 1120.91 484.877 1114.42 466.025 1107.95C465.213 1107.67 464.401 1107.39 463.564 1107.11C452.719 1103.39 441.849 1099.74 430.967 1096.12C427.04 1094.82 423.116 1093.51 419.193 1092.19C392.999 1083.42 366.829 1075.08 339.975 1068.37C337.821 1067.83 335.67 1067.28 333.519 1066.73C319.783 1063.21 305.995 1059.9 292.203 1056.6C288.783 1055.77 285.362 1054.95 281.942 1054.13C279.709 1053.6 277.476 1053.06 275.243 1052.53C270.153 1051.31 265.065 1050.08 259.981 1048.84C250.74 1046.59 241.517 1044.48 232.144 1042.78C225.878 1041.63 219.668 1040.42 213.487 1038.9C209.388 1037.89 205.407 1037.11 201.193 1036.67C194.311 1035.8 187.685 1034.31 180.985 1032.57C174.657 1031.02 168.337 1030.17 161.869 1029.39C150.2 1027.95 138.817 1025.62 127.36 1023.08C124.064 1022.35 120.764 1021.63 117.464 1020.92C115.328 1020.45 113.193 1019.98 111.057 1019.52C110.09 1019.31 109.123 1019.09 108.126 1018.88C102.718 1017.67 97.4153 1016.3 92.124 1014.68C89.6234 1014 87.1474 1013.56 84.5828 1013.16C76.9454 1011.9 69.5654 1009.76 62.1361 1007.69C61.363 1007.47 60.5899 1007.26 59.7934 1007.04C54.1919 1005.48 48.5973 1003.9 43.0062 1002.31C41.9221 1002 41.9221 1002 40.8161 1001.68C19.4878 995.606 -1.37938 988.631 -22.0736 980.786C-23.2326 980.348 -23.2326 980.348 -24.4151 979.901C-63.2376 965.204 -101.327 948.607 -136.378 926.67C-139.338 924.827 -142.313 923.009 -145.29 921.193C-171.409 905.243 -196.505 888.452 -219.347 868.294C-223.006 865.16 -226.652 862.062 -230.532 859.184C-231.203 858.64 -231.875 858.095 -232.566 857.534C-232.566 856.888 -232.566 856.242 -232.566 855.577C-233.17 855.315 -233.774 855.052 -234.396 854.781C-236.644 853.616 -238.104 852.445 -239.895 850.709C-240.488 850.138 -241.08 849.566 -241.691 848.978C-242.308 848.371 -242.925 847.765 -243.561 847.14C-244.52 846.207 -244.52 846.207 -245.498 845.255C-249.219 841.613 -252.843 837.923 -256.272 834.023C-258.389 831.651 -260.606 829.378 -262.818 827.087C-268.13 821.477 -272.977 815.583 -277.788 809.573C-279.437 807.528 -281.109 805.502 -282.786 803.477C-341.234 732.624 -375.399 641.29 -378.996 543.534C-379.011 542.603 -379.026 541.672 -379.042 540.712C-379.193 529.823 -379.038 518.955 -378.551 508.075C-378.511 507.172 -378.471 506.269 -378.43 505.339C-378.387 504.501 -378.345 503.664 -378.301 502.802C-378.263 502.07 -378.226 501.338 -378.188 500.584C-377.977 498.518 -377.539 496.623 -376.962 494.624Z" fill="var(--fill-0, #AFD5EB)"/>
</g>
</g>
</g>
<defs>
<filter id="filter0_f_0_98" x="-479.098" y="-451.734" width="2240.1" height="2015.75" filterUnits="userSpaceOnUse" color-interpolation-filters="sRGB">
<feFlood flood-opacity="0" result="BackgroundImageFix"/>
<feBlend mode="normal" in="SourceGraphic" in2="BackgroundImageFix" result="shape"/>
<feGaussianBlur stdDeviation="0" result="effect1_foregroundBlur_0_98"/>
</filter>
<linearGradient id="paint0_linear_0_98" x1="870.5" y1="80" x2="870.5" y2="840.096" gradientUnits="userSpaceOnUse">
<stop/>
<stop offset="1" stop-color="white" stop-opacity="0"/>
</linearGradient>
</defs>
</svg>
