<svg preserveAspectRatio="none" width="100%" height="100%" overflow="visible" style="display: block;" viewBox="0 0 182.584 63" fill="none" xmlns="http://www.w3.org/2000/svg">
<g id="Group 1">
<path id="Vector" d="M41.736 6.73433C41.771 6.73429 41.771 6.73429 41.8067 6.73425C41.8723 6.73426 41.938 6.7345 42.0036 6.73485C42.0227 6.73488 42.0417 6.73492 42.0614 6.73495C42.1686 6.73596 42.2691 6.74767 42.3746 6.76618C42.4175 6.76791 42.4606 6.7685 42.5036 6.76786C42.5277 6.76763 42.5518 6.7674 42.5767 6.76717C42.6023 6.76684 42.628 6.76652 42.6545 6.76618C43.4271 6.76188 44.1973 6.82831 44.9643 6.91709C44.9936 6.92046 45.023 6.92384 45.0532 6.92732C45.5069 6.97999 45.9583 7.04328 46.4091 7.11661C46.4357 7.12089 46.4624 7.12517 46.4898 7.12958C46.7874 7.17782 47.0801 7.23565 47.3727 7.30855C47.5202 7.34469 47.6664 7.37154 47.8168 7.39232C48.1643 7.44206 48.5025 7.53644 48.8416 7.62535C48.8971 7.63988 48.9526 7.65433 49.0082 7.66875C50.2327 7.98709 50.2327 7.98709 50.7887 8.20426C50.9243 8.25718 51.0594 8.30045 51.1996 8.33892C51.557 8.44249 51.8998 8.58386 52.2439 8.72456C52.263 8.73236 52.2821 8.74016 52.3017 8.74819C52.9967 9.03198 53.6793 9.3357 54.3545 9.66392C54.5081 9.73857 54.6618 9.8126 54.817 9.88376C55.3477 10.1278 55.8454 10.4319 56.342 10.7376C56.4392 10.7974 56.5366 10.8569 56.634 10.9163C56.7262 10.9725 56.8183 11.0289 56.9103 11.0853C56.9258 11.0948 56.9412 11.1043 56.9572 11.1141C57.0288 11.158 57.1004 11.202 57.1719 11.2462C57.2334 11.2842 57.2951 11.322 57.3569 11.3596C58.1294 11.8326 58.8504 12.3932 59.5508 12.9662C59.6283 13.0296 59.7064 13.0922 59.7849 13.1544C59.9313 13.2712 60.0739 13.3924 60.2164 13.514C60.2632 13.5539 60.3101 13.5937 60.357 13.6335C60.5354 13.7851 60.7103 13.9395 60.8818 14.0989C60.9405 14.1527 60.9998 14.2054 61.0599 14.2576C61.4077 14.5616 61.735 14.8878 62.061 15.2148C62.1289 15.2828 62.1969 15.3506 62.2649 15.4185C62.3088 15.4624 62.3526 15.5063 62.3965 15.5503C62.4165 15.5702 62.4365 15.5901 62.457 15.6107C62.5652 15.7194 62.669 15.8304 62.7689 15.9468C62.8374 16.0258 62.9096 16.1014 62.9814 16.1775C63.1076 16.3123 63.2269 16.4505 63.3423 16.5948C63.4028 16.6683 63.4663 16.7381 63.5312 16.8079C63.6434 16.93 63.7467 17.0566 63.8481 17.1877C63.9266 17.2891 64.0065 17.389 64.088 17.4881C65.0277 18.6309 65.8363 19.8869 66.565 21.1723C66.5814 21.2011 66.5978 21.2298 66.6147 21.2594C67.2398 22.3567 67.7843 23.4973 68.2443 24.6731C68.2692 24.7361 68.2944 24.799 68.3199 24.8617C68.4321 25.1372 68.5322 25.4162 68.6284 25.6977C68.6369 25.7227 68.6455 25.7477 68.6543 25.7735C68.8672 26.3988 69.0499 27.0326 69.2259 27.6692C69.245 27.7382 69.2642 27.8071 69.2835 27.876C69.4241 28.3798 69.5333 28.8883 69.6341 29.4016C69.6399 29.431 69.6457 29.4605 69.6516 29.4909C69.7143 29.8113 69.771 30.1303 69.8101 30.4545C69.8179 30.5124 69.8259 30.5703 69.8341 30.6282C69.8544 30.7737 69.8743 30.9193 69.8942 31.0648C69.9097 31.1786 69.926 31.2922 69.9426 31.4058C70.0163 31.911 70.0682 32.4147 70.1001 32.9243C70.1018 32.9512 70.1035 32.9782 70.1052 33.0059C70.1212 33.2657 70.1368 33.5246 70.1304 33.785C70.1304 33.8644 70.1304 33.8644 70.1451 33.9536C70.168 34.1254 70.1626 34.2989 70.1623 34.472C70.1623 34.5103 70.1623 34.5487 70.1624 34.587C70.1624 34.667 70.1623 34.747 70.1622 34.8271C70.1621 34.9292 70.1622 35.0314 70.1623 35.1336C70.1624 35.2126 70.1624 35.2917 70.1623 35.3707C70.1623 35.4084 70.1623 35.446 70.1624 35.4837C70.1624 35.5365 70.1623 35.5892 70.1622 35.642C70.1622 35.6719 70.1622 35.7018 70.1621 35.7326C70.1585 35.8259 70.1458 35.9155 70.1319 36.0077C70.1288 36.0474 70.1264 36.0872 70.1248 36.1269C70.1239 36.1484 70.123 36.1698 70.1221 36.1918C70.1212 36.2144 70.1203 36.237 70.1194 36.2603C70.1173 36.3094 70.1152 36.3586 70.1131 36.4077C70.1099 36.4842 70.1068 36.5606 70.1038 36.6371C70.0933 36.8977 70.0808 37.1529 70.0361 37.4104C70.0192 37.518 70.0179 37.6243 70.0163 37.733C70.0053 38.0728 69.9454 38.4051 69.8901 38.7397C69.8588 38.9313 69.8336 39.1234 69.8084 39.3158C69.7748 39.5681 69.7338 39.8161 69.6767 40.0641C69.651 40.1785 69.631 40.2938 69.611 40.4094C69.3742 41.77 68.9514 43.0915 68.4926 44.3914C68.4707 44.4538 68.4491 44.5163 68.4277 44.5789C68.3279 44.8684 68.2143 45.1513 68.097 45.4341C68.0789 45.4781 68.0608 45.5221 68.0427 45.5661C67.9884 45.6977 67.9339 45.8292 67.8791 45.9606C67.8696 45.9835 67.8601 46.0064 67.8503 46.03C67.8217 46.0987 67.793 46.1673 67.7643 46.2359C67.7557 46.2565 67.7472 46.2771 67.7383 46.2983C67.6703 46.4604 67.595 46.6178 67.5142 46.7739C67.4627 46.8742 67.4124 46.9752 67.3625 47.0763C67.2134 47.3778 67.0635 47.678 66.8973 47.9705C66.8306 48.0884 66.7695 48.2077 66.7109 48.3298C66.4546 48.8569 66.1319 49.359 65.8141 49.8505C65.7858 49.8946 65.7575 49.9387 65.7291 49.9829C65.0677 51.0102 64.3384 51.9903 63.5446 52.9191C63.5066 52.9638 63.4688 53.0086 63.431 53.0534C63.2726 53.2408 63.1092 53.4225 62.9409 53.6011C62.8627 53.6842 62.7856 53.7676 62.7115 53.8545C62.6153 53.9666 62.5096 54.069 62.4039 54.1722C62.347 54.229 62.2942 54.2883 62.2418 54.3493C62.144 54.4616 62.041 54.5676 61.9356 54.6728C61.9167 54.6917 61.8978 54.7106 61.8784 54.7301C61.8388 54.7697 61.7991 54.8093 61.7594 54.8489C61.6993 54.9089 61.6392 54.9691 61.5792 55.0293C61.5404 55.0681 61.5017 55.1069 61.4629 55.1456C61.4364 55.1722 61.4364 55.1722 61.4094 55.1993C61.3056 55.3026 61.199 55.4011 61.088 55.4966C61.018 55.5573 60.9506 55.6205 60.8828 55.6837C60.7867 55.7727 60.6895 55.8579 60.5861 55.9386C60.4809 56.0209 60.3833 56.1086 60.2861 56.2002C59.9618 56.504 59.6065 56.7728 59.2548 57.0438C59.2104 57.078 59.1661 57.1123 59.1219 57.1466C58.8301 57.3727 58.5348 57.59 58.2286 57.7962C58.1395 57.8562 58.0525 57.9183 57.9663 57.9825C57.7936 58.1095 57.613 58.224 57.4324 58.3393C57.3615 58.3846 57.2907 58.43 57.2199 58.4754C56.9593 58.6423 56.6983 58.8078 56.4316 58.9647C56.3892 58.9896 56.3469 59.0145 56.3047 59.0396C55.5394 59.4927 54.754 59.8917 53.9532 60.2777C53.9044 60.3012 53.8556 60.3248 53.8068 60.3485C53.5029 60.4957 53.1975 60.6361 52.8852 60.7647C52.8249 60.7895 52.7647 60.8146 52.7045 60.8397C52.3681 60.9795 52.0291 61.113 51.6823 61.2252C51.4953 61.2864 51.3092 61.3496 51.1236 61.4148C50.4359 61.6554 49.7424 61.869 49.0405 62.0645C48.9794 62.0816 48.9182 62.0988 48.8571 62.1161C48.1237 62.321 47.3694 62.4422 46.6208 62.5772C46.5354 62.5927 46.4501 62.6084 46.3649 62.6241C46.1009 62.6729 45.8373 62.7197 45.571 62.7543C45.5218 62.7608 45.5218 62.7608 45.4715 62.7674C44.9947 62.8282 44.5161 62.873 44.0373 62.9153C44.0023 62.9184 43.9672 62.9215 43.9311 62.9248C43.0768 62.9982 42.2125 63.0076 41.3555 62.9958C41.3336 62.9955 41.3117 62.9952 41.2891 62.9949C41.1356 62.9928 40.9822 62.9902 40.8287 62.9872C40.7775 62.9863 40.7263 62.9853 40.6752 62.9845C40.373 62.9793 40.076 62.962 39.7758 62.9274C39.6498 62.913 39.5244 62.9069 39.3977 62.9036C39.0876 62.8919 38.7806 62.8562 38.4726 62.8192C38.4074 62.8114 38.3421 62.8039 38.2768 62.7967C37.9774 62.7632 37.6797 62.72 37.3818 62.6745C37.3007 62.6621 37.2195 62.6499 37.1383 62.6378C36.8917 62.6004 36.6474 62.5606 36.404 62.5056C36.3007 62.4833 36.1971 62.465 36.0931 62.4472C35.8485 62.4049 35.6057 62.356 35.3632 62.3033C35.3402 62.2983 35.3173 62.2934 35.2936 62.2882C34.6607 62.1496 34.0388 61.9703 33.4172 61.7886C33.3863 61.7796 33.3863 61.7796 33.3549 61.7704C33.0363 61.6776 32.7192 61.5833 32.4132 61.4538C32.3074 61.4098 32.2013 61.3754 32.0909 61.3447C31.768 61.2544 31.4598 61.1311 31.1493 61.0056C31.1201 60.9938 31.0909 60.9821 31.0609 60.97C29.9923 60.5395 28.9459 60.0584 27.9399 59.4959C27.8586 59.4507 27.7769 59.406 27.6952 59.3615C26.8789 58.9144 26.0769 58.4303 25.3216 57.8859C25.2592 57.8414 25.1963 57.7976 25.1332 57.7539C24.7036 57.4564 24.2925 57.1404 23.8885 56.8091C23.8289 56.7605 23.7689 56.7125 23.7088 56.6646C23.5551 56.5419 23.4025 56.4178 23.2501 56.2935C23.1881 56.2431 23.1261 56.1928 23.0638 56.1428C22.8325 55.9563 22.6125 55.7588 22.4047 55.5462C22.3321 55.4723 22.2589 55.4075 22.1758 55.3457C21.9466 55.1641 21.7468 54.949 21.5415 54.7414C21.4987 54.6983 21.4558 54.6552 21.4129 54.6121C21.3344 54.5331 21.256 54.4541 21.1777 54.375C21.0716 54.2679 20.9651 54.1611 20.8579 54.0551C20.5563 53.7562 20.5563 53.7562 20.4303 53.6071C20.3817 53.5508 20.3312 53.4966 20.2804 53.4423C20.1454 53.2978 20.021 53.1479 19.9002 52.9913C19.809 52.8735 19.7121 52.7627 19.6115 52.6527C19.3872 52.4051 19.188 52.14 18.9888 51.8722C18.8991 51.7516 18.8081 51.6322 18.7166 51.513C18.5268 51.2656 18.3426 51.0152 18.1651 50.7588C18.1334 50.7131 18.1014 50.6676 18.0693 50.6221C17.7286 50.1361 17.4223 49.6308 17.1218 49.1194C17.0593 49.0132 16.9964 48.9072 16.9331 48.8015C16.7383 48.476 16.554 48.1458 16.376 47.8108C16.3483 47.7587 16.3206 47.7067 16.2927 47.6548C15.4702 46.1203 14.8411 44.4674 14.3243 42.8068C14.2952 42.7136 14.2653 42.6206 14.2354 42.5277C14.0759 42.0226 13.9615 41.5118 13.8522 40.9939C13.8169 40.8273 13.7783 40.6616 13.7373 40.4962C13.6912 40.3078 13.652 40.1186 13.6166 39.9278C13.612 39.9034 13.6074 39.879 13.6026 39.8538C13.5792 39.7231 13.5665 39.6012 13.5713 39.4684C13.6459 39.543 13.6424 39.6022 13.6585 39.7065C13.8286 40.7266 14.1091 41.7323 14.4295 42.7145C14.4417 42.7523 14.4538 42.7901 14.466 42.8279C14.6368 43.36 14.8241 43.8811 15.0377 44.3976C15.0734 44.4857 15.1074 44.5743 15.141 44.6632C15.2025 44.8245 15.2718 44.981 15.3447 45.1373C15.3707 45.1934 15.3966 45.2495 15.4226 45.3056C15.4357 45.334 15.4489 45.3624 15.4625 45.3916C15.5145 45.504 15.5659 45.6167 15.6173 45.7293C15.6662 45.8363 15.7153 45.943 15.7645 46.0498C15.7937 46.1136 15.8225 46.1776 15.8512 46.2416C15.9888 46.5454 16.1528 46.8326 16.3188 47.1215C16.3668 47.2057 16.4135 47.2906 16.46 47.3757C16.58 47.595 16.7063 47.8102 16.8348 48.0246C16.8514 48.0522 16.868 48.0799 16.8851 48.1084C17.082 48.435 17.2904 48.7536 17.502 49.0708C17.5149 49.0903 17.5279 49.1098 17.5413 49.1298C17.8897 49.6522 18.2438 50.1671 18.6415 50.6534C18.7385 50.772 18.8341 50.8917 18.9284 51.0125C19.0536 51.1725 19.1804 51.3309 19.3105 51.487C19.3229 51.5018 19.3352 51.5166 19.3479 51.5318C19.504 51.7184 19.6634 51.8962 19.8376 52.0663C19.9011 52.1314 19.9578 52.1989 20.0145 52.27C20.29 52.6144 20.6043 52.9436 20.9398 53.2298C21.0195 53.3019 21.0941 53.3787 21.1694 53.4554C21.3004 53.5887 21.4359 53.7072 21.5825 53.8232C21.6579 53.8864 21.7151 53.9599 21.7779 54.0355C21.8405 54.088 21.905 54.1378 21.9696 54.1879C22.0538 54.2565 22.1317 54.3296 22.2103 54.4044C22.3679 54.5529 22.5358 54.682 22.7101 54.81C22.8303 54.8982 22.9478 54.9898 23.0652 55.0818C23.5444 55.4561 24.0315 55.8214 24.5402 56.1549C24.5722 56.1762 24.6041 56.1976 24.636 56.219C24.653 56.2304 24.6699 56.2417 24.6873 56.2534C24.7191 56.2747 24.751 56.2961 24.7828 56.3175C24.8145 56.3386 24.8463 56.3595 24.8784 56.38C24.9264 56.4123 24.9729 56.4468 25.0187 56.4824C25.2767 56.6758 25.486 56.6982 25.8017 56.6901C25.8482 56.6897 25.8946 56.6895 25.9411 56.6894C26.063 56.6888 26.1849 56.6867 26.3069 56.6843C26.4036 56.6826 26.5004 56.682 26.5971 56.6815C27.0797 56.6788 27.5616 56.6661 28.0436 56.6398C28.0725 56.6382 28.0725 56.6382 28.1021 56.6366C28.509 56.6143 28.9111 56.5646 29.3139 56.5036C29.3428 56.4993 29.3717 56.4949 29.4014 56.4904C29.5873 56.4618 29.7725 56.4301 29.9575 56.3963C29.9828 56.3917 30.0081 56.3872 30.0342 56.3824C30.7357 56.2535 31.4376 56.0866 32.1201 55.879C32.1653 55.8653 32.2106 55.8519 32.2559 55.8386C33.5537 55.4518 34.7802 54.8952 35.9381 54.1965C35.992 54.1644 36.0458 54.1322 36.0997 54.1001C36.402 53.9188 36.6973 53.7308 36.984 53.5258C37.0134 53.5049 37.0134 53.5049 37.0434 53.4836C37.9196 52.8595 38.7263 52.1643 39.4855 51.4026C39.5458 51.3422 39.6063 51.2818 39.6667 51.2215C39.7059 51.1824 39.745 51.1432 39.7841 51.1041C39.8018 51.0864 39.8195 51.0687 39.8378 51.0505C39.9409 50.9468 40.0392 50.8402 40.1346 50.7293C40.1926 50.6625 40.2537 50.5988 40.3146 50.5346C40.458 50.3803 40.5829 50.2149 40.7075 50.0453C40.795 49.9266 40.8857 49.8106 40.9767 49.6946C41.1707 49.4463 41.3584 49.1936 41.5432 48.9384C41.5571 48.9192 41.571 48.9 41.5853 48.8803C42.4049 47.7441 43.07 46.4809 43.6518 45.2077C43.662 45.1856 43.6721 45.1635 43.6825 45.1407C43.7499 44.9905 43.8099 44.8381 43.8683 44.6843C43.9035 44.5918 43.9394 44.4997 43.9754 44.4075C44.3464 43.4967 44.3464 43.4967 44.6327 42.5581C44.6717 42.3959 44.7198 42.2374 44.7693 42.0781C44.8816 41.7163 44.9739 41.3559 45.04 40.9825C45.0549 40.8989 45.0704 40.8153 45.086 40.7318C45.1963 40.142 45.2783 39.5515 45.3425 38.9549C45.4943 37.5818 45.9112 36.0977 46.7997 35.0151C46.8217 34.9881 46.8437 34.9612 46.8664 34.9334C47.2882 34.4445 47.9495 34.0275 48.6024 33.963C48.9184 33.9464 49.2065 33.9843 49.5084 34.0762C49.5267 34.0816 49.545 34.0871 49.5638 34.0927C50.2454 34.3013 50.8554 34.6922 51.4161 35.1242C51.5254 35.2081 51.638 35.2868 51.7511 35.3656C52.031 35.5615 52.2988 35.7677 52.5505 35.9991C52.6311 36.0721 52.7138 36.1423 52.797 36.2123C53.0967 36.4647 53.3868 36.7274 53.6764 36.9914C53.7345 37.0439 53.7934 37.0953 53.853 37.1462C53.9556 37.2352 54.0505 37.3314 54.1459 37.4279C54.2757 37.5587 54.4131 37.6781 54.5553 37.7951C54.6296 37.8578 54.699 37.9213 54.7648 37.9929C54.7648 38.0106 54.7648 38.0283 54.7648 38.0466C54.7796 38.0523 54.7944 38.0581 54.8097 38.064C54.8931 38.1124 54.95 38.1794 55.0129 38.2511C55.0389 38.2802 55.065 38.3092 55.0911 38.3382C55.1103 38.3596 55.1103 38.3596 55.1299 38.3814C55.2672 38.5417 55.2672 38.5417 55.4353 38.6636C55.4353 38.6813 55.4353 38.699 55.4353 38.7173C55.453 38.7173 55.4707 38.7173 55.4889 38.7173C55.522 38.751 55.522 38.751 55.5627 38.8011C55.6577 38.9133 55.7598 39.0164 55.8644 39.1197C55.9762 39.2305 56.0853 39.3414 56.187 39.4616C56.265 39.5509 56.3465 39.6369 56.4276 39.7233C56.6248 39.9336 56.6248 39.9336 56.7092 40.0318C56.844 40.1883 56.9872 40.3375 57.1285 40.4882C57.2235 40.5895 57.3182 40.6911 57.4128 40.7927C57.4924 40.8782 57.5723 40.9634 57.6525 41.0483C57.811 41.2163 57.9639 41.3854 58.108 41.5661C58.1838 41.657 58.264 41.743 58.3451 41.8292C58.5477 42.0448 58.7328 42.2721 58.9107 42.5085C58.9462 42.5568 58.9462 42.5568 59.0022 42.5804C59.0022 42.5981 59.0022 42.6158 59.0022 42.634C59.0199 42.634 59.0376 42.634 59.0558 42.634C59.0915 42.6734 59.1252 42.7146 59.158 42.7564C59.2597 42.8837 59.3643 43.0077 59.4715 43.1303C59.592 43.2686 59.7098 43.4086 59.8252 43.5512C59.8987 43.6406 59.9741 43.7284 60.0498 43.8161C60.1589 43.9427 60.2651 44.071 60.3687 44.2023C60.433 44.2822 60.4994 44.3602 60.566 44.4381C60.6672 44.5568 60.7653 44.6772 60.861 44.8003C61.0709 45.07 61.2883 45.3338 61.5108 45.5932C61.624 45.7253 61.7279 45.8599 61.8255 46.0042C61.8748 46.0721 61.9285 46.1322 61.9857 46.1936C62.1059 46.3229 62.2078 46.462 62.3084 46.6068C62.379 46.7104 62.379 46.7104 62.4886 46.7654C62.607 46.5313 62.7235 46.2965 62.8334 46.0583C62.8838 45.9497 62.9366 45.8425 62.9907 45.7357C63.1084 45.5027 63.2176 45.2667 63.3229 45.028C63.3502 44.9662 63.3777 44.9045 63.4051 44.8428C63.5611 44.4915 63.7058 44.1362 63.8382 43.7752C63.8702 43.6883 63.9028 43.6016 63.9356 43.5149C64.1327 42.9882 64.2906 42.4498 64.4464 41.9097C64.4529 41.8869 64.4595 41.8641 64.4663 41.8406C64.9105 40.2979 65.1893 38.7365 65.3364 37.1378C65.3387 37.1131 65.341 37.0883 65.3433 37.0628C65.388 36.5728 65.4147 36.0837 65.4269 35.5919C65.4277 35.5587 65.4277 35.5587 65.4286 35.5249C65.4382 35.1403 65.4444 34.756 65.4386 34.3713C65.4379 34.3225 65.4379 34.3225 65.4372 34.2726C65.4135 32.8945 65.3023 31.5131 65.0364 30.1594C65.0327 30.141 65.0291 30.1225 65.0254 30.1035C64.9027 29.4841 64.7404 28.8756 64.5737 28.2668C64.5617 28.223 64.5617 28.223 64.5495 28.1783C64.5344 28.1235 64.5193 28.0688 64.5042 28.014C64.4731 27.9009 64.4434 27.7882 64.419 27.6735C64.3939 27.5573 64.3591 27.4461 64.3208 27.3337C64.314 27.3133 64.3072 27.293 64.3002 27.2721C64.2786 27.2078 64.2569 27.1436 64.2352 27.0793C64.2208 27.0366 64.2064 26.9939 64.1921 26.9512C64.1642 26.8682 64.1362 26.7852 64.1081 26.7023C64.0866 26.6384 64.0654 26.5744 64.0448 26.5102C63.9537 26.2263 63.8414 25.95 63.7323 25.6726C63.716 25.6311 63.716 25.6311 63.6994 25.5888C63.6269 25.4043 63.554 25.2198 63.4809 25.0354C63.4697 25.0071 63.4697 25.0071 63.4582 24.9782C62.7388 23.1633 61.7013 21.4359 60.5576 19.8578C60.5432 19.8378 60.5287 19.8178 60.5137 19.7971C60.1535 19.301 59.7774 18.8184 59.3801 18.3514C59.2996 18.2566 59.221 18.1606 59.143 18.0637C59.0628 17.9651 58.98 17.8737 58.8884 17.7857C58.8442 17.7415 58.8044 17.6959 58.7643 17.648C58.6747 17.5448 58.5797 17.4483 58.4827 17.3522C58.4597 17.3294 58.4597 17.3295 58.4363 17.3062C58.3722 17.2429 58.3081 17.1797 58.2438 17.1166C58.1965 17.0701 58.1493 17.0234 58.1022 16.9766C58.0802 16.9552 58.0802 16.9552 58.0577 16.9333C58.0229 16.8986 57.9894 16.8626 57.9562 16.8263C57.9562 16.8086 57.9562 16.7909 57.9562 16.7727C57.9413 16.7665 57.9263 16.7603 57.9108 16.7539C57.8327 16.7099 57.7797 16.6553 57.717 16.5913C57.6983 16.5724 57.6983 16.5724 57.6793 16.5532C57.6396 16.513 57.6001 16.4727 57.5607 16.4323C57.4091 16.2779 57.2585 16.1244 57.0938 15.9837C57.0094 15.9108 56.9292 15.8333 56.8483 15.7566C56.708 15.6245 56.5653 15.4995 56.4147 15.3793C56.3484 15.3251 56.2858 15.2683 56.2231 15.21C56.0526 15.0548 55.8677 14.919 55.6839 14.7802C55.5841 14.7042 55.4855 14.6267 55.3867 14.5494C54.6246 13.9552 53.8369 13.4184 53.0099 12.9195C52.8946 12.8499 52.7798 12.7795 52.6652 12.7088C52.2996 12.4836 51.9309 12.2701 51.5466 12.078C51.5145 12.0618 51.4825 12.0456 51.4504 12.0295C50.4429 11.5225 49.4134 11.0626 48.3537 10.6753C48.2976 10.6547 48.2415 10.6338 48.1854 10.6129C47.7114 10.4364 47.2396 10.2705 46.7498 10.1423C46.6619 10.1186 46.5747 10.093 46.4875 10.067C45.0425 9.63893 43.5531 9.34271 42.0519 9.21212C41.9478 9.20291 41.8439 9.19263 41.74 9.1825C41.6576 9.17449 41.5752 9.16683 41.4928 9.15926C41.4527 9.15541 41.4126 9.15129 41.3725 9.14697C41.2049 9.12907 41.0379 9.11983 40.8694 9.11356C40.6865 9.10629 40.5039 9.09784 40.3213 9.08505C40.1564 9.07399 39.9931 9.07266 39.828 9.07415C39.7615 9.07347 39.6997 9.06948 39.6341 9.0599C39.4573 9.03672 39.2842 9.04137 39.1072 9.05948C38.9265 9.07655 38.7458 9.07892 38.5645 9.08219C37.4583 9.10342 36.3523 9.18561 35.2623 9.37749C35.1242 9.40153 34.9859 9.42427 34.8476 9.44703C34.4863 9.50654 34.1257 9.56887 33.7658 9.63668C33.7437 9.64079 33.7215 9.64489 33.6987 9.64912C32.9301 9.79214 32.1811 10.0231 31.4347 10.2526C31.3434 10.2806 31.2521 10.3085 31.1608 10.3363C30.8448 10.4331 30.5332 10.535 30.2257 10.6561C30.1644 10.6797 30.103 10.7032 30.0417 10.7267C29.9549 10.7603 29.8681 10.7939 29.7813 10.8275C29.6518 10.8775 29.5224 10.9266 29.3912 10.9722C29.1651 11.0539 28.9477 11.1571 28.7289 11.2564C28.681 11.2781 28.633 11.2998 28.5851 11.3215C28.4435 11.3856 28.3021 11.4501 28.1607 11.5146C28.1407 11.5237 28.1207 11.5328 28.1001 11.5422C27.4203 11.8522 26.7591 12.1869 26.1171 12.5698C26.0463 12.612 25.9752 12.6538 25.9042 12.6956C25.5588 12.8995 25.2232 13.1174 24.8888 13.3388C24.8611 13.3571 24.8334 13.3754 24.8048 13.3943C24.4891 13.6029 24.1749 13.8126 23.8697 14.0363C23.8508 14.0501 23.832 14.0638 23.8125 14.078C23.5341 14.2807 23.2597 14.488 22.9887 14.7005C22.906 14.7653 22.8227 14.8292 22.739 14.8927C22.4636 15.1016 22.2042 15.3284 21.9512 15.5637C21.8574 15.6504 21.7606 15.7324 21.6622 15.8136C21.5061 15.9431 21.3636 16.0841 21.2214 16.2286C21.1221 16.3294 21.0211 16.4254 20.9132 16.517C20.7887 16.6254 20.6745 16.7443 20.5677 16.8699C20.4757 16.9772 20.3763 17.0758 20.276 17.1751C20.1635 17.2866 20.0537 17.3981 19.9514 17.5191C19.8943 17.5847 19.8352 17.6478 19.7757 17.7112C19.633 17.8632 19.4962 18.0174 19.3657 18.1803C19.2945 18.2679 19.2196 18.352 19.1436 18.4355C19.1008 18.4842 19.0635 18.5343 19.0256 18.5869C18.9619 18.6506 18.9619 18.6506 18.8881 18.6556C18.7709 18.6128 18.6663 18.5539 18.5596 18.4896C18.5976 18.3803 18.6501 18.2995 18.7205 18.2079C18.7311 18.1941 18.7418 18.1802 18.7527 18.1659C18.7752 18.1365 18.7978 18.1071 18.8204 18.0779C18.8537 18.0348 18.8868 17.9916 18.9198 17.9483C18.9871 17.8602 19.0549 17.7724 19.1228 17.6848C19.1346 17.6695 19.1465 17.6542 19.1587 17.6385C19.3039 17.4509 19.4519 17.2663 19.6061 17.086C19.6819 16.9974 19.7557 16.9074 19.8285 16.8163C19.9431 16.6751 20.0666 16.5437 20.1916 16.4117C20.2812 16.3165 20.3662 16.2201 20.447 16.1171C20.568 15.9651 20.7045 15.8306 20.8433 15.6951C20.9492 15.5914 21.049 15.4847 21.1457 15.3723C21.1986 15.3117 21.2545 15.2547 21.3119 15.1983C21.3323 15.1781 21.3527 15.1579 21.3738 15.1371C21.4012 15.1101 21.4012 15.1101 21.4292 15.0826C21.453 15.0588 21.4768 15.035 21.5013 15.0105C21.5218 14.99 21.5422 14.9695 21.5633 14.9485C21.5771 14.934 21.591 14.9195 21.6052 14.9046C21.6439 14.8646 21.684 14.826 21.7242 14.7875C21.7419 14.7875 21.7596 14.7875 21.7779 14.7875C21.7867 14.7609 21.7956 14.7344 21.8047 14.707C21.8467 14.6656 21.8467 14.6656 21.9002 14.6215C21.9793 14.5545 22.054 14.4859 22.1265 14.4119C22.2111 14.3262 22.2986 14.2462 22.39 14.1677C22.4565 14.1096 22.521 14.0495 22.5858 13.9894C22.7111 13.8749 22.8414 13.7695 22.9756 13.6656C23.0853 13.5804 23.1925 13.4927 23.2981 13.4025C23.4251 13.2942 23.5531 13.1872 23.6826 13.0819C23.7411 13.0343 23.7993 12.9865 23.8574 12.9385C24.2646 12.603 24.6878 12.2892 25.1207 11.9878C25.1911 11.9387 25.2613 11.8892 25.3314 11.8398C25.6314 11.6287 25.9342 11.4249 26.2463 11.2322C26.3125 11.1912 26.3785 11.1499 26.4444 11.1085C27.839 10.2353 29.3189 9.4388 30.8628 8.86255C30.9892 8.81514 31.1145 8.76595 31.2389 8.71335C32.2403 8.29026 33.2798 7.98446 34.329 7.70513C34.3554 7.69808 34.3818 7.69104 34.409 7.68377C35.2287 7.46537 36.048 7.279 36.8859 7.14407C37.0202 7.12243 37.1538 7.09852 37.2874 7.07302C37.9027 6.96343 38.5322 6.91013 39.1539 6.85199C39.217 6.846 39.2801 6.83974 39.3432 6.8335C39.7036 6.79851 40.0634 6.77693 40.4252 6.76283C40.4531 6.7617 40.4811 6.76058 40.5098 6.75941C40.9185 6.74315 41.3269 6.7343 41.736 6.73433Z" fill="var(--fill-0, white)"/>
<path id="Vector_2" d="M12.3373 0.00592109C12.1442 0.201212 11.9431 0.387387 11.7288 0.55923C11.612 0.653278 11.5065 0.753636 11.4019 0.861035C11.3479 0.915137 11.2923 0.965467 11.2344 1.01529C11.0974 1.13332 10.9717 1.25874 10.8539 1.3959C10.7798 1.48204 10.7017 1.5625 10.6209 1.64237C10.5255 1.73682 10.4348 1.83297 10.3478 1.93517C10.3131 1.97496 10.2775 2.01387 10.2411 2.05212C10.0227 2.28308 9.84012 2.53776 9.65542 2.79594C9.63992 2.81743 9.62442 2.83893 9.60845 2.86107C9.34817 3.22253 9.10824 3.59527 8.87768 3.97633C8.8599 4.00555 8.8599 4.00555 8.84177 4.03536C8.43334 4.7127 8.14223 5.46633 7.91388 6.22143C7.90408 6.25373 7.89427 6.28604 7.88416 6.31933C7.81719 6.5471 7.76806 6.77465 7.72448 7.0078C7.71666 7.04693 7.70881 7.08605 7.7009 7.12516C7.66005 7.34186 7.63189 7.55773 7.61217 7.7774C7.60992 7.8019 7.60767 7.8264 7.60536 7.85164C7.57584 8.20959 7.59327 8.55844 7.63396 8.9142C7.63635 8.93515 7.63874 8.9561 7.6412 8.97768C7.81963 10.5176 8.46809 11.9362 9.45448 13.1294C9.50975 13.1966 9.56404 13.2645 9.61854 13.3323C9.72642 13.4642 9.84043 13.5894 9.9565 13.714C10.0126 13.7744 10.0664 13.8363 10.1199 13.8989C10.22 14.0137 10.3283 14.1175 10.4399 14.2209C10.4599 14.2396 10.4799 14.2583 10.5005 14.2775C10.5584 14.3314 10.6165 14.3852 10.6745 14.4389C10.6894 14.4527 10.7042 14.4665 10.7195 14.4807C10.8954 14.6443 11.0776 14.7979 11.2645 14.9486C11.2988 14.9766 11.333 15.0047 11.3672 15.0328C11.7463 15.3461 11.7463 15.3461 12.1512 15.6243C12.2876 15.709 12.4151 15.8032 12.5435 15.8993C12.8421 16.1222 13.1519 16.3274 13.4637 16.5314C13.4957 16.5524 13.4957 16.5524 13.5285 16.5739C13.6583 16.6588 13.7888 16.7429 13.9196 16.8265C13.9383 16.8385 13.957 16.8505 13.9763 16.8629C15.0264 17.5352 16.1045 18.1688 17.2128 18.7402C17.2786 18.7744 17.3443 18.8089 17.4098 18.8436C17.7369 19.0167 18.0659 19.1857 18.3966 19.3516C18.4366 19.3716 18.4366 19.3717 18.4773 19.3921C18.9288 19.6181 19.385 19.8298 19.8483 20.0303C19.9913 20.0922 20.1335 20.1559 20.2755 20.2202C21.0398 20.5645 21.8175 20.8761 22.6007 21.1746C22.6519 21.1941 22.7031 21.2137 22.7542 21.2333C23.2224 21.4134 23.2224 21.4134 23.7036 21.5532C23.8208 21.5831 23.9335 21.6231 24.0475 21.6634C24.557 21.8428 25.0777 21.9758 25.6011 22.1078C25.7592 22.1477 25.917 22.1887 26.0746 22.2307C27.4262 22.5881 28.8307 22.7993 30.221 22.9372C30.2833 22.9435 30.3457 22.9502 30.4081 22.9568C30.7101 22.9887 31.0115 23.0114 31.3148 23.0253C31.338 23.0263 31.3611 23.0274 31.3849 23.0286C32.2708 23.0697 33.1586 23.0787 34.0453 23.0806C34.0639 23.0807 34.0824 23.0807 34.1015 23.0808C34.2873 23.0814 34.4696 23.076 34.6545 23.057C34.8114 23.0435 34.969 23.0425 35.1264 23.0387C35.8564 23.018 36.5719 22.9567 37.2942 22.8527C37.4715 22.8272 37.6491 22.8039 37.8268 22.7805C38.0232 22.7545 38.2196 22.7283 38.4158 22.7008C39.1521 22.5986 39.8871 22.5237 40.631 22.5139C40.6641 22.5134 40.6641 22.5134 40.6979 22.513C41.5089 22.5029 42.3032 22.5219 43.1073 22.6379C43.176 22.6476 43.2448 22.6566 43.3137 22.6654C44.596 22.8348 45.8934 23.3226 46.8709 24.1802C46.9518 24.251 47.0352 24.3182 47.1194 24.3851C47.2424 24.4855 47.3435 24.5903 47.4429 24.7137C47.4671 24.7423 47.4913 24.771 47.5155 24.7996C47.9638 25.3364 48.2703 25.9385 48.4352 26.6184C48.458 26.6202 48.458 26.6202 48.4812 26.6221C48.6425 26.635 48.8038 26.6492 48.9649 26.664C49.0193 26.6691 49.0737 26.6739 49.128 26.6786C49.9359 26.7502 50.7927 26.9027 51.5462 27.2086C51.5811 27.2227 51.5811 27.2227 51.6168 27.2371C52.3093 27.5218 52.9878 27.9309 53.3967 28.5768C53.4107 28.5976 53.4247 28.6185 53.4391 28.64C53.6704 28.9991 53.7762 29.4407 53.7989 29.8645C53.8 29.8837 53.8012 29.9029 53.8023 29.9227C53.8358 31.1385 53.2503 32.2975 52.6156 33.295C52.5973 33.3237 52.579 33.3525 52.5602 33.3821C52.3273 33.7447 52.3273 33.7447 52.2435 33.8349C52.2258 33.8349 52.2081 33.8349 52.1898 33.8349C52.1833 33.8144 52.1767 33.7939 52.1699 33.7728C51.9266 33.0752 51.3666 32.5256 50.7156 32.1987C50.1081 31.9062 49.5025 31.8163 48.8325 31.8145C48.7983 31.8143 48.764 31.8142 48.7288 31.814C48.1226 31.8187 47.5011 31.9783 46.9602 32.2521C46.9327 32.2657 46.9327 32.2657 46.9047 32.2795C46.6226 32.4197 46.3588 32.5798 46.102 32.7618C46.0738 32.7817 46.0457 32.8016 46.0167 32.8221C45.8172 32.9675 45.6364 33.1279 45.4583 33.2984C45.4334 33.3218 45.4086 33.3453 45.3829 33.3695C45.1911 33.5552 45.0277 33.7554 44.8683 33.969C44.8573 33.9836 44.8463 33.9983 44.8349 34.0133C44.2193 34.8337 43.7342 35.7851 43.5006 36.7859C43.4918 36.8226 43.4831 36.8592 43.4744 36.8959C43.3585 37.3853 43.2636 37.8667 43.2235 38.3688C43.2113 38.5157 43.19 38.6597 43.1666 38.805C43.1116 39.1533 43.0909 39.504 43.0673 39.8555C43.0416 40.2348 43 40.6063 42.9352 40.981C42.9101 41.128 42.8937 41.2753 42.8787 41.4236C42.756 42.4694 42.3412 43.4634 41.8378 44.378C41.8255 44.4005 41.8132 44.4231 41.8004 44.4463C41.5212 44.955 41.1982 45.4198 40.8386 45.8744C40.761 45.9733 40.6852 46.0736 40.6092 46.1737C40.393 46.457 40.1676 46.7267 39.924 46.9866C39.8769 47.0372 39.8304 47.0883 39.7839 47.1395C39.768 47.1568 39.7522 47.1742 39.7359 47.192C39.7051 47.2258 39.6743 47.2597 39.6437 47.2936C39.6074 47.3332 39.5695 47.3715 39.5314 47.4094C39.5137 47.4094 39.496 47.4094 39.4778 47.4094C39.4765 47.3888 39.4751 47.3681 39.4738 47.3469C39.4112 46.4232 39.2621 45.5112 38.971 44.6311C38.9377 44.5274 38.9073 44.4231 38.8771 44.3185C38.8072 44.0779 38.7292 43.8404 38.6481 43.6033C38.6407 43.5816 38.6332 43.5599 38.6256 43.5375C37.9569 41.5886 36.9467 39.7912 35.7768 38.1004C35.7601 38.0762 35.7434 38.052 35.7262 38.027C35.5132 37.7188 35.2946 37.4151 35.0709 37.1146C35.0269 37.0555 34.9831 36.9964 34.9392 36.9372C34.7855 36.7303 34.6286 36.5272 34.4627 36.3298C34.446 36.3099 34.446 36.3099 34.4289 36.2896C34.3551 36.2017 34.281 36.1142 34.2067 36.0269C34.1804 35.996 34.1542 35.9651 34.1279 35.9342C33.9859 35.7666 33.8428 35.6006 33.6933 35.4395C33.6 35.3388 33.5111 35.2363 33.4251 35.1293C33.3377 35.0207 33.2459 34.9218 33.146 34.8248C33.0778 34.7568 33.0159 34.6841 32.9532 34.6111C32.8944 34.5448 32.8316 34.4833 32.7684 34.4213C32.7233 34.3753 32.6817 34.3281 32.6402 34.279C32.5024 34.1206 32.3527 33.9738 32.2042 33.8256C32.1725 33.7939 32.1408 33.7621 32.1091 33.7304C32.043 33.6642 31.9768 33.5981 31.9106 33.532C31.8263 33.4478 31.7421 33.3635 31.6579 33.2791C31.5926 33.2137 31.5272 33.1483 31.4618 33.083C31.4307 33.0519 31.3997 33.0208 31.3687 32.9897C31.1804 32.8012 30.9894 32.6194 30.7835 32.45C30.6871 32.3686 30.6004 32.2793 30.5126 32.1888C30.3545 32.0269 30.1878 31.883 30.0108 31.7424C29.826 31.5935 29.6452 31.4407 29.4663 31.2849C29.229 31.0784 28.9888 30.8759 28.7449 30.6774C28.6779 30.6223 28.6116 30.5664 28.5456 30.5101C28.0829 30.1156 27.596 29.7569 27.1026 29.4018C26.9713 29.3071 26.8413 29.2109 26.7121 29.1133C26.3703 28.8555 26.0217 28.6072 25.6715 28.361C25.5971 28.3087 25.5228 28.2561 25.4488 28.2032C25.0339 27.9074 24.611 27.6255 24.1765 27.3592C24.0409 27.2759 23.9072 27.1906 23.7754 27.1013C23.5955 26.9795 23.4114 26.865 23.2263 26.7512C23.0728 26.6567 22.9201 26.561 22.7681 26.4642C22.2394 26.1286 21.7012 25.8075 21.1606 25.4917C21.134 25.4761 21.1075 25.4606 21.0801 25.4446C20.4353 25.0683 19.781 24.7095 19.1238 24.3554C19.0391 24.3098 18.9545 24.2639 18.8699 24.2181C18.5107 24.0241 18.1494 23.8343 17.7865 23.6473C17.7568 23.6319 17.7568 23.6319 17.7264 23.6162C17.4928 23.4956 17.2578 23.3789 17.0203 23.2662C16.6251 23.0785 16.234 22.8826 15.8428 22.6869C15.7574 22.6442 15.672 22.6015 15.5866 22.559C15.1257 22.3294 14.6668 22.0983 14.217 21.8475C14.1401 21.8048 14.0627 21.7633 13.9852 21.7218C13.6392 21.5365 13.299 21.343 12.9611 21.1435C12.8669 21.0881 12.7726 21.0331 12.6782 20.9782C12.331 20.7762 11.9863 20.5714 11.6485 20.3538C11.5828 20.3117 11.5167 20.2702 11.4506 20.2287C10.5826 19.6832 9.73968 19.0936 8.93132 18.463C8.90048 18.4391 8.86965 18.4152 8.83881 18.3913C8.65212 18.2461 8.46983 18.0968 8.29008 17.9431C8.21323 17.8775 8.13496 17.8138 8.05636 17.7504C7.92869 17.6465 7.80686 17.5372 7.68571 17.4258C7.62721 17.3722 7.56812 17.3196 7.50825 17.2675C7.17824 16.9801 6.85415 16.6857 6.54833 16.3727C6.4956 16.3158 6.4956 16.3158 6.43718 16.29C6.43718 16.2723 6.43718 16.2546 6.43718 16.2363C6.41405 16.2268 6.41405 16.2268 6.39046 16.217C6.31677 16.1752 6.27441 16.1262 6.21928 16.0619C6.13418 15.9647 6.04703 15.8721 5.95444 15.7819C5.83987 15.6687 5.73834 15.5492 5.63796 15.4233C5.58251 15.3554 5.52473 15.2912 5.465 15.227C5.30809 15.0546 5.17062 14.8675 5.03059 14.6815C4.99366 14.6329 4.95624 14.5847 4.91836 14.5368C4.02329 13.3996 3.30762 12.0217 3.00439 10.6026C2.99851 10.5757 2.99263 10.5488 2.98657 10.5211C2.84383 9.86447 2.80055 9.23458 2.81666 8.56377C2.81719 8.53713 2.81772 8.51049 2.81827 8.48304C2.82854 8.11851 2.90326 7.76941 2.98428 7.41523C2.99176 7.38232 2.99176 7.38232 2.9994 7.34873C3.19359 6.50429 3.53127 5.72657 3.99668 4.99576C4.00883 4.97667 4.02098 4.95757 4.03349 4.93789C4.17056 4.72403 4.31536 4.5193 4.47942 4.32509C4.4965 4.30463 4.4965 4.30463 4.51394 4.28377C4.80297 3.93817 5.11037 3.61148 5.42813 3.29224C5.44789 3.27235 5.46765 3.25246 5.48801 3.23196C5.83715 2.88373 6.22491 2.57523 6.62938 2.29394C6.68147 2.25735 6.73299 2.22004 6.78446 2.18258C7.06996 1.97586 7.3657 1.79178 7.67084 1.61555C7.6912 1.60372 7.71156 1.59189 7.73254 1.57971C8.63752 1.05653 9.61685 0.681119 10.6142 0.37647C10.6445 0.36717 10.6748 0.35787 10.706 0.348288C11.8829 -0.0119575 11.8829 -0.0119575 12.3373 0.00592109ZM41.6769 25.5722C41.7116 25.5702 41.7463 25.5683 41.782 25.5663C41.9257 25.5585 42.0695 25.5517 42.2133 25.5453C42.2457 25.5438 42.2781 25.5423 42.3114 25.5407C42.5946 25.5336 42.924 25.5519 43.1519 25.7331C43.2052 25.7949 43.2052 25.7949 43.2525 25.8639C43.2797 25.9026 43.2797 25.9026 43.3074 25.9422C43.3269 25.9706 43.3464 25.999 43.3665 26.0282C43.7455 26.5783 44.2654 27.0554 44.9424 27.1919C45.6907 27.3161 46.3992 27.038 47.0016 26.6145C47.0233 26.5981 47.0451 26.5817 47.0675 26.5648C47.0675 26.5559 47.0675 26.5471 47.0675 26.5379C47.0193 26.5291 47.0193 26.5291 46.9701 26.5201C46.7031 26.469 46.4594 26.4053 46.2104 26.294C46.1494 26.2669 46.088 26.241 46.0266 26.2151C45.6114 26.0373 45.2611 25.8173 44.9052 25.5403C44.6961 25.3782 44.5 25.2392 44.2515 25.1429C44.2345 25.1363 44.2176 25.1296 44.2001 25.1227C43.5048 24.8589 42.2049 24.994 41.6769 25.5722Z" fill="var(--fill-0, white)"/>
<path id="Vector_3" d="M0.888665 13.0171C0.928342 13.0913 0.954611 13.1611 0.975406 13.2425C1.08871 13.6615 1.26124 14.0399 1.45751 14.4248C1.50207 14.5127 1.54543 14.601 1.58846 14.6897C1.97911 15.4822 2.51404 16.2083 3.07607 16.8871C3.13191 16.9548 3.18687 17.0232 3.242 17.0915C3.33826 17.2091 3.43848 17.3225 3.54078 17.4349C3.59054 17.4897 3.63939 17.5452 3.68786 17.6012C3.92323 17.8706 4.16956 18.1276 4.42284 18.3801C4.4743 18.4314 4.52561 18.4829 4.57691 18.5344C4.73758 18.6952 4.89891 18.8525 5.07238 18.9995C5.12 19.043 5.1675 19.0866 5.21485 19.1303C5.33642 19.2412 5.46113 19.3468 5.58916 19.4501C5.63686 19.4886 5.6843 19.5275 5.73142 19.5667C5.84272 19.6592 5.955 19.7495 6.07137 19.8356C6.09104 19.8501 6.1107 19.8647 6.13096 19.8797C6.17016 19.9085 6.20947 19.9372 6.24891 19.9657C6.29571 20.0001 6.34124 20.0362 6.38649 20.0726C6.38649 20.0903 6.38649 20.108 6.38649 20.1263C6.40571 20.1327 6.42493 20.1392 6.44474 20.1459C6.53167 20.1849 6.5896 20.2329 6.66138 20.2956C7.16609 20.7266 7.71761 21.0988 8.27108 21.4637C8.31867 21.4953 8.36606 21.5271 8.4134 21.559C8.62023 21.6982 8.82955 21.8329 9.04084 21.9653C9.15151 22.0348 9.2609 22.1055 9.36861 22.1795C9.821 22.4899 10.3084 22.7521 10.7848 23.0236C10.8152 23.041 10.8152 23.041 10.8462 23.0587C11.1351 23.2237 11.4283 23.3798 11.7234 23.5333C11.763 23.5539 11.763 23.5539 11.8033 23.5749C11.9686 23.6609 12.1339 23.7466 12.2994 23.8322C12.401 23.8847 12.5025 23.9375 12.604 23.9903C13.0067 24.2001 13.4109 24.4048 13.8219 24.5981C13.8957 24.6332 13.969 24.6694 14.0422 24.7058C14.5228 24.9439 15.0172 25.1469 15.5126 25.352C15.7175 25.437 15.9214 25.5243 16.125 25.6124C16.3467 25.7081 16.5693 25.8004 16.7938 25.8891C17.0731 25.9993 17.3494 26.1159 17.6252 26.2345C17.6447 26.2428 17.6642 26.2512 17.6843 26.2599C17.7792 26.3007 17.874 26.3416 17.9688 26.3828C18.0408 26.414 18.113 26.4448 18.1853 26.4752C18.4036 26.5677 18.6131 26.6715 18.822 26.7834C19.0358 26.8974 19.2541 27.0008 19.4736 27.1033C20.0975 27.3952 20.7093 27.704 21.3046 28.0512C21.384 28.0973 21.4637 28.1429 21.5434 28.1883C21.9586 28.4255 22.3674 28.6718 22.7727 28.9256C22.7978 28.9413 22.823 28.957 22.8489 28.9732C23.604 29.4465 24.3395 29.9504 25.0682 30.463C25.1306 30.5069 25.1931 30.5505 25.2556 30.5942C25.4725 30.7459 25.6857 30.9009 25.8939 31.0645C25.9398 31.1006 25.9859 31.1364 26.0319 31.1723C26.3016 31.3829 26.5661 31.5992 26.8269 31.8207C26.9669 31.9395 27.1089 32.0559 27.2514 32.1716C27.2859 32.1997 27.3203 32.2277 27.3548 32.2557C27.373 32.2705 27.3912 32.2852 27.4099 32.3004C27.4473 32.3308 27.4847 32.3613 27.5221 32.3917C27.6013 32.4561 27.6805 32.5204 27.7603 32.5841C27.936 32.7251 28.1005 32.8759 28.2645 33.03C28.3301 33.0914 28.3967 33.1511 28.465 33.2095C28.5673 33.2975 28.6605 33.3935 28.7538 33.491C28.8223 33.5589 28.8967 33.618 28.9719 33.6783C29.1303 33.8067 29.2739 33.9463 29.417 34.0915C29.441 34.1154 29.4649 34.1394 29.4896 34.1641C29.5926 34.2678 29.6937 34.3718 29.7887 34.4829C29.8872 34.5975 29.9963 34.6987 30.1076 34.8007C30.2395 34.9216 30.3634 35.0439 30.4797 35.18C30.543 35.2525 30.6116 35.319 30.6808 35.3859C30.78 35.4833 30.8725 35.5819 30.9591 35.691C31.0664 35.8262 31.1823 35.9514 31.301 36.0767C31.3292 36.1064 31.3292 36.1064 31.358 36.1368C31.3944 36.1752 31.4308 36.2136 31.4672 36.252C31.636 36.4301 31.7922 36.614 31.9423 36.808C32.0349 36.927 32.1331 37.0393 32.2351 37.1505C32.431 37.3679 32.6084 37.6023 32.7884 37.833C32.832 37.8888 32.8758 37.9445 32.9197 38.0001C33.0935 38.2216 33.2627 38.4454 33.4264 38.6745C33.5068 38.7869 33.5884 38.8981 33.6721 39.008C33.8853 39.288 34.0818 39.5789 34.2779 39.871C34.2942 39.8952 34.3104 39.9193 34.3272 39.9442C34.6265 40.3883 34.915 40.8384 35.1883 41.2991C35.2251 41.3608 35.2626 41.4221 35.3 41.4835C35.7054 42.1514 36.0854 42.8457 36.4256 43.5492C36.4427 43.5844 36.4598 43.6195 36.4771 43.6545C36.6303 43.9651 36.7652 44.2823 36.896 44.6027C36.9692 44.7821 37.0449 44.9598 37.1257 45.1358C37.35 45.6344 37.5078 46.1559 37.6654 46.6784C37.6776 46.7183 37.6776 46.7183 37.69 46.759C37.7755 47.0403 37.8536 47.3208 37.9092 47.6097C37.9136 47.6324 37.918 47.6551 37.9225 47.6785C37.9549 47.8583 37.9643 48.0315 37.9521 48.2142C37.9029 48.1405 37.8799 48.0855 37.8523 48.0026C37.7893 47.8253 37.7049 47.6625 37.6168 47.4966C37.6001 47.4649 37.5834 47.4331 37.5668 47.4013C37.5329 47.3368 37.4989 47.2722 37.4649 47.2078C37.4192 47.121 37.374 47.0341 37.3289 46.947C37.1779 46.655 37.0235 46.3653 36.862 46.079C36.8218 46.0075 36.7818 45.9359 36.7419 45.8644C36.4635 45.3669 36.1754 44.8882 35.8334 44.4316C35.8189 44.4123 35.8045 44.393 35.7896 44.373C35.4872 43.97 35.1689 43.5801 34.8411 43.1976C34.8274 43.1816 34.8137 43.1656 34.7996 43.1491C34.61 42.9275 34.4168 42.7102 34.2176 42.4972C34.1823 42.4591 34.1474 42.4206 34.1127 42.3819C33.8966 42.1424 33.6696 41.9143 33.4412 41.6864C33.3742 41.6196 33.3074 41.5525 33.2405 41.4855C33.1973 41.4424 33.1542 41.3992 33.111 41.356C33.0913 41.3363 33.0716 41.3166 33.0514 41.2962C32.9434 41.1887 32.833 41.0855 32.7173 40.9863C32.6334 40.9133 32.5534 40.8362 32.4727 40.7597C32.3333 40.6285 32.191 40.504 32.0415 40.3845C31.9666 40.323 31.8953 40.2586 31.824 40.1929C31.6811 40.0617 31.5325 39.9392 31.3815 39.8174C31.3485 39.7903 31.3155 39.7632 31.2826 39.736C31.0697 39.5611 30.8534 39.3922 30.6321 39.2279C30.5392 39.1588 30.4472 39.0885 30.3555 39.0178C30.1215 38.8374 29.8839 38.6628 29.6434 38.4912C29.6054 38.464 29.5674 38.4368 29.5294 38.4095C28.8455 37.9184 28.1363 37.4601 27.4226 37.0138C27.3564 36.9723 27.2904 36.9304 27.2245 36.8885C26.9271 36.7007 26.6237 36.5288 26.3135 36.3633C26.1568 36.2795 26.0026 36.1918 25.8485 36.1035C25.5917 35.9568 25.3307 35.8198 25.0676 35.6849C24.9043 35.601 24.7433 35.515 24.5846 35.4227C24.4098 35.3216 24.2288 35.2387 24.0441 35.1574C23.9077 35.0973 23.7736 35.0346 23.6409 34.9667C23.396 34.8417 23.1457 34.7282 22.8958 34.6136C22.638 34.4954 22.3809 34.3759 22.1256 34.2524C21.6272 34.0123 21.1205 33.8025 20.6043 33.604C20.49 33.5599 20.3767 33.5141 20.2639 33.4665C20.1362 33.4126 20.0076 33.3658 19.8763 33.3219C19.6501 33.2445 19.4279 33.1587 19.2058 33.0703C18.9297 32.9608 18.6527 32.858 18.3717 32.7619C18.283 32.7312 18.1947 32.6997 18.1064 32.668C17.5732 32.4774 17.037 32.2966 16.4993 32.1194C16.2219 32.0277 15.946 31.9337 15.6724 31.8314C15.5255 31.7765 15.3777 31.7262 15.2283 31.6787C15.0053 31.6062 14.7886 31.5224 14.5729 31.4304C14.4303 31.3702 14.2863 31.3168 14.1399 31.2665C13.8703 31.1731 13.6093 31.0611 13.3476 30.9477C13.2976 30.9261 13.2476 30.9045 13.1976 30.883C12.8456 30.7308 12.4956 30.5748 12.149 30.4106C12.0706 30.3735 11.9921 30.3369 11.9135 30.3003C11.5822 30.1451 11.2603 29.9764 10.9405 29.7987C10.8642 29.7566 10.7875 29.7154 10.7106 29.6744C10.2988 29.4547 9.89696 29.2204 9.49746 28.9792C9.46848 28.9618 9.43951 28.9444 9.40965 28.9265C8.34828 28.2884 7.30649 27.5726 6.39571 26.7301C6.33921 26.678 6.28195 26.627 6.2239 26.5765C6.0979 26.4668 5.97395 26.355 5.85012 26.2429C5.82678 26.2218 5.80345 26.2008 5.7794 26.1791C5.57933 25.9975 5.38569 25.8101 5.19464 25.619C5.1452 25.5696 5.09554 25.5204 5.04587 25.4712C5.01433 25.4397 4.98279 25.4082 4.95127 25.3767C4.93644 25.3621 4.92161 25.3475 4.90634 25.3324C4.80419 25.2296 4.80419 25.2296 4.80419 25.1698C4.78649 25.1698 4.76879 25.1698 4.75055 25.1698C4.71149 25.1265 4.67437 25.0814 4.63825 25.0356C4.565 24.944 4.49168 24.8533 4.41364 24.7657C4.32756 24.6683 4.24695 24.5673 4.16641 24.4653C4.11324 24.3996 4.0585 24.3356 4.00304 24.2718C3.82924 24.0711 3.67756 23.8578 3.52671 23.6395C3.45929 23.5428 3.38912 23.4482 3.319 23.3535C3.19507 23.1778 3.19507 23.1778 3.19507 23.1041C3.17737 23.1041 3.15967 23.1041 3.14143 23.1041C3.11091 23.0638 3.11091 23.0638 3.07711 23.0065C3.06442 22.9852 3.05174 22.9639 3.03867 22.942C3.02501 22.9186 3.01135 22.8952 2.99728 22.871C2.97584 22.8347 2.97584 22.8347 2.95396 22.7976C2.90894 22.721 2.86425 22.6443 2.81961 22.5675C2.80609 22.5445 2.79257 22.5214 2.77863 22.4976C2.41087 21.8697 2.08706 21.2241 1.8005 20.5555C1.78815 20.5267 1.77581 20.498 1.76309 20.4683C1.57435 20.0239 1.4245 19.5705 1.29094 19.1068C1.28529 19.0873 1.27963 19.0677 1.2738 19.0476C1.12709 18.5398 0.994676 18.038 0.925147 17.513C0.913526 17.4295 0.898864 17.3468 0.883826 17.2639C0.825617 16.9413 0.795889 16.6151 0.763725 16.2891C0.757662 16.2364 0.750101 16.1838 0.741005 16.1316C0.725778 16.0362 0.718352 15.9413 0.712877 15.8449C0.711749 15.8253 0.710621 15.8056 0.70946 15.7853C0.697739 15.5609 0.696896 15.3365 0.697437 15.1117C0.697582 15.0408 0.697438 14.9699 0.697267 14.899C0.697012 14.4604 0.726967 14.0315 0.785593 13.5969C0.794974 13.5272 0.804066 13.4574 0.813132 13.3877C0.819017 13.3433 0.824918 13.2989 0.830837 13.2544C0.833547 13.2336 0.836258 13.2128 0.839051 13.1914C0.858753 13.047 0.858753 13.047 0.888665 13.0171Z" fill="var(--fill-0, white)"/>
<path id="Vector_4" d="M0.056329 23.2114C0.138585 23.2526 0.1512 23.3326 0.183718 23.4143C0.394886 23.918 0.706293 24.3777 1.0218 24.8211C1.03614 24.8415 1.05049 24.8618 1.06526 24.8829C1.24666 25.1407 1.4362 25.3893 1.63685 25.6325C1.71363 25.7258 1.78706 25.8212 1.85988 25.9176C1.97527 26.0693 2.09861 26.211 2.22864 26.3502C2.25046 26.3736 2.25046 26.3736 2.27272 26.3974C2.33827 26.4676 2.40384 26.5378 2.46949 26.6079C2.56325 26.7082 2.65513 26.8097 2.745 26.9135C3.00187 27.2084 3.27232 27.482 3.57795 27.7268C3.705 27.8286 3.82236 27.9381 3.94001 28.0504C4.09951 28.2021 4.26362 28.3415 4.43835 28.4751C4.52623 28.5425 4.61134 28.6128 4.69629 28.6838C5.31187 29.1981 5.9705 29.6596 6.65372 30.0792C6.68916 30.101 6.68916 30.101 6.72531 30.1233C7.50002 30.6009 8.29045 31.0422 9.09925 31.4588C9.14635 31.4831 9.19344 31.5074 9.24051 31.5318C9.69552 31.7669 10.1576 31.9799 10.6346 32.1667C10.7038 32.194 10.773 32.2214 10.8421 32.2488C10.8682 32.2591 10.8682 32.2591 10.8947 32.2696C11.0667 32.3381 11.2374 32.4097 11.4081 32.4813C11.7016 32.6042 11.9959 32.717 12.2973 32.8186C12.4009 32.8544 12.5036 32.8925 12.6064 32.9303C12.9157 33.0437 13.227 33.1452 13.5423 33.2402C13.6833 33.2827 13.8237 33.3268 13.9639 33.3718C14.0045 33.3847 14.0451 33.3977 14.0857 33.4107C14.1447 33.4295 14.2037 33.4484 14.2627 33.4675C14.4978 33.5438 14.7335 33.6096 14.9738 33.6675C15.3406 33.7567 15.699 33.8703 16.0582 33.9858C16.1295 34.0087 16.2009 34.0315 16.2723 34.0542C16.7301 34.2003 17.1872 34.3484 17.6422 34.5029C17.7373 34.535 17.8325 34.5664 17.9278 34.5977C18.9282 34.9265 19.9019 35.3147 20.8744 35.7172C21.076 35.8006 21.2781 35.8827 21.4811 35.9627C21.7454 36.0675 22.004 36.184 22.2622 36.3031C22.2905 36.3161 22.3189 36.3292 22.3481 36.3426C22.7666 36.5353 23.183 36.732 23.5978 36.9324C23.6879 36.9758 23.7782 37.0189 23.8685 37.062C24.1996 37.2201 24.5283 37.3809 24.8512 37.5552C24.9237 37.5942 24.9963 37.6329 25.0689 37.6717C25.5785 37.9444 26.0774 38.2334 26.567 38.5406C26.6873 38.6157 26.8083 38.687 26.9336 38.7535C27.2962 38.946 27.632 39.1822 27.9718 39.4119C28.1147 39.5085 28.2584 39.604 28.4024 39.6991C28.785 39.9522 29.1594 40.2135 29.5156 40.503C29.6339 40.5989 29.7546 40.6908 29.877 40.7815C30.0433 40.905 30.205 41.0331 30.3651 41.1645C30.4799 41.2587 30.5961 41.351 30.7134 41.4421C30.983 41.6528 31.2398 41.8722 31.4789 42.1172C31.538 42.1748 31.5984 42.2251 31.6638 42.2754C31.9876 42.5271 32.3209 42.8306 32.579 43.1507C32.6348 43.217 32.6925 43.2676 32.7598 43.3217C32.8231 43.3771 32.8752 43.4407 32.9296 43.5046C33.0085 43.5948 33.0904 43.682 33.1723 43.7694C33.6977 44.3308 34.1632 44.9277 34.6101 45.5532C34.6528 45.6126 34.696 45.6716 34.7392 45.7306C35.4676 46.7242 36.1183 47.8259 36.5575 48.9788C36.6039 49.0995 36.6525 49.2194 36.7007 49.3394C36.7261 49.4029 36.7515 49.4665 36.7768 49.5301C36.7943 49.5735 36.8124 49.6166 36.8308 49.6597C36.8515 49.7166 36.8515 49.7166 36.8515 49.7971C36.8338 49.7971 36.8161 49.7971 36.7979 49.7971C36.766 49.757 36.7363 49.7153 36.7074 49.673C36.5113 49.3966 36.2822 49.1466 36.0534 48.8972C36 48.8386 35.9478 48.7791 35.8961 48.719C35.8153 48.6257 35.7289 48.5394 35.6409 48.4529C35.5958 48.4069 35.5545 48.3599 35.514 48.3099C35.4639 48.2401 35.4639 48.2401 35.4033 48.2143C35.4033 48.1966 35.4033 48.1789 35.4033 48.1606C35.3856 48.1606 35.3679 48.1606 35.3497 48.1606C35.3497 48.1429 35.3497 48.1252 35.3497 48.107C35.332 48.107 35.3143 48.107 35.2961 48.107C35.2961 48.0893 35.2961 48.0716 35.2961 48.0533C35.2695 48.0445 35.2429 48.0356 35.2156 48.0265C35.1742 47.9845 35.1742 47.9845 35.1301 47.9309C34.9678 47.74 34.7881 47.573 34.5988 47.4095C34.34 47.184 34.34 47.184 34.2518 47.0741C34.1659 46.9696 34.0632 46.89 33.9578 46.8059C33.8692 46.7344 33.783 46.6607 33.697 46.5862C33.3425 46.2806 32.978 45.9869 32.6142 45.6925C32.5897 45.6727 32.5652 45.6529 32.54 45.6325C32.2879 45.4295 32.0322 45.2324 31.7677 45.0458C31.6651 44.9731 31.5645 44.8981 31.4646 44.8216C31.2963 44.693 31.1259 44.5741 30.945 44.4639C30.7639 44.3531 30.5879 44.2348 30.4117 44.1165C30.1161 43.9183 29.8179 43.7249 29.5168 43.5353C29.4526 43.4947 29.3889 43.4535 29.3252 43.4121C28.9939 43.1978 28.6508 43.0074 28.3049 42.8176C28.1712 42.7437 28.0386 42.668 27.9058 42.5923C27.6848 42.4669 27.4624 42.3442 27.2387 42.2235C27.2114 42.2087 27.1842 42.1939 27.1561 42.1787C26.7609 41.9663 26.3566 41.7722 25.9524 41.5779C25.8946 41.5501 25.837 41.5223 25.7793 41.4944C25.7533 41.482 25.7533 41.482 25.7268 41.4693C25.6555 41.4348 25.5863 41.3994 25.5187 41.358C25.4453 41.3149 25.3723 41.2867 25.2924 41.2576C25.1108 41.1893 24.9365 41.1094 24.7613 41.0263C24.557 40.9306 24.3544 40.8392 24.1416 40.7639C24.012 40.7172 23.8873 40.6626 23.762 40.6056C23.2809 40.3875 22.7862 40.2094 22.289 40.032C22.2676 40.0244 22.2462 40.0167 22.2241 40.0089C21.9381 39.9069 21.6514 39.8068 21.3644 39.7077C21.2608 39.6719 21.1573 39.6359 21.0539 39.5999C20.363 39.3592 19.6728 39.1304 18.9646 38.9464C18.9078 38.9316 18.8511 38.9165 18.7943 38.9014C18.432 38.8051 18.0684 38.7142 17.7047 38.6236C17.6145 38.6011 17.5243 38.5786 17.4341 38.5561C17.3752 38.5414 17.3163 38.5267 17.2574 38.512C17.1231 38.4786 16.9889 38.445 16.8549 38.4109C16.6111 38.3491 16.3679 38.2913 16.1207 38.2447C15.9554 38.2132 15.7916 38.18 15.6286 38.1382C15.5205 38.1106 15.4155 38.0891 15.3044 38.077C15.1229 38.0533 14.9482 38.0124 14.7715 37.9647C14.6046 37.9221 14.4379 37.8988 14.2673 37.8774C13.9595 37.8379 13.6593 37.7742 13.3572 37.7045C13.2702 37.6844 13.1832 37.6648 13.0962 37.6452C13.0398 37.6324 12.9835 37.6195 12.9272 37.6067C12.9017 37.6009 12.8762 37.5951 12.8499 37.5892C12.7073 37.5562 12.5674 37.5185 12.4279 37.4742C12.3619 37.4554 12.2966 37.4433 12.229 37.4323C12.0275 37.3979 11.8329 37.3392 11.637 37.2823C11.6166 37.2764 11.5962 37.2705 11.5752 37.2644C11.4274 37.2217 11.2799 37.1784 11.1324 37.1347C11.1038 37.1262 11.1038 37.1262 11.0747 37.1176C10.5122 36.9509 9.96182 36.7597 9.41604 36.5445C9.38547 36.5325 9.38547 36.5325 9.35429 36.5202C8.33039 36.1172 7.32583 35.662 6.4014 35.0604C6.32335 35.0098 6.2449 34.96 6.16637 34.9101C5.47751 34.4727 4.81565 34.0122 4.21322 33.4594C4.11673 33.3735 4.02056 33.2885 3.91822 33.2096C3.90052 33.1946 3.88282 33.1797 3.86458 33.1643C3.86458 33.1466 3.86458 33.1289 3.86458 33.1106C3.84865 33.1034 3.83273 33.0962 3.81632 33.0888C3.75704 33.0568 3.71851 33.0247 3.6713 32.9771C3.65566 32.9615 3.64003 32.9458 3.62392 32.9296C3.60764 32.913 3.59137 32.8964 3.5746 32.8793C3.54931 32.8537 3.54931 32.8537 3.52351 32.8276C3.42537 32.7277 3.3298 32.6265 3.23937 32.5195C3.18353 32.4545 3.12505 32.3921 3.06672 32.3293C2.92662 32.1754 2.79881 32.0138 2.67192 31.849C2.62841 31.7929 2.58431 31.7373 2.54009 31.6818C0.998599 29.7386 0.0975407 27.2338 0.0026917 24.5528C0.00228549 24.5273 0.00187928 24.5017 0.00146076 24.4754C-0.00251615 24.1767 0.00158196 23.8787 0.0144249 23.5803C0.015475 23.5555 0.016525 23.5308 0.017607 23.5053C0.0187348 23.4823 0.0198627 23.4594 0.0210248 23.4357C0.0220079 23.4156 0.022991 23.3956 0.0240039 23.3749C0.0295626 23.3182 0.0411005 23.2662 0.056329 23.2114Z" fill="var(--fill-0, white)"/>
<path id="Vector_5" d="M88.0459 22.1114H91.3446L95.2601 30.9375L99.1473 22.1086L102.474 22.1114L102.477 36.653H99.5476L99.5511 26.9939L96.3329 34.3177H94.2142L90.996 26.9939L90.9691 36.6248L88.0459 36.6517V22.1114Z" fill="var(--fill-0, white)"/>
<path id="Vector_6" d="M115.963 22.1086C115.963 22.1086 117.515 22.1092 118.276 22.1086C118.63 22.1083 118.983 22.108 119.336 22.1074C119.645 22.1068 119.953 22.1065 120.261 22.1064C120.424 22.1063 120.587 22.1061 120.75 22.1057C120.904 22.1054 121.057 22.1053 121.211 22.1053C121.267 22.1053 121.323 22.1052 121.38 22.105C122.559 22.1009 123.7 22.4064 124.629 23.1577C124.643 23.169 124.657 23.1804 124.672 23.1921C125.641 23.979 126.277 25.0874 126.444 26.3315C126.56 27.5998 126.254 28.7877 125.431 29.7783C125.414 29.7979 125.397 29.8174 125.38 29.8376C125.362 29.8588 125.343 29.8801 125.325 29.9019C124.864 30.4241 123.744 31.1253 123.744 31.1253L128.22 36.6974H124.86L120.714 31.635H118.89V36.6517H115.963L115.963 22.1086ZM118.89 24.7941C118.89 26.2106 118.89 27.6271 118.89 29.0864C119.06 29.109 119.06 29.109 119.228 29.1162C119.25 29.1162 119.272 29.1161 119.295 29.1161C119.318 29.1159 119.341 29.1157 119.365 29.1156C119.391 29.1155 119.416 29.1154 119.442 29.1153C119.525 29.115 119.607 29.1144 119.69 29.1138C119.719 29.1136 119.747 29.1134 119.777 29.1132C119.928 29.1122 120.079 29.1111 120.23 29.1097C120.385 29.1084 120.54 29.1077 120.695 29.1071C120.815 29.1066 120.935 29.1056 121.055 29.1044C121.112 29.104 121.169 29.1037 121.226 29.1036C121.889 29.102 122.433 28.9749 122.94 28.5231C123.349 28.1023 123.564 27.5184 123.563 26.9376C123.553 26.3118 123.325 25.7786 122.886 25.3307C122.868 25.3119 122.85 25.2931 122.832 25.2737C122.557 25.0046 122.099 24.7904 121.712 24.7909C121.687 24.7908 121.662 24.7908 121.636 24.7908C121.596 24.7909 121.596 24.7909 121.554 24.7911C121.525 24.7911 121.495 24.7911 121.465 24.7911C121.371 24.7911 121.276 24.7913 121.182 24.7915C121.123 24.7915 121.065 24.7916 121.006 24.7916C120.79 24.7917 120.573 24.7921 120.357 24.7924C119.873 24.793 119.389 24.7935 118.89 24.7941Z" fill="var(--fill-0, white)"/>
<path id="Vector_7" d="M116.621 40.1767C116.621 40.1767 117.81 40.1772 118.393 40.1767C118.664 40.1765 118.935 40.1762 119.206 40.1757C119.442 40.1753 119.678 40.1751 119.914 40.175C120.039 40.1749 120.164 40.1748 120.288 40.1745C120.406 40.1742 120.524 40.1741 120.642 40.1742C120.685 40.1742 120.728 40.1741 120.771 40.1739C121.675 40.1708 122.549 40.4049 123.261 40.9805C123.271 40.9892 123.282 40.9979 123.293 41.0069C124.036 41.6098 124.523 42.4589 124.651 43.4122C124.74 44.3839 124.506 45.2941 123.875 46.053C123.862 46.068 123.849 46.083 123.836 46.0984C123.822 46.1147 123.808 46.131 123.793 46.1477C123.441 46.5477 122.583 47.085 122.583 47.085L126.012 51.3542H123.438L120.261 47.4755H118.863V51.3192H116.621L116.621 40.1767ZM118.863 42.2342C118.863 43.3195 118.863 44.4048 118.863 45.5229C118.994 45.5402 118.994 45.5402 119.122 45.5457C119.139 45.5457 119.156 45.5457 119.173 45.5456C119.191 45.5455 119.209 45.5454 119.228 45.5452C119.247 45.5451 119.266 45.5451 119.286 45.545C119.35 45.5448 119.413 45.5443 119.477 45.5439C119.498 45.5437 119.52 45.5436 119.543 45.5434C119.659 45.5427 119.774 45.5418 119.89 45.5407C120.009 45.5397 120.127 45.5392 120.246 45.5388C120.338 45.5383 120.43 45.5376 120.522 45.5367C120.566 45.5363 120.61 45.5361 120.653 45.536C121.161 45.5348 121.578 45.4374 121.966 45.0913C122.28 44.7689 122.444 44.3215 122.444 43.8765C122.436 43.3971 122.261 42.9886 121.925 42.6453C121.911 42.6309 121.898 42.6166 121.884 42.6017C121.673 42.3955 121.322 42.2314 121.026 42.2318C121.006 42.2317 120.987 42.2317 120.968 42.2317C120.936 42.2318 120.936 42.2318 120.905 42.2319C120.882 42.2319 120.86 42.2319 120.837 42.2319C120.764 42.2319 120.692 42.2321 120.619 42.2322C120.574 42.2323 120.53 42.2323 120.485 42.2323C120.319 42.2324 120.153 42.2327 119.987 42.233C119.616 42.2334 119.245 42.2338 118.863 42.2342Z" fill="var(--fill-0, white)"/>
<path id="Vector_8" d="M171.88 22.1087L174.78 22.1112L174.807 27.7717L179.688 27.7986V22.1112H182.584V36.6515H179.688L179.661 30.5618L174.807 30.5349L174.78 36.6515H171.88V22.1087Z" fill="var(--fill-0, white)"/>
<path id="Vector_9" d="M162.991 21.8365C163.081 21.8362 163.17 21.8354 163.259 21.8346C163.822 21.8318 164.353 21.9015 164.898 22.0417C164.957 22.0563 165.017 22.0693 165.076 22.0816C165.418 22.1525 165.738 22.2766 166.062 22.4063C166.093 22.4187 166.093 22.4187 166.125 22.4314C166.659 22.6472 167.125 22.9558 167.591 23.2916C167.608 23.3042 167.626 23.3167 167.644 23.3297C167.987 23.577 168.31 23.8483 168.584 24.1719C168.629 24.2219 168.675 24.2678 168.724 24.3145C168.838 24.4285 168.933 24.5551 169.029 24.6849C169.046 24.7079 169.063 24.7308 169.081 24.7545C169.216 24.9358 169.338 25.1179 169.436 25.3218C169.468 25.3866 169.468 25.3866 169.512 25.4557C169.765 25.8706 169.932 26.337 170.088 26.7959C170.096 26.8179 170.103 26.84 170.111 26.8627C170.158 27.0051 170.239 27.317 170.239 27.317H167.155C167.155 27.317 167.132 27.251 167.108 27.1815C167.1 27.1638 167.091 27.1462 167.082 27.1279C167.075 27.1108 167.068 27.0937 167.061 27.076C167.048 27.0469 167.048 27.0469 167.035 27.0171C167.022 26.9865 167.022 26.9865 167.009 26.9552C166.571 25.9547 165.779 25.3557 164.802 24.9281C164.781 24.919 164.761 24.9099 164.74 24.9005C164.567 24.8269 164.394 24.7851 164.21 24.7503C164.18 24.7446 164.151 24.739 164.12 24.7331C163.234 24.5668 162.346 24.6011 161.476 24.8476C161.441 24.8573 161.441 24.8573 161.406 24.8672C160.731 25.0623 160.159 25.409 159.652 25.8938C159.631 25.9134 159.61 25.933 159.588 25.9532C159.265 26.2603 159.024 26.6266 158.821 27.0206C158.806 27.0479 158.792 27.0752 158.777 27.1034C158.184 28.2936 158.145 29.8152 158.55 31.0652C158.934 32.164 159.662 33.0143 160.675 33.5781C160.709 33.5976 160.709 33.5976 160.744 33.6175C161.064 33.7903 161.413 33.8798 161.766 33.9587C161.784 33.9627 161.801 33.9667 161.82 33.9708C162.426 34.1061 163.029 34.1744 163.647 34.0862C163.68 34.0814 163.714 34.0766 163.749 34.0717C164.717 33.9263 165.572 33.5573 166.277 32.8689C166.294 32.8531 166.311 32.8373 166.328 32.821C166.673 32.4963 167.162 31.447 167.162 31.447H170.192C170.192 31.447 170.135 31.8312 170.085 31.9843C170.035 32.1374 169.981 32.2891 169.924 32.4396C169.914 32.4683 169.903 32.4969 169.893 32.5264C169.73 32.9607 169.499 33.379 169.227 33.7542C169.215 33.7704 169.203 33.7866 169.191 33.8033C168.878 34.234 168.537 34.6821 168.126 35.0245C168.089 35.0557 168.053 35.0881 168.018 35.1213C167.076 36.0091 165.836 36.5234 164.587 36.7856C164.57 36.7893 164.552 36.7929 164.534 36.7967C164.079 36.8909 163.631 36.9289 163.165 36.9268C163.09 36.9265 163.015 36.9268 162.94 36.9271C162.453 36.9275 161.974 36.8839 161.494 36.794C161.476 36.7905 161.457 36.7871 161.438 36.7835C160.132 36.5395 158.875 35.9287 157.882 35.0419C157.868 35.0295 157.854 35.017 157.84 35.0042C157.579 34.7701 157.33 34.531 157.113 34.2544C157.088 34.2234 157.063 34.1925 157.039 34.1616C156.349 33.3003 155.83 32.2879 155.603 31.2056C155.596 31.1726 155.589 31.1395 155.581 31.1055C155.397 30.2353 155.289 29.3022 155.454 28.4192C155.477 28.2843 155.489 28.1482 155.502 28.012C155.548 27.6655 155.653 27.3296 155.765 26.9995C155.785 26.9384 155.806 26.8772 155.826 26.816C156.252 25.533 157.031 24.296 158.124 23.4794C158.14 23.467 158.156 23.4546 158.173 23.4419C159.579 22.3653 161.233 21.8396 162.991 21.8365Z" fill="var(--fill-0, white)"/>
<path id="Vector_10" d="M78.0116 22.1082L81.6201 22.1114L86.6409 36.6517C85.6054 36.6517 83.4705 36.6517 83.4705 36.6517L82.6392 34.0226L77.0072 34.0494L76.1491 36.6517H73.0381L78.0116 22.1082ZM79.7964 25.3306L77.8654 31.3399H81.7541L79.7964 25.3306Z" fill="var(--fill-0, white)"/>
<path id="Vector_11" d="M130.261 40.174L133.027 40.1764L136.875 51.3212C136.082 51.3212 134.445 51.3212 134.445 51.3212L133.808 49.3061L129.491 49.3267L128.834 51.3212H126.449L130.261 40.174ZM131.629 42.6439L130.149 47.2499H133.13L131.629 42.6439Z" fill="var(--fill-0, white)"/>
<path id="Vector_12" d="M105.187 22.1115H113.933V24.8768H108.11V27.9598H113.317V30.6458L108.11 30.6425V33.8885L113.933 33.8851V36.6554H105.184L105.187 22.1115Z" fill="var(--fill-0, white)"/>
<path id="Vector_13" d="M145.369 22.1079H154.115V24.8733H148.293V27.9562H153.499V30.6422L148.293 30.639V33.885L154.115 33.8816V36.6519H145.366L145.369 22.1079Z" fill="var(--fill-0, white)"/>
<path id="Vector_14" d="M133.774 22.1079L143.777 22.1079V24.8478H140.21V36.6249L137.314 36.6517L137.282 24.8478H133.774L133.774 22.1079Z" fill="var(--fill-0, white)"/>
<path id="Vector_15" d="M180.071 40.9187C180.1 40.9389 180.669 41.4334 181.245 42.2011C181.798 42.9383 181.921 43.4092 181.921 43.4092H179.156C179.156 43.4092 178.747 42.9074 178.62 42.8095C178.579 42.7775 178.579 42.7775 178.538 42.7449C177.79 42.1865 176.8 42.0935 175.904 42.2205C175.009 42.3775 174.206 42.9609 173.677 43.6853C173.39 44.0973 173.266 44.5556 173.152 45.038C173.142 45.0769 173.142 45.0769 173.132 45.1166C173.073 45.3628 173.077 45.5959 173.084 45.8484C173.084 45.8894 173.084 45.9304 173.084 45.9726C173.1 46.7314 173.394 47.4761 173.894 48.0431C173.918 48.0707 173.941 48.0983 173.965 48.1268C174.612 48.8788 175.452 49.2418 176.423 49.3356C177.385 49.3722 178.292 48.9996 179.005 48.377C179.161 48.23 179.293 48.0664 179.422 47.8953C179.437 47.8755 179.452 47.8556 179.467 47.8352C179.602 47.6505 179.668 47.4853 179.768 47.2665C178.297 47.2665 175.312 47.2665 175.312 47.2665V45.3757H182.535C182.535 45.3757 182.358 47.3228 181.928 48.2119C181.916 48.2372 181.903 48.2626 181.891 48.2887C181.612 48.8578 181.273 49.3638 180.829 49.8164C180.781 49.8651 180.735 49.9146 180.688 49.9641C179.699 50.9892 178.256 51.5672 176.839 51.5986C176.735 51.6002 176.63 51.6008 176.525 51.601C176.5 51.6011 176.476 51.6012 176.45 51.6012C174.854 51.6007 173.459 50.9503 172.342 49.8326C172.321 49.8127 172.3 49.7929 172.278 49.7724C171.272 48.8123 170.724 47.321 170.68 45.954C170.651 44.5474 171.047 43.235 171.937 42.1342C171.951 42.1158 171.966 42.0974 171.982 42.0784C172.963 40.8672 174.352 40.0959 175.901 39.9147C177.379 39.7612 178.856 40.0325 180.071 40.9187Z" fill="var(--fill-0, white)"/>
<path id="Vector_16" d="M94.5126 41.3157C95.6664 42.3266 96.3576 43.7145 96.4892 45.2413C96.5236 45.7674 96.5204 46.3071 96.4283 46.8272C96.4241 46.8511 96.4199 46.8751 96.4156 46.8997C96.2298 47.9225 95.7253 48.9906 94.9625 49.7128C94.9074 49.7667 94.8591 49.8234 94.8102 49.8829C94.6974 50.0161 94.5717 50.127 94.4368 50.2375C94.3905 50.2755 94.3905 50.2755 94.3433 50.3143C93.6204 50.8901 92.8383 51.2505 91.939 51.453C91.9139 51.4588 91.8889 51.4646 91.8631 51.4706C91.5631 51.5399 91.2677 51.5799 90.9601 51.588C90.9263 51.589 90.8924 51.5899 90.8575 51.5908C89.3532 51.6252 87.8398 51.1947 86.7206 50.1443C86.6709 50.0968 86.6215 50.049 86.5721 50.0011C86.5551 49.985 86.5381 49.9689 86.5207 49.9523C85.5915 49.07 84.9655 47.7962 84.8169 46.5233C84.8138 46.4992 84.8108 46.475 84.8076 46.4501C84.6376 44.983 84.97 43.4589 85.8769 42.2746C85.9809 42.1453 86.0903 42.0213 86.2008 41.8976C86.243 41.8484 86.2852 41.7991 86.3274 41.7499C88.3826 39.4273 92.1229 39.3196 94.5126 41.3157ZM89.745 42.269C89.7086 42.2776 89.6723 42.2862 89.6349 42.2951C88.7483 42.5329 87.9685 43.2045 87.5128 43.9891C87.0395 44.8477 87.0085 45.7994 87.2671 46.7303C87.5435 47.656 88.1906 48.4268 89.0332 48.8943C89.9379 49.3754 90.7927 49.4393 91.7702 49.157C92.2209 49.0084 92.6269 48.7556 92.9853 48.4479C93.0182 48.4218 93.0511 48.3956 93.085 48.3687C93.1919 48.2794 93.2798 48.1778 93.3651 48.0681C93.3808 48.0478 93.3966 48.0276 93.4128 48.0068C93.6721 47.6655 93.9244 47.2794 94.0317 46.861C94.0377 46.8381 94.0437 46.8152 94.0499 46.7916C94.215 46.1359 94.2659 45.3866 94.0655 44.7338C94.0565 44.6983 94.0475 44.6628 94.0382 44.6262C93.8133 43.7944 93.2099 43.078 92.4755 42.6432C91.6433 42.1678 90.6763 42.0285 89.745 42.269Z" fill="var(--fill-0, white)"/>
<path id="Vector_17" d="M129.244 22.1115H132.17V36.6517H129.244V22.1115Z" fill="var(--fill-0, white)"/>
<path id="Vector_18" d="M157.042 40.174H159.292V51.3542H157.042V40.174Z" fill="var(--fill-0, white)"/>
<path id="Vector_19" d="M97.9072 40.142L100.071 40.142L104.763 47.2663C104.763 44.9153 104.763 40.142 104.763 40.142H106.959V51.3903H104.763L100.139 44.0587L100.115 51.3903H97.9072V40.142Z" fill="var(--fill-0, white)"/>
<path id="Vector_20" d="M160.604 40.142L162.768 40.142L167.46 47.2663C167.46 44.9153 167.46 40.142 167.46 40.142H169.657V51.3903H167.46L162.836 44.0587L162.812 51.3903H160.604V40.142Z" fill="var(--fill-0, white)"/>
<path id="Vector_21" d="M78.6164 39.9919C78.6849 39.9917 78.7535 39.9911 78.822 39.9904C79.2551 39.9883 79.6631 40.0418 80.082 40.1496C80.1275 40.1609 80.1729 40.1709 80.2188 40.1803C80.4816 40.2348 80.7278 40.3302 80.9764 40.4299C81.0003 40.4394 81.0003 40.4394 81.0247 40.4491C81.4351 40.615 81.7935 40.8522 82.1514 41.1103C82.1649 41.12 82.1783 41.1297 82.1922 41.1396C82.4558 41.3297 82.7047 41.5382 82.9147 41.7869C82.9493 41.8254 82.9849 41.8607 83.0221 41.8965C83.1103 41.9841 83.1831 42.0814 83.2568 42.1813C83.27 42.1989 83.2832 42.2165 83.2969 42.2347C83.4006 42.3741 83.4943 42.514 83.5695 42.6707C83.5946 42.7206 83.5946 42.7206 83.6281 42.7737C83.823 43.0926 83.951 43.4511 84.071 43.8038C84.0768 43.8207 84.0827 43.8377 84.0887 43.8551C84.1246 43.9646 84.1867 44.2043 84.1867 44.2043H81.8166C81.8166 44.2043 81.7989 44.1536 81.7804 44.1002C81.7739 44.0866 81.7675 44.073 81.7608 44.059C81.7553 44.0458 81.7497 44.0327 81.744 44.0191C81.7345 43.9967 81.7345 43.9967 81.7247 43.9738C81.7146 43.9503 81.7146 43.9503 81.7043 43.9262C81.3676 43.1573 80.7587 42.6968 80.0076 42.3681C79.9919 42.3612 79.9762 42.3542 79.96 42.347C79.827 42.2904 79.6946 42.2583 79.5528 42.2315C79.5301 42.2272 79.5073 42.2228 79.4839 42.2183C78.8025 42.0905 78.1199 42.1168 77.4516 42.3063C77.425 42.3138 77.425 42.3138 77.3978 42.3214C76.8789 42.4713 76.4391 42.7378 76.0499 43.1104C76.0335 43.1255 76.0171 43.1406 76.0003 43.1561C75.7521 43.3921 75.5671 43.6737 75.4108 43.9765C75.3997 43.9975 75.3885 44.0185 75.377 44.0401C74.9209 44.955 74.8917 46.1244 75.2025 47.0852C75.4975 47.9298 76.0577 48.5834 76.8357 49.0167C76.8622 49.0317 76.8622 49.0317 76.8893 49.047C77.1349 49.1798 77.4035 49.2486 77.6744 49.3093C77.688 49.3123 77.7016 49.3154 77.7156 49.3185C78.1815 49.4226 78.6449 49.475 79.12 49.4072C79.1458 49.4035 79.1717 49.3999 79.1983 49.3961C79.943 49.2843 80.5997 49.0007 81.1413 48.4716C81.1545 48.4594 81.1677 48.4473 81.1813 48.4348C81.4461 48.1852 81.8216 47.3787 81.8216 47.3787H84.1509C84.1509 47.3787 84.1072 47.674 84.0686 47.7917C84.0299 47.9093 83.9889 48.0259 83.9447 48.1417C83.9369 48.1637 83.929 48.1857 83.9208 48.2084C83.7959 48.5422 83.6181 48.8637 83.4088 49.152C83.3998 49.1645 83.3908 49.177 83.3815 49.1898C83.1408 49.5208 82.8784 49.8652 82.5627 50.1284C82.5343 50.1524 82.5066 50.1773 82.4796 50.2028C81.7556 50.8852 80.803 51.2805 79.8427 51.4821C79.8294 51.4849 79.8161 51.4877 79.8024 51.4906C79.4522 51.563 79.1076 51.5922 78.7501 51.5906C78.6925 51.5903 78.6348 51.5906 78.5772 51.5908C78.2022 51.5911 77.8343 51.5576 77.4657 51.4885C77.4513 51.4859 77.4369 51.4832 77.4221 51.4804C76.4188 51.2929 75.452 50.8234 74.6894 50.1418C74.6787 50.1322 74.668 50.1227 74.6569 50.1129C74.456 49.9329 74.2646 49.7491 74.0977 49.5365C74.0789 49.5127 74.06 49.4889 74.041 49.4652C73.5108 48.8032 73.1118 48.025 72.9373 47.1932C72.9318 47.1678 72.9264 47.1424 72.9208 47.1162C72.7794 46.4473 72.6965 45.7302 72.8233 45.0515C72.8407 44.9478 72.8498 44.8432 72.8598 44.7385C72.8951 44.4722 72.9761 44.214 73.0618 43.9603C73.0777 43.9133 73.0932 43.8663 73.1086 43.8192C73.4365 42.8331 74.0349 41.8823 74.8749 41.2547C74.8873 41.2452 74.8997 41.2357 74.9125 41.2259C75.9935 40.3984 77.265 39.9943 78.6164 39.9919Z" fill="var(--fill-0, white)"/>
<path id="Vector_22" d="M142.502 39.9919C142.571 39.9917 142.639 39.9911 142.708 39.9904C143.141 39.9883 143.549 40.0418 143.968 40.1496C144.013 40.1609 144.059 40.1709 144.105 40.1803C144.367 40.2348 144.614 40.3302 144.862 40.4299C144.886 40.4394 144.886 40.4394 144.91 40.4491C145.321 40.615 145.679 40.8522 146.037 41.1103C146.051 41.12 146.064 41.1297 146.078 41.1396C146.342 41.3297 146.59 41.5382 146.8 41.7869C146.835 41.8254 146.871 41.8607 146.908 41.8965C146.996 41.9841 147.069 42.0814 147.143 42.1813C147.156 42.1989 147.169 42.2165 147.183 42.2347C147.286 42.3741 147.38 42.514 147.455 42.6707C147.48 42.7206 147.48 42.7206 147.514 42.7737C147.709 43.0926 147.837 43.4511 147.957 43.8038C147.963 43.8207 147.968 43.8377 147.974 43.8551C148.01 43.9646 148.072 44.2043 148.072 44.2043H145.702C145.702 44.2043 145.685 44.1536 145.666 44.1002C145.66 44.0866 145.653 44.073 145.647 44.059C145.641 44.0458 145.635 44.0327 145.63 44.0191C145.62 43.9967 145.62 43.9967 145.61 43.9738C145.6 43.9503 145.6 43.9503 145.59 43.9262C145.253 43.1573 144.644 42.6968 143.893 42.3681C143.878 42.3612 143.862 42.3542 143.846 42.347C143.713 42.2904 143.58 42.2583 143.439 42.2315C143.416 42.2272 143.393 42.2228 143.37 42.2183C142.688 42.0905 142.006 42.1168 141.337 42.3063C141.311 42.3138 141.311 42.3138 141.284 42.3214C140.765 42.4713 140.325 42.7378 139.936 43.1104C139.919 43.1255 139.903 43.1406 139.886 43.1561C139.638 43.3921 139.453 43.6737 139.297 43.9765C139.285 43.9975 139.274 44.0185 139.263 44.0401C138.807 44.955 138.777 46.1244 139.088 47.0852C139.383 47.9298 139.943 48.5834 140.721 49.0167C140.748 49.0317 140.748 49.0317 140.775 49.047C141.021 49.1798 141.289 49.2486 141.56 49.3093C141.574 49.3123 141.587 49.3154 141.601 49.3185C142.067 49.4226 142.531 49.475 143.006 49.4072C143.032 49.4035 143.057 49.3999 143.084 49.3961C143.829 49.2843 144.485 49.0007 145.027 48.4716C145.04 48.4594 145.053 48.4473 145.067 48.4348C145.332 48.1852 145.707 47.3787 145.707 47.3787H148.037C148.037 47.3787 147.993 47.674 147.954 47.7917C147.916 47.9093 147.875 48.0259 147.83 48.1417C147.823 48.1637 147.815 48.1857 147.807 48.2084C147.682 48.5422 147.504 48.8637 147.295 49.152C147.286 49.1645 147.276 49.177 147.267 49.1898C147.027 49.5208 146.764 49.8652 146.448 50.1284C146.42 50.1524 146.392 50.1773 146.365 50.2028C145.641 50.8852 144.689 51.2805 143.728 51.4821C143.715 51.4849 143.702 51.4877 143.688 51.4906C143.338 51.563 142.993 51.5922 142.636 51.5906C142.578 51.5903 142.521 51.5906 142.463 51.5908C142.088 51.5911 141.72 51.5576 141.351 51.4885C141.337 51.4859 141.323 51.4832 141.308 51.4804C140.305 51.2929 139.338 50.8234 138.575 50.1418C138.564 50.1322 138.554 50.1227 138.543 50.1129C138.342 49.9329 138.15 49.7491 137.983 49.5365C137.965 49.5127 137.946 49.4889 137.927 49.4652C137.397 48.8032 136.998 48.025 136.823 47.1932C136.818 47.1678 136.812 47.1424 136.807 47.1162C136.665 46.4473 136.582 45.7302 136.709 45.0515C136.726 44.9478 136.736 44.8432 136.746 44.7385C136.781 44.4722 136.862 44.214 136.948 43.9603C136.963 43.9133 136.979 43.8663 136.994 43.8192C137.322 42.8331 137.921 41.8823 138.761 41.2547C138.773 41.2452 138.785 41.2357 138.798 41.2259C139.879 40.3984 141.151 39.9943 142.502 39.9919Z" fill="var(--fill-0, white)"/>
<path id="Vector_23" d="M108.021 40.174L115.71 40.174V42.2802H112.968V51.3336L110.742 51.3542L110.718 42.2802H108.021L108.021 40.174Z" fill="var(--fill-0, white)"/>
<path id="Vector_24" d="M148.195 40.174L155.885 40.174V42.2802H153.143V51.3336L150.917 51.3542L150.893 42.2802H148.195L148.195 40.174Z" fill="var(--fill-0, white)"/>
<path id="Vector_25" d="M55.4644 18.6772C55.4821 18.6772 55.4998 18.6772 55.518 18.6772C55.6004 18.8724 55.6653 19.0696 55.7258 19.2725C55.8555 19.6993 56.0004 20.1208 56.1459 20.5424C56.3691 21.1902 56.3691 21.1902 56.4298 21.4941C57.4299 21.4941 58.43 21.4941 59.4603 21.4941C59.4 21.6148 59.4 21.6148 59.3178 21.671C59.2907 21.6898 59.2907 21.6898 59.2631 21.7089C59.2435 21.7221 59.224 21.7353 59.2039 21.7489C59.1623 21.7777 59.1206 21.8065 59.079 21.8353C59.047 21.8572 59.047 21.8572 59.0144 21.8796C58.9161 21.9471 58.8186 22.0156 58.7211 22.0843C58.7023 22.0976 58.6835 22.1108 58.664 22.1245C58.5344 22.2162 58.4069 22.3104 58.2803 22.4062C57.9669 22.6433 57.6441 22.867 57.3196 23.0886C57.2361 23.1456 57.1536 23.2031 57.0735 23.2647C57.0899 23.4146 57.1275 23.5476 57.1766 23.6899C57.188 23.7239 57.188 23.7239 57.1997 23.7585C57.2161 23.807 57.2325 23.8554 57.249 23.9037C57.2923 24.0309 57.3351 24.1582 57.3779 24.2856C57.3864 24.3109 57.3949 24.3362 57.4037 24.3622C57.4747 24.5744 57.5415 24.7876 57.6065 25.0017C57.6843 25.2582 57.7691 25.5106 57.8653 25.7607C57.9132 25.8867 57.9455 26.0008 57.9585 26.1352C57.8767 26.0977 57.8118 26.0528 57.7423 25.996C57.6572 25.9287 57.5716 25.8683 57.4791 25.8116C57.2684 25.6801 57.0717 25.5289 56.8727 25.3806C56.5485 25.139 56.2231 24.8995 55.891 24.6688C55.8417 24.6342 55.7931 24.5989 55.7446 24.5633C55.7163 24.5431 55.688 24.5229 55.6588 24.5021C55.6346 24.4844 55.6104 24.4668 55.5855 24.4486C55.5196 24.41 55.5196 24.41 55.4539 24.4381C55.3852 24.4713 55.3299 24.5074 55.2695 24.5538C55.2481 24.5702 55.2267 24.5865 55.2046 24.6033C55.1819 24.6208 55.1592 24.6383 55.1358 24.6563C54.9671 24.7846 54.798 24.9118 54.6246 25.0336C54.6066 25.0463 54.5885 25.0589 54.5699 25.072C54.4606 25.1485 54.3509 25.2244 54.2412 25.3003C53.9695 25.4884 53.7005 25.6784 53.4373 25.8783C53.3198 25.9674 53.1993 26.052 53.0775 26.1352C53.0391 26.0334 53.0634 25.976 53.1026 25.877C53.1688 25.7024 53.2247 25.5258 53.2786 25.3471C53.3746 25.0313 53.4751 24.7171 53.577 24.4032C53.5843 24.3806 53.5916 24.3581 53.5991 24.3349C53.6871 24.0628 53.7782 23.7921 53.8744 23.5228C53.9048 23.4371 53.9341 23.3511 53.9625 23.2647C53.9353 23.2559 53.9353 23.2559 53.9076 23.2469C53.8045 23.2002 53.723 23.136 53.634 23.0668C53.4835 22.9519 53.3316 22.8399 53.1764 22.7315C53.0113 22.616 52.8486 22.4978 52.6869 22.3777C52.4964 22.2363 52.303 22.1001 52.107 21.9665C52.0023 21.8951 51.8985 21.8224 51.7952 21.7489C51.7796 21.738 51.7641 21.727 51.748 21.7157C51.6011 21.6108 51.6011 21.6108 51.5488 21.5477C51.5488 21.53 51.5488 21.5123 51.5488 21.4941C52.54 21.4852 53.5313 21.4764 54.5525 21.4673C54.6499 21.1751 54.7472 20.883 54.8475 20.582C54.8791 20.4885 54.9106 20.395 54.9431 20.2986C55.0284 20.0429 55.1085 19.7856 55.1885 19.5281C55.2769 19.2433 55.3679 18.9595 55.4644 18.6772Z" fill="var(--fill-0, white)"/>
<path id="Vector_26" d="M45.9451 13.0438C45.9717 13.0527 45.9982 13.0615 46.0256 13.0707C46.0514 13.1331 46.0514 13.1331 46.0745 13.2175C46.0881 13.265 46.0881 13.265 46.1021 13.3136C46.1094 13.3393 46.1094 13.3393 46.117 13.3656C46.1446 13.4592 46.1759 13.5515 46.2071 13.644C46.2205 13.6838 46.2338 13.7237 46.2472 13.7635C46.254 13.7838 46.2608 13.804 46.2678 13.8248C46.3962 14.2072 46.5221 14.5903 46.6424 14.9754C46.6538 15.0115 46.6652 15.0476 46.6765 15.0837C46.7157 15.209 46.7507 15.3293 46.7765 15.4583C47.6349 15.4583 48.4934 15.4583 49.3779 15.4583C49.3207 15.5727 49.2634 15.6173 49.1617 15.6863C49.1369 15.7035 49.1369 15.7035 49.1116 15.7211C49.076 15.7459 49.0403 15.7707 49.0046 15.7953C48.9101 15.8606 48.8163 15.9269 48.7225 15.9931C48.6937 16.0134 48.6937 16.0134 48.6643 16.0342C48.5391 16.1225 48.415 16.2123 48.2917 16.3033C48.1471 16.4101 48.0012 16.5149 47.8543 16.6185C47.8351 16.6321 47.8159 16.6457 47.7961 16.6597C47.7137 16.7178 47.6311 16.7752 47.5472 16.8311C47.523 16.8472 47.4987 16.8634 47.4738 16.8801C47.4533 16.8934 47.4328 16.9067 47.4118 16.9203C47.3553 16.9706 47.3442 16.9925 47.3397 17.0679C47.3575 17.1506 47.3575 17.1506 47.39 17.2439C47.396 17.2625 47.402 17.281 47.4082 17.3C47.4298 17.3658 47.4518 17.4315 47.4738 17.4971C47.4909 17.5489 47.5081 17.6007 47.5252 17.6525C47.6089 17.905 47.6934 18.1571 47.7784 18.4091C47.8077 18.4961 47.8369 18.5831 47.8661 18.6702C47.8804 18.7127 47.8948 18.7552 47.9092 18.7976C48.0497 19.2127 48.0497 19.2127 48.0906 19.4287C47.9909 19.3802 47.8994 19.3225 47.8073 19.261C47.7899 19.2494 47.7724 19.2377 47.7544 19.2257C47.5887 19.114 47.4286 18.9953 47.2684 18.8758C47.1176 18.7638 46.9641 18.6568 46.8083 18.5518C46.6365 18.4359 46.4706 18.3157 46.3105 18.1839C46.2105 18.1024 46.1159 18.0337 45.9987 17.98C45.8711 18.001 45.7671 18.103 45.6669 18.1812C45.5258 18.2893 45.3834 18.3927 45.2344 18.4897C45.0743 18.5944 44.9211 18.7062 44.7688 18.822C44.6175 18.9368 44.4632 19.0468 44.3074 19.1555C44.1954 19.2338 44.086 19.3145 43.9783 19.3988C43.9337 19.4287 43.9337 19.4287 43.8801 19.4287C43.8976 19.3053 43.928 19.1913 43.9658 19.0726C43.9746 19.0447 43.9746 19.0447 43.9836 19.0163C44.0464 18.8192 44.1121 18.6231 44.1779 18.427C44.2775 18.1304 44.3767 17.8337 44.4718 17.5357C44.4788 17.5138 44.4858 17.4918 44.4931 17.4692C44.5435 17.3098 44.5879 17.149 44.631 16.9874C44.59 16.9586 44.59 16.9586 44.5482 16.9292C44.1938 16.6798 43.8415 16.4276 43.4934 16.1694C43.2861 16.0157 43.0771 15.8677 42.861 15.7265C42.8094 15.6928 42.7579 15.6587 42.7068 15.6243C42.6738 15.6024 42.6738 15.6024 42.6401 15.5801C42.6245 15.5665 42.6089 15.5528 42.5928 15.5387C42.5928 15.5122 42.5928 15.4856 42.5928 15.4583C43.4424 15.4583 44.292 15.4583 45.1674 15.4583C45.2323 15.2641 45.2323 15.2641 45.2913 15.0687C45.4294 14.5898 45.5847 14.1176 45.7442 13.6454C45.8118 13.4451 45.8784 13.2444 45.9451 13.0438Z" fill="var(--fill-0, white)"/>
<path id="Vector_27" d="M35.0019 13.4727C35.0196 13.4727 35.0373 13.4727 35.0555 13.4727C35.1143 13.649 35.1731 13.8254 35.2318 14.0018C35.2428 14.0346 35.2428 14.0346 35.254 14.0681C35.2694 14.1144 35.2848 14.1606 35.3002 14.2069C35.3467 14.3467 35.3934 14.4864 35.4402 14.6261C35.4509 14.6581 35.4616 14.6901 35.4727 14.7231C35.4935 14.7855 35.5144 14.8479 35.5354 14.9102C35.6048 15.118 35.6729 15.3257 35.726 15.5383C36.4606 15.5472 37.1951 15.556 37.9519 15.5652C37.9519 15.5829 37.9519 15.6006 37.9519 15.6188C37.9023 15.653 37.8511 15.685 37.7994 15.7161C37.6283 15.8221 37.469 15.9398 37.31 16.0631C37.0336 16.277 36.7487 16.4767 36.4607 16.6743C36.376 16.7329 36.2923 16.7927 36.2087 16.8529C36.2838 17.3688 36.4941 17.8713 36.664 18.362C36.7128 18.5029 36.7616 18.6439 36.8094 18.7852C36.822 18.8223 36.822 18.8223 36.8349 18.8603C36.8524 18.9186 36.8524 18.9186 36.8524 18.9722C36.7511 18.9255 36.6598 18.8648 36.5674 18.8029C36.5499 18.7912 36.5324 18.7794 36.5143 18.7674C36.3136 18.6321 36.1181 18.4896 35.9225 18.347C35.8593 18.301 35.7959 18.2551 35.7325 18.2093C35.7012 18.1867 35.7012 18.1867 35.6693 18.1637C35.6282 18.1341 35.5871 18.1045 35.546 18.075C35.4583 18.012 35.3713 17.9487 35.2862 17.8823C35.2604 17.8624 35.2346 17.8425 35.2081 17.822C35.1866 17.8049 35.1651 17.7878 35.143 17.7702C35.0642 17.7286 35.0329 17.7413 34.9482 17.765C34.8929 17.7938 34.8929 17.7938 34.8407 17.8316C34.8206 17.8455 34.8005 17.8593 34.7798 17.8736C34.7585 17.8887 34.7372 17.9037 34.7153 17.9192C34.6928 17.9349 34.6704 17.9505 34.6473 17.9666C34.4354 18.1146 34.2259 18.2659 34.017 18.4181C33.9535 18.4643 33.8897 18.5103 33.8259 18.5563C33.8045 18.5717 33.7831 18.5872 33.761 18.6031C33.7204 18.6324 33.6798 18.6616 33.6392 18.6908C33.6206 18.7043 33.602 18.7177 33.5828 18.7315C33.5648 18.7445 33.5468 18.7575 33.5282 18.7709C33.4521 18.8268 33.3774 18.8846 33.3029 18.9427C33.2587 18.9722 33.2587 18.9722 33.205 18.9722C33.2242 18.8646 33.2539 18.7631 33.2875 18.6591C33.2957 18.6335 33.2957 18.6335 33.3041 18.6074C33.3218 18.5524 33.3397 18.4974 33.3576 18.4424C33.3636 18.4236 33.3697 18.4049 33.3759 18.3856C33.4507 18.1544 33.5272 17.924 33.6096 17.6953C33.6591 17.5578 33.7028 17.4189 33.7447 17.2789C33.7722 17.1887 33.8029 17.0999 33.8349 17.0112C33.8534 16.9517 33.8534 16.9517 33.8487 16.8529C33.8015 16.8076 33.8015 16.8076 33.7364 16.769C33.6273 16.6971 33.5238 16.622 33.4213 16.541C33.255 16.4109 33.0817 16.2923 32.9071 16.1739C32.7669 16.0788 32.6289 15.9818 32.4927 15.8811C32.4009 15.8142 32.3069 15.7505 32.2126 15.687C32.1591 15.6457 32.1591 15.6457 32.1055 15.5652C32.8312 15.5563 33.5569 15.5475 34.3046 15.5383C34.4613 15.1141 34.4613 15.1141 34.5979 14.6849C34.6735 14.4329 34.7564 14.1851 34.849 13.9389C34.9066 13.7852 34.9566 13.6305 35.0019 13.4727Z" fill="var(--fill-0, white)"/>
<path id="Vector_28" d="M56.428 21.4944C57.428 21.4944 58.4281 21.4944 59.4585 21.4944C59.3981 21.6151 59.3981 21.6151 59.2976 21.6553C59.2976 21.6199 59.2976 21.5845 59.2976 21.548C58.3594 21.548 57.4213 21.548 56.4548 21.548C56.4459 21.5303 56.4371 21.5126 56.428 21.4944Z" fill="var(--fill-0, white)"/>
<path id="Vector_29" d="M46.7736 15.4577C47.6321 15.4577 48.4905 15.4577 49.375 15.4577C49.3573 15.4931 49.3396 15.5285 49.3214 15.565C49.2948 15.5517 49.2948 15.5517 49.2678 15.5382C49.1892 15.5349 49.1113 15.5332 49.0327 15.5327C48.9962 15.5323 48.9962 15.5323 48.959 15.5319C48.8783 15.531 48.7976 15.5304 48.7169 15.5297C48.6611 15.5291 48.6052 15.5286 48.5494 15.528C48.4022 15.5265 48.2551 15.5252 48.1079 15.5239C47.9578 15.5226 47.8077 15.5211 47.6576 15.5196C47.3629 15.5167 47.0683 15.514 46.7736 15.5113C46.7736 15.4936 46.7736 15.4759 46.7736 15.4577Z" fill="var(--fill-0, white)"/>
<path id="Vector_30" d="M56.967 21.4944C57.79 21.4944 58.6131 21.4944 59.4611 21.4944C59.4434 21.5298 59.4257 21.5652 59.4075 21.6017C59.3809 21.6017 59.3544 21.6017 59.327 21.6017C59.3358 21.584 59.3447 21.5663 59.3538 21.548C58.5661 21.5392 57.7785 21.5303 56.967 21.5212C56.967 21.5124 56.967 21.5035 56.967 21.4944Z" fill="var(--fill-0, white)"/>
<path id="Vector_31" d="M47.2568 15.4576C47.956 15.4576 48.6552 15.4576 49.3755 15.4576C49.3578 15.4931 49.3401 15.5285 49.3219 15.565C49.2953 15.5517 49.2953 15.5517 49.2682 15.5381C49.2682 15.5293 49.2682 15.5204 49.2682 15.5113C48.6045 15.5024 47.9407 15.4936 47.2568 15.4845C47.2568 15.4756 47.2568 15.4668 47.2568 15.4576Z" fill="var(--fill-0, white)"/>
<path id="Vector_32" d="M36.6631 18.4363C36.7232 18.5265 36.7539 18.6176 36.7871 18.7196C36.7933 18.738 36.7994 18.7564 36.8058 18.7753C36.8508 18.912 36.8508 18.912 36.8508 18.9728C36.7735 18.9381 36.7202 18.9015 36.6631 18.8387C36.678 18.803 36.678 18.803 36.6933 18.7666C36.7203 18.6642 36.707 18.6364 36.6631 18.5436C36.6631 18.5082 36.6631 18.4728 36.6631 18.4363Z" fill="var(--fill-0, white)"/>
<path id="Vector_33" d="M37.8712 47.5707C37.88 47.5707 37.8889 47.5707 37.898 47.5707C37.9466 47.7875 37.958 47.9928 37.9516 48.2146C37.8585 48.0749 37.8675 47.9253 37.8695 47.7619C37.8696 47.7434 37.8698 47.7249 37.8699 47.7059C37.8702 47.6608 37.8707 47.6158 37.8712 47.5707Z" fill="var(--fill-0, white)"/>
<path id="Vector_34" d="M53.1054 25.8938C53.1142 25.9204 53.1231 25.9469 53.1322 25.9743C53.1765 25.9743 53.2207 25.9743 53.2663 25.9743C53.1423 26.1051 53.1423 26.1051 53.0518 26.1352C53.0648 26.0515 53.0785 25.9744 53.1054 25.8938Z" fill="var(--fill-0, white)"/>
<path id="Vector_35" d="M47.8711 18.7845C47.9177 18.8544 47.9433 18.9075 47.97 18.9857C47.9773 19.0065 47.9846 19.0272 47.9921 19.0486C48.0052 19.1065 48.0052 19.1065 47.9784 19.187C47.9247 19.1333 47.9247 19.1333 47.9214 19.036C47.9225 19.0062 47.9236 18.9763 47.9247 18.9455C47.907 18.9455 47.8893 18.9455 47.8711 18.9455C47.8711 18.8924 47.8711 18.8393 47.8711 18.7845Z" fill="var(--fill-0, white)"/>
<path id="Vector_36" d="M33.2577 18.7845C33.2754 18.8111 33.2931 18.8377 33.3114 18.865C33.3291 18.8739 33.3468 18.8827 33.365 18.8919C33.2644 18.9723 33.2644 18.9723 33.2041 18.9723C33.2276 18.8449 33.2276 18.8449 33.2577 18.7845Z" fill="var(--fill-0, white)"/>
<path id="Vector_37" d="M13.5191 39.1465C13.5279 39.1465 13.5368 39.1465 13.5459 39.1465C13.5722 39.2552 13.5749 39.3567 13.5727 39.4684C13.5638 39.4684 13.555 39.4684 13.5459 39.4684C13.5195 39.3597 13.5169 39.2581 13.5191 39.1465Z" fill="var(--fill-0, white)"/>
<path id="Vector_38" d="M13.4902 39.0125C13.5171 39.1198 13.5171 39.1198 13.5171 39.1198L13.4902 39.0125Z" fill="var(--fill-0, white)"/>
<path id="Vector_39" d="M13.4669 38.7979C13.4938 38.9052 13.4938 38.9052 13.4938 38.9052L13.4669 38.7979Z" fill="var(--fill-0, white)"/>
</g>
</svg>
