<svg viewBox="0 0 2506 2506" fill="none" xmlns="http://www.w3.org/2000/svg">
  <path
    fill="#ffffff"
    d="M1233.16 1138.91C1152.59 1108.34 1001.96 1124 940.773 1190.97C944.791 1190.74 948.809 1190.52 952.949 1190.29C969.604 1189.38 986.264 1188.6 1002.93 1187.86C1006.68 1187.69 1010.43 1187.51 1014.3 1187.33C1047.11 1186.5 1085.28 1188.62 1111.7 1209.61C1117.86 1216.78 1117.86 1216.78 1123.35 1224.76C1126.5 1229.25 1126.5 1229.25 1129.71 1233.83C1131.97 1237.12 1134.23 1240.41 1136.56 1243.8C1180.48 1307.52 1240.72 1362.79 1319.17 1378.61C1405.89 1392.99 1487.99 1360.77 1557.79 1311.72C1560.31 1309.82 1562.83 1307.91 1565.42 1305.95V1302.84C1559.84 1301.82 1559.84 1301.82 1554.15 1300.78C1523.21 1294.86 1494.96 1287.49 1466.11 1274.59C1459.04 1271.45 1451.93 1268.45 1444.81 1265.44C1396.69 1244.86 1356.11 1219.37 1314.86 1187.28C1290.63 1168.5 1267.9 1152.4 1239.11 1141.25C1237.15 1140.48 1235.18 1139.7 1233.16 1138.91Z"
  />
</svg>
