<svg width="28" height="28" viewBox="0 0 28 28" fill="none" xmlns="http://www.w3.org/2000/svg" aria-hidden="true">
  <path d="M16.6666 3.62957C16.6666 2.91365 17.2635 2.33328 17.9999 2.33328H21.9999C22.7363 2.33328 23.3332 2.91365 23.3332 3.62957V24.3703C23.3332 25.0862 22.7363 25.6666 21.9999 25.6666H17.9999C17.2635 25.6666 16.6666 25.0862 16.6666 24.3703V3.62957Z" fill="#FFFFFF"/>
  <path d="M4.66655 3.62957C4.66655 2.91365 5.26351 2.33328 5.99989 2.33328H9.99989C10.7363 2.33328 11.3332 2.91365 11.3332 3.62957V24.3703C11.3332 25.0862 10.7363 25.6666 9.99989 25.6666H5.99989C5.26351 25.6666 4.66655 25.0862 4.66655 24.3703V3.62957Z" fill="#FFFFFF"/>
</svg>
