<svg width="24" height="24" viewBox="0 0 24 24" fill="none" xmlns="http://www.w3.org/2000/svg" aria-hidden="true">
  <path d="M21.8027 8.00014C21.9334 9.31576 22.0002 10.6501 22.0002 12.0001C22.0002 13.3501 21.9334 14.6845 21.8027 16.0001" stroke="#000000" stroke-width="1.5" stroke-linecap="round"/>
  <path d="M17.877 9C17.9586 9.9892 18.0002 10.9897 18.0002 12C18.0002 13.0103 17.9586 14.0108 17.877 15" stroke="#000000" stroke-width="1.5" stroke-linecap="round"/>
  <path d="M13.0003 12C13.0003 9.45813 12.7851 6.9701 12.3733 4.55568C12.2497 3.83122 11.403 3.51321 10.8178 3.95772L7.53655 6.44984C7.18863 6.71409 6.76376 6.85714 6.32687 6.85714H3.00028C1.89571 6.85714 1.00028 7.75257 1.00028 8.85714V15.1429C1.00028 16.2474 1.89571 17.1429 3.00028 17.1429H6.32687C6.76376 17.1429 7.18863 17.2859 7.53654 17.5502L10.8178 20.0423C11.403 20.4868 12.2497 20.1688 12.3733 19.4443C12.7851 17.0299 13.0003 14.5419 13.0003 12Z" stroke="#000000" stroke-linejoin="round"/>
</svg>
