<svg width="36" height="36" viewBox="0 0 36 36" fill="none" xmlns="http://www.w3.org/2000/svg">
  <rect width="36" height="36" rx="4" fill="#0C273C"/>
  <path fill-rule="evenodd" clip-rule="evenodd" d="M26 26H22.7125V20.4007C22.7125 18.8655 22.1292 18.0075 20.9141 18.0075C19.5922 18.0075 18.9016 18.9003 18.9016 20.4007V26H15.7333V15.3333H18.9016V16.7701C18.9016 16.7701 19.8542 15.0075 22.1177 15.0075C24.3802 15.0075 26 16.3891 26 19.2465V26ZM11.9536 13.9366C10.8745 13.9366 10 13.0553 10 11.9683C10 10.8813 10.8745 10 11.9536 10C13.0328 10 13.9068 10.8813 13.9068 11.9683C13.9068 13.0553 13.0328 13.9366 11.9536 13.9366ZM10.3177 26H13.6214V15.3333H10.3177V26Z" fill="#FFFFFF"/>
</svg>
