<svg width="44" height="44" viewBox="0 0 44 44" fill="none" xmlns="http://www.w3.org/2000/svg">
  <rect x="0.5" y="0.5" width="43" height="43" rx="7.5" stroke="#FFFFFF" stroke-opacity="0.4"/>
  <path fill-rule="evenodd" clip-rule="evenodd" d="M34 34H29.0687V25.601C29.0687 23.2982 28.1938 22.0113 26.3711 22.0113C24.3883 22.0113 23.3523 23.3505 23.3523 25.601V34H18.6V18H23.3523V20.1552C23.3523 20.1552 24.7813 17.5112 28.1766 17.5112C31.5703 17.5112 34 19.5836 34 23.8698V34ZM12.9305 15.9049C11.3117 15.9049 10 14.5829 10 12.9525C10 11.322 11.3117 10 12.9305 10C14.5492 10 15.8602 11.322 15.8602 12.9525C15.8602 14.5829 14.5492 15.9049 12.9305 15.9049ZM10.4766 34H15.432V18H10.4766V34Z" fill="#FFFFFF"/>
</svg>
