<svg preserveAspectRatio="none" width="100%" height="100%" overflow="visible" style="display: block;" viewBox="0 0 110.698 38.1953" fill="none" xmlns="http://www.w3.org/2000/svg">
<g id="Group 1">
<path id="Vector" d="M25.3036 4.08283C25.3249 4.08281 25.3249 4.08281 25.3465 4.08279C25.3863 4.08279 25.4261 4.08293 25.4659 4.08315C25.4775 4.08317 25.489 4.08319 25.5009 4.08321C25.5659 4.08382 25.6269 4.09092 25.6908 4.10215C25.7169 4.10319 25.7429 4.10355 25.769 4.10316C25.7836 4.10302 25.7983 4.10288 25.8133 4.10274C25.8289 4.10254 25.8445 4.10235 25.8605 4.10215C26.3289 4.09954 26.7959 4.13981 27.2609 4.19363C27.2787 4.19568 27.2965 4.19773 27.3148 4.19984C27.5899 4.23177 27.8635 4.27014 28.1369 4.3146C28.153 4.3172 28.1691 4.31979 28.1858 4.32246C28.3662 4.35171 28.5436 4.38677 28.721 4.43097C28.8105 4.45288 28.8991 4.46916 28.9903 4.48176C29.201 4.51191 29.406 4.56913 29.6116 4.62304C29.6453 4.63185 29.6789 4.64061 29.7126 4.64935C30.455 4.84235 30.455 4.84235 30.7921 4.97402C30.8743 5.0061 30.9562 5.03233 31.0412 5.05566C31.2579 5.11844 31.4657 5.20416 31.6743 5.28946C31.6859 5.29419 31.6975 5.29891 31.7094 5.30378C32.1307 5.47584 32.5446 5.65997 32.9539 5.85897C33.047 5.90423 33.1402 5.94911 33.2343 5.99225C33.5561 6.14018 33.8578 6.3246 34.1589 6.50994C34.2179 6.54618 34.2769 6.58222 34.336 6.61823C34.3918 6.65232 34.4476 6.68653 34.5035 6.72074C34.5128 6.72649 34.5222 6.73223 34.5319 6.73815C34.5753 6.76478 34.6187 6.79147 34.662 6.81827C34.6994 6.84131 34.7367 6.86421 34.7742 6.88701C35.2426 7.17378 35.6797 7.51367 36.1043 7.86104C36.1513 7.89949 36.1987 7.93743 36.2463 7.97515C36.335 8.04599 36.4215 8.11945 36.5078 8.19316C36.5362 8.21737 36.5647 8.2415 36.5931 8.26562C36.7012 8.35754 36.8073 8.45115 36.9112 8.54777C36.9469 8.58039 36.9828 8.61232 37.0192 8.64397C37.2301 8.82832 37.4285 9.02606 37.6262 9.22431C37.6673 9.26554 37.7086 9.30668 37.7498 9.34782C37.7764 9.37445 37.803 9.40108 37.8296 9.42771C37.8417 9.4398 37.8538 9.45188 37.8663 9.46433C37.9319 9.53023 37.9948 9.59752 38.0554 9.6681C38.0969 9.71604 38.1407 9.76183 38.1842 9.80796C38.2607 9.88968 38.333 9.97349 38.403 10.061C38.4397 10.1056 38.4782 10.1478 38.5175 10.1902C38.5855 10.2642 38.6482 10.341 38.7096 10.4204C38.7572 10.4819 38.8057 10.5425 38.8551 10.6026C39.4248 11.2954 39.9151 12.0569 40.3569 12.8362C40.3668 12.8536 40.3767 12.871 40.387 12.889C40.7659 13.5543 41.0961 14.2458 41.375 14.9586C41.39 14.9968 41.4053 15.035 41.4208 15.073C41.4888 15.24 41.5495 15.4092 41.6078 15.5799C41.613 15.595 41.6182 15.6102 41.6235 15.6258C41.7526 16.0049 41.8634 16.3892 41.9701 16.7751C41.9817 16.8169 41.9933 16.8587 42.005 16.9005C42.0902 17.2059 42.1564 17.5142 42.2175 17.8254C42.2211 17.8432 42.2246 17.8611 42.2282 17.8795C42.2662 18.0738 42.3006 18.2672 42.3242 18.4638C42.329 18.4989 42.3339 18.534 42.3388 18.569C42.3511 18.6573 42.3632 18.7455 42.3752 18.8338C42.3847 18.9028 42.3945 18.9717 42.4046 19.0405C42.4493 19.3468 42.4807 19.6522 42.5001 19.9611C42.5011 19.9775 42.5021 19.9938 42.5032 20.0106C42.5129 20.1681 42.5223 20.3251 42.5185 20.483C42.5185 20.5311 42.5185 20.5311 42.5273 20.5851C42.5412 20.6893 42.538 20.7945 42.5378 20.8994C42.5378 20.9227 42.5378 20.9459 42.5378 20.9692C42.5379 21.0177 42.5378 21.0662 42.5377 21.1147C42.5376 21.1767 42.5377 21.2386 42.5378 21.3005C42.5379 21.3485 42.5378 21.3964 42.5378 21.4443C42.5378 21.4672 42.5378 21.49 42.5378 21.5128C42.5379 21.5448 42.5378 21.5768 42.5377 21.6088C42.5377 21.6269 42.5377 21.645 42.5377 21.6637C42.5355 21.7203 42.5278 21.7746 42.5194 21.8305C42.5175 21.8546 42.516 21.8787 42.515 21.9028C42.5145 21.9158 42.514 21.9288 42.5134 21.9422C42.5129 21.9558 42.5123 21.9695 42.5118 21.9836C42.5105 22.0134 42.5092 22.0432 42.508 22.073C42.506 22.1194 42.5041 22.1657 42.5023 22.2121C42.496 22.3701 42.4884 22.5248 42.4613 22.6809C42.451 22.7462 42.4503 22.8106 42.4492 22.8765C42.4426 23.0826 42.4063 23.284 42.3728 23.4869C42.3538 23.603 42.3385 23.7195 42.3232 23.8362C42.3028 23.9891 42.278 24.1394 42.2434 24.2898C42.2278 24.3592 42.2157 24.4291 42.2036 24.4991C42.06 25.3241 41.8036 26.1252 41.5255 26.9133C41.5122 26.9512 41.4991 26.9891 41.4861 27.027C41.4257 27.2025 41.3568 27.374 41.2857 27.5455C41.2747 27.5722 41.2637 27.5989 41.2527 27.6255C41.2198 27.7053 41.1867 27.785 41.1536 27.8647C41.1478 27.8786 41.142 27.8925 41.1361 27.9068C41.1187 27.9484 41.1014 27.99 41.084 28.0316C41.0788 28.0441 41.0736 28.0566 41.0682 28.0694C41.027 28.1677 40.9813 28.2631 40.9323 28.3578C40.9011 28.4186 40.8706 28.4798 40.8403 28.5411C40.7499 28.7239 40.659 28.9059 40.5583 29.0833C40.5179 29.1547 40.4808 29.227 40.4453 29.3011C40.2899 29.6207 40.0943 29.9251 39.9016 30.2231C39.8844 30.2498 39.8672 30.2765 39.8501 30.3033C39.449 30.9261 39.0069 31.5203 38.5257 32.0835C38.5026 32.1105 38.4797 32.1377 38.4568 32.1649C38.3607 32.2785 38.2617 32.3887 38.1597 32.497C38.1122 32.5473 38.0655 32.5979 38.0206 32.6505C37.9622 32.7185 37.8981 32.7806 37.8341 32.8432C37.7996 32.8776 37.7675 32.9136 37.7358 32.9506C37.6765 33.0187 37.6141 33.0829 37.5501 33.1467C37.5387 33.1581 37.5272 33.1696 37.5155 33.1814C37.4914 33.2054 37.4674 33.2294 37.4434 33.2534C37.4069 33.2898 37.3705 33.3263 37.3341 33.3628C37.3106 33.3863 37.2871 33.4098 37.2636 33.4333C37.2475 33.4495 37.2475 33.4495 37.2311 33.4659C37.1682 33.5285 37.1035 33.5882 37.0363 33.6461C36.9938 33.6829 36.953 33.7213 36.9119 33.7596C36.8536 33.8135 36.7947 33.8652 36.732 33.9141C36.6682 33.964 36.609 34.0172 36.5501 34.0727C36.3535 34.2569 36.1381 34.4199 35.9249 34.5841C35.898 34.6049 35.8711 34.6257 35.8443 34.6465C35.6674 34.7836 35.4883 34.9153 35.3027 35.0403C35.2487 35.0767 35.1959 35.1144 35.1437 35.1533C35.039 35.2302 34.9295 35.2997 34.82 35.3696C34.777 35.397 34.7341 35.4246 34.6911 35.4521C34.5332 35.5533 34.3749 35.6536 34.2132 35.7487C34.1875 35.7638 34.1619 35.779 34.1363 35.7941C33.6723 36.0689 33.1962 36.3108 32.7107 36.5448C32.681 36.559 32.6514 36.5734 32.6219 36.5877C32.4376 36.677 32.2525 36.7621 32.0631 36.84C32.0266 36.8551 31.9901 36.8703 31.9536 36.8855C31.7496 36.9702 31.5441 37.0512 31.3339 37.1192C31.2205 37.1563 31.1076 37.1947 30.9951 37.2342C30.5782 37.38 30.1577 37.5095 29.7322 37.6281C29.6951 37.6384 29.6581 37.6489 29.621 37.6594C29.1764 37.7836 28.719 37.8571 28.2652 37.9389C28.2134 37.9483 28.1617 37.9578 28.11 37.9674C27.95 37.997 27.7902 38.0253 27.6287 38.0463C27.5989 38.0502 27.5989 38.0502 27.5684 38.0542C27.2793 38.0911 26.9892 38.1182 26.6989 38.1439C26.6776 38.1458 26.6564 38.1477 26.6345 38.1496C26.1165 38.1941 25.5925 38.1998 25.073 38.1927C25.0597 38.1925 25.0464 38.1923 25.0327 38.1922C24.9397 38.1909 24.8466 38.1893 24.7536 38.1875C24.7226 38.1869 24.6915 38.1864 24.6605 38.1858C24.4773 38.1827 24.2973 38.1722 24.1152 38.1512C24.0389 38.1425 23.9628 38.1388 23.886 38.1368C23.698 38.1297 23.5119 38.1081 23.3252 38.0856C23.2856 38.0809 23.246 38.0764 23.2064 38.072C23.0249 38.0517 22.8444 38.0255 22.6639 37.9979C22.6146 37.9904 22.5654 37.983 22.5162 37.9756C22.3667 37.953 22.2186 37.9288 22.071 37.8955C22.0084 37.882 21.9456 37.8709 21.8825 37.8601C21.7342 37.8345 21.587 37.8048 21.44 37.7729C21.4261 37.7698 21.4121 37.7668 21.3978 37.7637C21.0141 37.6797 20.637 37.571 20.2602 37.4608C20.2415 37.4553 20.2415 37.4553 20.2224 37.4498C20.0293 37.3935 19.837 37.3363 19.6515 37.2578C19.5874 37.2312 19.523 37.2103 19.4561 37.1917C19.2603 37.1369 19.0735 37.0622 18.8852 36.9861C18.8675 36.9789 18.8498 36.9718 18.8316 36.9645C18.1838 36.7035 17.5494 36.4119 16.9394 36.0708C16.8901 36.0434 16.8406 36.0163 16.7911 35.9893C16.2962 35.7183 15.81 35.4247 15.3521 35.0947C15.3142 35.0677 15.2761 35.0412 15.2378 35.0147C14.9774 34.8343 14.7281 34.6427 14.4832 34.4419C14.4471 34.4124 14.4107 34.3833 14.3742 34.3543C14.281 34.2799 14.1886 34.2046 14.0961 34.1293C14.0586 34.0987 14.0209 34.0682 13.9832 34.0379C13.8429 33.9248 13.7096 33.8051 13.5836 33.6762C13.5396 33.6314 13.4952 33.5921 13.4448 33.5546C13.3059 33.4445 13.1847 33.3141 13.0603 33.1883C13.0343 33.1621 13.0083 33.136 12.9823 33.1099C12.9347 33.062 12.8872 33.0141 12.8397 32.9661C12.7754 32.9012 12.7108 32.8365 12.6458 32.7722C12.463 32.591 12.463 32.591 12.3866 32.5006C12.3571 32.4665 12.3265 32.4336 12.2957 32.4007C12.2138 32.313 12.1384 32.2222 12.0652 32.1272C12.0099 32.0558 11.9511 31.9886 11.8902 31.9219C11.7542 31.7718 11.6334 31.6111 11.5126 31.4487C11.4582 31.3757 11.403 31.3032 11.3476 31.231C11.2325 31.081 11.1209 30.9292 11.0132 30.7737C10.994 30.746 10.9746 30.7184 10.9552 30.6908C10.7486 30.3962 10.5629 30.0898 10.3807 29.7798C10.3428 29.7154 10.3047 29.6512 10.2663 29.5871C10.1482 29.3897 10.0365 29.1895 9.92854 28.9864C9.91177 28.9549 9.89495 28.9233 9.87806 28.8919C9.37937 27.9615 8.99801 26.9594 8.68468 25.9526C8.667 25.8961 8.64889 25.8398 8.63078 25.7834C8.53404 25.4772 8.46473 25.1675 8.39843 24.8535C8.37701 24.7525 8.35361 24.6521 8.32877 24.5518C8.30083 24.4376 8.27707 24.3228 8.2556 24.2072C8.25281 24.1924 8.25002 24.1776 8.24714 24.1623C8.23293 24.0831 8.22521 24.0091 8.22817 23.9287C8.27339 23.9739 8.27125 24.0098 8.28101 24.073C8.38416 24.6914 8.5542 25.3012 8.74847 25.8967C8.75584 25.9196 8.7632 25.9425 8.77055 25.9654C8.87415 26.288 8.98768 26.604 9.11716 26.9171C9.13884 26.9705 9.15942 27.0242 9.17979 27.0781C9.21711 27.1759 9.25908 27.2708 9.30332 27.3656C9.31905 27.3996 9.33478 27.4336 9.35051 27.4676C9.3585 27.4848 9.36648 27.502 9.3747 27.5197C9.40623 27.5879 9.43743 27.6562 9.4686 27.7245C9.49822 27.7893 9.52801 27.8541 9.5578 27.9188C9.57551 27.9575 9.593 27.9963 9.61041 28.0351C9.69383 28.2192 9.79321 28.3933 9.89387 28.5685C9.92299 28.6196 9.95131 28.6711 9.97951 28.7226C10.0522 28.8556 10.1288 28.9861 10.2067 29.116C10.2168 29.1328 10.2268 29.1496 10.2372 29.1668C10.3566 29.3649 10.4829 29.558 10.6112 29.7504C10.6191 29.7622 10.6269 29.774 10.635 29.7861C10.8463 30.1028 11.061 30.415 11.3021 30.7098C11.3609 30.7817 11.4188 30.8543 11.476 30.9275C11.5519 31.0245 11.6288 31.1206 11.7077 31.2152C11.7152 31.2242 11.7227 31.2331 11.7304 31.2424C11.825 31.3555 11.9216 31.4633 12.0272 31.5664C12.0657 31.6059 12.1001 31.6468 12.1345 31.6899C12.3015 31.8987 12.4921 32.0983 12.6955 32.2718C12.7438 32.3156 12.789 32.3621 12.8347 32.4086C12.9141 32.4894 12.9962 32.5612 13.0851 32.6316C13.1308 32.6699 13.1655 32.7145 13.2036 32.7603C13.2416 32.7921 13.2806 32.8223 13.3198 32.8527C13.3708 32.8943 13.4181 32.9386 13.4657 32.984C13.5613 33.074 13.6631 33.1522 13.7688 33.2298C13.8416 33.2834 13.9129 33.3389 13.984 33.3946C14.2746 33.6216 14.5699 33.8431 14.8783 34.0452C14.8977 34.0582 14.917 34.0711 14.9364 34.0841C14.9467 34.091 14.9569 34.0979 14.9675 34.1049C14.9868 34.1179 15.0061 34.1308 15.0254 34.1438C15.0446 34.1566 15.0639 34.1693 15.0833 34.1817C15.1124 34.2013 15.1407 34.2222 15.1684 34.2438C15.3248 34.361 15.4517 34.3746 15.6431 34.3697C15.6713 34.3695 15.6994 34.3694 15.7276 34.3693C15.8015 34.3689 15.8754 34.3677 15.9494 34.3662C16.008 34.3652 16.0667 34.3648 16.1254 34.3645C16.418 34.3629 16.7101 34.3552 17.0023 34.3392C17.0199 34.3383 17.0199 34.3383 17.0378 34.3373C17.2844 34.3238 17.5283 34.2936 17.7725 34.2567C17.79 34.254 17.8075 34.2514 17.8255 34.2487C17.9382 34.2313 18.0505 34.2121 18.1627 34.1916C18.178 34.1888 18.1934 34.1861 18.2092 34.1832C18.6344 34.105 19.06 34.0038 19.4738 33.878C19.5012 33.8697 19.5287 33.8615 19.5561 33.8535C20.3429 33.619 21.0866 33.2815 21.7886 32.8579C21.8212 32.8384 21.8538 32.8189 21.8865 32.7995C22.0698 32.6896 22.2488 32.5756 22.4227 32.4513C22.4405 32.4386 22.4405 32.4386 22.4587 32.4257C22.9899 32.0473 23.479 31.6258 23.9392 31.1641C23.9758 31.1274 24.0125 31.0908 24.0491 31.0543C24.0728 31.0305 24.0966 31.0068 24.1203 30.983C24.131 30.9723 24.1417 30.9616 24.1528 30.9506C24.2153 30.8877 24.2749 30.8231 24.3328 30.7558C24.3679 30.7153 24.405 30.6767 24.4419 30.6378C24.5288 30.5443 24.6045 30.444 24.6801 30.3412C24.7331 30.2692 24.7881 30.1988 24.8433 30.1285C24.9609 29.978 25.0748 29.8248 25.1868 29.6701C25.1952 29.6584 25.2036 29.6468 25.2123 29.6348C25.7092 28.946 26.1125 28.1801 26.4652 27.4083C26.4713 27.3948 26.4775 27.3814 26.4838 27.3676C26.5247 27.2766 26.561 27.1842 26.5964 27.0909C26.6177 27.0349 26.6395 26.979 26.6614 26.9231C26.8863 26.3709 26.8863 26.3709 27.0599 25.8019C27.0835 25.7035 27.1126 25.6074 27.1426 25.5108C27.2107 25.2915 27.2667 25.073 27.3068 24.8466C27.3158 24.7959 27.3252 24.7452 27.3347 24.6946C27.4016 24.337 27.4512 23.979 27.4902 23.6173C27.5822 22.7848 27.835 21.8851 28.3736 21.2287C28.387 21.2124 28.4003 21.196 28.4141 21.1792C28.6698 20.8828 29.0707 20.63 29.4666 20.5909C29.6582 20.5808 29.8328 20.6038 30.0158 20.6595C30.0269 20.6628 30.038 20.6661 30.0495 20.6695C30.4627 20.7959 30.8325 21.033 31.1725 21.2949C31.2387 21.3457 31.307 21.3935 31.3755 21.4412C31.5452 21.56 31.7076 21.685 31.8602 21.8253C31.9091 21.8695 31.9592 21.9121 32.0097 21.9545C32.1914 22.1076 32.3673 22.2668 32.5428 22.4269C32.5781 22.4587 32.6138 22.4899 32.6499 22.5208C32.7121 22.5747 32.7696 22.633 32.8275 22.6916C32.9062 22.7709 32.9895 22.8433 33.0757 22.9142C33.1207 22.9522 33.1628 22.9907 33.2027 23.0341C33.2027 23.0448 33.2027 23.0556 33.2027 23.0666C33.2117 23.0701 33.2206 23.0736 33.2299 23.0772C33.2805 23.1066 33.315 23.1472 33.3531 23.1907C33.3689 23.2083 33.3847 23.2259 33.4005 23.2435C33.4122 23.2564 33.4122 23.2564 33.4241 23.2696C33.5072 23.3668 33.5072 23.3668 33.6092 23.4407C33.6092 23.4515 33.6092 23.4622 33.6092 23.4733C33.6199 23.4733 33.6306 23.4733 33.6417 23.4733C33.6618 23.4937 33.6618 23.4937 33.6864 23.5241C33.744 23.5921 33.8059 23.6546 33.8693 23.7172C33.9371 23.7844 34.0033 23.8516 34.065 23.9245C34.1122 23.9787 34.1616 24.0308 34.2108 24.0832C34.3303 24.2107 34.3303 24.2107 34.3815 24.2702C34.4633 24.3651 34.5501 24.4555 34.6358 24.5469C34.6933 24.6084 34.7507 24.6699 34.8081 24.7316C34.8564 24.7834 34.9048 24.835 34.9534 24.8865C35.0495 24.9884 35.1422 25.0909 35.2296 25.2004C35.2755 25.2556 35.3242 25.3077 35.3733 25.3599C35.4962 25.4907 35.6084 25.6284 35.7162 25.7718C35.7377 25.8011 35.7377 25.8011 35.7717 25.8154C35.7717 25.8261 35.7717 25.8368 35.7717 25.8479C35.7824 25.8479 35.7932 25.8479 35.8042 25.8479C35.8259 25.8717 35.8463 25.8967 35.8662 25.9221C35.9279 25.9993 35.9912 26.0744 36.0562 26.1488C36.1293 26.2326 36.2007 26.3175 36.2707 26.4039C36.3152 26.4582 36.361 26.5114 36.4068 26.5645C36.473 26.6413 36.5374 26.7191 36.6002 26.7987C36.6391 26.8471 36.6794 26.8944 36.7198 26.9417C36.7811 27.0136 36.8406 27.0866 36.8987 27.1612C37.0259 27.3248 37.1577 27.4847 37.2926 27.642C37.3612 27.7221 37.4243 27.8037 37.4834 27.8911C37.5133 27.9323 37.5459 27.9687 37.5806 28.006C37.6534 28.0844 37.7152 28.1687 37.7762 28.2564C37.819 28.3193 37.819 28.3193 37.8854 28.3526C37.9572 28.2107 38.0279 28.0684 38.0945 27.9239C38.125 27.8581 38.157 27.7931 38.1898 27.7283C38.2612 27.5871 38.3274 27.444 38.3912 27.2993C38.4078 27.2618 38.4244 27.2244 38.4411 27.187C38.5357 26.974 38.6234 26.7586 38.7037 26.5398C38.7231 26.487 38.7428 26.4345 38.7627 26.3819C38.8822 26.0626 38.9779 25.7362 39.0724 25.4087C39.0764 25.3949 39.0803 25.3811 39.0845 25.3668C39.3538 24.4315 39.5228 23.4849 39.612 22.5157C39.6134 22.5007 39.6147 22.4856 39.6162 22.4702C39.6433 22.1731 39.6595 21.8766 39.6668 21.5784C39.6674 21.5583 39.6674 21.5583 39.6679 21.5378C39.6737 21.3046 39.6775 21.0716 39.674 20.8384C39.6735 20.8088 39.6735 20.8088 39.6731 20.7786C39.6587 19.9431 39.5913 19.1055 39.4301 18.2849C39.4279 18.2737 39.4257 18.2625 39.4234 18.251C39.349 17.8755 39.2506 17.5065 39.1496 17.1374C39.1423 17.1108 39.1423 17.1108 39.1349 17.0837C39.1258 17.0505 39.1166 17.0173 39.1074 16.9842C39.0886 16.9156 39.0706 16.8472 39.0558 16.7777C39.0406 16.7072 39.0195 16.6398 38.9963 16.5717C38.9921 16.5593 38.988 16.547 38.9838 16.5343C38.9707 16.4953 38.9575 16.4564 38.9443 16.4175C38.9356 16.3916 38.9269 16.3657 38.9182 16.3398C38.9013 16.2895 38.8843 16.2392 38.8673 16.1889C38.8542 16.1501 38.8414 16.1114 38.8289 16.0724C38.7737 15.9003 38.7056 15.7328 38.6394 15.5646C38.6296 15.5395 38.6296 15.5395 38.6195 15.5138C38.5755 15.4019 38.5313 15.2901 38.487 15.1783C38.4802 15.1611 38.4802 15.1611 38.4733 15.1436C38.0371 14.0433 37.4081 12.996 36.7147 12.0393C36.7059 12.0271 36.6972 12.015 36.6881 12.0025C36.4697 11.7017 36.2417 11.4091 36.0008 11.126C35.952 11.0685 35.9043 11.0103 35.8571 10.9516C35.8084 10.8918 35.7582 10.8363 35.7027 10.783C35.6759 10.7562 35.6518 10.7285 35.6274 10.6995C35.5731 10.637 35.5156 10.5784 35.4567 10.5202C35.4428 10.5064 35.4428 10.5064 35.4286 10.4923C35.3898 10.4539 35.3509 10.4156 35.3119 10.3773C35.2832 10.3491 35.2546 10.3208 35.226 10.2925C35.2127 10.2795 35.2127 10.2795 35.1991 10.2662C35.178 10.2452 35.1577 10.2233 35.1376 10.2014C35.1376 10.1906 35.1376 10.1799 35.1376 10.1688C35.1285 10.1651 35.1194 10.1613 35.1101 10.1574C35.0627 10.1308 35.0306 10.0977 34.9925 10.0589C34.9812 10.0474 34.9812 10.0474 34.9697 10.0357C34.9456 10.0114 34.9217 9.98695 34.8977 9.96247C34.8059 9.86883 34.7145 9.77576 34.6147 9.69048C34.5635 9.64628 34.5149 9.59933 34.4659 9.55281C34.3808 9.47274 34.2943 9.39691 34.203 9.32403C34.1628 9.29117 34.1248 9.25677 34.0868 9.22142C33.9835 9.12734 33.8713 9.04499 33.7599 8.96083C33.6994 8.91477 33.6396 8.86779 33.5797 8.82091C33.1177 8.46063 32.6401 8.1352 32.1387 7.83273C32.0688 7.79052 31.9992 7.74786 31.9298 7.705C31.7081 7.56849 31.4845 7.43904 31.2516 7.32253C31.2321 7.31274 31.2127 7.30295 31.1933 7.29315C30.5824 6.98576 29.9583 6.70693 29.3158 6.47214C29.2818 6.45963 29.2478 6.447 29.2138 6.43433C28.9264 6.32729 28.6403 6.22671 28.3434 6.14899C28.2901 6.13461 28.2372 6.11911 28.1844 6.10332C27.3083 5.84381 26.4053 5.66423 25.4952 5.58505C25.4321 5.57947 25.3691 5.57324 25.3061 5.56709C25.2561 5.56224 25.2062 5.5576 25.1562 5.553C25.1319 5.55067 25.1076 5.54817 25.0833 5.54555C24.9817 5.5347 24.8804 5.5291 24.7783 5.5253C24.6674 5.52089 24.5567 5.51576 24.446 5.50801C24.346 5.50131 24.247 5.5005 24.1469 5.50141C24.1066 5.50099 24.0691 5.49858 24.0293 5.49277C23.9222 5.47871 23.8172 5.48153 23.7099 5.49251C23.6004 5.50286 23.4908 5.5043 23.3809 5.50628C22.7102 5.51915 22.0397 5.56898 21.3788 5.68531C21.2951 5.69989 21.2113 5.71368 21.1274 5.72747C20.9084 5.76355 20.6897 5.80134 20.4715 5.84245C20.4581 5.84494 20.4447 5.84743 20.4308 5.84999C19.9648 5.9367 19.5108 6.0767 19.0582 6.21587C19.0029 6.23287 18.9475 6.24974 18.8922 6.2666C18.7006 6.32527 18.5117 6.38707 18.3253 6.46051C18.2881 6.4748 18.2509 6.48907 18.2137 6.50333C18.1611 6.52366 18.1084 6.54402 18.0558 6.56439C17.9773 6.5947 17.8988 6.62452 17.8193 6.65213C17.6823 6.7017 17.5504 6.76422 17.4178 6.82443C17.3887 6.83758 17.3597 6.85074 17.3306 6.86389C17.2448 6.90278 17.159 6.94185 17.0733 6.98098C17.0612 6.9865 17.0491 6.99202 17.0366 6.99771C16.6244 7.18564 16.2236 7.38857 15.8343 7.62071C15.7914 7.64629 15.7483 7.67167 15.7052 7.697C15.4958 7.82063 15.2924 7.95273 15.0897 8.08697C15.0729 8.09806 15.0561 8.10915 15.0387 8.12058C14.8473 8.24705 14.6568 8.37418 14.4718 8.50985C14.4604 8.51817 14.4489 8.5265 14.4371 8.53508C14.2683 8.65799 14.102 8.78365 13.9376 8.91252C13.8875 8.95183 13.837 8.99057 13.7863 9.02902C13.6193 9.15572 13.462 9.2932 13.3086 9.43586C13.2518 9.48842 13.1931 9.5381 13.1334 9.58737C13.0388 9.66589 12.9524 9.75133 12.8662 9.83895C12.806 9.90006 12.7447 9.95828 12.6793 10.0138C12.6039 10.0796 12.5346 10.1516 12.4699 10.2278C12.4141 10.2928 12.3538 10.3526 12.293 10.4128C12.2248 10.4804 12.1582 10.548 12.0962 10.6214C12.0616 10.6611 12.0258 10.6994 11.9897 10.7378C11.9032 10.83 11.8203 10.9235 11.7412 11.0222C11.6979 11.0754 11.6526 11.1263 11.6064 11.1769C11.5805 11.2065 11.5579 11.2369 11.5349 11.2687C11.4963 11.3074 11.4963 11.3074 11.4516 11.3104C11.3805 11.2844 11.3171 11.2487 11.2524 11.2098C11.2755 11.1435 11.3073 11.0945 11.35 11.039C11.3564 11.0306 11.3629 11.0221 11.3695 11.0135C11.3831 10.9957 11.3968 10.9779 11.4105 10.9601C11.4307 10.934 11.4508 10.9078 11.4708 10.8816C11.5116 10.8281 11.5527 10.775 11.5939 10.7218C11.601 10.7126 11.6082 10.7033 11.6156 10.6937C11.7037 10.58 11.7934 10.4681 11.8869 10.3588C11.9329 10.305 11.9776 10.2505 12.0217 10.1953C12.0912 10.1097 12.1661 10.03 12.2418 9.94999C12.2962 9.89228 12.3477 9.8338 12.3967 9.77137C12.47 9.67923 12.5528 9.59767 12.637 9.51552C12.7012 9.45263 12.7617 9.38796 12.8203 9.31984C12.8524 9.28306 12.8863 9.24853 12.9211 9.2143C12.9334 9.20206 12.9458 9.18982 12.9586 9.1772C12.9752 9.16085 12.9752 9.16085 12.9922 9.14416C13.0066 9.12974 13.021 9.11531 13.0359 9.10045C13.0483 9.08804 13.0607 9.07563 13.0735 9.06284C13.0819 9.05408 13.0903 9.04531 13.0989 9.03628C13.1224 9.01202 13.1466 8.98857 13.171 8.96525C13.1818 8.96525 13.1925 8.96525 13.2036 8.96525C13.2089 8.94915 13.2143 8.93305 13.2198 8.91646C13.2453 8.89136 13.2453 8.89136 13.2777 8.86462C13.3257 8.82402 13.371 8.7824 13.4149 8.73755C13.4662 8.68557 13.5193 8.63706 13.5747 8.58952C13.615 8.55429 13.6541 8.51783 13.6934 8.48138C13.7694 8.41198 13.8484 8.34807 13.9297 8.28509C13.9963 8.23344 14.0612 8.18028 14.1253 8.12559C14.2023 8.05989 14.2798 7.99503 14.3584 7.93118C14.3938 7.90234 14.4291 7.87337 14.4643 7.84427C14.7112 7.64088 14.9678 7.45062 15.2303 7.2679C15.2729 7.23811 15.3155 7.20812 15.358 7.17812C15.5399 7.05019 15.7235 6.92659 15.9127 6.80978C15.9528 6.78494 15.9928 6.75988 16.0328 6.73478C16.8783 6.20536 17.7755 5.72248 18.7115 5.37312C18.7882 5.34438 18.8641 5.31455 18.9395 5.28266C19.5467 5.02615 20.1769 4.84075 20.813 4.67141C20.829 4.66713 20.845 4.66286 20.8615 4.65846C21.3585 4.52604 21.8552 4.41305 22.3632 4.33125C22.4446 4.31813 22.5256 4.30363 22.6066 4.28817C22.9796 4.22173 23.3613 4.18942 23.7382 4.15417C23.7765 4.15053 23.8147 4.14674 23.853 4.14296C24.0715 4.12175 24.2896 4.10866 24.509 4.10011C24.5259 4.09943 24.5428 4.09875 24.5603 4.09804C24.8081 4.08818 25.0556 4.08281 25.3036 4.08283Z" fill="var(--fill-0, black)"/>
<path id="Vector_2" d="M7.4809 0.0035898C7.36381 0.12199 7.24193 0.234863 7.11201 0.339047C7.04117 0.396066 6.97719 0.45691 6.91379 0.522023C6.88106 0.554824 6.84735 0.585338 6.81223 0.615545C6.72918 0.687104 6.65299 0.763141 6.58155 0.846298C6.53661 0.898521 6.4893 0.947304 6.44029 0.995729C6.38244 1.05299 6.32747 1.11128 6.27471 1.17324C6.25371 1.19737 6.23209 1.22095 6.21006 1.24414C6.07761 1.38417 5.96694 1.53858 5.85495 1.69511C5.84556 1.70814 5.83616 1.72117 5.82648 1.73459C5.66867 1.95374 5.52322 2.17972 5.38343 2.41075C5.37265 2.42846 5.37265 2.42846 5.36166 2.44653C5.11404 2.85718 4.93754 3.31409 4.7991 3.77189C4.79316 3.79148 4.78721 3.81106 4.78109 3.83125C4.74048 3.96934 4.7107 4.1073 4.68427 4.24864C4.67953 4.27237 4.67477 4.29609 4.66998 4.3198C4.64521 4.45118 4.62814 4.58206 4.61619 4.71523C4.61482 4.73009 4.61346 4.74494 4.61205 4.76025C4.59416 4.97726 4.60472 5.18876 4.6294 5.40445C4.63084 5.41715 4.63229 5.42985 4.63378 5.44294C4.74196 6.37656 5.13511 7.23659 5.73313 7.96001C5.76664 8.00073 5.79955 8.04192 5.8326 8.08302C5.898 8.16299 5.96712 8.2389 6.03749 8.31447C6.0715 8.35104 6.1041 8.38861 6.13657 8.42654C6.19722 8.49614 6.26288 8.55909 6.33054 8.62178C6.34268 8.63311 6.35482 8.64443 6.36732 8.65609C6.40242 8.68878 6.43761 8.72137 6.47281 8.75393C6.48181 8.7623 6.49081 8.77067 6.50008 8.77929C6.60673 8.87845 6.71717 8.97159 6.83052 9.06296C6.85128 9.07995 6.87203 9.09696 6.89276 9.11398C7.12262 9.30394 7.12262 9.30394 7.3681 9.47262C7.45077 9.52398 7.52807 9.58104 7.60589 9.63933C7.78695 9.77449 7.9748 9.89887 8.1638 10.0226C8.18324 10.0353 8.18324 10.0353 8.20307 10.0483C8.28182 10.0998 8.36092 10.1508 8.44021 10.2015C8.45155 10.2087 8.46289 10.216 8.47457 10.2235C9.11121 10.6311 9.76489 11.0153 10.4368 11.3617C10.4767 11.3825 10.5165 11.4034 10.5563 11.4244C10.7545 11.5293 10.954 11.6318 11.1545 11.7324C11.1787 11.7445 11.1787 11.7445 11.2034 11.7569C11.4772 11.8939 11.7537 12.0223 12.0346 12.1438C12.1214 12.1814 12.2075 12.22 12.2937 12.259C12.757 12.4677 13.2285 12.6566 13.7033 12.8376C13.7344 12.8494 13.7654 12.8613 13.7964 12.8732C14.0803 12.9824 14.0803 12.9824 14.372 13.0671C14.4431 13.0852 14.5114 13.1096 14.5805 13.1339C14.8894 13.2427 15.2051 13.3233 15.5224 13.4034C15.6183 13.4276 15.7139 13.4524 15.8095 13.4779C16.6289 13.6946 17.4804 13.8226 18.3233 13.9062C18.3611 13.9101 18.3989 13.9141 18.4367 13.9181C18.6199 13.9374 18.8026 13.9512 18.9865 13.9596C19.0005 13.9603 19.0146 13.9609 19.029 13.9616C19.566 13.9866 20.1043 13.992 20.6419 13.9932C20.6532 13.9932 20.6644 13.9932 20.676 13.9933C20.7886 13.9936 20.8992 13.9904 21.0112 13.9788C21.1064 13.9707 21.2019 13.9701 21.2974 13.9677C21.7399 13.9552 22.1737 13.9181 22.6116 13.855C22.7191 13.8396 22.8268 13.8254 22.9345 13.8112C23.0536 13.7954 23.1727 13.7796 23.2916 13.7629C23.738 13.7009 24.1836 13.6555 24.6346 13.6496C24.6547 13.6493 24.6547 13.6493 24.6752 13.649C25.1669 13.6429 25.6485 13.6544 26.136 13.7247C26.1776 13.7307 26.2193 13.7361 26.2611 13.7414C27.0385 13.8441 27.8251 14.1399 28.4177 14.6598C28.4668 14.7028 28.5174 14.7435 28.5684 14.784C28.643 14.8449 28.7043 14.9084 28.7645 14.9833C28.7792 15.0006 28.7939 15.018 28.8085 15.0354C29.0803 15.3608 29.2662 15.7259 29.3661 16.138C29.3799 16.1391 29.3799 16.1391 29.394 16.1403C29.4918 16.1481 29.5896 16.1567 29.6873 16.1657C29.7202 16.1688 29.7532 16.1717 29.7862 16.1745C30.276 16.2179 30.7954 16.3104 31.2522 16.4959C31.2734 16.5044 31.2734 16.5044 31.295 16.5131C31.7149 16.6857 32.1263 16.9338 32.3741 17.3254C32.3826 17.338 32.3911 17.3506 32.3999 17.3637C32.5401 17.5814 32.6042 17.8491 32.618 18.1061C32.6187 18.1177 32.6194 18.1293 32.6201 18.1413C32.6404 18.8785 32.2854 19.5811 31.9006 20.1859C31.8895 20.2033 31.8784 20.2207 31.867 20.2387C31.7258 20.4585 31.7258 20.4585 31.675 20.5132C31.6642 20.5132 31.6535 20.5132 31.6425 20.5132C31.6385 20.5008 31.6345 20.4884 31.6304 20.4755C31.4829 20.0527 31.1433 19.7194 30.7487 19.5213C30.3804 19.3439 30.0132 19.2894 29.607 19.2883C29.5862 19.2882 29.5655 19.2881 29.5441 19.288C29.1766 19.2908 28.7998 19.3876 28.4719 19.5536C28.4552 19.5618 28.4552 19.5618 28.4382 19.5702C28.2672 19.6552 28.1073 19.7523 27.9516 19.8626C27.9345 19.8747 27.9174 19.8867 27.8999 19.8992C27.7789 19.9873 27.6693 20.0846 27.5613 20.1879C27.5462 20.2022 27.5312 20.2164 27.5156 20.2311C27.3993 20.3436 27.3002 20.465 27.2036 20.5945C27.1969 20.6034 27.1903 20.6123 27.1834 20.6214C26.8101 21.1188 26.5161 21.6956 26.3744 22.3023C26.3691 22.3246 26.3638 22.3468 26.3585 22.369C26.2882 22.6657 26.2307 22.9576 26.2064 23.262C26.199 23.3511 26.1861 23.4383 26.1719 23.5265C26.1386 23.7376 26.126 23.9502 26.1117 24.1634C26.0961 24.3933 26.0709 24.6186 26.0316 24.8457C26.0164 24.9349 26.0065 25.0241 25.9974 25.1141C25.923 25.7481 25.6715 26.3507 25.3663 26.9052C25.3588 26.9189 25.3514 26.9326 25.3436 26.9467C25.1743 27.2551 24.9785 27.5368 24.7605 27.8125C24.7134 27.8724 24.6675 27.9332 24.6214 27.9939C24.4904 28.1657 24.3537 28.3292 24.206 28.4867C24.1775 28.5174 24.1492 28.5484 24.1211 28.5794C24.1115 28.59 24.1019 28.6005 24.092 28.6113C24.0733 28.6318 24.0546 28.6523 24.0361 28.6729C24.014 28.6969 23.9911 28.7201 23.968 28.7431C23.9573 28.7431 23.9465 28.7431 23.9355 28.7431C23.9347 28.7306 23.9339 28.7181 23.9331 28.7052C23.8951 28.1452 23.8047 27.5923 23.6282 27.0587C23.608 26.9958 23.5896 26.9326 23.5713 26.8692C23.5289 26.7233 23.4816 26.5793 23.4324 26.4356C23.4279 26.4224 23.4234 26.4092 23.4188 26.3957C23.0134 25.2141 22.4009 24.1244 21.6917 23.0993C21.6815 23.0846 21.6714 23.0699 21.661 23.0548C21.5319 22.8679 21.3993 22.6838 21.2637 22.5016C21.237 22.4658 21.2104 22.4299 21.1839 22.3941C21.0907 22.2686 20.9955 22.1455 20.895 22.0258C20.8848 22.0137 20.8848 22.0137 20.8745 22.0014C20.8298 21.9482 20.7848 21.8951 20.7398 21.8422C20.7238 21.8235 20.7079 21.8047 20.692 21.786C20.6059 21.6843 20.5191 21.5837 20.4285 21.486C20.3719 21.425 20.318 21.3629 20.2659 21.298C20.2129 21.2321 20.1573 21.1722 20.0967 21.1134C20.0553 21.0721 20.0178 21.0281 19.9798 20.9838C19.9442 20.9436 19.9061 20.9063 19.8678 20.8687C19.8404 20.8409 19.8152 20.8123 19.79 20.7824C19.7065 20.6864 19.6157 20.5974 19.5257 20.5076C19.5065 20.4883 19.4872 20.4691 19.468 20.4499C19.428 20.4097 19.3878 20.3697 19.3477 20.3296C19.2966 20.2785 19.2455 20.2274 19.1945 20.1763C19.1549 20.1366 19.1152 20.097 19.0756 20.0573C19.0568 20.0385 19.0379 20.0197 19.0191 20.0008C18.905 19.8865 18.7892 19.7763 18.6644 19.6736C18.6059 19.6242 18.5533 19.5701 18.5001 19.5152C18.4043 19.4171 18.3032 19.3298 18.1959 19.2446C18.0839 19.1543 17.9743 19.0617 17.8658 18.9672C17.7219 18.842 17.5763 18.7193 17.4284 18.5989C17.3878 18.5655 17.3476 18.5316 17.3076 18.4975C17.027 18.2583 16.7318 18.0408 16.4327 17.8256C16.3531 17.7682 16.2743 17.7098 16.196 17.6507C15.9888 17.4944 15.7774 17.3438 15.5651 17.1945C15.52 17.1628 15.475 17.1309 15.4301 17.0989C15.1785 16.9196 14.9221 16.7486 14.6587 16.5872C14.5765 16.5367 14.4954 16.485 14.4156 16.4308C14.3065 16.3569 14.1948 16.2876 14.0826 16.2185C13.9895 16.1613 13.897 16.1032 13.8048 16.0445C13.4843 15.8411 13.158 15.6464 12.8303 15.4549C12.8141 15.4455 12.798 15.4361 12.7814 15.4264C12.3905 15.1982 11.9938 14.9807 11.5954 14.7661C11.544 14.7384 11.4928 14.7106 11.4415 14.6828C11.2237 14.5652 11.0047 14.4501 10.7846 14.3367C10.7666 14.3274 10.7666 14.3274 10.7482 14.3179C10.6066 14.2448 10.4641 14.174 10.3201 14.1057C10.0805 13.9919 9.8434 13.8731 9.6062 13.7545C9.55444 13.7286 9.50266 13.7027 9.45086 13.6769C9.17144 13.5378 8.89322 13.3976 8.62051 13.2455C8.57391 13.2197 8.52698 13.1945 8.47997 13.1694C8.27022 13.057 8.06396 12.9397 7.85907 12.8187C7.80201 12.7851 7.74481 12.7518 7.68757 12.7185C7.47707 12.596 7.2681 12.4719 7.0633 12.34C7.02345 12.3145 6.98341 12.2893 6.94332 12.2642C6.41705 11.9334 5.90604 11.5759 5.41595 11.1936C5.39725 11.1791 5.37856 11.1646 5.35987 11.1502C5.24668 11.0621 5.13616 10.9716 5.02718 10.8784C4.98059 10.8387 4.93314 10.8001 4.88548 10.7616C4.80808 10.6986 4.73422 10.6324 4.66077 10.5648C4.6253 10.5323 4.58948 10.5004 4.55318 10.4688C4.3531 10.2946 4.15661 10.1161 3.97121 9.92632C3.93923 9.89185 3.93923 9.89185 3.90382 9.87619C3.90382 9.86545 3.90382 9.85472 3.90382 9.84366C3.8898 9.83787 3.8898 9.83787 3.87549 9.83197C3.83082 9.80661 3.80513 9.77692 3.77171 9.73794C3.72012 9.67897 3.66728 9.62284 3.61115 9.56818C3.54169 9.49955 3.48013 9.42705 3.41927 9.35077C3.38566 9.30955 3.35063 9.27063 3.31441 9.2317C3.21928 9.12724 3.13594 9.01381 3.05104 8.90103C3.02865 8.87153 3.00596 8.84232 2.983 8.81327C2.44034 8.12383 2.00645 7.28847 1.82261 6.4281C1.81904 6.41179 1.81548 6.39548 1.8118 6.37868C1.72526 5.98057 1.69902 5.59869 1.70879 5.19199C1.70911 5.17584 1.70944 5.15969 1.70977 5.14304C1.71599 4.92204 1.76129 4.71039 1.81041 4.49566C1.81495 4.47571 1.81495 4.47571 1.81958 4.45535C1.93732 3.94338 2.14204 3.47187 2.42421 3.0288C2.43157 3.01722 2.43894 3.00564 2.44652 2.99371C2.52962 2.86406 2.61741 2.73994 2.71688 2.62219C2.72724 2.60979 2.72724 2.60979 2.73781 2.59714C2.91304 2.38761 3.09941 2.18955 3.29206 1.996C3.30404 1.98394 3.31602 1.97188 3.32836 1.95945C3.54004 1.74833 3.77512 1.56129 4.02034 1.39076C4.05192 1.36857 4.08316 1.34595 4.11437 1.32324C4.28745 1.19791 4.46676 1.08631 4.65175 0.979464C4.6641 0.972294 4.67644 0.965124 4.68916 0.957736C5.23783 0.640546 5.83157 0.412945 6.43623 0.228244C6.45459 0.222606 6.47296 0.216967 6.49188 0.211158C7.20541 -0.0072495 7.20541 -0.00724949 7.4809 0.0035898ZM25.2687 15.5037C25.2898 15.5026 25.3108 15.5014 25.3325 15.5002C25.4196 15.4954 25.5068 15.4913 25.5939 15.4875C25.6136 15.4865 25.6332 15.4856 25.6535 15.4847C25.8251 15.4803 26.0248 15.4914 26.163 15.6013C26.1953 15.6388 26.1953 15.6388 26.224 15.6806C26.2405 15.7041 26.2405 15.7041 26.2573 15.7281C26.2691 15.7453 26.2809 15.7625 26.2931 15.7802C26.5229 16.1137 26.8381 16.403 27.2485 16.4858C27.7022 16.561 28.1318 16.3924 28.497 16.1357C28.5101 16.1257 28.5233 16.1158 28.5369 16.1055C28.5369 16.1002 28.5369 16.0948 28.5369 16.0893C28.5077 16.0839 28.5077 16.0839 28.4779 16.0785C28.316 16.0475 28.1682 16.0089 28.0173 15.9414C27.9803 15.9249 27.9431 15.9092 27.9058 15.8935C27.6541 15.7858 27.4418 15.6524 27.226 15.4844C27.0992 15.3861 26.9803 15.3018 26.8297 15.2435C26.8194 15.2395 26.8091 15.2354 26.7985 15.2313C26.377 15.0713 25.5889 15.1532 25.2687 15.5037Z" fill="var(--fill-0, black)"/>
<path id="Vector_3" d="M0.539089 7.89202C0.563145 7.937 0.579071 7.97932 0.591679 8.02868C0.660373 8.28273 0.764974 8.51213 0.883968 8.74546C0.910984 8.79875 0.937268 8.85233 0.96336 8.90608C1.2002 9.38658 1.52451 9.82678 1.86526 10.2383C1.89911 10.2794 1.93243 10.3208 1.96586 10.3622C2.02422 10.4335 2.08497 10.5023 2.147 10.5704C2.17717 10.6037 2.20678 10.6373 2.23617 10.6712C2.37887 10.8346 2.52821 10.9904 2.68177 11.1435C2.71297 11.1746 2.74408 11.2058 2.77518 11.237C2.87258 11.3345 2.9704 11.4298 3.07556 11.519C3.10444 11.5454 3.13324 11.5718 3.16194 11.5983C3.23565 11.6655 3.31126 11.7296 3.38888 11.7922C3.4178 11.8156 3.44656 11.8391 3.47513 11.8629C3.54261 11.919 3.61068 11.9737 3.68123 12.0259C3.69315 12.0347 3.70507 12.0435 3.71736 12.0526C3.74112 12.0701 3.76495 12.0875 3.78887 12.1048C3.81724 12.1256 3.84484 12.1475 3.87228 12.1696C3.87228 12.1803 3.87228 12.1911 3.87228 12.2021C3.88393 12.2061 3.89559 12.21 3.90759 12.214C3.9603 12.2377 3.99542 12.2668 4.03894 12.3048C4.34493 12.5661 4.6793 12.7918 5.01485 13.013C5.04371 13.0321 5.07244 13.0514 5.10114 13.0708C5.22653 13.1552 5.35344 13.2368 5.48154 13.3171C5.54864 13.3592 5.61496 13.4021 5.68026 13.447C5.95453 13.6351 6.25003 13.7941 6.53883 13.9587C6.55728 13.9693 6.55728 13.9693 6.57611 13.98C6.75126 14.08 6.92897 14.1747 7.10791 14.2677C7.13189 14.2802 7.13189 14.2802 7.15636 14.2929C7.25655 14.3451 7.3568 14.397 7.4571 14.4489C7.5187 14.4808 7.58025 14.5128 7.64177 14.5448C7.88596 14.672 8.13098 14.7961 8.38017 14.9133C8.42493 14.9346 8.46934 14.9565 8.51372 14.9786C8.80511 15.123 9.10487 15.246 9.40518 15.3703C9.52945 15.4219 9.65305 15.4748 9.77649 15.5282C9.91086 15.5863 10.0458 15.6422 10.182 15.696C10.3513 15.7628 10.5188 15.8335 10.686 15.9054C10.6978 15.9105 10.7097 15.9155 10.7218 15.9208C10.7794 15.9455 10.8369 15.9703 10.8943 15.9953C10.938 16.0142 10.9817 16.0329 11.0256 16.0513C11.1579 16.1074 11.2849 16.1703 11.4116 16.2382C11.5413 16.3073 11.6736 16.37 11.8067 16.4321C12.1849 16.6091 12.5558 16.7963 12.9167 17.0068C12.9649 17.0348 13.0132 17.0624 13.0615 17.09C13.3133 17.2337 13.5611 17.3831 13.8068 17.5369C13.8221 17.5464 13.8373 17.556 13.853 17.5658C14.3108 17.8527 14.7567 18.1582 15.1985 18.4691C15.2364 18.4956 15.2742 18.5221 15.3121 18.5486C15.4436 18.6406 15.5729 18.7345 15.6991 18.8337C15.727 18.8556 15.7549 18.8773 15.7828 18.8991C15.9463 19.0268 16.1066 19.1579 16.2648 19.2922C16.3497 19.3642 16.4357 19.4347 16.5221 19.5049C16.543 19.5219 16.5639 19.5389 16.5848 19.5559C16.5958 19.5648 16.6069 19.5738 16.6182 19.583C16.6409 19.6015 16.6636 19.6199 16.6862 19.6383C16.7342 19.6774 16.7823 19.7164 16.8307 19.755C16.9372 19.8405 17.0369 19.9319 17.1364 20.0253C17.1761 20.0626 17.2165 20.0988 17.2579 20.1342C17.3199 20.1875 17.3764 20.2457 17.433 20.3048C17.4745 20.346 17.5196 20.3818 17.5652 20.4183C17.6613 20.4962 17.7483 20.5809 17.8351 20.6689C17.8496 20.6834 17.8641 20.6979 17.8791 20.7129C17.9415 20.7758 18.0028 20.8388 18.0604 20.9062C18.1201 20.9757 18.1863 21.037 18.2538 21.0989C18.3337 21.1721 18.4089 21.2463 18.4794 21.3288C18.5178 21.3728 18.5594 21.4131 18.6013 21.4536C18.6614 21.5127 18.7175 21.5725 18.77 21.6386C18.8351 21.7206 18.9053 21.7965 18.9773 21.8724C18.9944 21.8905 18.9944 21.8905 19.0119 21.9089C19.0339 21.9322 19.056 21.9555 19.0781 21.9787C19.1804 22.0867 19.2751 22.1982 19.3661 22.3158C19.4222 22.388 19.4818 22.456 19.5436 22.5235C19.6624 22.6553 19.7699 22.7974 19.8791 22.9372C19.9055 22.9711 19.9321 23.0048 19.9587 23.0386C20.0641 23.1728 20.1666 23.3086 20.2659 23.4474C20.3146 23.5156 20.3641 23.583 20.4149 23.6496C20.5441 23.8194 20.6632 23.9958 20.7821 24.1729C20.792 24.1875 20.8018 24.2021 20.812 24.2172C20.9935 24.4865 21.1684 24.7594 21.334 25.0387C21.3564 25.0761 21.3791 25.1132 21.4018 25.1504C21.6476 25.5554 21.8779 25.9763 22.0842 26.4029C22.0945 26.4242 22.105 26.4455 22.1154 26.4667C22.2083 26.655 22.2901 26.8473 22.3694 27.0416C22.4138 27.1503 22.4596 27.258 22.5087 27.3648C22.6446 27.667 22.7403 27.9832 22.8359 28.3C22.8433 28.3242 22.8433 28.3242 22.8508 28.3489C22.9026 28.5194 22.95 28.6895 22.9837 28.8646C22.9863 28.8784 22.989 28.8921 22.9917 28.9063C23.0114 29.0153 23.0171 29.1204 23.0097 29.2311C22.9799 29.1864 22.9659 29.1531 22.9492 29.1028C22.911 28.9953 22.8598 28.8966 22.8064 28.7961C22.7963 28.7768 22.7862 28.7575 22.7761 28.7383C22.7555 28.6991 22.7349 28.66 22.7143 28.6209C22.6866 28.5683 22.6592 28.5156 22.6319 28.4628C22.5403 28.2858 22.4467 28.1102 22.3488 27.9366C22.3244 27.8933 22.3002 27.8499 22.276 27.8065C22.1072 27.5048 21.9325 27.2146 21.7252 26.9378C21.7164 26.9261 21.7076 26.9144 21.6986 26.9023C21.5153 26.658 21.3223 26.4216 21.1236 26.1897C21.1153 26.18 21.107 26.1703 21.0984 26.1603C20.9835 26.026 20.8663 25.8942 20.7455 25.7651C20.7242 25.7419 20.703 25.7186 20.682 25.6952C20.5509 25.5499 20.4133 25.4116 20.2748 25.2735C20.2342 25.233 20.1937 25.1923 20.1532 25.1517C20.127 25.1255 20.1008 25.0994 20.0746 25.0732C20.0627 25.0612 20.0508 25.0493 20.0385 25.0369C19.973 24.9717 19.9061 24.9092 19.836 24.849C19.7851 24.8048 19.7366 24.758 19.6876 24.7116C19.6032 24.6321 19.5169 24.5566 19.4262 24.4842C19.3808 24.4469 19.3376 24.4078 19.2944 24.368C19.2077 24.2884 19.1177 24.2142 19.0261 24.1403C19.0061 24.1239 18.9861 24.1075 18.9661 24.091C18.8371 23.985 18.7059 23.8825 18.5718 23.783C18.5154 23.7411 18.4597 23.6984 18.4041 23.6556C18.2622 23.5462 18.1181 23.4403 17.9724 23.3363C17.9493 23.3198 17.9262 23.3033 17.9032 23.2868C17.4886 22.9891 17.0586 22.7112 16.6259 22.4406C16.5858 22.4154 16.5458 22.39 16.5058 22.3646C16.3255 22.2508 16.1416 22.1466 15.9535 22.0462C15.8585 21.9954 15.765 21.9423 15.6716 21.8887C15.5159 21.7998 15.3576 21.7167 15.1981 21.6349C15.0992 21.5841 15.0015 21.5319 14.9053 21.476C14.7993 21.4147 14.6896 21.3644 14.5776 21.3151C14.4949 21.2787 14.4136 21.2407 14.3332 21.1995C14.1847 21.1237 14.033 21.0549 13.8814 20.9854C13.7252 20.9138 13.5693 20.8413 13.4145 20.7664C13.1123 20.6209 12.8051 20.4936 12.4921 20.3733C12.4229 20.3466 12.3542 20.3188 12.2858 20.2899C12.2084 20.2573 12.1304 20.2289 12.0508 20.2023C11.9137 20.1554 11.7789 20.1033 11.6443 20.0498C11.4769 19.9834 11.309 19.9211 11.1386 19.8628C11.0848 19.8442 11.0313 19.8251 10.9777 19.8059C10.6545 19.6903 10.3294 19.5807 10.0034 19.4732C9.83523 19.4177 9.66798 19.3607 9.50209 19.2986C9.41303 19.2654 9.32343 19.2348 9.23282 19.2061C9.09761 19.1621 8.96624 19.1113 8.83546 19.0556C8.74902 19.019 8.66172 18.9867 8.57298 18.9562C8.40951 18.8996 8.25129 18.8316 8.09262 18.7629C8.06231 18.7498 8.032 18.7367 8.00168 18.7237C7.78824 18.6314 7.57607 18.5368 7.36591 18.4373C7.31842 18.4148 7.27081 18.3926 7.22319 18.3704C7.02228 18.2763 6.82714 18.174 6.63324 18.0663C6.58698 18.0408 6.54047 18.0158 6.49386 17.9909C6.24422 17.8577 6.00059 17.7157 5.75838 17.5694C5.74081 17.5589 5.72324 17.5484 5.70514 17.5375C5.06166 17.1506 4.43005 16.7166 3.87787 16.2059C3.84361 16.1742 3.8089 16.1433 3.77371 16.1127C3.69732 16.0463 3.62217 15.9784 3.54709 15.9105C3.53294 15.8977 3.51879 15.885 3.50422 15.8718C3.38292 15.7617 3.26552 15.6481 3.14969 15.5322C3.11971 15.5023 3.08961 15.4724 3.0595 15.4426C3.04037 15.4235 3.02125 15.4045 3.00214 15.3854C2.99315 15.3765 2.98416 15.3676 2.9749 15.3585C2.91297 15.2961 2.91297 15.2961 2.91297 15.2599C2.90224 15.2599 2.89151 15.2599 2.88045 15.2599C2.85677 15.2336 2.83427 15.2063 2.81236 15.1786C2.76796 15.123 2.72351 15.068 2.67619 15.0149C2.624 14.9559 2.57513 14.8946 2.5263 14.8328C2.49407 14.7929 2.46088 14.7541 2.42725 14.7155C2.32188 14.5938 2.22992 14.4645 2.13847 14.3321C2.09759 14.2735 2.05505 14.2161 2.01254 14.1587C1.9374 14.0522 1.9374 14.0522 1.9374 14.0075C1.92667 14.0075 1.91594 14.0075 1.90488 14.0075C1.88638 13.9831 1.88638 13.9831 1.86589 13.9484C1.8582 13.9354 1.8505 13.9225 1.84258 13.9092C1.8343 13.895 1.82602 13.8808 1.81749 13.8662C1.80449 13.8442 1.80449 13.8442 1.79122 13.8217C1.76393 13.7753 1.73684 13.7287 1.70977 13.6822C1.70157 13.6682 1.69337 13.6542 1.68493 13.6398C1.46196 13.2591 1.26565 12.8677 1.09191 12.4624C1.08443 12.4449 1.07694 12.4275 1.06923 12.4095C0.954803 12.1401 0.863952 11.8652 0.782981 11.5841C0.779551 11.5722 0.776122 11.5604 0.772588 11.5482C0.683643 11.2403 0.603361 10.9361 0.561208 10.6178C0.554162 10.5672 0.545273 10.517 0.536156 10.4668C0.500866 10.2712 0.482842 10.0734 0.463342 9.87574C0.459666 9.84379 0.455082 9.81193 0.449567 9.78025C0.440336 9.72242 0.435834 9.66487 0.432514 9.60647C0.43183 9.59455 0.431146 9.58262 0.430442 9.57033C0.423336 9.43424 0.422825 9.2982 0.423153 9.16195C0.423241 9.11896 0.423154 9.07598 0.42305 9.03299C0.422895 8.76706 0.441057 8.50704 0.4766 8.24354C0.482287 8.20128 0.487799 8.159 0.493296 8.11671C0.496864 8.08978 0.500442 8.06285 0.50403 8.03593C0.505673 8.02331 0.507317 8.01069 0.50901 7.99769C0.520955 7.91016 0.520955 7.91016 0.539089 7.89202Z" fill="var(--fill-0, black)"/>
<path id="Vector_4" d="M0.0341498 14.0724C0.0840195 14.0974 0.0916673 14.1458 0.111382 14.1954C0.239408 14.5008 0.428206 14.7795 0.61949 15.0483C0.628186 15.0606 0.636881 15.073 0.64584 15.0857C0.755816 15.2421 0.870728 15.3928 0.992378 15.5402C1.03893 15.5968 1.08345 15.6547 1.1276 15.7131C1.19755 15.805 1.27233 15.891 1.35117 15.9754C1.36439 15.9895 1.36439 15.9895 1.37789 16.004C1.41763 16.0465 1.45739 16.0891 1.49719 16.1316C1.55403 16.1924 1.60974 16.2539 1.66422 16.3169C1.81996 16.4956 1.98392 16.6615 2.16922 16.8099C2.24624 16.8716 2.3174 16.9381 2.38872 17.0061C2.48543 17.0981 2.58492 17.1826 2.69086 17.2636C2.74413 17.3045 2.79573 17.3471 2.84724 17.3901C3.22045 17.702 3.61975 17.9817 4.03398 18.2361C4.05546 18.2494 4.05546 18.2494 4.07738 18.2629C4.54706 18.5524 5.02628 18.82 5.51664 19.0726C5.5452 19.0873 5.57374 19.1021 5.60228 19.1168C5.87814 19.2594 6.15829 19.3885 6.44749 19.5017C6.48945 19.5183 6.53138 19.5349 6.57331 19.5515C6.58908 19.5578 6.58908 19.5578 6.60517 19.5642C6.70946 19.6057 6.81293 19.6491 6.91644 19.6925C7.09435 19.767 7.27281 19.8354 7.45553 19.897C7.51833 19.9187 7.58059 19.9418 7.64295 19.9647C7.83043 20.0334 8.01919 20.095 8.21037 20.1526C8.29584 20.1783 8.38094 20.2051 8.46595 20.2324C8.49056 20.2402 8.51518 20.2481 8.53979 20.2559C8.57558 20.2674 8.61135 20.2788 8.64708 20.2904C8.78964 20.3367 8.93252 20.3765 9.07822 20.4117C9.30061 20.4657 9.5179 20.5346 9.73569 20.6046C9.77892 20.6185 9.82218 20.6323 9.86544 20.6461C10.143 20.7347 10.4201 20.8245 10.696 20.9182C10.7536 20.9376 10.8114 20.9566 10.8692 20.9756C11.4757 21.1749 12.066 21.4103 12.6556 21.6543C12.7778 21.7049 12.9003 21.7547 13.0234 21.8032C13.1837 21.8667 13.3404 21.9373 13.497 22.0095C13.5142 22.0174 13.5314 22.0253 13.5491 22.0335C13.8028 22.1503 14.0553 22.2696 14.3067 22.3911C14.3614 22.4174 14.4161 22.4435 14.4708 22.4696C14.6716 22.5655 14.8709 22.663 15.0667 22.7687C15.1106 22.7923 15.1546 22.8158 15.1986 22.8393C15.5076 23.0046 15.8101 23.1798 16.1069 23.3661C16.1798 23.4116 16.2532 23.4549 16.3291 23.4952C16.549 23.6119 16.7526 23.7551 16.9586 23.8943C17.0452 23.9529 17.1323 24.0108 17.2196 24.0684C17.4516 24.2219 17.6786 24.3803 17.8945 24.5558C17.9663 24.614 18.0395 24.6697 18.1136 24.7247C18.2145 24.7995 18.3125 24.8772 18.4095 24.9569C18.4792 25.014 18.5496 25.0699 18.6207 25.1252C18.7842 25.2529 18.9399 25.3859 19.0848 25.5345C19.1207 25.5694 19.1573 25.5999 19.1969 25.6304C19.3932 25.783 19.5953 25.967 19.7518 26.1611C19.7856 26.2013 19.8206 26.2319 19.8614 26.2647C19.8998 26.2983 19.9313 26.3369 19.9644 26.3756C20.0122 26.4303 20.0618 26.4832 20.1115 26.5362C20.43 26.8766 20.7123 27.2384 20.9832 27.6177C21.0091 27.6537 21.0353 27.6895 21.0615 27.7252C21.5031 28.3276 21.8976 28.9955 22.1639 29.6945C22.192 29.7677 22.2214 29.8403 22.2507 29.9131C22.2661 29.9516 22.2815 29.9902 22.2968 30.0287C22.3074 30.055 22.3184 30.0812 22.3295 30.1073C22.3421 30.1418 22.3421 30.1418 22.3421 30.1906C22.3314 30.1906 22.3207 30.1906 22.3096 30.1906C22.2903 30.1663 22.2722 30.141 22.2547 30.1154C22.1359 29.9478 21.997 29.7963 21.8582 29.645C21.8258 29.6095 21.7942 29.5734 21.7629 29.537C21.7139 29.4804 21.6615 29.4281 21.6082 29.3757C21.5808 29.3478 21.5558 29.3193 21.5312 29.2889C21.5008 29.2466 21.5008 29.2466 21.4641 29.231C21.4641 29.2203 21.4641 29.2095 21.4641 29.1985C21.4534 29.1985 21.4427 29.1985 21.4316 29.1985C21.4316 29.1877 21.4316 29.177 21.4316 29.1659C21.4209 29.1659 21.4101 29.1659 21.3991 29.1659C21.3991 29.1552 21.3991 29.1445 21.3991 29.1334C21.383 29.128 21.3669 29.1227 21.3503 29.1171C21.3252 29.0917 21.3252 29.0917 21.2985 29.0592C21.2001 28.9434 21.0911 28.8422 20.9763 28.7431C20.8195 28.6064 20.8195 28.6064 20.766 28.5397C20.7139 28.4764 20.6517 28.4281 20.5878 28.3771C20.534 28.3338 20.4818 28.2891 20.4296 28.2439C20.2147 28.0587 19.9937 27.8806 19.7731 27.7021C19.7583 27.6901 19.7435 27.6781 19.7282 27.6657C19.5753 27.5427 19.4203 27.4231 19.2599 27.31C19.1977 27.2659 19.1368 27.2205 19.0762 27.1741C18.9741 27.0962 18.8708 27.024 18.7612 26.9572C18.6514 26.89 18.5447 26.8183 18.4378 26.7466C18.2586 26.6264 18.0778 26.5092 17.8953 26.3942C17.8564 26.3696 17.8177 26.3447 17.7791 26.3196C17.5782 26.1896 17.3702 26.0742 17.1605 25.9591C17.0795 25.9143 16.999 25.8684 16.9186 25.8225C16.7846 25.7465 16.6497 25.6721 16.5141 25.5989C16.4976 25.59 16.481 25.581 16.464 25.5718C16.2244 25.443 15.9793 25.3253 15.7342 25.2075C15.6992 25.1907 15.6643 25.1738 15.6293 25.1569C15.6136 25.1494 15.6136 25.1494 15.5975 25.1417C15.5543 25.1207 15.5123 25.0993 15.4714 25.0742C15.4268 25.0481 15.3826 25.031 15.3341 25.0133C15.224 24.9719 15.1184 24.9235 15.0122 24.8731C14.8883 24.8151 14.7654 24.7596 14.6364 24.714C14.5579 24.6857 14.4823 24.6526 14.4063 24.6181C14.1146 24.4858 13.8147 24.3778 13.5132 24.2703C13.5003 24.2657 13.4873 24.261 13.4739 24.2563C13.3005 24.1945 13.1267 24.1338 12.9527 24.0737C12.8899 24.052 12.8271 24.0302 12.7644 24.0083C12.3456 23.8624 11.9271 23.7237 11.4977 23.6121C11.4633 23.6031 11.4289 23.594 11.3945 23.5848C11.1749 23.5264 10.9544 23.4713 10.7339 23.4164C10.6792 23.4028 10.6245 23.3891 10.5698 23.3755C10.5341 23.3665 10.4984 23.3577 10.4627 23.3488C10.3813 23.3285 10.2999 23.3081 10.2187 23.2875C10.0709 23.25 9.92342 23.2149 9.77356 23.1867C9.67337 23.1676 9.57406 23.1475 9.47524 23.1221C9.40969 23.1054 9.34603 23.0924 9.27867 23.085C9.16863 23.0706 9.06268 23.0458 8.95555 23.0169C8.85436 22.9911 8.75331 22.977 8.64988 22.964C8.46331 22.9401 8.28129 22.9014 8.0981 22.8592C8.04539 22.847 7.99264 22.8351 7.93987 22.8232C7.90571 22.8154 7.87156 22.8077 7.83742 22.7999C7.82195 22.7964 7.80649 22.7929 7.79055 22.7892C7.70408 22.7692 7.61929 22.7464 7.53468 22.7195C7.4947 22.7082 7.45511 22.7008 7.4141 22.6942C7.29198 22.6733 7.17398 22.6377 7.05519 22.6032C7.04282 22.5996 7.03046 22.596 7.01773 22.5924C6.92816 22.5665 6.8387 22.5402 6.74931 22.5137C6.73197 22.5086 6.73197 22.5086 6.71429 22.5034C6.37325 22.4023 6.03959 22.2863 5.7087 22.1559C5.69017 22.1486 5.69017 22.1486 5.67126 22.1412C5.0505 21.8968 4.44146 21.6209 3.881 21.2561C3.83368 21.2255 3.78612 21.1952 3.73851 21.165C3.32087 20.8998 2.9196 20.6207 2.55437 20.2855C2.49586 20.2334 2.43756 20.1819 2.37551 20.134C2.36478 20.125 2.35405 20.1159 2.34299 20.1066C2.34299 20.0958 2.34299 20.0851 2.34299 20.074C2.33334 20.0697 2.32368 20.0653 2.31373 20.0608C2.27779 20.0414 2.25444 20.022 2.22581 19.9931C2.21633 19.9836 2.20685 19.9741 2.19709 19.9643C2.18722 19.9542 2.17735 19.9441 2.16719 19.9338C2.15185 19.9182 2.15185 19.9182 2.13621 19.9024C2.07671 19.8419 2.01877 19.7805 1.96394 19.7156C1.93009 19.6762 1.89464 19.6384 1.85927 19.6003C1.77433 19.507 1.69684 19.4091 1.61992 19.3091C1.59354 19.2751 1.5668 19.2414 1.53999 19.2078C0.605423 18.0297 0.0591354 16.511 0.0016309 14.8856C0.00138463 14.8702 0.00113835 14.8547 0.000884618 14.8387C-0.00152648 14.6577 0.000958095 14.477 0.00874441 14.296C0.00938106 14.281 0.0100177 14.266 0.0106736 14.2506C0.0113574 14.2366 0.0120412 14.2227 0.0127458 14.2084C0.0133418 14.1962 0.0139378 14.184 0.0145519 14.1715C0.017922 14.1371 0.0249172 14.1056 0.0341498 14.0724Z" fill="var(--fill-0, black)"/>
<path id="Vector_5" d="M53.3809 13.4056H55.3808L57.7547 18.7566L60.1114 13.404L62.1284 13.4056L62.1303 22.2218H60.3541L60.3562 16.3658L58.405 20.806H57.1205L55.1694 16.3658L55.1531 22.2047L53.3809 22.221V13.4056Z" fill="var(--fill-0, black)"/>
<path id="Vector_6" d="M70.3058 13.4039C70.3058 13.4039 71.2467 13.4043 71.7081 13.4039C71.9223 13.4038 72.1365 13.4035 72.3508 13.4032C72.5376 13.4028 72.7244 13.4026 72.9113 13.4026C73.0101 13.4025 73.1089 13.4024 73.2077 13.4022C73.301 13.402 73.3942 13.4019 73.4874 13.4019C73.5215 13.4019 73.5555 13.4019 73.5895 13.4017C74.3045 13.3992 74.9964 13.5845 75.5596 14.0399C75.5682 14.0468 75.5767 14.0537 75.5855 14.0608C76.1729 14.5379 76.5586 15.2099 76.6597 15.9642C76.7305 16.7331 76.5449 17.4533 76.0459 18.0539C76.0357 18.0657 76.0254 18.0776 76.0149 18.0898C76.0038 18.1027 75.9927 18.1156 75.9813 18.1288C75.7023 18.4454 75.0231 18.8705 75.0231 18.8705L77.7364 22.2487H75.6998L73.1857 19.1795H72.0801V22.221H70.3056L70.3058 13.4039ZM72.0801 15.0321C72.0801 15.8908 72.0801 16.7496 72.0801 17.6344C72.1833 17.6481 72.1833 17.6481 72.2851 17.6524C72.2984 17.6524 72.3117 17.6524 72.3254 17.6524C72.3396 17.6523 72.3537 17.6522 72.3683 17.6521C72.3836 17.652 72.3989 17.652 72.4146 17.6519C72.4648 17.6517 72.515 17.6514 72.5653 17.651C72.5826 17.6509 72.5999 17.6508 72.6177 17.6506C72.7093 17.65 72.8009 17.6493 72.8925 17.6485C72.9864 17.6477 73.0803 17.6473 73.1743 17.647C73.2471 17.6466 73.3199 17.646 73.3928 17.6453C73.4273 17.645 73.4619 17.6449 73.4965 17.6448C73.8981 17.6438 74.2284 17.5668 74.5353 17.2928C74.7836 17.0377 74.9138 16.6838 74.9132 16.3316C74.9073 15.9522 74.7688 15.629 74.5028 15.3574C74.492 15.346 74.4812 15.3346 74.47 15.3229C74.3031 15.1597 74.0257 15.0298 73.791 15.0301C73.7758 15.0301 73.7607 15.0301 73.7451 15.03C73.7204 15.0301 73.7204 15.0301 73.6952 15.0302C73.6775 15.0302 73.6597 15.0302 73.6415 15.0302C73.5841 15.0302 73.5268 15.0304 73.4694 15.0305C73.434 15.0305 73.3986 15.0305 73.3632 15.0305C73.2319 15.0306 73.1006 15.0308 72.9693 15.0311C72.6758 15.0314 72.3824 15.0317 72.0801 15.0321Z" fill="var(--fill-0, black)"/>
<path id="Vector_7" d="M70.7052 24.3583C70.7052 24.3583 71.4262 24.3586 71.7796 24.3583C71.9438 24.3582 72.1079 24.358 72.272 24.3577C72.4152 24.3575 72.5583 24.3573 72.7015 24.3572C72.7772 24.3572 72.8529 24.3571 72.9286 24.3569C73 24.3568 73.0715 24.3567 73.1429 24.3568C73.169 24.3568 73.195 24.3567 73.2211 24.3566C73.7689 24.3547 74.299 24.4966 74.7305 24.8456C74.7371 24.8509 74.7436 24.8561 74.7504 24.8616C75.2004 25.2271 75.4959 25.7419 75.5734 26.3199C75.6276 26.909 75.4854 27.4608 75.1031 27.9209C75.0953 27.93 75.0874 27.9391 75.0793 27.9485C75.0709 27.9583 75.0624 27.9682 75.0536 27.9784C74.8398 28.2209 74.3194 28.5466 74.3194 28.5466L76.3983 31.1349H74.838L72.9117 28.7834H72.0646V31.1137H70.7051L70.7052 24.3583ZM72.0646 25.6057C72.0646 26.2637 72.0646 26.9216 72.0646 27.5995C72.1437 27.61 72.1437 27.61 72.2217 27.6134C72.2319 27.6134 72.2421 27.6133 72.2526 27.6133C72.2635 27.6132 72.2743 27.6132 72.2855 27.6131C72.2972 27.613 72.3089 27.613 72.3209 27.613C72.3594 27.6128 72.3979 27.6125 72.4364 27.6123C72.4496 27.6122 72.4629 27.6121 72.4765 27.612C72.5467 27.6115 72.6169 27.611 72.6871 27.6104C72.7591 27.6098 72.831 27.6094 72.903 27.6092C72.9588 27.6089 73.0146 27.6084 73.0704 27.6079C73.0969 27.6077 73.1233 27.6076 73.1498 27.6075C73.4575 27.6068 73.7106 27.5477 73.9457 27.3379C74.136 27.1424 74.2357 26.8712 74.2353 26.6014C74.2308 26.3107 74.1247 26.063 73.9208 25.8549C73.9125 25.8462 73.9043 25.8375 73.8957 25.8285C73.7678 25.7035 73.5553 25.604 73.3754 25.6042C73.3639 25.6042 73.3523 25.6042 73.3403 25.6042C73.3214 25.6042 73.3214 25.6042 73.3021 25.6043C73.2885 25.6043 73.2749 25.6043 73.2609 25.6043C73.217 25.6043 73.1731 25.6044 73.1291 25.6045C73.102 25.6045 73.0748 25.6045 73.0477 25.6045C72.9471 25.6046 72.8465 25.6048 72.7459 25.6049C72.5211 25.6052 72.2963 25.6055 72.0646 25.6057Z" fill="var(--fill-0, black)"/>
<path id="Vector_8" d="M104.208 13.4039L105.966 13.4054L105.983 16.8373L108.942 16.8535V13.4054H110.698V22.2208H108.942L108.926 18.5288L105.983 18.5125L105.966 22.2208H104.208V13.4039Z" fill="var(--fill-0, black)"/>
<path id="Vector_9" d="M98.8178 13.2389C98.8719 13.2388 98.926 13.2383 98.98 13.2378C99.3216 13.2361 99.6435 13.2783 99.9739 13.3633C100.01 13.3722 100.046 13.3801 100.082 13.3875C100.289 13.4305 100.483 13.5058 100.679 13.5844C100.698 13.5919 100.698 13.5919 100.717 13.5996C101.041 13.7304 101.324 13.9175 101.606 14.1211C101.617 14.1288 101.627 14.1364 101.638 14.1442C101.846 14.2942 102.043 14.4586 102.208 14.6548C102.236 14.6851 102.264 14.713 102.293 14.7413C102.363 14.8104 102.42 14.8871 102.478 14.9659C102.489 14.9798 102.499 14.9937 102.51 15.008C102.592 15.118 102.665 15.2284 102.725 15.352C102.745 15.3913 102.745 15.3913 102.771 15.4332C102.925 15.6847 103.026 15.9675 103.12 16.2457C103.125 16.2591 103.13 16.2724 103.134 16.2862C103.163 16.3725 103.212 16.5616 103.212 16.5616H101.342C101.342 16.5616 101.328 16.5216 101.314 16.4795C101.308 16.4688 101.303 16.4581 101.298 16.447C101.294 16.4366 101.289 16.4262 101.285 16.4155C101.277 16.3978 101.277 16.3978 101.27 16.3798C101.262 16.3612 101.262 16.3612 101.254 16.3423C100.988 15.7357 100.508 15.3725 99.9152 15.1133C99.9028 15.1078 99.8905 15.1023 99.8777 15.0966C99.7728 15.052 99.6683 15.0266 99.5565 15.0055C99.5385 15.0021 99.5206 14.9986 99.5021 14.9951C98.9646 14.8943 98.4262 14.915 97.899 15.0645C97.8781 15.0704 97.8781 15.0704 97.8566 15.0764C97.4473 15.1947 97.1004 15.4048 96.7934 15.6988C96.7805 15.7107 96.7676 15.7226 96.7543 15.7348C96.5586 15.921 96.4126 16.1431 96.2894 16.3819C96.2806 16.3985 96.2717 16.415 96.2627 16.4321C95.9029 17.1537 95.8798 18.0762 96.1251 18.834C96.3577 19.5002 96.7996 20.0158 97.4133 20.3576C97.4342 20.3694 97.4342 20.3694 97.4555 20.3814C97.6493 20.4862 97.8611 20.5405 98.0748 20.5883C98.0856 20.5907 98.0963 20.5932 98.1073 20.5957C98.4748 20.6777 98.8403 20.7191 99.215 20.6656C99.2354 20.6627 99.2558 20.6598 99.2768 20.6568C99.8642 20.5687 100.382 20.3449 100.809 19.9276C100.82 19.918 100.83 19.9084 100.841 19.8986C101.05 19.7017 101.346 19.0656 101.346 19.0656H103.183C103.183 19.0656 103.149 19.2984 103.118 19.3913C103.088 19.4841 103.056 19.5761 103.021 19.6674C103.015 19.6847 103.008 19.7021 103.002 19.72C102.903 19.9833 102.763 20.2369 102.598 20.4643C102.591 20.4742 102.584 20.484 102.576 20.4941C102.387 20.7552 102.18 21.0269 101.931 21.2345C101.908 21.2534 101.886 21.273 101.865 21.2932C101.294 21.8314 100.543 22.1432 99.7851 22.3022C99.7746 22.3044 99.7641 22.3066 99.7533 22.3089C99.4771 22.3661 99.2053 22.3891 98.9233 22.3878C98.8779 22.3876 98.8324 22.3878 98.7869 22.388C98.4912 22.3882 98.2009 22.3618 97.9102 22.3073C97.8989 22.3052 97.8875 22.3031 97.8758 22.3009C97.0844 22.153 96.3218 21.7827 95.7203 21.245C95.7118 21.2375 95.7034 21.23 95.6947 21.2222C95.5362 21.0803 95.3852 20.9353 95.2536 20.7676C95.2388 20.7488 95.2238 20.73 95.2089 20.7114C94.7906 20.1891 94.4759 19.5753 94.3382 18.9192C94.3339 18.8992 94.3297 18.8791 94.3253 18.8585C94.2137 18.3309 94.1483 17.7652 94.2483 17.2299C94.2621 17.1481 94.2693 17.0655 94.2771 16.983C94.305 16.7729 94.3689 16.5693 94.4365 16.3692C94.449 16.3321 94.4612 16.295 94.4734 16.2579C94.732 15.48 95.2041 14.7301 95.8666 14.235C95.8764 14.2275 95.8862 14.22 95.8962 14.2123C96.7489 13.5596 97.7519 13.2408 98.8178 13.2389Z" fill="var(--fill-0, black)"/>
<path id="Vector_10" d="M47.2975 13.4037L49.4853 13.4057L52.5292 22.2211C51.9015 22.2211 50.6072 22.2211 50.6072 22.2211L50.1031 20.6271L46.6886 20.6434L46.1683 22.2211H44.2822L47.2975 13.4037ZM48.3796 15.3574L47.2089 19.0007H49.5665L48.3796 15.3574Z" fill="var(--fill-0, black)"/>
<path id="Vector_11" d="M78.9754 24.3565L80.6523 24.358L82.9854 31.1148C82.5043 31.1148 81.5122 31.1148 81.5122 31.1148L81.1259 29.8931L78.5087 29.9056L78.1099 31.1148H76.6643L78.9754 24.3565ZM79.8048 25.854L78.9075 28.6465H80.7146L79.8048 25.854Z" fill="var(--fill-0, black)"/>
<path id="Vector_12" d="M63.7735 13.4055H69.076V15.0821H65.5458V16.9512H68.7024V18.5797L65.5458 18.5777V20.5457L69.076 20.5436V22.2231H63.7715L63.7735 13.4055Z" fill="var(--fill-0, black)"/>
<path id="Vector_13" d="M88.1348 13.4036H93.4372V15.0801H89.9071V16.9492H93.0636V18.5777L89.9071 18.5757V20.5437L93.4372 20.5416V22.2212H88.1327L88.1348 13.4036Z" fill="var(--fill-0, black)"/>
<path id="Vector_14" d="M81.1047 13.4036L87.1694 13.4036V15.0647H85.0069V22.2048L83.2509 22.2211L83.2319 15.0647H81.1047L81.1047 13.4036Z" fill="var(--fill-0, black)"/>
<path id="Vector_15" d="M109.174 24.808C109.191 24.8203 109.536 25.1201 109.885 25.5855C110.221 26.0324 110.295 26.3179 110.295 26.3179H108.619C108.619 26.3179 108.371 26.0137 108.294 25.9544C108.269 25.935 108.269 25.935 108.244 25.9152C107.791 25.5766 107.191 25.5203 106.647 25.5973C106.105 25.6925 105.618 26.0462 105.297 26.4853C105.123 26.7351 105.048 27.013 104.979 27.3055C104.973 27.329 104.973 27.329 104.967 27.3531C104.931 27.5023 104.934 27.6437 104.938 27.7967C104.938 27.8216 104.938 27.8465 104.937 27.8721C104.947 28.3321 105.126 28.7836 105.429 29.1273C105.443 29.1441 105.457 29.1609 105.472 29.1781C105.864 29.634 106.373 29.8541 106.962 29.911C107.545 29.9332 108.095 29.7073 108.528 29.3298C108.622 29.2407 108.702 29.1415 108.78 29.0378C108.789 29.0257 108.798 29.0137 108.808 29.0013C108.889 28.8893 108.929 28.7892 108.99 28.6565C108.098 28.6565 106.288 28.6565 106.288 28.6565V27.5102H110.667C110.667 27.5102 110.56 28.6907 110.299 29.2297C110.292 29.2451 110.285 29.2604 110.277 29.2762C110.108 29.6213 109.903 29.9281 109.633 30.2025C109.604 30.232 109.576 30.262 109.548 30.292C108.948 30.9135 108.073 31.264 107.214 31.283C107.151 31.2839 107.087 31.2843 107.024 31.2844C107.009 31.2845 106.994 31.2845 106.978 31.2846C106.01 31.2842 105.165 30.8899 104.488 30.2123C104.475 30.2003 104.462 30.1882 104.449 30.1758C103.839 29.5937 103.507 28.6896 103.48 27.8608C103.463 27.008 103.703 26.2124 104.242 25.545C104.251 25.5338 104.26 25.5226 104.269 25.5111C104.864 24.7768 105.707 24.3092 106.645 24.1994C107.542 24.1063 108.437 24.2707 109.174 24.808Z" fill="var(--fill-0, black)"/>
<path id="Vector_16" d="M57.3015 25.0487C58.0009 25.6616 58.42 26.503 58.4998 27.4287C58.5207 27.7477 58.5187 28.0749 58.4629 28.3902C58.4603 28.4047 58.4578 28.4192 58.4552 28.4342C58.3425 29.0542 58.0367 29.7018 57.5742 30.1397C57.5408 30.1723 57.5115 30.2067 57.4819 30.2428C57.4135 30.3236 57.3373 30.3908 57.2555 30.4578C57.2274 30.4808 57.2274 30.4808 57.1988 30.5044C56.7605 30.8534 56.2864 31.0719 55.7411 31.1947C55.7259 31.1982 55.7108 31.2018 55.6951 31.2054C55.5132 31.2474 55.3342 31.2716 55.1477 31.2766C55.1271 31.2771 55.1066 31.2777 55.0855 31.2783C54.1735 31.2991 53.2559 31.0381 52.5774 30.4013C52.5472 30.3725 52.5173 30.3435 52.4873 30.3145C52.477 30.3047 52.4667 30.2949 52.4561 30.2849C51.8928 29.75 51.5133 28.9777 51.4232 28.206C51.4213 28.1913 51.4195 28.1767 51.4176 28.1616C51.3145 27.2721 51.516 26.3481 52.0659 25.6301C52.1289 25.5517 52.1952 25.4765 52.2622 25.4015C52.2878 25.3717 52.3134 25.3418 52.3389 25.312C53.585 23.9038 55.8527 23.8385 57.3015 25.0487ZM54.4109 25.6267C54.3889 25.6319 54.3669 25.6371 54.3442 25.6425C53.8067 25.7867 53.3339 26.1939 53.0577 26.6696C52.7707 27.1901 52.7519 27.7671 52.9087 28.3315C53.0763 28.8927 53.4686 29.36 53.9794 29.6434C54.5279 29.9351 55.0462 29.9739 55.6388 29.8027C55.9121 29.7126 56.1582 29.5593 56.3755 29.3728C56.3955 29.357 56.4154 29.3411 56.4359 29.3248C56.5007 29.2706 56.554 29.209 56.6057 29.1425C56.6153 29.1303 56.6248 29.118 56.6347 29.1054C56.7919 28.8984 56.9448 28.6644 57.0099 28.4107C57.0135 28.3968 57.0172 28.3829 57.0209 28.3686C57.121 27.9711 57.1519 27.5168 57.0304 27.121C57.0249 27.0995 57.0194 27.078 57.0138 27.0558C56.8775 26.5515 56.5117 26.1172 56.0664 25.8535C55.5619 25.5654 54.9756 25.4809 54.4109 25.6267Z" fill="var(--fill-0, black)"/>
<path id="Vector_17" d="M78.3586 13.4056H80.1327V22.221H78.3586V13.4056Z" fill="var(--fill-0, black)"/>
<path id="Vector_18" d="M95.2118 24.3565H96.576V31.1348H95.2118V24.3565Z" fill="var(--fill-0, black)"/>
<path id="Vector_19" d="M59.3594 24.3371L60.6712 24.3371L63.5158 28.6564C63.5158 27.231 63.5158 24.3371 63.5158 24.3371H64.8474V31.1566H63.5158L60.7122 26.7117L60.6977 31.1566H59.3594V24.3371Z" fill="var(--fill-0, black)"/>
<path id="Vector_20" d="M97.3721 24.3371L98.6839 24.3371L101.528 28.6564C101.528 27.231 101.528 24.3371 101.528 24.3371H102.86V31.1566H101.528L98.7249 26.7117L98.7104 31.1566H97.3721V24.3371Z" fill="var(--fill-0, black)"/>
<path id="Vector_21" d="M47.6643 24.2461C47.7059 24.246 47.7475 24.2456 47.789 24.2452C48.0516 24.2439 48.2989 24.2764 48.5529 24.3417C48.5805 24.3486 48.6081 24.3546 48.6359 24.3603C48.7952 24.3934 48.9444 24.4512 49.0952 24.5117C49.1097 24.5174 49.1097 24.5174 49.1245 24.5233C49.3733 24.6239 49.5906 24.7677 49.8075 24.9242C49.8157 24.9301 49.8239 24.9359 49.8323 24.942C49.9921 25.0572 50.143 25.1836 50.2703 25.3344C50.2913 25.3577 50.3129 25.3791 50.3355 25.4009C50.3889 25.454 50.433 25.513 50.4777 25.5735C50.4857 25.5842 50.4938 25.5949 50.502 25.6059C50.5649 25.6904 50.6217 25.7752 50.6673 25.8702C50.6825 25.9005 50.6825 25.9005 50.7029 25.9327C50.821 26.126 50.8986 26.3433 50.9714 26.5572C50.9749 26.5674 50.9784 26.5777 50.9821 26.5883C51.0038 26.6547 51.0415 26.8 51.0415 26.8H49.6046C49.6046 26.8 49.5939 26.7692 49.5826 26.7369C49.5787 26.7286 49.5748 26.7204 49.5707 26.7119C49.5674 26.7039 49.564 26.6959 49.5606 26.6877C49.5548 26.6741 49.5548 26.6741 49.5488 26.6603C49.5427 26.646 49.5427 26.646 49.5365 26.6314C49.3324 26.1652 48.9632 25.886 48.5078 25.6868C48.4983 25.6825 48.4888 25.6783 48.479 25.674C48.3983 25.6397 48.3181 25.6202 48.2321 25.604C48.2183 25.6013 48.2045 25.5987 48.1903 25.5959C47.7772 25.5184 47.3634 25.5344 46.9582 25.6493C46.942 25.6538 46.942 25.6538 46.9256 25.6584C46.6109 25.7494 46.3443 25.9109 46.1083 26.1368C46.0984 26.146 46.0885 26.1551 46.0783 26.1645C45.9278 26.3076 45.8157 26.4783 45.7209 26.6619C45.7142 26.6746 45.7074 26.6873 45.7004 26.7005C45.4239 27.2551 45.4062 27.9641 45.5946 28.5466C45.7735 29.0587 46.1131 29.4549 46.5848 29.7176C46.6009 29.7267 46.6009 29.7267 46.6173 29.736C46.7662 29.8165 46.929 29.8583 47.0933 29.895C47.1015 29.8969 47.1098 29.8987 47.1183 29.9006C47.4007 29.9637 47.6817 29.9955 47.9697 29.9544C47.9853 29.9522 48.001 29.9499 48.0172 29.9476C48.4686 29.8799 48.8668 29.7079 49.1952 29.3871C49.2032 29.3798 49.2112 29.3724 49.2194 29.3648C49.3799 29.2135 49.6076 28.7246 49.6076 28.7246H51.0198C51.0198 28.7246 50.9933 28.9036 50.9699 28.9749C50.9465 29.0463 50.9216 29.117 50.8948 29.1871C50.89 29.2005 50.8852 29.2138 50.8803 29.2276C50.8045 29.43 50.6968 29.6249 50.5699 29.7997C50.5644 29.8072 50.5589 29.8148 50.5533 29.8226C50.4074 30.0233 50.2483 30.2321 50.0569 30.3916C50.0397 30.4062 50.0229 30.4213 50.0065 30.4368C49.5676 30.8505 48.9901 31.0901 48.4078 31.2123C48.3998 31.214 48.3917 31.2157 48.3834 31.2175C48.1711 31.2614 47.9622 31.2791 47.7454 31.2781C47.7105 31.278 47.6756 31.2781 47.6406 31.2783C47.4133 31.2785 47.1902 31.2581 46.9667 31.2162C46.958 31.2146 46.9493 31.213 46.9403 31.2113C46.332 31.0977 45.7459 30.813 45.2835 30.3997C45.277 30.394 45.2705 30.3882 45.2639 30.3822C45.1421 30.2731 45.026 30.1617 44.9248 30.0328C44.9134 30.0183 44.902 30.0039 44.8904 29.9896C44.569 29.5882 44.3271 29.1164 44.2212 28.6121C44.218 28.5967 44.2147 28.5813 44.2113 28.5654C44.1255 28.1599 44.0753 27.7251 44.1522 27.3137C44.1627 27.2508 44.1682 27.1873 44.1743 27.1239C44.1957 26.9624 44.2448 26.8059 44.2968 26.6521C44.3064 26.6236 44.3158 26.5951 44.3252 26.5665C44.5239 25.9687 44.8867 25.3922 45.396 25.0117C45.4035 25.0059 45.411 25.0002 45.4188 24.9942C46.0742 24.4926 46.8451 24.2476 47.6643 24.2461Z" fill="var(--fill-0, black)"/>
<path id="Vector_22" d="M86.396 24.2461C86.4376 24.246 86.4791 24.2456 86.5207 24.2452C86.7833 24.2439 87.0306 24.2764 87.2846 24.3417C87.3122 24.3486 87.3397 24.3546 87.3675 24.3603C87.5269 24.3934 87.6761 24.4512 87.8269 24.5117C87.8414 24.5174 87.8414 24.5174 87.8561 24.5233C88.1049 24.6239 88.3222 24.7677 88.5392 24.9242C88.5474 24.9301 88.5555 24.9359 88.5639 24.942C88.7238 25.0572 88.8747 25.1836 89.002 25.3344C89.023 25.3577 89.0446 25.3791 89.0671 25.4009C89.1206 25.454 89.1647 25.513 89.2094 25.5735C89.2174 25.5842 89.2254 25.5949 89.2337 25.6059C89.2966 25.6904 89.3534 25.7752 89.399 25.8702C89.4142 25.9005 89.4142 25.9005 89.4345 25.9327C89.5527 26.126 89.6303 26.3433 89.703 26.5572C89.7066 26.5674 89.7101 26.5777 89.7137 26.5883C89.7355 26.6547 89.7732 26.8 89.7732 26.8H88.3362C88.3362 26.8 88.3255 26.7692 88.3143 26.7369C88.3104 26.7286 88.3064 26.7204 88.3024 26.7119C88.2991 26.7039 88.2957 26.6959 88.2922 26.6877C88.2864 26.6741 88.2864 26.6741 88.2805 26.6603C88.2744 26.646 88.2744 26.646 88.2682 26.6314C88.064 26.1652 87.6948 25.886 87.2395 25.6868C87.23 25.6825 87.2205 25.6783 87.2107 25.674C87.13 25.6397 87.0497 25.6202 86.9638 25.604C86.95 25.6013 86.9362 25.5987 86.922 25.5959C86.5089 25.5184 86.095 25.5344 85.6898 25.6493C85.6737 25.6538 85.6737 25.6538 85.6572 25.6584C85.3426 25.7494 85.076 25.9109 84.84 26.1368C84.8301 26.146 84.8202 26.1551 84.8099 26.1645C84.6595 26.3076 84.5473 26.4783 84.4526 26.6619C84.4458 26.6746 84.4391 26.6873 84.4321 26.7005C84.1556 27.2551 84.1378 27.9641 84.3263 28.5466C84.5052 29.0587 84.8448 29.4549 85.3165 29.7176C85.3325 29.7267 85.3325 29.7267 85.3489 29.736C85.4979 29.8165 85.6607 29.8583 85.825 29.895C85.8332 29.8969 85.8414 29.8987 85.8499 29.9006C86.1323 29.9637 86.4133 29.9955 86.7013 29.9544C86.717 29.9522 86.7327 29.9499 86.7488 29.9476C87.2003 29.8799 87.5985 29.7079 87.9268 29.3871C87.9348 29.3798 87.9428 29.3724 87.9511 29.3648C88.1116 29.2135 88.3393 28.7246 88.3393 28.7246H89.7515C89.7515 28.7246 89.725 28.9036 89.7016 28.9749C89.6781 29.0463 89.6532 29.117 89.6265 29.1871C89.6217 29.2005 89.6169 29.2138 89.612 29.2276C89.5362 29.43 89.4285 29.6249 89.3016 29.7997C89.2961 29.8072 89.2906 29.8148 89.285 29.8226C89.1391 30.0233 88.98 30.2321 88.7886 30.3916C88.7714 30.4062 88.7546 30.4213 88.7382 30.4368C88.2993 30.8505 87.7217 31.0901 87.1395 31.2123C87.1314 31.214 87.1234 31.2157 87.1151 31.2175C86.9027 31.2614 86.6939 31.2791 86.4771 31.2781C86.4422 31.278 86.4072 31.2781 86.3723 31.2783C86.145 31.2785 85.9219 31.2581 85.6984 31.2162C85.6897 31.2146 85.681 31.213 85.672 31.2113C85.0637 31.0977 84.4776 30.813 84.0152 30.3997C84.0087 30.394 84.0022 30.3882 83.9955 30.3822C83.8737 30.2731 83.7577 30.1617 83.6565 30.0328C83.6451 30.0183 83.6336 30.0039 83.6221 29.9896C83.3006 29.5882 83.0588 29.1164 82.9529 28.6121C82.9496 28.5967 82.9463 28.5813 82.943 28.5654C82.8572 28.1599 82.807 27.7251 82.8838 27.3137C82.8944 27.2508 82.8999 27.1873 82.906 27.1239C82.9274 26.9624 82.9765 26.8059 83.0285 26.6521C83.0381 26.6236 83.0475 26.5951 83.0568 26.5665C83.2556 25.9687 83.6184 25.3922 84.1277 25.0117C84.1352 25.0059 84.1427 25.0002 84.1504 24.9942C84.8059 24.4926 85.5767 24.2476 86.396 24.2461Z" fill="var(--fill-0, black)"/>
<path id="Vector_23" d="M65.491 24.3565L70.1532 24.3565V25.6335H68.4908V31.1223L67.1409 31.1348L67.1263 25.6335H65.491L65.491 24.3565Z" fill="var(--fill-0, black)"/>
<path id="Vector_24" d="M89.8485 24.3565L94.5107 24.3565V25.6335H92.8483V31.1223L91.4984 31.1348L91.4838 25.6335H89.8485L89.8485 24.3565Z" fill="var(--fill-0, black)"/>
<path id="Vector_25" d="M33.6268 11.3235C33.6375 11.3235 33.6483 11.3235 33.6593 11.3235C33.7093 11.4418 33.7486 11.5614 33.7853 11.6844C33.8639 11.9432 33.9518 12.1987 34.04 12.4543C34.1753 12.847 34.1753 12.847 34.2122 13.0313C34.8185 13.0313 35.4248 13.0313 36.0495 13.0313C36.0129 13.1045 36.0129 13.1045 35.963 13.1385C35.9466 13.1499 35.9466 13.1499 35.9299 13.1615C35.918 13.1695 35.9062 13.1776 35.894 13.1858C35.8688 13.2033 35.8435 13.2207 35.8183 13.2382C35.7989 13.2515 35.7989 13.2515 35.7791 13.265C35.7195 13.306 35.6604 13.3475 35.6013 13.3891C35.5899 13.3972 35.5785 13.4052 35.5667 13.4135C35.4881 13.4691 35.4108 13.5262 35.3341 13.5843C35.144 13.728 34.9483 13.8636 34.7516 13.998C34.701 14.0326 34.651 14.0674 34.6024 14.1048C34.6123 14.1956 34.6351 14.2763 34.6649 14.3626C34.6718 14.3832 34.6718 14.3832 34.6789 14.4042C34.6888 14.4335 34.6988 14.4629 34.7088 14.4922C34.7351 14.5693 34.761 14.6465 34.7869 14.7237C34.7921 14.739 34.7973 14.7544 34.8026 14.7702C34.8456 14.8988 34.8861 15.0281 34.9255 15.1579C34.9727 15.3133 35.0241 15.4664 35.0825 15.618C35.1115 15.6944 35.131 15.7636 35.1389 15.8451C35.0894 15.8223 35.05 15.7951 35.0078 15.7607C34.9563 15.7199 34.9044 15.6832 34.8483 15.6489C34.7205 15.5691 34.6013 15.4775 34.4806 15.3876C34.2841 15.2411 34.0868 15.0959 33.8855 14.956C33.8556 14.9351 33.8261 14.9136 33.7967 14.8921C33.7795 14.8798 33.7624 14.8676 33.7447 14.855C33.73 14.8443 33.7153 14.8336 33.7002 14.8226C33.6603 14.7991 33.6603 14.7991 33.6205 14.8161C33.5788 14.8363 33.5453 14.8582 33.5087 14.8863C33.4957 14.8962 33.4827 14.9061 33.4693 14.9163C33.4556 14.9269 33.4418 14.9375 33.4276 14.9485C33.3253 15.0262 33.2228 15.1033 33.1177 15.1772C33.1068 15.1849 33.0958 15.1926 33.0846 15.2005C33.0183 15.2469 32.9518 15.2929 32.8852 15.3389C32.7205 15.4529 32.5574 15.5681 32.3979 15.6893C32.3266 15.7434 32.2535 15.7946 32.1797 15.8451C32.1565 15.7833 32.1712 15.7486 32.195 15.6885C32.2351 15.5827 32.269 15.4756 32.3017 15.3673C32.3598 15.1758 32.4208 14.9853 32.4826 14.795C32.487 14.7813 32.4914 14.7677 32.4959 14.7536C32.5493 14.5886 32.6045 14.4245 32.6629 14.2612C32.6813 14.2093 32.6991 14.1571 32.7163 14.1048C32.6998 14.0994 32.6998 14.0994 32.683 14.094C32.6205 14.0657 32.5711 14.0267 32.5171 13.9848C32.4259 13.9151 32.3338 13.8472 32.2397 13.7815C32.1396 13.7115 32.041 13.6398 31.9429 13.567C31.8274 13.4813 31.7102 13.3987 31.5913 13.3177C31.5279 13.2744 31.465 13.2303 31.4023 13.1858C31.3929 13.1791 31.3834 13.1725 31.3737 13.1656C31.2846 13.1021 31.2846 13.1021 31.2529 13.0638C31.2529 13.0531 31.2529 13.0423 31.2529 13.0313C31.8539 13.0259 32.4548 13.0206 33.074 13.015C33.133 12.8379 33.192 12.6608 33.2528 12.4783C33.272 12.4216 33.2911 12.3649 33.3108 12.3065C33.3625 12.1515 33.4111 11.9955 33.4596 11.8394C33.5132 11.6667 33.5684 11.4946 33.6268 11.3235Z" fill="var(--fill-0, black)"/>
<path id="Vector_26" d="M27.8567 7.90812C27.8728 7.91349 27.8889 7.91885 27.9055 7.92438C27.9212 7.96225 27.9212 7.96225 27.9351 8.01339C27.9434 8.04224 27.9434 8.04224 27.9519 8.07166C27.9563 8.08729 27.9563 8.08729 27.9609 8.10323C27.9777 8.15996 27.9967 8.21593 28.0156 8.27198C28.0237 8.29614 28.0318 8.3203 28.0399 8.34446C28.044 8.35672 28.0481 8.36897 28.0523 8.3816C28.1302 8.61346 28.2066 8.8457 28.2795 9.07917C28.2864 9.10107 28.2933 9.12297 28.3002 9.14486C28.3239 9.22081 28.3451 9.29376 28.3608 9.37193C28.8812 9.37193 29.4017 9.37193 29.9379 9.37193C29.9032 9.44133 29.8685 9.46833 29.8068 9.51018C29.7918 9.52064 29.7918 9.52064 29.7765 9.53131C29.7549 9.54635 29.7333 9.56133 29.7116 9.57626C29.6543 9.61584 29.5975 9.65604 29.5406 9.69621C29.5231 9.70852 29.5231 9.70852 29.5053 9.72108C29.4294 9.77465 29.3542 9.82909 29.2794 9.88427C29.1917 9.949 29.1033 10.0125 29.0142 10.0754C29.0025 10.0836 28.9909 10.0918 28.9789 10.1003C28.929 10.1356 28.8789 10.1703 28.828 10.2042C28.8133 10.214 28.7986 10.2238 28.7835 10.234C28.7711 10.242 28.7587 10.2501 28.7459 10.2584C28.7117 10.2888 28.7049 10.3021 28.7022 10.3478C28.713 10.3979 28.713 10.3979 28.7327 10.4545C28.7363 10.4658 28.74 10.477 28.7438 10.4885C28.7568 10.5284 28.7702 10.5682 28.7835 10.608C28.7939 10.6394 28.8043 10.6709 28.8147 10.7023C28.8654 10.8553 28.9167 11.0082 28.9682 11.161C28.986 11.2137 29.0037 11.2665 29.0214 11.3192C29.03 11.345 29.0387 11.3708 29.0475 11.3965C29.1327 11.6482 29.1327 11.6482 29.1575 11.7791C29.097 11.7497 29.0415 11.7147 28.9857 11.6774C28.9751 11.6704 28.9645 11.6633 28.9536 11.656C28.8532 11.5883 28.7561 11.5163 28.659 11.4439C28.5676 11.376 28.4745 11.3111 28.3801 11.2474C28.2759 11.1772 28.1753 11.1043 28.0783 11.0244C28.0176 10.975 27.9603 10.9333 27.8892 10.9008C27.8118 10.9135 27.7488 10.9754 27.688 11.0228C27.6025 11.0883 27.5161 11.151 27.4258 11.2098C27.3287 11.2733 27.2359 11.3411 27.1435 11.4113C27.0518 11.4809 26.9582 11.5476 26.8638 11.6134C26.7959 11.6609 26.7296 11.7099 26.6643 11.761C26.6373 11.7791 26.6373 11.7791 26.6047 11.7791C26.6154 11.7043 26.6338 11.6351 26.6567 11.5632C26.662 11.5463 26.662 11.5463 26.6675 11.5291C26.7056 11.4096 26.7454 11.2907 26.7853 11.1718C26.8457 10.992 26.9058 10.8121 26.9635 10.6314C26.9677 10.6181 26.972 10.6048 26.9764 10.5911C27.007 10.4945 27.0339 10.397 27.06 10.299C27.0352 10.2816 27.0352 10.2816 27.0098 10.2638C26.7949 10.1125 26.5814 9.95962 26.3703 9.8031C26.2446 9.70989 26.1179 9.62018 25.9869 9.53458C25.9556 9.5141 25.9244 9.49344 25.8934 9.47257C25.8734 9.45933 25.8734 9.45933 25.853 9.44582C25.8435 9.43754 25.834 9.42926 25.8243 9.42073C25.8243 9.40462 25.8243 9.38852 25.8243 9.37193C26.3394 9.37193 26.8545 9.37193 27.3852 9.37193C27.4246 9.25424 27.4246 9.25424 27.4603 9.13578C27.544 8.84539 27.6382 8.55914 27.7349 8.27286C27.7759 8.1514 27.8163 8.02975 27.8567 7.90812Z" fill="var(--fill-0, black)"/>
<path id="Vector_27" d="M21.2216 8.1682C21.2323 8.1682 21.2431 8.1682 21.2541 8.1682C21.2898 8.27513 21.3254 8.38206 21.361 8.48898C21.3677 8.50891 21.3677 8.50891 21.3744 8.52923C21.3838 8.55727 21.3931 8.58531 21.4024 8.61335C21.4307 8.6981 21.459 8.78282 21.4873 8.86752C21.4938 8.88692 21.5003 8.90633 21.507 8.92633C21.5197 8.96415 21.5323 9.00196 21.545 9.03977C21.5871 9.16574 21.6284 9.29168 21.6606 9.42057C22.106 9.42594 22.5513 9.43131 23.0101 9.43684C23.0101 9.44757 23.0101 9.45831 23.0101 9.46937C22.98 9.49012 22.949 9.50948 22.9177 9.52833C22.8139 9.5926 22.7173 9.66399 22.6209 9.73875C22.4534 9.8684 22.2807 9.98945 22.106 10.1093C22.0547 10.1448 22.0039 10.181 21.9533 10.2175C21.9988 10.5303 22.1263 10.835 22.2293 11.1325C22.2589 11.2179 22.2885 11.3034 22.3175 11.389C22.3251 11.4116 22.3251 11.4116 22.3329 11.4346C22.3435 11.4699 22.3435 11.4699 22.3435 11.5024C22.2821 11.4741 22.2268 11.4373 22.1708 11.3998C22.1601 11.3927 22.1495 11.3856 22.1386 11.3783C22.0169 11.2962 21.8983 11.2099 21.7798 11.1234C21.7414 11.0955 21.703 11.0677 21.6646 11.0399C21.6456 11.0262 21.6456 11.0262 21.6262 11.0122C21.6013 10.9943 21.5764 10.9764 21.5515 10.9585C21.4983 10.9203 21.4456 10.8819 21.394 10.8416C21.3783 10.8296 21.3627 10.8175 21.3466 10.8051C21.3336 10.7947 21.3206 10.7844 21.3072 10.7737C21.2594 10.7485 21.2404 10.7562 21.1891 10.7705C21.1555 10.788 21.1555 10.788 21.1239 10.8109C21.1117 10.8193 21.0995 10.8277 21.087 10.8364C21.0741 10.8455 21.0611 10.8546 21.0478 10.8641C21.0342 10.8735 21.0206 10.883 21.0066 10.8927C20.8782 10.9825 20.7512 11.0742 20.6245 11.1665C20.586 11.1945 20.5473 11.2224 20.5087 11.2503C20.4957 11.2596 20.4827 11.269 20.4693 11.2787C20.4447 11.2964 20.42 11.3141 20.3954 11.3319C20.3841 11.34 20.3729 11.3481 20.3613 11.3565C20.3503 11.3644 20.3394 11.3723 20.3281 11.3804C20.282 11.4143 20.2367 11.4493 20.1916 11.4846C20.1647 11.5024 20.1647 11.5024 20.1322 11.5024C20.1438 11.4372 20.1619 11.3757 20.1822 11.3126C20.1872 11.2971 20.1872 11.2971 20.1923 11.2813C20.203 11.2479 20.2139 11.2146 20.2247 11.1812C20.2284 11.1699 20.232 11.1585 20.2358 11.1468C20.2812 11.0066 20.3275 10.8669 20.3775 10.7283C20.4075 10.6449 20.434 10.5607 20.4594 10.4758C20.4761 10.4211 20.4947 10.3673 20.5141 10.3135C20.5253 10.2775 20.5253 10.2775 20.5225 10.2175C20.4938 10.1901 20.4938 10.1901 20.4544 10.1667C20.3883 10.1231 20.3255 10.0776 20.2633 10.0285C20.1625 9.94961 20.0575 9.87767 19.9516 9.80589C19.8666 9.74825 19.7829 9.68944 19.7003 9.62839C19.6447 9.5878 19.5877 9.54922 19.5306 9.51073C19.4981 9.48563 19.4981 9.48563 19.4656 9.43684C19.9056 9.43147 20.3455 9.4261 20.7989 9.42057C20.8939 9.16335 20.8939 9.16335 20.9767 8.90316C21.0225 8.75039 21.0727 8.60015 21.1289 8.45087C21.1639 8.35768 21.1942 8.26388 21.2216 8.1682Z" fill="var(--fill-0, black)"/>
<path id="Vector_28" d="M34.2109 13.0315C34.8173 13.0315 35.4236 13.0315 36.0483 13.0315C36.0117 13.1047 36.0117 13.1047 35.9507 13.1291C35.9507 13.1076 35.9507 13.0862 35.9507 13.064C35.3819 13.064 34.8132 13.064 34.2272 13.064C34.2218 13.0533 34.2165 13.0426 34.2109 13.0315Z" fill="var(--fill-0, black)"/>
<path id="Vector_29" d="M28.3584 9.37169C28.8788 9.37169 29.3993 9.37169 29.9355 9.37169C29.9248 9.39316 29.9141 9.41463 29.903 9.43675C29.8869 9.4287 29.8869 9.4287 29.8705 9.42049C29.8229 9.41849 29.7756 9.41746 29.728 9.41715C29.7059 9.4169 29.7059 9.4169 29.6833 9.41666C29.6344 9.41614 29.5855 9.41574 29.5365 9.41534C29.5027 9.415 29.4688 9.41466 29.435 9.41431C29.3457 9.41342 29.2565 9.41261 29.1673 9.41183C29.0763 9.41101 28.9853 9.41011 28.8943 9.40921C28.7156 9.40746 28.537 9.40581 28.3584 9.40422C28.3584 9.39349 28.3584 9.38275 28.3584 9.37169Z" fill="var(--fill-0, black)"/>
<path id="Vector_30" d="M34.5391 13.0315C35.0381 13.0315 35.5371 13.0315 36.0512 13.0315C36.0405 13.053 36.0297 13.0745 36.0187 13.0966C36.0026 13.0966 35.9865 13.0966 35.9699 13.0966C35.9753 13.0858 35.9806 13.0751 35.9862 13.064C35.5086 13.0587 35.0311 13.0533 34.5391 13.0478C34.5391 13.0424 34.5391 13.037 34.5391 13.0315Z" fill="var(--fill-0, black)"/>
<path id="Vector_31" d="M28.6522 9.37169C29.076 9.37169 29.4999 9.37169 29.9366 9.37169C29.9259 9.39316 29.9152 9.41463 29.9041 9.43675C29.888 9.4287 29.888 9.4287 29.8716 9.42049C29.8716 9.41512 29.8716 9.40975 29.8716 9.40422C29.4692 9.39885 29.0668 9.39349 28.6522 9.38796C28.6522 9.38259 28.6522 9.37722 28.6522 9.37169Z" fill="var(--fill-0, black)"/>
<path id="Vector_32" d="M22.2295 11.1775C22.266 11.2322 22.2846 11.2874 22.3047 11.3493C22.3084 11.3605 22.3122 11.3716 22.316 11.3831C22.3433 11.4659 22.3433 11.4659 22.3433 11.5028C22.2964 11.4818 22.2641 11.4596 22.2295 11.4215C22.2385 11.3998 22.2385 11.3998 22.2478 11.3778C22.2642 11.3157 22.2561 11.2988 22.2295 11.2426C22.2295 11.2211 22.2295 11.1996 22.2295 11.1775Z" fill="var(--fill-0, black)"/>
<path id="Vector_33" d="M22.9606 28.841C22.966 28.841 22.9713 28.841 22.9768 28.841C23.0063 28.9724 23.0132 29.0969 23.0094 29.2313C22.9529 29.1466 22.9583 29.056 22.9596 28.9569C22.9596 28.9457 22.9597 28.9345 22.9598 28.923C22.96 28.8956 22.9603 28.8683 22.9606 28.841Z" fill="var(--fill-0, black)"/>
<path id="Vector_34" d="M32.1967 15.6989C32.2021 15.715 32.2074 15.7311 32.213 15.7477C32.2398 15.7477 32.2666 15.7477 32.2943 15.7477C32.2191 15.8269 32.2191 15.8269 32.1642 15.8452C32.1721 15.7944 32.1804 15.7477 32.1967 15.6989Z" fill="var(--fill-0, black)"/>
<path id="Vector_35" d="M29.0234 11.3886C29.0517 11.4309 29.0672 11.4631 29.0834 11.5106C29.0878 11.5231 29.0922 11.5357 29.0968 11.5487C29.1047 11.5837 29.1047 11.5837 29.0885 11.6325C29.056 11.6 29.056 11.6 29.0539 11.5411C29.0546 11.5229 29.0553 11.5048 29.056 11.4862C29.0452 11.4862 29.0345 11.4862 29.0234 11.4862C29.0234 11.454 29.0234 11.4218 29.0234 11.3886Z" fill="var(--fill-0, black)"/>
<path id="Vector_36" d="M20.1644 11.3886C20.1751 11.4047 20.1858 11.4208 20.1969 11.4374C20.2076 11.4427 20.2183 11.4481 20.2294 11.4536C20.1684 11.5024 20.1684 11.5024 20.1318 11.5024C20.1461 11.4252 20.1461 11.4252 20.1644 11.3886Z" fill="var(--fill-0, black)"/>
<path id="Vector_37" d="M8.19763 23.7335C8.203 23.7335 8.20836 23.7335 8.21389 23.7335C8.22987 23.7995 8.23148 23.861 8.23015 23.9287C8.22478 23.9287 8.21942 23.9287 8.21389 23.9287C8.19792 23.8628 8.1963 23.8012 8.19763 23.7335Z" fill="var(--fill-0, black)"/>
<path id="Vector_38" d="M8.17958 23.6523C8.19584 23.7173 8.19584 23.7173 8.19584 23.7173L8.17958 23.6523Z" fill="var(--fill-0, black)"/>
<path id="Vector_39" d="M8.16616 23.5223C8.18242 23.5874 8.18242 23.5874 8.18242 23.5874L8.16616 23.5223Z" fill="var(--fill-0, black)"/>
</g>
</svg>
