<svg preserveAspectRatio="none" width="100%" height="100%" overflow="visible" style="display: block;" viewBox="0 0 32.9999 29.6304" fill="none" xmlns="http://www.w3.org/2000/svg">
<g id="Symbol-AmeriTech-Colored">
<path id="Vector" d="M19.63 3.16724C19.6464 3.16722 19.6464 3.16722 19.6632 3.16721C19.6941 3.16721 19.725 3.16732 19.7559 3.16749C19.7648 3.1675 19.7738 3.16752 19.783 3.16753C19.8334 3.16801 19.8807 3.17352 19.9303 3.18223C19.9505 3.18304 19.9708 3.18331 19.991 3.18301C20.0023 3.18291 20.0137 3.1828 20.0254 3.18269C20.0374 3.18253 20.0495 3.18238 20.062 3.18223C20.4253 3.1802 20.7876 3.21144 21.1483 3.2532C21.1621 3.25479 21.1759 3.25637 21.1901 3.25801C21.4035 3.28278 21.6158 3.31255 21.8279 3.34704C21.8404 3.34905 21.8529 3.35107 21.8658 3.35314C22.0058 3.37583 22.1434 3.40303 22.281 3.43731C22.3504 3.45431 22.4192 3.46694 22.4899 3.47671C22.6534 3.50011 22.8124 3.5445 22.9719 3.58631C22.998 3.59315 23.0241 3.59994 23.0502 3.60672C23.6262 3.75645 23.6262 3.75645 23.8877 3.85859C23.9515 3.88348 24.015 3.90383 24.0809 3.92192C24.249 3.97063 24.4103 4.03712 24.5721 4.1033C24.5811 4.10696 24.59 4.11063 24.5993 4.11441C24.9261 4.24788 25.2472 4.39073 25.5648 4.5451C25.637 4.58021 25.7093 4.61503 25.7823 4.64849C26.0319 4.76325 26.266 4.90632 26.4995 5.0501C26.5453 5.07821 26.5911 5.10617 26.6369 5.1341C26.6802 5.16055 26.7235 5.18709 26.7668 5.21363C26.7741 5.21809 26.7814 5.22254 26.7889 5.22713C26.8226 5.24779 26.8562 5.2685 26.8898 5.28928C26.9188 5.30716 26.9478 5.32493 26.9769 5.34261C27.3402 5.56508 27.6793 5.82875 28.0087 6.09823C28.0452 6.12805 28.0819 6.15749 28.1188 6.18675C28.1877 6.2417 28.2547 6.29869 28.3217 6.35588C28.3437 6.37465 28.3658 6.39337 28.3879 6.41209C28.4718 6.4834 28.5541 6.55601 28.6347 6.63097C28.6623 6.65627 28.6902 6.68104 28.7185 6.7056C28.882 6.84861 29.036 7.002 29.1893 7.1558C29.2212 7.18778 29.2532 7.2197 29.2852 7.25161C29.3058 7.27227 29.3265 7.29293 29.3471 7.31359C29.3565 7.32296 29.3659 7.33234 29.3756 7.34199C29.4264 7.39312 29.4753 7.44532 29.5222 7.50008C29.5545 7.53726 29.5884 7.57278 29.6222 7.60857C29.6815 7.67197 29.7376 7.73698 29.7919 7.80483C29.8204 7.83944 29.8503 7.87224 29.8808 7.90508C29.9335 7.96252 29.9821 8.02207 30.0298 8.08371C30.0667 8.13141 30.1043 8.17841 30.1427 8.22499C30.5846 8.76249 30.9649 9.35321 31.3077 9.95778C31.3154 9.97129 31.3231 9.98479 31.331 9.99871C31.625 10.5148 31.8811 11.0513 32.0975 11.6043C32.1092 11.6339 32.121 11.6635 32.133 11.693C32.1858 11.8226 32.2329 11.9538 32.2781 12.0862C32.2821 12.0979 32.2861 12.1097 32.2903 12.1218C32.3904 12.4159 32.4764 12.714 32.5591 13.0134C32.5681 13.0458 32.5772 13.0783 32.5862 13.1107C32.6523 13.3476 32.7037 13.5868 32.7511 13.8282C32.7538 13.842 32.7566 13.8559 32.7594 13.8702C32.7888 14.0209 32.8155 14.1709 32.8339 14.3234C32.8376 14.3506 32.8413 14.3779 32.8452 14.4051C32.8547 14.4735 32.8641 14.542 32.8734 14.6105C32.8807 14.664 32.8884 14.7174 32.8962 14.7708C32.9309 15.0084 32.9553 15.2453 32.9703 15.485C32.9711 15.4977 32.9719 15.5103 32.9727 15.5234C32.9802 15.6456 32.9875 15.7673 32.9845 15.8898C32.9845 15.9272 32.9845 15.9272 32.9914 15.9691C33.0022 16.0499 32.9997 16.1315 32.9995 16.2129C32.9995 16.2309 32.9996 16.249 32.9996 16.267C32.9996 16.3046 32.9996 16.3423 32.9995 16.3799C32.9994 16.428 32.9995 16.476 32.9995 16.5241C32.9996 16.5613 32.9996 16.5984 32.9995 16.6356C32.9995 16.6533 32.9995 16.671 32.9996 16.6887C32.9996 16.7136 32.9995 16.7384 32.9995 16.7632C32.9995 16.7772 32.9995 16.7913 32.9995 16.8058C32.9977 16.8497 32.9918 16.8918 32.9852 16.9352C32.9838 16.9539 32.9826 16.9726 32.9819 16.9913C32.9815 17.0014 32.981 17.0114 32.9806 17.0218C32.9802 17.0324 32.9798 17.043 32.9794 17.054C32.9784 17.0771 32.9774 17.1002 32.9764 17.1233C32.9749 17.1593 32.9734 17.1952 32.972 17.2312C32.9671 17.3538 32.9612 17.4738 32.9402 17.5949C32.9322 17.6455 32.9316 17.6955 32.9308 17.7467C32.9257 17.9065 32.8975 18.0627 32.8715 18.2201C32.8568 18.3102 32.845 18.4006 32.8331 18.4911C32.8173 18.6097 32.798 18.7264 32.7712 18.843C32.7591 18.8968 32.7497 18.9511 32.7403 19.0054C32.6289 19.6453 32.43 20.2669 32.2142 20.8782C32.2039 20.9076 32.1938 20.937 32.1837 20.9664C32.1368 21.1026 32.0833 21.2356 32.0282 21.3687C32.0197 21.3894 32.0111 21.4101 32.0026 21.4308C31.9771 21.4926 31.9514 21.5545 31.9257 21.6163C31.9212 21.6271 31.9167 21.6378 31.9121 21.6489C31.8987 21.6812 31.8852 21.7135 31.8717 21.7457C31.8677 21.7554 31.8636 21.7651 31.8595 21.7751C31.8275 21.8513 31.7921 21.9254 31.754 21.9988C31.7298 22.046 31.7062 22.0935 31.6827 22.141C31.6126 22.2828 31.5421 22.424 31.4639 22.5616C31.4326 22.617 31.4038 22.6731 31.3762 22.7305C31.2557 22.9785 31.1039 23.2146 30.9545 23.4458C30.9412 23.4665 30.9278 23.4873 30.9145 23.508C30.6034 23.9912 30.2604 24.4522 29.8871 24.889C29.8692 24.91 29.8514 24.9311 29.8337 24.9522C29.7591 25.0403 29.6823 25.1258 29.6032 25.2098C29.5664 25.2489 29.5301 25.2881 29.4953 25.3289C29.45 25.3817 29.4003 25.4299 29.3506 25.4784C29.3238 25.5051 29.299 25.533 29.2743 25.5617C29.2283 25.6145 29.1799 25.6644 29.1303 25.7138C29.1214 25.7227 29.1126 25.7316 29.1034 25.7408C29.0848 25.7594 29.0661 25.778 29.0475 25.7966C29.0192 25.8249 28.9909 25.8532 28.9627 25.8815C28.9445 25.8998 28.9262 25.918 28.908 25.9362C28.8955 25.9487 28.8955 25.9487 28.8828 25.9615C28.834 26.01 28.7839 26.0564 28.7317 26.1013C28.6987 26.1298 28.6671 26.1596 28.6352 26.1893C28.59 26.2312 28.5442 26.2712 28.4956 26.3092C28.4461 26.3479 28.4002 26.3891 28.3545 26.4322C28.202 26.5751 28.0349 26.7015 27.8695 26.829C27.8486 26.8451 27.8278 26.8612 27.807 26.8773C27.6697 26.9837 27.5308 27.0858 27.3868 27.1828C27.345 27.2111 27.304 27.2403 27.2635 27.2704C27.1822 27.3302 27.0973 27.3841 27.0124 27.4383C26.979 27.4596 26.9457 27.4809 26.9124 27.5023C26.7899 27.5808 26.6671 27.6586 26.5416 27.7324C26.5217 27.7441 26.5018 27.7559 26.482 27.7676C26.122 27.9808 25.7527 28.1684 25.376 28.3499C25.3531 28.361 25.3301 28.3721 25.3071 28.3832C25.1642 28.4525 25.0206 28.5185 24.8737 28.579C24.8454 28.5907 24.817 28.6024 24.7887 28.6143C24.6305 28.68 24.4711 28.7428 24.308 28.7956C24.22 28.8244 24.1325 28.8541 24.0452 28.8847C23.7217 28.9979 23.3956 29.0984 23.0655 29.1903C23.0367 29.1984 23.0079 29.2065 22.9792 29.2146C22.6343 29.311 22.2795 29.368 21.9274 29.4315C21.8873 29.4387 21.8472 29.4461 21.807 29.4535C21.6829 29.4765 21.5589 29.4985 21.4337 29.5148C21.4105 29.5178 21.4105 29.5178 21.3869 29.5209C21.1626 29.5495 20.9375 29.5706 20.7124 29.5905C20.6959 29.5919 20.6794 29.5934 20.6624 29.5949C20.2606 29.6294 19.8541 29.6339 19.451 29.6283C19.4407 29.6282 19.4304 29.6281 19.4198 29.6279C19.3476 29.6269 19.2754 29.6257 19.2032 29.6243C19.1792 29.6238 19.1551 29.6234 19.131 29.623C18.9889 29.6206 18.8492 29.6124 18.7081 29.5962C18.6488 29.5894 18.5898 29.5865 18.5302 29.585C18.3844 29.5795 18.24 29.5627 18.0951 29.5453C18.0644 29.5416 18.0337 29.5381 18.003 29.5347C17.8622 29.5189 17.7222 29.4986 17.5821 29.4772C17.5439 29.4714 17.5058 29.4657 17.4676 29.4599C17.3516 29.4424 17.2367 29.4236 17.1222 29.3978C17.0736 29.3873 17.0249 29.3787 16.976 29.3703C16.861 29.3504 16.7468 29.3274 16.6327 29.3026C16.6219 29.3003 16.6111 29.298 16.6 29.2955C16.3023 29.2304 16.0098 29.146 15.7174 29.0605C15.7029 29.0563 15.7029 29.0563 15.6882 29.052C15.5383 29.0084 15.3891 28.964 15.2452 28.9031C15.1955 28.8824 15.1456 28.8662 15.0936 28.8518C14.9418 28.8093 14.7969 28.7513 14.6508 28.6923C14.6371 28.6868 14.6234 28.6812 14.6092 28.6755C14.1066 28.4731 13.6145 28.2468 13.1413 27.9823C13.1031 27.961 13.0647 27.94 13.0263 27.919C12.6424 27.7088 12.2651 27.4811 11.9099 27.225C11.8806 27.2041 11.851 27.1835 11.8213 27.163C11.6192 27.023 11.4259 26.8744 11.2359 26.7186C11.2079 26.6957 11.1796 26.6731 11.1514 26.6506C11.0791 26.5929 11.0073 26.5345 10.9356 26.4761C10.9065 26.4524 10.8773 26.4287 10.848 26.4052C10.7392 26.3175 10.6358 26.2246 10.538 26.1246C10.5039 26.0899 10.4694 26.0594 10.4304 26.0303C10.3226 25.9449 10.2286 25.8437 10.132 25.7461C10.1119 25.7258 10.0917 25.7055 10.0716 25.6853C10.0346 25.6481 9.99776 25.611 9.96093 25.5738C9.91102 25.5234 9.86094 25.4732 9.81049 25.4233C9.66866 25.2827 9.66866 25.2827 9.60942 25.2126C9.58656 25.1861 9.5628 25.1606 9.53889 25.1351C9.47539 25.0671 9.41689 24.9967 9.36009 24.923C9.31718 24.8676 9.27161 24.8155 9.22431 24.7637C9.11882 24.6473 9.02511 24.5226 8.93144 24.3966C8.88925 24.3399 8.84642 24.2838 8.8034 24.2277C8.71412 24.1113 8.62751 23.9936 8.54402 23.873C8.52911 23.8515 8.51406 23.8301 8.49899 23.8087C8.33873 23.5801 8.19468 23.3425 8.05332 23.1019C8.02395 23.052 7.99438 23.0021 7.96459 22.9524C7.87298 22.7993 7.78629 22.644 7.70256 22.4865C7.68955 22.462 7.6765 22.4375 7.6634 22.4131C7.27653 21.6914 6.98069 20.914 6.73762 20.133C6.72391 20.0891 6.70986 20.0454 6.69581 20.0017C6.62076 19.7641 6.567 19.5239 6.51556 19.2803C6.49895 19.2019 6.48079 19.124 6.46152 19.0463C6.43985 18.9576 6.42142 18.8686 6.40476 18.7789C6.40259 18.7674 6.40043 18.7559 6.39819 18.7441C6.38717 18.6826 6.38118 18.6253 6.38348 18.5629C6.41856 18.598 6.4169 18.6258 6.42447 18.6748C6.50449 19.1546 6.6364 19.6276 6.78711 20.0896C6.79283 20.1073 6.79853 20.1251 6.80424 20.1429C6.88461 20.3931 6.97268 20.6382 7.07313 20.8812C7.08995 20.9226 7.10591 20.9643 7.12171 21.0061C7.15066 21.0819 7.18322 21.1555 7.21754 21.2291C7.22975 21.2555 7.24195 21.2818 7.25415 21.3082C7.26034 21.3216 7.26654 21.3349 7.27292 21.3487C7.29738 21.4015 7.32157 21.4545 7.34576 21.5075C7.36873 21.5578 7.39185 21.608 7.41495 21.6583C7.42869 21.6883 7.44226 21.7183 7.45577 21.7485C7.52048 21.8913 7.59758 22.0264 7.67567 22.1623C7.69825 22.2019 7.72023 22.2418 7.7421 22.2818C7.79852 22.385 7.85793 22.4862 7.91838 22.587C7.92617 22.6 7.93397 22.613 7.942 22.6264C8.0346 22.7801 8.13262 22.9299 8.23214 23.0791C8.23824 23.0883 8.24434 23.0974 8.25063 23.1068C8.41449 23.3525 8.58106 23.5947 8.7681 23.8234C8.81372 23.8792 8.85865 23.9355 8.90301 23.9923C8.96189 24.0676 9.02156 24.1421 9.08276 24.2155C9.08856 24.2224 9.09436 24.2294 9.10035 24.2366C9.17376 24.3243 9.24872 24.4079 9.33064 24.4879C9.36051 24.5185 9.38718 24.5503 9.41386 24.5837C9.54344 24.7457 9.69125 24.9006 9.84902 25.0351C9.88653 25.0691 9.92161 25.1052 9.95703 25.1413C10.0186 25.204 10.0823 25.2597 10.1513 25.3143C10.1868 25.344 10.2137 25.3785 10.2432 25.4141C10.2727 25.4388 10.303 25.4622 10.3334 25.4858C10.373 25.518 10.4096 25.5524 10.4466 25.5876C10.5207 25.6574 10.5997 25.7181 10.6817 25.7783C10.7382 25.8199 10.7934 25.8629 10.8486 25.9062C11.074 26.0822 11.3031 26.2541 11.5424 26.4109C11.5574 26.4209 11.5724 26.431 11.5875 26.4411C11.5954 26.4464 11.6034 26.4517 11.6116 26.4572C11.6266 26.4673 11.6415 26.4773 11.6565 26.4874C11.6714 26.4973 11.6864 26.5071 11.7014 26.5168C11.724 26.532 11.7459 26.5482 11.7674 26.5649C11.8888 26.6559 11.9872 26.6664 12.1357 26.6626C12.1576 26.6624 12.1794 26.6623 12.2013 26.6623C12.2586 26.662 12.3159 26.661 12.3733 26.6599C12.4188 26.6591 12.4643 26.6588 12.5098 26.6586C12.7368 26.6573 12.9634 26.6513 13.1901 26.6389C13.2037 26.6382 13.2037 26.6382 13.2176 26.6375C13.409 26.627 13.5981 26.6036 13.7876 26.5749C13.8012 26.5729 13.8147 26.5708 13.8287 26.5687C13.9162 26.5552 14.0033 26.5403 14.0903 26.5244C14.1022 26.5223 14.1141 26.5201 14.1263 26.5179C14.4563 26.4573 14.7864 26.3788 15.1074 26.2812C15.1287 26.2747 15.15 26.2684 15.1713 26.2621C15.7816 26.0802 16.3585 25.8184 16.9031 25.4898C16.9284 25.4747 16.9537 25.4596 16.9791 25.4445C17.1213 25.3592 17.2601 25.2708 17.395 25.1744C17.4088 25.1645 17.4088 25.1645 17.4229 25.1545C17.8351 24.861 18.2145 24.534 18.5715 24.1758C18.5999 24.1474 18.6283 24.119 18.6568 24.0906C18.6752 24.0722 18.6935 24.0538 18.7119 24.0354C18.7203 24.0271 18.7286 24.0187 18.7372 24.0102C18.7857 23.9614 18.8319 23.9113 18.8768 23.8591C18.9041 23.8277 18.9328 23.7977 18.9615 23.7675C19.0289 23.695 19.0876 23.6172 19.1463 23.5374C19.1874 23.4816 19.23 23.427 19.2728 23.3725C19.3641 23.2557 19.4524 23.1369 19.5393 23.0168C19.5458 23.0078 19.5524 22.9988 19.5591 22.9895C19.9446 22.4551 20.2574 21.861 20.531 21.2622C20.5358 21.2518 20.5406 21.2414 20.5455 21.2306C20.5772 21.16 20.6054 21.0884 20.6328 21.016C20.6494 20.9725 20.6663 20.9292 20.6832 20.8858C20.8577 20.4575 20.8577 20.4575 20.9924 20.016C21.0107 19.9397 21.0333 19.8652 21.0566 19.7902C21.1094 19.6201 21.1529 19.4506 21.1839 19.275C21.1909 19.2356 21.1982 19.1963 21.2056 19.157C21.2574 18.8797 21.296 18.6019 21.3262 18.3214C21.3976 17.6755 21.5937 16.9775 22.0115 16.4684C22.0219 16.4557 22.0323 16.443 22.0429 16.4299C22.2413 16.2 22.5523 16.0039 22.8594 15.9735C23.008 15.9657 23.1435 15.9835 23.2855 16.0268C23.2941 16.0293 23.3027 16.0319 23.3116 16.0345C23.6321 16.1326 23.919 16.3165 24.1828 16.5197C24.2342 16.5591 24.2871 16.5962 24.3403 16.6332C24.4719 16.7253 24.5979 16.8223 24.7163 16.9312C24.7542 16.9655 24.7931 16.9985 24.8322 17.0314C24.9732 17.1501 25.1096 17.2737 25.2458 17.3979C25.2732 17.4226 25.3009 17.4467 25.3289 17.4707C25.3771 17.5125 25.4218 17.5578 25.4666 17.6032C25.5277 17.6647 25.5923 17.7208 25.6592 17.7758C25.6941 17.8054 25.7268 17.8352 25.7577 17.8689C25.7577 17.8772 25.7577 17.8856 25.7577 17.8941C25.7647 17.8968 25.7717 17.8995 25.7788 17.9023C25.8181 17.9251 25.8448 17.9566 25.8744 17.9903C25.8867 18.004 25.8989 18.0177 25.9112 18.0313C25.9202 18.0413 25.9202 18.0413 25.9295 18.0516C25.994 18.127 25.994 18.127 26.0731 18.1843C26.0731 18.1927 26.0731 18.201 26.0731 18.2096C26.0814 18.2096 26.0897 18.2096 26.0983 18.2096C26.1139 18.2254 26.1139 18.2254 26.133 18.249C26.1777 18.3018 26.2257 18.3503 26.2749 18.3988C26.3275 18.4509 26.3788 18.5031 26.4266 18.5597C26.4633 18.6016 26.5016 18.6421 26.5398 18.6827C26.6325 18.7816 26.6325 18.7816 26.6722 18.8278C26.7356 18.9014 26.803 18.9716 26.8694 19.0425C26.9141 19.0901 26.9586 19.1379 27.0032 19.1857C27.0406 19.2259 27.0782 19.266 27.1159 19.3059C27.1904 19.3849 27.2623 19.4644 27.3301 19.5494C27.3658 19.5922 27.4035 19.6327 27.4416 19.6732C27.5369 19.7746 27.624 19.8815 27.7076 19.9927C27.7243 20.0154 27.7243 20.0154 27.7507 20.0265C27.7507 20.0348 27.7507 20.0431 27.7507 20.0517C27.759 20.0517 27.7673 20.0517 27.7759 20.0517C27.7927 20.0702 27.8085 20.0896 27.824 20.1093C27.8718 20.1691 27.921 20.2274 27.9714 20.2851C28.0281 20.3502 28.0835 20.416 28.1377 20.4831C28.1723 20.5252 28.2078 20.5664 28.2434 20.6077C28.2947 20.6672 28.3446 20.7276 28.3934 20.7893C28.4236 20.8269 28.4548 20.8636 28.4862 20.9002C28.5338 20.956 28.5799 21.0127 28.6249 21.0706C28.7237 21.1974 28.8259 21.3215 28.9305 21.4435C28.9838 21.5056 29.0327 21.5689 29.0785 21.6368C29.1017 21.6687 29.127 21.697 29.1539 21.7259C29.2104 21.7867 29.2584 21.8521 29.3057 21.9202C29.3389 21.9689 29.3389 21.9689 29.3904 21.9948C29.4461 21.8847 29.5009 21.7743 29.5526 21.6622C29.5763 21.6111 29.6011 21.5607 29.6265 21.5105C29.6819 21.4009 29.7333 21.2899 29.7828 21.1776C29.7956 21.1486 29.8086 21.1196 29.8215 21.0906C29.8948 20.9253 29.9629 20.7582 30.0252 20.5884C30.0402 20.5475 30.0556 20.5068 30.071 20.466C30.1637 20.2183 30.2379 19.9651 30.3112 19.711C30.3143 19.7003 30.3174 19.6896 30.3206 19.6785C30.5295 18.953 30.6606 18.2186 30.7298 17.4667C30.7309 17.4551 30.7319 17.4434 30.733 17.4314C30.7541 17.201 30.7666 16.971 30.7724 16.7396C30.7728 16.724 30.7728 16.724 30.7732 16.7081C30.7777 16.5272 30.7806 16.3465 30.7779 16.1655C30.7775 16.1426 30.7775 16.1426 30.7772 16.1192C30.7661 15.471 30.7138 14.8213 30.5887 14.1846C30.587 14.1759 30.5853 14.1673 30.5835 14.1583C30.5258 13.867 30.4495 13.5808 30.3711 13.2945C30.3654 13.2739 30.3654 13.2739 30.3597 13.2528C30.3526 13.2271 30.3455 13.2013 30.3384 13.1756C30.3238 13.1224 30.3098 13.0694 30.2983 13.0154C30.2865 12.9608 30.2702 12.9085 30.2522 12.8556C30.249 12.846 30.2458 12.8365 30.2425 12.8266C30.2323 12.7964 30.2221 12.7662 30.2119 12.736C30.2051 12.7159 30.1984 12.6958 30.1916 12.6757C30.1785 12.6367 30.1653 12.5977 30.1521 12.5586C30.142 12.5286 30.132 12.4985 30.1224 12.4683C30.0795 12.3348 30.0267 12.2048 29.9754 12.0743C29.9677 12.0549 29.9677 12.0549 29.9599 12.035C29.9258 11.9481 29.8915 11.8614 29.8571 11.7747C29.8518 11.7614 29.8518 11.7614 29.8464 11.7478C29.5081 10.8942 29.0201 10.0817 28.4822 9.33952C28.4754 9.33011 28.4686 9.32069 28.4616 9.31099C28.2922 9.07764 28.1153 8.85067 27.9284 8.63103C27.8906 8.58646 27.8536 8.54129 27.8169 8.49573C27.7792 8.44935 27.7402 8.40633 27.6971 8.36494C27.6764 8.34415 27.6576 8.32272 27.6388 8.30021C27.5966 8.25168 27.552 8.20627 27.5063 8.16108C27.4955 8.15038 27.4955 8.15038 27.4845 8.13946C27.4544 8.10968 27.4242 8.07995 27.394 8.05027C27.3717 8.02838 27.3495 8.00641 27.3274 7.98443C27.317 7.97434 27.317 7.97434 27.3065 7.96404C27.2901 7.94775 27.2743 7.93081 27.2587 7.91376C27.2587 7.90543 27.2587 7.8971 27.2587 7.88852C27.2517 7.8856 27.2446 7.88267 27.2374 7.87966C27.2006 7.85899 27.1757 7.83332 27.1462 7.80321C27.1374 7.79433 27.1374 7.79433 27.1285 7.78528C27.1098 7.76639 27.0912 7.74742 27.0727 7.72844C27.0014 7.65579 26.9306 7.58359 26.8531 7.51744C26.8134 7.48315 26.7757 7.44673 26.7376 7.41064C26.6717 7.34852 26.6045 7.28969 26.5337 7.23316C26.5025 7.20766 26.4731 7.18098 26.4436 7.15356C26.3634 7.08057 26.2764 7.01669 26.19 6.9514C26.1431 6.91567 26.0967 6.87922 26.0502 6.84285C25.6918 6.56337 25.3213 6.31091 24.9324 6.07626C24.8781 6.04352 24.8241 6.01043 24.7702 5.97718C24.5983 5.87128 24.4249 5.77085 24.2441 5.68047C24.229 5.67288 24.214 5.66528 24.1989 5.65768C23.725 5.41922 23.2408 5.20291 22.7425 5.02077C22.716 5.01107 22.6897 5.00127 22.6633 4.99144C22.4403 4.9084 22.2184 4.83038 21.9881 4.77009C21.9467 4.75893 21.9057 4.74691 21.8647 4.73466C21.1851 4.53334 20.4846 4.39403 19.7785 4.3326C19.7296 4.32828 19.6807 4.32344 19.6318 4.31867C19.5931 4.31491 19.5544 4.31131 19.5156 4.30774C19.4967 4.30593 19.4779 4.30399 19.459 4.30197C19.3802 4.29354 19.3016 4.2892 19.2224 4.28625C19.1364 4.28283 19.0505 4.27886 18.9646 4.27284C18.8871 4.26764 18.8103 4.26701 18.7326 4.26772C18.7013 4.2674 18.6722 4.26552 18.6414 4.26101C18.5583 4.25011 18.4768 4.2523 18.3936 4.26082C18.3086 4.26884 18.2236 4.26996 18.1383 4.2715C17.6181 4.28148 17.0979 4.32014 16.5853 4.41038C16.5203 4.42169 16.4553 4.43239 16.3902 4.44309C16.2203 4.47108 16.0507 4.5004 15.8814 4.53229C15.871 4.53422 15.8606 4.53615 15.8498 4.53814C15.4883 4.6054 15.1361 4.71401 14.785 4.82197C14.7421 4.83515 14.6991 4.84824 14.6562 4.86133C14.5076 4.90684 14.3611 4.95478 14.2164 5.01175C14.1876 5.02284 14.1587 5.03391 14.1299 5.04497C14.089 5.06074 14.0482 5.07653 14.0074 5.09233C13.9465 5.11585 13.8856 5.13898 13.8239 5.1604C13.7176 5.19885 13.6153 5.24736 13.5124 5.29407C13.4899 5.30427 13.4673 5.31448 13.4448 5.32468C13.3782 5.35485 13.3117 5.38516 13.2452 5.41551C13.2358 5.41979 13.2264 5.42408 13.2167 5.42849C12.897 5.57428 12.586 5.7317 12.284 5.91179C12.2507 5.93164 12.2173 5.95132 12.1839 5.97097C12.0215 6.06688 11.8636 6.16936 11.7064 6.27349C11.6933 6.2821 11.6803 6.2907 11.6669 6.29957C11.5184 6.39768 11.3706 6.4963 11.227 6.60155C11.2182 6.60801 11.2093 6.61447 11.2001 6.62112C11.0692 6.71647 10.9401 6.81395 10.8127 6.91392C10.7738 6.94442 10.7346 6.97447 10.6952 7.0043C10.5657 7.10259 10.4437 7.20924 10.3247 7.31991C10.2806 7.36068 10.2351 7.39923 10.1888 7.43745C10.1154 7.49836 10.0484 7.56464 9.98147 7.63262C9.93477 7.68002 9.88726 7.72518 9.83651 7.76826C9.77798 7.81926 9.72427 7.87516 9.67401 7.93426C9.63077 7.98469 9.58401 8.03109 9.53684 8.07778C9.48393 8.13022 9.43227 8.18267 9.38415 8.23959C9.35732 8.27041 9.32949 8.30012 9.30153 8.3299C9.2344 8.40139 9.17008 8.47396 9.10872 8.55054C9.0752 8.59177 9.04001 8.63129 9.00422 8.67055C8.98409 8.69348 8.96657 8.71707 8.94874 8.74177C8.91878 8.77174 8.91878 8.77174 8.88409 8.77411C8.82897 8.75396 8.77976 8.72627 8.72958 8.69604C8.74746 8.64462 8.77215 8.60661 8.80526 8.56355C8.81025 8.55702 8.81525 8.55049 8.82039 8.54376C8.83097 8.52994 8.84158 8.51615 8.85223 8.50238C8.86788 8.48211 8.88344 8.46178 8.89897 8.44142C8.93063 8.39998 8.96252 8.35873 8.99446 8.31751C9.00002 8.31032 9.00559 8.30313 9.01132 8.29572C9.07964 8.20749 9.14926 8.1207 9.22178 8.03588C9.25743 7.99419 9.29211 7.95189 9.32635 7.90902C9.38025 7.84263 9.43837 7.78081 9.49712 7.71876C9.53929 7.67398 9.57924 7.62862 9.61725 7.58018C9.67415 7.50871 9.73839 7.44544 9.80366 7.38171C9.85348 7.33292 9.90038 7.28275 9.94587 7.22991C9.97076 7.20138 9.99705 7.17459 10.024 7.14804C10.0336 7.13854 10.0433 7.12904 10.0532 7.11925C10.0661 7.10657 10.0661 7.10657 10.0792 7.09362C10.0904 7.08243 10.1016 7.07124 10.1131 7.05972C10.1227 7.05009 10.1324 7.04046 10.1423 7.03054C10.1488 7.02374 10.1553 7.01694 10.162 7.00994C10.1802 6.99112 10.199 6.97292 10.218 6.95483C10.2263 6.95483 10.2346 6.95483 10.2432 6.95483C10.2474 6.94234 10.2515 6.92985 10.2558 6.91698C10.2756 6.89751 10.2756 6.89751 10.3007 6.87676C10.3379 6.84527 10.3731 6.81299 10.4072 6.77819C10.4469 6.73786 10.4881 6.70023 10.5311 6.66335C10.5624 6.63602 10.5927 6.60774 10.6232 6.57946C10.6821 6.52562 10.7434 6.47604 10.8065 6.42719C10.8581 6.38712 10.9085 6.34588 10.9582 6.30346C11.0179 6.25249 11.0781 6.20217 11.139 6.15264C11.1665 6.13027 11.1939 6.10779 11.2212 6.08522C11.4128 5.92743 11.6118 5.77984 11.8154 5.63809C11.8485 5.61499 11.8815 5.59172 11.9145 5.56844C12.0556 5.4692 12.198 5.37331 12.3448 5.2827C12.3759 5.26343 12.407 5.24399 12.438 5.22452C13.0939 4.81381 13.7899 4.43922 14.5161 4.16819C14.5755 4.1459 14.6344 4.12276 14.6929 4.09802C15.1639 3.89904 15.6528 3.75521 16.1463 3.62383C16.1587 3.62052 16.1711 3.6172 16.1839 3.61379C16.5695 3.51107 16.9548 3.42342 17.3489 3.35995C17.412 3.34977 17.4749 3.33853 17.5377 3.32654C17.8271 3.27499 18.1231 3.24993 18.4156 3.22258C18.4452 3.21976 18.4749 3.21682 18.5046 3.21389C18.6741 3.19743 18.8433 3.18728 19.0135 3.18065C19.0266 3.18012 19.0397 3.17959 19.0533 3.17904C19.2455 3.17139 19.4376 3.16723 19.63 3.16724Z" fill="var(--fill-0, white)"/>
<path id="Vector_2" d="M5.80364 0.00278483C5.71281 0.0946348 5.61826 0.182197 5.51747 0.263019C5.46251 0.307252 5.41288 0.354453 5.3637 0.404965C5.33831 0.430411 5.31216 0.454082 5.28491 0.477515C5.22049 0.533028 5.16138 0.592015 5.10596 0.656525C5.0711 0.697037 5.03439 0.734881 4.99638 0.772447C4.9515 0.816868 4.90886 0.862091 4.86793 0.910155C4.85164 0.92887 4.83486 0.947168 4.81777 0.965159C4.71502 1.07379 4.62917 1.19357 4.5423 1.315C4.53501 1.3251 4.52771 1.33521 4.5202 1.34563C4.39779 1.51563 4.28495 1.69094 4.17651 1.87016C4.16815 1.8839 4.16815 1.8839 4.15962 1.89792C3.96752 2.21649 3.83061 2.57094 3.72321 2.92608C3.7186 2.94128 3.71398 2.95647 3.70923 2.97213C3.67773 3.07925 3.65463 3.18628 3.63413 3.29593C3.63045 3.31433 3.62676 3.33274 3.62304 3.35113C3.60383 3.45305 3.59058 3.55458 3.58131 3.65789C3.58025 3.66942 3.57919 3.68094 3.5781 3.69281C3.56422 3.86116 3.57242 4.02523 3.59156 4.19256C3.59268 4.20241 3.5938 4.21226 3.59496 4.22242C3.67888 4.94669 3.98387 5.61386 4.44779 6.17506C4.47378 6.20665 4.49932 6.23861 4.52495 6.27049C4.57569 6.33253 4.62931 6.39141 4.6839 6.45004C4.71028 6.47841 4.73557 6.50755 4.76076 6.53698C4.80781 6.59097 4.85875 6.6398 4.91124 6.68844C4.92066 6.69722 4.93007 6.70601 4.93977 6.71506C4.967 6.74041 4.99429 6.76569 5.02161 6.79096C5.02859 6.79745 5.03557 6.80394 5.04276 6.81063C5.12549 6.88755 5.21117 6.95981 5.2991 7.03069C5.31521 7.04387 5.3313 7.05706 5.34739 7.07026C5.5257 7.21763 5.5257 7.21763 5.71613 7.34849C5.78027 7.38833 5.84023 7.43259 5.90061 7.47782C6.04106 7.58267 6.18679 7.67916 6.33341 7.77511C6.34849 7.785 6.34849 7.785 6.36387 7.79508C6.42497 7.83505 6.48632 7.87459 6.54783 7.91391C6.55663 7.91955 6.56543 7.92519 6.57449 7.931C7.06837 8.24723 7.57547 8.54523 8.09672 8.81397C8.12767 8.83006 8.15855 8.84627 8.18938 8.86259C8.34321 8.944 8.49792 9.0235 8.65349 9.10152C8.67227 9.11094 8.67227 9.11094 8.69143 9.12055C8.90378 9.22683 9.11833 9.32643 9.33624 9.42071C9.40352 9.44983 9.47039 9.47981 9.53719 9.51002C9.89665 9.67197 10.2624 9.8185 10.6307 9.95889C10.6548 9.96808 10.6789 9.9773 10.703 9.98653C10.9232 10.0712 10.9232 10.0712 11.1495 10.137C11.2046 10.151 11.2576 10.1699 11.3112 10.1888C11.5509 10.2732 11.7958 10.3357 12.0419 10.3978C12.1163 10.4166 12.1905 10.4359 12.2646 10.4556C12.9003 10.6237 13.5609 10.7231 14.2147 10.7879C14.2441 10.7909 14.2734 10.794 14.3028 10.7971C14.4448 10.8121 14.5865 10.8228 14.7292 10.8293C14.7401 10.8298 14.751 10.8303 14.7622 10.8309C15.1788 10.8502 15.5964 10.8544 16.0134 10.8553C16.0222 10.8554 16.0309 10.8554 16.0399 10.8554C16.1273 10.8557 16.213 10.8532 16.2999 10.8442C16.3737 10.8379 16.4479 10.8374 16.5219 10.8356C16.8652 10.8259 17.2017 10.7971 17.5415 10.7482C17.6249 10.7362 17.7084 10.7252 17.7919 10.7142C17.8843 10.702 17.9767 10.6896 18.069 10.6767C18.4153 10.6286 18.761 10.5934 19.1108 10.5888C19.1264 10.5886 19.1264 10.5886 19.1423 10.5884C19.5237 10.5836 19.8973 10.5926 20.2755 10.6471C20.3078 10.6517 20.3402 10.6559 20.3726 10.6601C20.9756 10.7397 21.5859 10.9692 22.0456 11.3725C22.0837 11.4058 22.1229 11.4374 22.1625 11.4689C22.2203 11.5161 22.2679 11.5654 22.3146 11.6234C22.326 11.6369 22.3374 11.6504 22.3488 11.6638C22.5596 11.9163 22.7038 12.1995 22.7813 12.5193C22.792 12.5201 22.792 12.5201 22.803 12.521C22.8789 12.5271 22.9547 12.5337 23.0305 12.5407C23.056 12.5431 23.0816 12.5454 23.1072 12.5476C23.4872 12.5812 23.8901 12.653 24.2445 12.7968C24.2609 12.8035 24.2609 12.8035 24.2777 12.8102C24.6034 12.9441 24.9225 13.1365 25.1148 13.4403C25.1214 13.4501 25.128 13.4599 25.1348 13.4701C25.2436 13.6389 25.2933 13.8467 25.304 14.046C25.3045 14.055 25.3051 14.064 25.3056 14.0733C25.3213 14.6452 25.046 15.1903 24.7475 15.6594C24.7389 15.6729 24.7303 15.6865 24.7214 15.7004C24.6119 15.8709 24.6119 15.8709 24.5724 15.9133C24.5641 15.9133 24.5558 15.9133 24.5472 15.9133C24.5441 15.9037 24.541 15.8941 24.5379 15.8841C24.4234 15.5561 24.16 15.2975 23.8539 15.1438C23.5682 15.0063 23.2833 14.964 22.9682 14.9631C22.9521 14.963 22.936 14.963 22.9194 14.9629C22.6343 14.9651 22.342 15.0402 22.0876 15.1689C22.0747 15.1753 22.0747 15.1753 22.0615 15.1818C21.9288 15.2477 21.8048 15.323 21.684 15.4087C21.6707 15.418 21.6575 15.4274 21.6439 15.437C21.55 15.5054 21.465 15.5808 21.3812 15.661C21.3695 15.672 21.3578 15.6831 21.3458 15.6945C21.2555 15.7818 21.1787 15.876 21.1038 15.9764C21.0986 15.9833 21.0934 15.9902 21.0881 15.9973C20.7985 16.3831 20.5704 16.8306 20.4605 17.3013C20.4564 17.3185 20.4523 17.3358 20.4481 17.353C20.3936 17.5832 20.349 17.8096 20.3301 18.0457C20.3244 18.1148 20.3144 18.1825 20.3034 18.2509C20.2775 18.4147 20.2678 18.5797 20.2567 18.745C20.2446 18.9234 20.2251 19.0981 20.1946 19.2743C20.1828 19.3435 20.175 19.4127 20.168 19.4825C20.1103 19.9744 19.9152 20.4419 19.6784 20.872C19.6726 20.8826 19.6668 20.8932 19.6609 20.9042C19.5295 21.1434 19.3776 21.362 19.2085 21.5758C19.172 21.6223 19.1363 21.6695 19.1006 21.7166C18.9989 21.8498 18.8929 21.9767 18.7783 22.0989C18.7562 22.1227 18.7343 22.1467 18.7124 22.1708C18.705 22.179 18.6975 22.1871 18.6898 22.1955C18.6753 22.2114 18.6609 22.2273 18.6465 22.2433C18.6294 22.2619 18.6116 22.2799 18.5937 22.2978C18.5854 22.2978 18.577 22.2978 18.5684 22.2978C18.5678 22.2881 18.5672 22.2783 18.5666 22.2683C18.5371 21.8339 18.467 21.405 18.3301 20.9911C18.3144 20.9423 18.3001 20.8932 18.2859 20.844C18.253 20.7309 18.2164 20.6192 18.1782 20.5077C18.1747 20.4975 18.1712 20.4872 18.1676 20.4767C17.8532 19.5601 17.378 18.7148 16.8278 17.9195C16.8199 17.9081 16.8121 17.8967 16.804 17.885C16.7038 17.74 16.601 17.5972 16.4958 17.4559C16.4751 17.4281 16.4545 17.4003 16.4339 17.3724C16.3616 17.2751 16.2878 17.1796 16.2097 17.0868C16.2019 17.0774 16.2019 17.0774 16.1938 17.0678C16.1592 17.0265 16.1243 16.9854 16.0893 16.9443C16.077 16.9298 16.0646 16.9152 16.0523 16.9007C15.9855 16.8219 15.9182 16.7438 15.8479 16.668C15.804 16.6207 15.7622 16.5725 15.7218 16.5221C15.6806 16.4711 15.6375 16.4245 15.5904 16.3789C15.5584 16.3469 15.5293 16.3127 15.4998 16.2784C15.4721 16.2472 15.4426 16.2183 15.4129 16.1891C15.3917 16.1675 15.3721 16.1453 15.3526 16.1222C15.2878 16.0477 15.2173 15.9787 15.1475 15.909C15.1326 15.894 15.1177 15.8791 15.1028 15.8642C15.0717 15.8331 15.0406 15.802 15.0094 15.7709C14.9698 15.7313 14.9302 15.6916 14.8906 15.6519C14.8599 15.6212 14.8291 15.5904 14.7983 15.5597C14.7837 15.5451 14.7691 15.5305 14.7546 15.5159C14.666 15.4272 14.5761 15.3417 14.4793 15.262C14.434 15.2237 14.3932 15.1817 14.3519 15.1392C14.2775 15.063 14.1992 14.9953 14.1159 14.9292C14.029 14.8592 13.944 14.7873 13.8598 14.714C13.7482 14.6169 13.6352 14.5217 13.5205 14.4283C13.489 14.4024 13.4578 14.3761 13.4268 14.3496C13.2092 14.1641 12.9802 13.9954 12.7481 13.8284C12.6863 13.7838 12.6252 13.7386 12.5644 13.6927C12.4037 13.5714 12.2397 13.4547 12.075 13.3389C12.04 13.3142 12.0051 13.2895 11.9703 13.2646C11.7751 13.1255 11.5762 12.9929 11.3719 12.8677C11.3081 12.8285 11.2452 12.7884 11.1833 12.7464C11.0986 12.6891 11.012 12.6352 10.925 12.5817C10.8528 12.5373 10.781 12.4922 10.7095 12.4467C10.4608 12.2889 10.2077 12.1379 9.95346 11.9893C9.94096 11.982 9.92846 11.9747 9.91558 11.9672C9.61231 11.7902 9.3046 11.6214 8.9955 11.4549C8.95567 11.4334 8.91588 11.4119 8.8761 11.3903C8.70715 11.2991 8.53723 11.2098 8.36653 11.1219C8.35255 11.1147 8.35255 11.1147 8.33828 11.1073C8.22842 11.0505 8.11787 10.9956 8.00616 10.9426C7.82031 10.8543 7.63638 10.7622 7.45236 10.6702C7.41221 10.6501 7.37205 10.63 7.33186 10.61C7.1151 10.5021 6.89926 10.3933 6.68771 10.2754C6.65156 10.2553 6.61515 10.2358 6.57868 10.2163C6.41597 10.1291 6.25596 10.0381 6.09701 9.94426C6.05275 9.91821 6.00837 9.89236 5.96397 9.86655C5.80067 9.77152 5.63856 9.67522 5.47968 9.57289C5.44877 9.55309 5.41771 9.53355 5.38661 9.51405C4.97835 9.25749 4.58192 8.98016 4.20173 8.68357C4.18723 8.67233 4.17273 8.66109 4.15823 8.64986C4.07042 8.58158 3.98469 8.51133 3.90014 8.43906C3.864 8.40822 3.82719 8.37826 3.79022 8.34842C3.73018 8.29955 3.67288 8.24817 3.6159 8.19578C3.58838 8.17056 3.56059 8.14579 3.53243 8.1213C3.37722 7.98616 3.22479 7.84769 3.08096 7.70044C3.05616 7.67371 3.05616 7.67371 3.02868 7.66156C3.02868 7.65323 3.02868 7.6449 3.02868 7.63632C3.0178 7.63183 3.0178 7.63183 3.00671 7.62725C2.97205 7.60758 2.95213 7.58455 2.9262 7.55431C2.88617 7.50856 2.84518 7.46502 2.80164 7.42261C2.74775 7.36938 2.7 7.31313 2.65279 7.25396C2.62671 7.22198 2.59954 7.19179 2.57144 7.16159C2.49764 7.08055 2.43299 6.99255 2.36713 6.90507C2.34976 6.88218 2.33216 6.85953 2.31435 6.83699C1.89337 6.30214 1.55678 5.6541 1.41416 4.98666C1.41139 4.97401 1.40863 4.96137 1.40578 4.94833C1.33865 4.63949 1.31829 4.34324 1.32587 4.02774C1.32612 4.01521 1.32637 4.00268 1.32662 3.98977C1.33145 3.81832 1.3666 3.65413 1.4047 3.48756C1.40822 3.47208 1.40822 3.47208 1.41181 3.45628C1.50315 3.05912 1.66196 2.69334 1.88086 2.34962C1.88657 2.34064 1.89228 2.33166 1.89817 2.32241C1.96264 2.22182 2.03074 2.12553 2.1079 2.03419C2.11594 2.02457 2.11594 2.02457 2.12414 2.01476C2.26007 1.85221 2.40465 1.69856 2.5541 1.54842C2.5634 1.53906 2.57269 1.52971 2.58227 1.52007C2.74647 1.35629 2.92885 1.21119 3.11908 1.07889C3.14358 1.06168 3.16781 1.04414 3.19202 1.02652C3.32629 0.929293 3.46539 0.842714 3.6089 0.75983C3.61848 0.754267 3.62805 0.748705 3.63792 0.742974C4.06355 0.49691 4.52416 0.320346 4.99323 0.177063C5.00747 0.172689 5.02172 0.168315 5.0364 0.163808C5.58993 -0.00562388 5.58993 -0.00562387 5.80364 0.00278483ZM19.6028 12.0272C19.6191 12.0263 19.6354 12.0254 19.6522 12.0244C19.7198 12.0207 19.7874 12.0176 19.855 12.0146C19.8703 12.0139 19.8855 12.0131 19.9012 12.0124C20.0344 12.009 20.1893 12.0176 20.2965 12.1029C20.3215 12.132 20.3215 12.132 20.3438 12.1644C20.3566 12.1826 20.3566 12.1826 20.3696 12.2012C20.3788 12.2146 20.388 12.2279 20.3974 12.2417C20.5757 12.5004 20.8202 12.7248 21.1386 12.789C21.4905 12.8474 21.8238 12.7166 22.1071 12.5174C22.1173 12.5097 22.1275 12.502 22.1381 12.494C22.1381 12.4899 22.1381 12.4857 22.1381 12.4814C22.1154 12.4773 22.1154 12.4773 22.0923 12.473C21.9667 12.449 21.8521 12.4191 21.735 12.3667C21.7063 12.3539 21.6774 12.3418 21.6485 12.3296C21.4532 12.246 21.2885 12.1425 21.1211 12.0122C21.0227 11.936 20.9305 11.8706 20.8136 11.8253C20.8057 11.8222 20.7977 11.819 20.7895 11.8158C20.4625 11.6917 19.8511 11.7553 19.6028 12.0272Z" fill="var(--fill-0, white)"/>
<path id="Vector_3" d="M0.417498 6.1221C0.436159 6.15699 0.448514 6.18982 0.458295 6.22811C0.511585 6.4252 0.59273 6.60315 0.685041 6.78416C0.705999 6.8255 0.726389 6.86707 0.74663 6.90876C0.930362 7.28152 1.18195 7.62301 1.44629 7.94227C1.47255 7.9741 1.4984 8.00627 1.52433 8.03837C1.5696 8.09369 1.61674 8.14702 1.66485 8.19988C1.68826 8.22568 1.71123 8.25176 1.73403 8.2781C1.84473 8.40483 1.96058 8.52569 2.0797 8.64446C2.10391 8.6686 2.12804 8.69281 2.15217 8.71702C2.22773 8.79265 2.30361 8.86661 2.3852 8.93578C2.40759 8.95622 2.42994 8.97671 2.45221 8.99729C2.50938 9.04944 2.56804 9.09912 2.62825 9.14772C2.65069 9.16582 2.673 9.18408 2.69516 9.20252C2.74751 9.24604 2.80031 9.28851 2.85505 9.32899C2.8643 9.33583 2.87354 9.34268 2.88307 9.34973C2.90151 9.36329 2.92 9.37679 2.93855 9.3902C2.96056 9.40637 2.98197 9.42336 3.00326 9.44048C3.00326 9.44881 3.00326 9.45713 3.00326 9.46571C3.0123 9.46875 3.02134 9.4718 3.03065 9.47493C3.07154 9.49329 3.09878 9.51588 3.13254 9.54536C3.36992 9.74808 3.62931 9.92313 3.88962 10.0948C3.91201 10.1096 3.93429 10.1246 3.95656 10.1396C4.05383 10.2051 4.15229 10.2684 4.25166 10.3306C4.30371 10.3633 4.35516 10.3966 4.40581 10.4314C4.61858 10.5774 4.84782 10.7007 5.07186 10.8284C5.08618 10.8366 5.08618 10.8366 5.10078 10.8449C5.23666 10.9225 5.37452 10.9959 5.51333 11.0681C5.53194 11.0778 5.53194 11.0778 5.55092 11.0877C5.62864 11.1281 5.70641 11.1684 5.78422 11.2087C5.83201 11.2334 5.87975 11.2582 5.92748 11.2831C6.11691 11.3817 6.30699 11.478 6.5003 11.5689C6.53502 11.5854 6.56948 11.6024 6.6039 11.6196C6.82995 11.7316 7.06249 11.827 7.29546 11.9235C7.39186 11.9635 7.48775 12.0045 7.58351 12.046C7.68775 12.091 7.79245 12.1344 7.89806 12.1761C8.0294 12.228 8.15935 12.2828 8.28908 12.3385C8.29825 12.3425 8.30742 12.3464 8.31687 12.3505C8.36151 12.3697 8.40612 12.3889 8.45069 12.4083C8.48456 12.423 8.5185 12.4375 8.55253 12.4518C8.65519 12.4953 8.7537 12.5441 8.85199 12.5967C8.95254 12.6504 9.05521 12.699 9.15844 12.7472C9.45188 12.8845 9.7396 13.0297 10.0196 13.193C10.0569 13.2147 10.0944 13.2361 10.1319 13.2575C10.3272 13.369 10.5195 13.4849 10.7101 13.6042C10.7219 13.6116 10.7337 13.619 10.7459 13.6266C11.101 13.8492 11.447 14.0862 11.7897 14.3273C11.8191 14.348 11.8485 14.3685 11.8779 14.389C11.9799 14.4604 12.0801 14.5333 12.1781 14.6102C12.1997 14.6272 12.2213 14.6441 12.243 14.6609C12.3698 14.76 12.4942 14.8617 12.6169 14.9659C12.6827 15.0217 12.7495 15.0765 12.8165 15.1309C12.8327 15.1441 12.8489 15.1573 12.8651 15.1705C12.8737 15.1774 12.8822 15.1844 12.8911 15.1915C12.9086 15.2058 12.9262 15.2201 12.9438 15.2344C12.9811 15.2647 13.0183 15.295 13.0559 15.3249C13.1385 15.3912 13.2159 15.4621 13.293 15.5346C13.3238 15.5635 13.3552 15.5916 13.3873 15.6191C13.4354 15.6605 13.4792 15.7056 13.5231 15.7515C13.5553 15.7834 13.5903 15.8112 13.6257 15.8395C13.7002 15.8999 13.7678 15.9656 13.8351 16.0339C13.8463 16.0451 13.8576 16.0564 13.8692 16.068C13.9176 16.1168 13.9652 16.1657 14.0099 16.218C14.0562 16.2719 14.1075 16.3195 14.1599 16.3674C14.2219 16.4243 14.2802 16.4818 14.3348 16.5458C14.3646 16.58 14.3969 16.6112 14.4295 16.6427C14.4761 16.6885 14.5196 16.7349 14.5603 16.7862C14.6108 16.8498 14.6653 16.9087 14.7211 16.9676C14.7344 16.9816 14.7344 16.9816 14.7479 16.9958C14.7651 17.0139 14.7822 17.032 14.7993 17.05C14.8787 17.1338 14.9522 17.2203 15.0227 17.3115C15.0663 17.3675 15.1125 17.4203 15.1605 17.4726C15.2526 17.5749 15.336 17.6851 15.4207 17.7936C15.4412 17.8198 15.4618 17.846 15.4824 17.8722C15.5642 17.9763 15.6438 18.0816 15.7208 18.1894C15.7586 18.2422 15.797 18.2945 15.8363 18.3462C15.9366 18.4779 16.029 18.6147 16.1212 18.7521C16.1289 18.7635 16.1365 18.7748 16.1444 18.7865C16.2852 18.9954 16.4209 19.2071 16.5494 19.4238C16.5667 19.4528 16.5844 19.4816 16.602 19.5105C16.7926 19.8246 16.9713 20.1512 17.1314 20.4821C17.1394 20.4986 17.1475 20.5151 17.1556 20.5316C17.2276 20.6777 17.2911 20.8268 17.3526 20.9776C17.387 21.0619 17.4226 21.1455 17.4606 21.2283C17.5661 21.4628 17.6403 21.7081 17.7145 21.9538C17.7202 21.9726 17.7202 21.9726 17.726 21.9917C17.7662 22.124 17.803 22.2559 17.8291 22.3918C17.8312 22.4025 17.8332 22.4132 17.8354 22.4242C17.8506 22.5087 17.855 22.5902 17.8493 22.6761C17.8262 22.6415 17.8153 22.6156 17.8024 22.5766C17.7727 22.4932 17.7331 22.4167 17.6916 22.3386C17.6838 22.3237 17.6759 22.3088 17.6681 22.2938C17.6521 22.2634 17.6362 22.2331 17.6201 22.2028C17.5987 22.162 17.5774 22.1211 17.5562 22.0801C17.4852 21.9428 17.4126 21.8066 17.3366 21.6719C17.3177 21.6383 17.2989 21.6046 17.2801 21.5709C17.1492 21.337 17.0137 21.1118 16.8528 20.8971C16.846 20.888 16.8392 20.8789 16.8322 20.8695C16.69 20.68 16.5403 20.4966 16.3861 20.3167C16.3797 20.3092 16.3733 20.3016 16.3666 20.2939C16.2774 20.1897 16.1866 20.0875 16.0929 19.9873C16.0763 19.9694 16.0599 19.9513 16.0436 19.9331C15.9419 19.8204 15.8351 19.7131 15.7277 19.606C15.6962 19.5745 15.6648 19.543 15.6333 19.5115C15.613 19.4912 15.5927 19.4709 15.5724 19.4506C15.5632 19.4413 15.5539 19.432 15.5444 19.4224C15.4936 19.3719 15.4417 19.3233 15.3873 19.2767C15.3478 19.2424 15.3102 19.2061 15.2722 19.1701C15.2067 19.1084 15.1397 19.0498 15.0694 18.9936C15.0342 18.9647 15.0006 18.9344 14.9671 18.9035C14.8999 18.8418 14.83 18.7842 14.759 18.7269C14.7435 18.7142 14.728 18.7014 14.7125 18.6886C14.6123 18.6064 14.5106 18.5269 14.4066 18.4497C14.3628 18.4172 14.3196 18.3841 14.2764 18.3508C14.1664 18.266 14.0546 18.1839 13.9415 18.1031C13.9236 18.0904 13.9058 18.0776 13.8879 18.0648C13.5663 17.8338 13.2327 17.6182 12.897 17.4083C12.8659 17.3888 12.8349 17.3691 12.8039 17.3494C12.664 17.2611 12.5213 17.1802 12.3754 17.1024C12.3017 17.0629 12.2292 17.0217 12.1567 16.9802C12.0359 16.9112 11.9131 16.8467 11.7894 16.7833C11.7126 16.7439 11.6369 16.7034 11.5623 16.66C11.48 16.6124 11.3949 16.5734 11.308 16.5352C11.2439 16.507 11.1808 16.4774 11.1184 16.4455C11.0032 16.3867 10.8855 16.3334 10.768 16.2795C10.6467 16.2238 10.5258 16.1677 10.4057 16.1096C10.1713 15.9966 9.93301 15.8979 9.6902 15.8046C9.63647 15.7839 9.58318 15.7623 9.53012 15.7399C9.47009 15.7146 9.40958 15.6926 9.34782 15.6719C9.24145 15.6355 9.13694 15.5952 9.03248 15.5536C8.90263 15.5021 8.77234 15.4538 8.64018 15.4086C8.59848 15.3941 8.55693 15.3793 8.51538 15.3644C8.26463 15.2747 8.01246 15.1897 7.75953 15.1063C7.62908 15.0633 7.49934 15.019 7.37064 14.9709C7.30156 14.9451 7.23204 14.9214 7.16175 14.8991C7.05686 14.865 6.95495 14.8256 6.8535 14.7823C6.78644 14.754 6.71871 14.7289 6.64987 14.7052C6.52306 14.6613 6.40032 14.6086 6.27723 14.5553C6.25372 14.5451 6.2302 14.535 6.20669 14.5249C6.04111 14.4533 5.87651 14.3799 5.71348 14.3027C5.67664 14.2852 5.6397 14.268 5.60276 14.2508C5.4469 14.1778 5.29552 14.0985 5.1451 14.0149C5.10921 13.9951 5.07314 13.9757 5.03698 13.9564C4.84332 13.8531 4.65431 13.7429 4.46642 13.6295C4.45279 13.6213 4.43916 13.6131 4.42512 13.6047C3.92593 13.3045 3.43595 12.9679 3.00759 12.5717C2.98102 12.5471 2.95409 12.5231 2.92679 12.4994C2.86753 12.4478 2.80923 12.3952 2.75099 12.3425C2.74001 12.3326 2.72904 12.3227 2.71773 12.3125C2.62363 12.2271 2.53255 12.139 2.4427 12.0491C2.41945 12.0258 2.39609 12.0027 2.37273 11.9796C2.35789 11.9648 2.34306 11.9499 2.32824 11.9351C2.32126 11.9282 2.31429 11.9214 2.3071 11.9143C2.25906 11.8659 2.25906 11.8659 2.25906 11.8378C2.25074 11.8378 2.24241 11.8378 2.23383 11.8378C2.21546 11.8174 2.19801 11.7962 2.18102 11.7747C2.14657 11.7316 2.11208 11.6889 2.07538 11.6477C2.03489 11.602 1.99698 11.5544 1.9591 11.5065C1.93409 11.4756 1.90835 11.4455 1.88226 11.4155C1.80052 11.321 1.72918 11.2207 1.65824 11.1181C1.62652 11.0726 1.59352 11.0281 1.56054 10.9835C1.50225 10.9009 1.50225 10.9009 1.50225 10.8662C1.49393 10.8662 1.4856 10.8662 1.47703 10.8662C1.46267 10.8473 1.46267 10.8473 1.44678 10.8204C1.44081 10.8103 1.43484 10.8003 1.4287 10.79C1.42227 10.779 1.41585 10.768 1.40923 10.7566C1.39914 10.7395 1.39914 10.7395 1.38885 10.7221C1.36768 10.6861 1.34666 10.65 1.32567 10.6139C1.31931 10.603 1.31295 10.5922 1.3064 10.581C1.13343 10.2857 0.981132 9.98207 0.846355 9.66759C0.840549 9.65406 0.834742 9.64053 0.828759 9.62659C0.739992 9.41758 0.669514 9.20433 0.6067 8.98625C0.604039 8.97706 0.601378 8.96786 0.598637 8.95839C0.529637 8.71955 0.467358 8.48356 0.434657 8.23661C0.429191 8.19736 0.422295 8.15848 0.415222 8.11949C0.387845 7.96776 0.373864 7.81434 0.358736 7.66099C0.355884 7.63621 0.352328 7.61149 0.34805 7.58691C0.340889 7.54205 0.337396 7.49741 0.334821 7.4521C0.334291 7.44285 0.33376 7.4336 0.333214 7.42407C0.327701 7.31849 0.327305 7.21295 0.32756 7.10726C0.327627 7.07391 0.32756 7.04056 0.327479 7.00722C0.327359 6.80092 0.341448 6.5992 0.369021 6.39479C0.373433 6.36201 0.377709 6.32921 0.381974 6.2964C0.384741 6.27551 0.387517 6.25462 0.3903 6.23373C0.391575 6.22394 0.39285 6.21415 0.394164 6.20407C0.40343 6.13617 0.40343 6.13617 0.417498 6.1221Z" fill="var(--fill-0, white)"/>
<path id="Vector_4" d="M0.0264921 10.9167C0.065179 10.9361 0.0711119 10.9737 0.0864059 11.0122C0.185723 11.2491 0.332185 11.4653 0.480576 11.6738C0.487322 11.6834 0.494067 11.693 0.501018 11.7029C0.586332 11.8241 0.675477 11.9411 0.769848 12.0554C0.805958 12.0993 0.840494 12.1442 0.874746 12.1895C0.929015 12.2609 0.987023 12.3275 1.04818 12.393C1.05844 12.404 1.05844 12.404 1.06891 12.4152C1.09974 12.4482 1.13058 12.4812 1.16146 12.5142C1.20556 12.5614 1.24877 12.6091 1.29104 12.6579C1.41185 12.7966 1.53905 12.9253 1.6828 13.0404C1.74255 13.0883 1.79775 13.1398 1.85308 13.1926C1.9281 13.264 2.00528 13.3295 2.08746 13.3924C2.12879 13.4241 2.16882 13.4571 2.20878 13.4905C2.4983 13.7324 2.80806 13.9494 3.1294 14.1468C3.14607 14.1571 3.14607 14.1571 3.16307 14.1676C3.52743 14.3922 3.89919 14.5997 4.27959 14.7957C4.30174 14.8071 4.32389 14.8185 4.34603 14.83C4.56003 14.9406 4.77736 15.0408 5.00171 15.1286C5.03426 15.1414 5.06679 15.1543 5.09931 15.1672C5.11155 15.1721 5.11155 15.1721 5.12403 15.177C5.20494 15.2092 5.28521 15.2429 5.3655 15.2766C5.50352 15.3344 5.64196 15.3874 5.7837 15.4352C5.83243 15.452 5.88073 15.47 5.9291 15.4878C6.07454 15.5411 6.22097 15.5888 6.36928 15.6335C6.43558 15.6535 6.50161 15.6743 6.56755 15.6954C6.58664 15.7015 6.60574 15.7076 6.62483 15.7137C6.65259 15.7226 6.68035 15.7314 6.70807 15.7404C6.81866 15.7763 6.9295 15.8072 7.04252 15.8345C7.21505 15.8764 7.38361 15.9298 7.55256 15.9842C7.5861 15.995 7.61966 16.0057 7.65322 16.0164C7.86855 16.0851 8.08353 16.1547 8.29755 16.2274C8.34225 16.2425 8.38705 16.2572 8.43188 16.272C8.90237 16.4266 9.36034 16.6092 9.81772 16.7985C9.91255 16.8377 10.0076 16.8763 10.1031 16.914C10.2274 16.9633 10.349 17.018 10.4704 17.074C10.4838 17.0802 10.4971 17.0863 10.5108 17.0926C10.7077 17.1833 10.9035 17.2758 11.0986 17.3701C11.141 17.3905 11.1834 17.4107 11.2259 17.431C11.3816 17.5053 11.5362 17.581 11.6881 17.6629C11.7222 17.6813 11.7563 17.6995 11.7905 17.7177C12.0302 17.846 12.2648 17.9819 12.4951 18.1264C12.5517 18.1617 12.6086 18.1953 12.6675 18.2265C12.8381 18.3171 12.996 18.4282 13.1558 18.5362C13.223 18.5816 13.2906 18.6265 13.3583 18.6713C13.5383 18.7903 13.7143 18.9132 13.8819 19.0494C13.9375 19.0945 13.9943 19.1377 14.0519 19.1804C14.1301 19.2384 14.2061 19.2987 14.2814 19.3605C14.3354 19.4048 14.3901 19.4482 14.4452 19.4911C14.5721 19.5901 14.6928 19.6933 14.8053 19.8086C14.8331 19.8357 14.8615 19.8593 14.8922 19.883C15.0445 20.0013 15.2013 20.1441 15.3227 20.2946C15.3489 20.3258 15.3761 20.3496 15.4077 20.3751C15.4374 20.4011 15.462 20.431 15.4876 20.4611C15.5247 20.5035 15.5632 20.5445 15.6017 20.5856C15.8488 20.8497 16.0678 21.1304 16.278 21.4246C16.298 21.4526 16.3183 21.4803 16.3387 21.508C16.6812 21.9753 16.9873 22.4935 17.1939 23.0358C17.2157 23.0925 17.2385 23.1489 17.2612 23.2053C17.2731 23.2352 17.2851 23.2651 17.297 23.295C17.3052 23.3154 17.3138 23.3357 17.3224 23.356C17.3321 23.3828 17.3321 23.3828 17.3321 23.4206C17.3238 23.4206 17.3155 23.4206 17.3069 23.4206C17.2919 23.4018 17.2779 23.3821 17.2643 23.3623C17.1721 23.2322 17.0644 23.1147 16.9567 22.9974C16.9316 22.9698 16.9071 22.9418 16.8828 22.9135C16.8448 22.8697 16.8041 22.8291 16.7628 22.7884C16.7415 22.7668 16.7221 22.7447 16.703 22.7211C16.6795 22.6883 16.6795 22.6883 16.651 22.6762C16.651 22.6679 16.651 22.6595 16.651 22.6509C16.6427 22.6509 16.6344 22.6509 16.6258 22.6509C16.6258 22.6426 16.6258 22.6343 16.6258 22.6257C16.6175 22.6257 16.6091 22.6257 16.6006 22.6257C16.6006 22.6174 16.6006 22.6091 16.6006 22.6005C16.5881 22.5963 16.5756 22.5921 16.5627 22.5879C16.5433 22.5681 16.5433 22.5681 16.5225 22.5429C16.4462 22.4531 16.3617 22.3746 16.2726 22.2977C16.1509 22.1916 16.1509 22.1916 16.1094 22.1399C16.069 22.0908 16.0207 22.0533 15.9712 22.0138C15.9295 21.9802 15.889 21.9455 15.8485 21.9105C15.6818 21.7667 15.5103 21.6286 15.3392 21.4901C15.3277 21.4808 15.3162 21.4715 15.3043 21.4619C15.1857 21.3664 15.0655 21.2737 14.9411 21.1859C14.8928 21.1518 14.8455 21.1165 14.7986 21.0805C14.7194 21.0201 14.6392 20.9641 14.5542 20.9123C14.469 20.8602 14.3862 20.8045 14.3033 20.7489C14.1643 20.6557 14.0241 20.5647 13.8824 20.4755C13.8523 20.4564 13.8223 20.4371 13.7923 20.4176C13.6365 20.3168 13.4751 20.2273 13.3125 20.138C13.2496 20.1032 13.1872 20.0676 13.1248 20.032C13.0208 19.973 12.9162 19.9153 12.811 19.8586C12.7982 19.8516 12.7853 19.8447 12.7721 19.8375C12.5863 19.7376 12.3961 19.6463 12.206 19.5549C12.1789 19.5419 12.1517 19.5288 12.1246 19.5157C12.1124 19.5098 12.1124 19.5098 12.0999 19.5038C12.0664 19.4876 12.0339 19.471 12.0021 19.4515C11.9675 19.4312 11.9332 19.418 11.8956 19.4043C11.8102 19.3721 11.7282 19.3346 11.6458 19.2955C11.5497 19.2505 11.4544 19.2075 11.3543 19.1721C11.2934 19.1501 11.2348 19.1244 11.1758 19.0977C10.9496 18.9951 10.7169 18.9113 10.483 18.8279C10.473 18.8243 10.4629 18.8207 10.4525 18.817C10.318 18.769 10.1832 18.7219 10.0482 18.6753C9.99946 18.6585 9.95079 18.6416 9.90213 18.6246C9.57721 18.5114 9.25259 18.4038 8.91949 18.3173C8.89278 18.3103 8.86609 18.3032 8.83941 18.2961C8.66902 18.2508 8.49801 18.2081 8.32693 18.1655C8.2845 18.1549 8.24207 18.1443 8.19964 18.1337C8.17195 18.1268 8.14425 18.1199 8.11655 18.113C8.05341 18.0973 7.99029 18.0815 7.92723 18.0654C7.81261 18.0363 7.6982 18.0092 7.58195 17.9872C7.50422 17.9724 7.42718 17.9568 7.35052 17.9372C7.29967 17.9242 7.25029 17.9141 7.19802 17.9084C7.11266 17.8972 7.03047 17.878 6.94736 17.8556C6.86886 17.8355 6.79047 17.8246 6.71024 17.8145C6.5655 17.7959 6.4243 17.7659 6.28219 17.7332C6.2413 17.7237 6.20037 17.7145 6.15944 17.7053C6.13294 17.6992 6.10645 17.6932 6.07996 17.6872C6.06796 17.6845 6.05597 17.6817 6.0436 17.6789C5.97652 17.6634 5.91074 17.6457 5.84511 17.6248C5.81409 17.616 5.78338 17.6103 5.75157 17.6052C5.65683 17.589 5.56529 17.5614 5.47314 17.5346C5.46355 17.5318 5.45396 17.529 5.44408 17.5262C5.37459 17.5061 5.3052 17.4857 5.23585 17.4652C5.2224 17.4612 5.2224 17.4612 5.20868 17.4572C4.94412 17.3788 4.68528 17.2888 4.42858 17.1876C4.41421 17.182 4.41421 17.182 4.39954 17.1762C3.91798 16.9866 3.44551 16.7725 3.01073 16.4896C2.97402 16.4658 2.93712 16.4424 2.90019 16.4189C2.5762 16.2132 2.26491 15.9966 1.98158 15.7366C1.93619 15.6962 1.89097 15.6562 1.84283 15.6191C1.8345 15.6121 1.82618 15.605 1.8176 15.5978C1.8176 15.5895 1.8176 15.5812 1.8176 15.5726C1.81011 15.5692 1.80262 15.5658 1.7949 15.5623C1.76702 15.5473 1.7489 15.5322 1.7267 15.5098C1.71934 15.5024 1.71199 15.495 1.70441 15.4874C1.69676 15.4796 1.6891 15.4718 1.68122 15.4637C1.66932 15.4517 1.66932 15.4517 1.65719 15.4394C1.61103 15.3925 1.56608 15.3449 1.52355 15.2945C1.49729 15.264 1.46979 15.2346 1.44235 15.2051C1.37646 15.1327 1.31634 15.0567 1.25667 14.9792C1.2362 14.9528 1.21546 14.9267 1.19466 14.9005C0.469664 13.9866 0.0458749 12.8085 0.00126519 11.5476C0.00107414 11.5356 0.000883091 11.5236 0.000686252 11.5112C-0.00118418 11.3708 0.000743253 11.2306 0.00678357 11.0902C0.00727745 11.0786 0.00777134 11.0669 0.00828019 11.0549C0.00881065 11.0441 0.00934112 11.0333 0.00988766 11.0222C0.01035 11.0128 0.0108124 11.0033 0.0112888 10.9936C0.0139032 10.967 0.0193298 10.9425 0.0264921 10.9167Z" fill="var(--fill-0, white)"/>
<path id="Vector_5" d="M26.0864 8.78434C26.0947 8.78434 26.103 8.78434 26.1116 8.78434C26.1503 8.87612 26.1809 8.9689 26.2093 9.06429C26.2703 9.26505 26.3385 9.46328 26.4069 9.66158C26.5119 9.96622 26.5119 9.96622 26.5404 10.1092C27.0108 10.1092 27.4812 10.1092 27.9658 10.1092C27.9374 10.1659 27.9374 10.1659 27.8987 10.1924C27.886 10.2012 27.886 10.2012 27.873 10.2102C27.8638 10.2164 27.8546 10.2226 27.8451 10.229C27.8256 10.2426 27.806 10.2561 27.7864 10.2697C27.7714 10.28 27.7714 10.28 27.756 10.2905C27.7098 10.3223 27.6639 10.3545 27.6181 10.3868C27.6092 10.393 27.6004 10.3992 27.5913 10.4057C27.5303 10.4488 27.4703 10.4931 27.4108 10.5382C27.2634 10.6497 27.1115 10.7549 26.9589 10.8591C26.9197 10.8859 26.8809 10.913 26.8432 10.9419C26.8509 11.0124 26.8686 11.075 26.8917 11.1419C26.897 11.1579 26.897 11.1579 26.9025 11.1742C26.9102 11.197 26.918 11.2197 26.9257 11.2425C26.9461 11.3023 26.9662 11.3622 26.9864 11.4221C26.9903 11.434 26.9943 11.4459 26.9985 11.4581C27.0319 11.5579 27.0633 11.6582 27.0939 11.7589C27.1305 11.8795 27.1703 11.9982 27.2156 12.1159C27.2381 12.1751 27.2533 12.2288 27.2594 12.292C27.221 12.2743 27.1904 12.2533 27.1577 12.2265C27.1177 12.1949 27.0774 12.1664 27.0339 12.1398C26.9348 12.0779 26.8423 12.0068 26.7487 11.9371C26.5963 11.8235 26.4432 11.7108 26.287 11.6023C26.2639 11.586 26.241 11.5694 26.2182 11.5527C26.2048 11.5432 26.1915 11.5337 26.1778 11.5239C26.1664 11.5156 26.155 11.5073 26.1433 11.4988C26.1123 11.4806 26.1123 11.4806 26.0814 11.4938C26.0491 11.5094 26.0231 11.5264 25.9947 11.5482C25.9846 11.5559 25.9746 11.5636 25.9642 11.5715C25.9535 11.5797 25.9428 11.588 25.9318 11.5965C25.8525 11.6568 25.773 11.7166 25.6914 11.7739C25.6829 11.7798 25.6744 11.7858 25.6657 11.7919C25.6143 11.8279 25.5627 11.8636 25.5111 11.8993C25.3833 11.9878 25.2568 12.0771 25.133 12.1712C25.0777 12.2131 25.021 12.2529 24.9638 12.292C24.9457 12.2441 24.9571 12.2171 24.9756 12.1705C25.0067 12.0885 25.033 12.0054 25.0584 11.9213C25.1035 11.7728 25.1508 11.625 25.1987 11.4774C25.2021 11.4668 25.2055 11.4562 25.2091 11.4453C25.2505 11.3173 25.2933 11.19 25.3386 11.0633C25.3529 11.023 25.3666 10.9826 25.38 10.9419C25.3672 10.9378 25.3672 10.9378 25.3542 10.9335C25.3057 10.9116 25.2674 10.8814 25.2255 10.8489C25.1547 10.7948 25.0833 10.7421 25.0103 10.6912C24.9327 10.6368 24.8561 10.5812 24.7801 10.5248C24.6905 10.4583 24.5995 10.3942 24.5073 10.3314C24.4581 10.2978 24.4093 10.2636 24.3607 10.229C24.3534 10.2239 24.346 10.2187 24.3385 10.2134C24.2694 10.1641 24.2694 10.1641 24.2448 10.1344C24.2448 10.1261 24.2448 10.1178 24.2448 10.1092C24.711 10.105 25.1772 10.1008 25.6575 10.0966C25.7033 9.95915 25.7491 9.82175 25.7963 9.68018C25.8111 9.6362 25.8259 9.59222 25.8412 9.54691C25.8813 9.42663 25.919 9.30562 25.9566 9.18453C25.9982 9.05057 26.041 8.91709 26.0864 8.78434Z" fill="var(--fill-0, white)"/>
<path id="Vector_6" d="M21.6083 6.13466C21.6208 6.13882 21.6333 6.14298 21.6462 6.14727C21.6583 6.17665 21.6583 6.17665 21.6692 6.21633C21.6756 6.2387 21.6756 6.2387 21.6822 6.26153C21.6856 6.27365 21.6856 6.27365 21.6892 6.28601C21.7022 6.33002 21.7169 6.37344 21.7316 6.41692C21.7378 6.43567 21.7441 6.45441 21.7504 6.47316C21.7536 6.48266 21.7568 6.49217 21.7601 6.50196C21.8205 6.68183 21.8797 6.86199 21.9363 7.04311C21.9416 7.0601 21.947 7.07709 21.9523 7.09407C21.9708 7.15299 21.9872 7.20958 21.9993 7.27023C22.4031 7.27023 22.8069 7.27023 23.2229 7.27023C23.1959 7.32406 23.169 7.345 23.1212 7.37747C23.1095 7.38559 23.1095 7.38559 23.0976 7.39386C23.0809 7.40553 23.0641 7.41715 23.0473 7.42874C23.0028 7.45944 22.9587 7.49063 22.9146 7.52178C22.901 7.53134 22.901 7.53134 22.8872 7.54108C22.8283 7.58264 22.77 7.62487 22.712 7.66767C22.644 7.71789 22.5754 7.76719 22.5063 7.81593C22.4972 7.82231 22.4882 7.8287 22.4789 7.83527C22.4402 7.86261 22.4013 7.88959 22.3618 7.91588C22.3504 7.92349 22.339 7.93111 22.3273 7.93895C22.3177 7.94519 22.308 7.95144 22.2981 7.95787C22.2716 7.98149 22.2663 7.9918 22.2642 8.02727C22.2726 8.06617 22.2726 8.06617 22.2879 8.11007C22.2907 8.11878 22.2936 8.12748 22.2965 8.13645C22.3066 8.1674 22.317 8.19827 22.3273 8.22915C22.3354 8.25351 22.3434 8.27788 22.3515 8.30224C22.3909 8.42097 22.4306 8.53957 22.4706 8.65809C22.4844 8.699 22.4981 8.73993 22.5118 8.78086C22.5186 8.80085 22.5253 8.82083 22.5321 8.84081C22.5982 9.03603 22.5982 9.03603 22.6174 9.1376C22.5705 9.11479 22.5275 9.08765 22.4842 9.05874C22.476 9.05327 22.4677 9.04779 22.4593 9.04215C22.3814 8.98962 22.306 8.93377 22.2307 8.87759C22.1598 8.8249 22.0876 8.77455 22.0143 8.72517C21.9335 8.67069 21.8555 8.61413 21.7802 8.55217C21.7332 8.51383 21.6887 8.48149 21.6336 8.45626C21.5735 8.46612 21.5246 8.51412 21.4775 8.55089C21.4111 8.60173 21.3441 8.65038 21.2741 8.69599C21.1987 8.74522 21.1267 8.7978 21.0551 8.85226C20.9839 8.90625 20.9113 8.958 20.8381 9.00911C20.7854 9.04594 20.734 9.08392 20.6833 9.12354C20.6623 9.1376 20.6623 9.1376 20.6371 9.1376C20.6454 9.07959 20.6597 9.02594 20.6774 8.97013C20.6816 8.95702 20.6816 8.95702 20.6858 8.94366C20.7153 8.85097 20.7462 8.75871 20.7772 8.66649C20.824 8.52701 20.8707 8.38747 20.9154 8.24729C20.9187 8.23697 20.922 8.22666 20.9254 8.21603C20.9491 8.14105 20.97 8.06541 20.9903 7.98942C20.971 7.97588 20.971 7.97588 20.9513 7.96206C20.7847 7.84475 20.619 7.72613 20.4553 7.60471C20.3577 7.5324 20.2594 7.4628 20.1578 7.3964C20.1335 7.38051 20.1093 7.36448 20.0853 7.3483C20.0697 7.33802 20.0697 7.33802 20.0539 7.32755C20.0466 7.32112 20.0392 7.3147 20.0317 7.30808C20.0317 7.29559 20.0317 7.28309 20.0317 7.27023C20.4312 7.27023 20.8308 7.27023 21.2425 7.27023C21.2731 7.17893 21.2731 7.17893 21.3008 7.08703C21.3658 6.86175 21.4388 6.63969 21.5138 6.41761C21.5456 6.32339 21.577 6.22901 21.6083 6.13466Z" fill="var(--fill-0, white)"/>
<path id="Vector_7" d="M16.4618 6.33655C16.4701 6.33655 16.4785 6.33655 16.487 6.33655C16.5147 6.4195 16.5423 6.50245 16.57 6.5854C16.5751 6.60085 16.5751 6.60085 16.5804 6.61662C16.5876 6.63837 16.5949 6.66012 16.6021 6.68188C16.624 6.74762 16.646 6.81334 16.668 6.87905C16.673 6.8941 16.678 6.90916 16.6832 6.92467C16.693 6.95401 16.7029 6.98335 16.7127 7.01268C16.7454 7.11039 16.7774 7.20809 16.8024 7.30809C17.1479 7.31225 17.4933 7.31642 17.8493 7.32071C17.8493 7.32903 17.8493 7.33736 17.8493 7.34594C17.8259 7.36204 17.8019 7.37706 17.7776 7.39168C17.6971 7.44154 17.6221 7.49692 17.5474 7.55492C17.4174 7.65549 17.2834 7.7494 17.1479 7.84238C17.1081 7.86991 17.0687 7.89803 17.0294 7.92634C17.0647 8.16899 17.1636 8.40534 17.2436 8.63612C17.2665 8.70241 17.2894 8.7687 17.3119 8.83514C17.3179 8.85263 17.3179 8.85263 17.3239 8.87048C17.3321 8.89788 17.3321 8.89788 17.3321 8.92312C17.2845 8.90117 17.2416 8.87258 17.1981 8.84347C17.1899 8.83796 17.1817 8.83245 17.1732 8.82678C17.0788 8.76315 16.9868 8.69616 16.8948 8.62907C16.8651 8.60741 16.8353 8.58585 16.8054 8.56431C16.7907 8.55368 16.7907 8.55368 16.7757 8.54284C16.7564 8.52892 16.7371 8.51501 16.7177 8.50113C16.6765 8.4715 16.6355 8.44172 16.5955 8.41049C16.5834 8.40113 16.5713 8.39178 16.5588 8.38215C16.5487 8.37411 16.5386 8.36608 16.5282 8.3578C16.4911 8.3382 16.4764 8.3442 16.4366 8.35533C16.4105 8.36888 16.4105 8.36888 16.386 8.38668C16.3765 8.39319 16.3671 8.39971 16.3574 8.40642C16.3474 8.4135 16.3373 8.42059 16.327 8.42788C16.3165 8.43523 16.3059 8.44257 16.295 8.45014C16.1954 8.51975 16.0969 8.59091 15.9986 8.6625C15.9687 8.68424 15.9387 8.70588 15.9087 8.7275C15.8987 8.73477 15.8886 8.74204 15.8782 8.74953C15.8591 8.76328 15.84 8.77704 15.8209 8.79078C15.8121 8.79709 15.8034 8.8034 15.7944 8.80991C15.7859 8.81602 15.7774 8.82213 15.7687 8.82843C15.7329 8.85472 15.6978 8.88192 15.6628 8.90925C15.6419 8.92312 15.6419 8.92312 15.6167 8.92312C15.6257 8.87248 15.6397 8.82477 15.6555 8.77585C15.6594 8.76382 15.6594 8.76382 15.6633 8.75156C15.6716 8.72567 15.68 8.69979 15.6885 8.67392C15.6913 8.66511 15.6942 8.6563 15.6971 8.64722C15.7323 8.53847 15.7682 8.4301 15.807 8.32257C15.8303 8.25786 15.8508 8.19256 15.8705 8.12669C15.8835 8.08429 15.8979 8.04252 15.9129 8.00081C15.9216 7.97284 15.9216 7.97284 15.9194 7.92634C15.8972 7.90505 15.8972 7.90505 15.8666 7.88691C15.8153 7.8531 15.7666 7.81775 15.7184 7.77966C15.6402 7.71849 15.5587 7.66268 15.4766 7.607C15.4106 7.56229 15.3457 7.51667 15.2817 7.46931C15.2385 7.43781 15.1943 7.40789 15.15 7.37803C15.1248 7.35856 15.1248 7.35856 15.0996 7.32071C15.4409 7.31654 15.7822 7.31238 16.1339 7.30809C16.2076 7.10854 16.2076 7.10854 16.2718 6.9067C16.3074 6.78819 16.3463 6.67163 16.3899 6.55583C16.417 6.48354 16.4405 6.41077 16.4618 6.33655Z" fill="var(--fill-0, white)"/>
<path id="Vector_8" d="M26.54 10.1092C27.0103 10.1092 27.4807 10.1092 27.9653 10.1092C27.9369 10.166 27.9369 10.166 27.8896 10.1849C27.8896 10.1682 27.8896 10.1516 27.8896 10.1344C27.4484 10.1344 27.0072 10.1344 26.5526 10.1344C26.5484 10.1261 26.5443 10.1178 26.54 10.1092Z" fill="var(--fill-0, white)"/>
<path id="Vector_9" d="M21.9996 7.26993C22.4034 7.26993 22.8071 7.26993 23.2231 7.26993C23.2148 7.28659 23.2065 7.30324 23.1979 7.3204C23.1854 7.31416 23.1854 7.31416 23.1727 7.30779C23.1357 7.30623 23.0991 7.30544 23.0621 7.30519C23.0449 7.30501 23.0449 7.30501 23.0274 7.30482C22.9895 7.30442 22.9515 7.3041 22.9136 7.30379C22.8873 7.30353 22.8611 7.30327 22.8348 7.303C22.7656 7.3023 22.6964 7.30168 22.6271 7.30107C22.5565 7.30044 22.4859 7.29973 22.4154 7.29904C22.2768 7.29768 22.1382 7.2964 21.9996 7.29517C21.9996 7.28684 21.9996 7.27851 21.9996 7.26993Z" fill="var(--fill-0, white)"/>
<path id="Vector_10" d="M26.7926 10.1092C27.1797 10.1092 27.5668 10.1092 27.9656 10.1092C27.9573 10.1258 27.949 10.1425 27.9404 10.1597C27.9279 10.1597 27.9154 10.1597 27.9026 10.1597C27.9067 10.1513 27.9109 10.143 27.9152 10.1344C27.5447 10.1303 27.1743 10.1261 26.7926 10.1218C26.7926 10.1176 26.7926 10.1135 26.7926 10.1092Z" fill="var(--fill-0, white)"/>
<path id="Vector_11" d="M22.2261 7.26993C22.555 7.26993 22.8838 7.26993 23.2226 7.26993C23.2143 7.28659 23.2059 7.30324 23.1974 7.3204C23.1849 7.31416 23.1849 7.31416 23.1721 7.30779C23.1721 7.30362 23.1721 7.29946 23.1721 7.29517C22.86 7.291 22.5478 7.28684 22.2261 7.28255C22.2261 7.27839 22.2261 7.27422 22.2261 7.26993Z" fill="var(--fill-0, white)"/>
<path id="Vector_12" d="M17.2443 8.67084C17.2726 8.71329 17.287 8.7561 17.3026 8.80411C17.3055 8.81276 17.3084 8.8214 17.3114 8.83031C17.3326 8.89458 17.3326 8.89458 17.3326 8.92319C17.2962 8.90687 17.2711 8.88963 17.2443 8.8601C17.2513 8.84332 17.2513 8.84332 17.2585 8.82619C17.2712 8.77803 17.265 8.76496 17.2443 8.72131C17.2443 8.70466 17.2443 8.688 17.2443 8.67084Z" fill="var(--fill-0, white)"/>
<path id="Vector_13" d="M17.8113 22.3735C17.8154 22.3735 17.8196 22.3735 17.8239 22.3735C17.8468 22.4755 17.8521 22.572 17.8491 22.6763C17.8053 22.6106 17.8095 22.5403 17.8105 22.4634C17.8105 22.4547 17.8106 22.4461 17.8106 22.4371C17.8108 22.4159 17.811 22.3947 17.8113 22.3735Z" fill="var(--fill-0, white)"/>
<path id="Vector_14" d="M24.9762 12.1783C24.9803 12.1908 24.9845 12.2033 24.9888 12.2162C25.0096 12.2162 25.0304 12.2162 25.0518 12.2162C24.9935 12.2777 24.9935 12.2777 24.9509 12.2919C24.9571 12.2525 24.9635 12.2162 24.9762 12.1783Z" fill="var(--fill-0, white)"/>
<path id="Vector_15" d="M22.5162 8.83482C22.5381 8.86769 22.5501 8.89265 22.5627 8.92945C22.5661 8.93921 22.5695 8.94896 22.5731 8.95902C22.5792 8.98623 22.5792 8.98623 22.5666 9.02408C22.5414 8.99884 22.5414 8.99884 22.5398 8.9531C22.5403 8.93905 22.5409 8.925 22.5414 8.91052C22.5331 8.91052 22.5248 8.91052 22.5162 8.91052C22.5162 8.88554 22.5162 8.86056 22.5162 8.83482Z" fill="var(--fill-0, white)"/>
<path id="Vector_16" d="M15.6423 8.83482C15.6506 8.84731 15.659 8.8598 15.6675 8.87267C15.6759 8.87683 15.6842 8.881 15.6928 8.88529C15.6455 8.92314 15.6455 8.92314 15.6171 8.92314C15.6281 8.86321 15.6281 8.86321 15.6423 8.83482Z" fill="var(--fill-0, white)"/>
<path id="Vector_17" d="M6.35816 18.4113C6.36232 18.4113 6.36648 18.4113 6.37077 18.4113C6.38316 18.4625 6.38441 18.5102 6.38338 18.5627C6.37922 18.5627 6.37506 18.5627 6.37077 18.5627C6.35838 18.5116 6.35713 18.4638 6.35816 18.4113Z" fill="var(--fill-0, white)"/>
<path id="Vector_18" d="M6.34531 18.3483C6.35793 18.3988 6.35793 18.3988 6.35793 18.3988L6.34531 18.3483Z" fill="var(--fill-0, white)"/>
<path id="Vector_19" d="M6.33347 18.2473C6.34608 18.2978 6.34608 18.2978 6.34608 18.2978L6.33347 18.2473Z" fill="var(--fill-0, white)"/>
</g>
</svg>
