<svg preserveAspectRatio="none" width="100%" height="100%" overflow="visible" style="display: block;" viewBox="0 0 59.5833 53.499" fill="none" xmlns="http://www.w3.org/2000/svg">
<g id="Symbol-AmeriTech-Colored">
<path id="Vector" d="M35.4433 5.71881C35.4731 5.71878 35.4731 5.71878 35.5034 5.71875C35.5591 5.71876 35.6149 5.71896 35.6706 5.71926C35.6868 5.71928 35.703 5.71931 35.7197 5.71934C35.8107 5.7202 35.8961 5.73014 35.9857 5.74587C36.0221 5.74733 36.0587 5.74783 36.0952 5.74729C36.1157 5.74709 36.1361 5.7469 36.1572 5.7467C36.1791 5.74642 36.2009 5.74615 36.2234 5.74587C36.8794 5.74221 37.5335 5.79862 38.1848 5.87401C38.2097 5.87688 38.2346 5.87974 38.2603 5.8827C38.6456 5.92743 39.0289 5.98117 39.4117 6.04345C39.4343 6.04708 39.4569 6.05071 39.4802 6.05446C39.733 6.09542 39.9815 6.14453 40.23 6.20644C40.3553 6.23712 40.4794 6.25993 40.6071 6.27758C40.9022 6.31981 41.1894 6.39996 41.4774 6.47546C41.5245 6.4878 41.5716 6.50007 41.6188 6.51232C42.6587 6.78264 42.6587 6.78264 43.1308 6.96707C43.246 7.012 43.3607 7.04875 43.4798 7.08142C43.7833 7.16936 44.0744 7.28942 44.3665 7.4089C44.3827 7.41552 44.399 7.42214 44.4157 7.42896C45.0058 7.66995 45.5855 7.92787 46.1589 8.20659C46.2893 8.26998 46.4198 8.33285 46.5516 8.39328C47.0023 8.60047 47.4249 8.85878 47.8467 9.11838C47.9292 9.16915 48.0119 9.21963 48.0946 9.27006C48.1729 9.31781 48.2511 9.36572 48.3292 9.41365C48.3423 9.4217 48.3555 9.42974 48.369 9.43803C48.4299 9.47533 48.4906 9.51272 48.5514 9.55025C48.6036 9.58252 48.656 9.6146 48.7085 9.64653C49.3645 10.0482 49.9768 10.5243 50.5715 11.0108C50.6373 11.0647 50.7037 11.1178 50.7703 11.1707C50.8946 11.2699 51.0157 11.3728 51.1367 11.476C51.1764 11.5099 51.2163 11.5437 51.2561 11.5775C51.4076 11.7063 51.5562 11.8374 51.7017 11.9727C51.7516 12.0184 51.8019 12.0631 51.853 12.1075C52.1483 12.3657 52.4263 12.6426 52.7032 12.9203C52.7608 12.9781 52.8185 13.0357 52.8763 13.0933C52.9135 13.1306 52.9508 13.1679 52.988 13.2052C53.005 13.2221 53.022 13.2391 53.0394 13.2565C53.1313 13.3488 53.2195 13.4431 53.3043 13.5419C53.3624 13.6091 53.4238 13.6732 53.4847 13.7378C53.5919 13.8523 53.6932 13.9697 53.7912 14.0922C53.8426 14.1547 53.8965 14.2139 53.9516 14.2732C54.0469 14.3769 54.1346 14.4844 54.2207 14.5957C54.2874 14.6818 54.3553 14.7667 54.4245 14.8508C55.2224 15.8213 55.9091 16.8878 56.5279 17.9794C56.5418 18.0038 56.5557 18.0282 56.5701 18.0533C57.1009 18.9852 57.5633 19.9538 57.9539 20.9522C57.975 21.0057 57.9964 21.0591 58.0181 21.1124C58.1134 21.3464 58.1984 21.5833 58.2801 21.8223C58.2873 21.8436 58.2946 21.8648 58.3021 21.8867C58.4829 22.4177 58.638 22.9559 58.7875 23.4965C58.8037 23.555 58.82 23.6135 58.8364 23.6721C58.9558 24.0999 59.0485 24.5317 59.1341 24.9676C59.139 24.9926 59.1439 25.0176 59.149 25.0434C59.2022 25.3155 59.2504 25.5864 59.2836 25.8617C59.2902 25.9109 59.297 25.96 59.3039 26.0092C59.3212 26.1328 59.3381 26.2564 59.3549 26.38C59.3682 26.4766 59.382 26.5731 59.3961 26.6696C59.4587 27.0986 59.5028 27.5263 59.5298 27.959C59.5312 27.9819 59.5327 28.0048 59.5342 28.0283C59.5478 28.249 59.561 28.4688 59.5556 28.6899C59.5556 28.7574 59.5556 28.7574 59.568 28.8331C59.5875 28.979 59.5829 29.1263 59.5826 29.2733C59.5827 29.3059 59.5827 29.3384 59.5827 29.371C59.5827 29.4389 59.5827 29.5069 59.5826 29.5748C59.5825 29.6616 59.5825 29.7484 59.5827 29.8351C59.5828 29.9022 59.5827 29.9694 59.5827 30.0365C59.5827 30.0685 59.5827 30.1005 59.5827 30.1324C59.5828 30.1772 59.5827 30.222 59.5826 30.2668C59.5825 30.2922 59.5825 30.3176 59.5825 30.3438C59.5794 30.423 59.5687 30.4991 59.5568 30.5774C59.5542 30.6111 59.5521 30.6449 59.5508 30.6787C59.55 30.6969 59.5493 30.7151 59.5485 30.7338C59.5478 30.753 59.547 30.7721 59.5463 30.7919C59.5445 30.8336 59.5427 30.8754 59.5409 30.9171C59.5382 30.982 59.5355 31.047 59.5329 31.1119C59.5241 31.3332 59.5135 31.5499 59.4755 31.7685C59.4611 31.8599 59.4601 31.9502 59.4586 32.0426C59.4493 32.3311 59.3985 32.6132 59.3515 32.8974C59.3249 33.0601 59.3036 33.2233 59.2821 33.3867C59.2536 33.6009 59.2188 33.8115 59.1703 34.022C59.1485 34.1192 59.1315 34.2171 59.1145 34.3153C58.9134 35.4707 58.5543 36.5929 58.1648 37.6968C58.1462 37.7497 58.1279 37.8028 58.1096 37.8559C58.0249 38.1018 57.9284 38.342 57.8289 38.5822C57.8135 38.6196 57.7981 38.657 57.7827 38.6943C57.7366 38.8061 57.6903 38.9177 57.6438 39.0293C57.6357 39.0488 57.6276 39.0682 57.6193 39.0883C57.595 39.1466 57.5707 39.2048 57.5463 39.2631C57.539 39.2806 57.5318 39.2981 57.5243 39.3161C57.4665 39.4537 57.4025 39.5874 57.3339 39.7199C57.2901 39.8052 57.2475 39.8909 57.2051 39.9768C57.0785 40.2328 56.9511 40.4877 56.8101 40.7361C56.7534 40.8362 56.7015 40.9375 56.6517 41.0412C56.4341 41.4888 56.1601 41.9152 55.8902 42.3326C55.8662 42.37 55.8421 42.4075 55.8181 42.445C55.2564 43.3174 54.6371 44.1496 53.963 44.9384C53.9307 44.9763 53.8986 45.0144 53.8665 45.0524C53.732 45.2116 53.5933 45.3659 53.4504 45.5176C53.3839 45.5881 53.3184 45.6589 53.2555 45.7327C53.1738 45.8279 53.084 45.9149 52.9943 46.0025C52.946 46.0507 52.9011 46.1011 52.8567 46.1529C52.7736 46.2483 52.6861 46.3383 52.5966 46.4276C52.5806 46.4436 52.5646 46.4597 52.548 46.4762C52.5144 46.5099 52.4807 46.5435 52.4471 46.5771C52.3959 46.6281 52.345 46.6793 52.294 46.7304C52.2611 46.7633 52.2281 46.7962 52.1952 46.8291C52.1727 46.8517 52.1727 46.8517 52.1498 46.8747C52.0616 46.9624 51.9711 47.0461 51.8769 47.1272C51.8174 47.1787 51.7602 47.2324 51.7026 47.2861C51.621 47.3617 51.5384 47.434 51.4507 47.5025C51.3613 47.5724 51.2784 47.6469 51.1959 47.7246C50.9205 47.9826 50.6188 48.2109 50.3201 48.441C50.2825 48.4701 50.2448 48.4992 50.2072 48.5283C49.9595 48.7204 49.7087 48.9048 49.4487 49.0799C49.3731 49.1309 49.2991 49.1837 49.2259 49.2381C49.0793 49.346 48.926 49.4433 48.7726 49.5412C48.7123 49.5796 48.6522 49.6182 48.5921 49.6568C48.3709 49.7985 48.1492 49.939 47.9227 50.0722C47.8867 50.0933 47.8508 50.1146 47.8149 50.1358C47.165 50.5206 46.4981 50.8594 45.8181 51.1872C45.7766 51.2072 45.7352 51.2272 45.6937 51.2473C45.4357 51.3724 45.1763 51.4916 44.9111 51.6008C44.8599 51.6218 44.8088 51.6431 44.7577 51.6644C44.472 51.7831 44.1842 51.8966 43.8897 51.9918C43.7309 52.0438 43.5728 52.0975 43.4152 52.1528C42.8312 52.3571 42.2423 52.5385 41.6463 52.7046C41.5943 52.7191 41.5424 52.7337 41.4905 52.7484C40.8678 52.9224 40.2272 53.0253 39.5915 53.1399C39.519 53.1531 39.4466 53.1664 39.3742 53.1798C39.15 53.2212 38.9262 53.2609 38.7 53.2904C38.6582 53.2959 38.6582 53.2959 38.6155 53.3015C38.2106 53.3531 37.8042 53.3911 37.3976 53.427C37.3679 53.4297 37.3381 53.4323 37.3074 53.4351C36.5819 53.4974 35.848 53.5054 35.1202 53.4954C35.1016 53.4951 35.0831 53.4949 35.0639 53.4946C34.9336 53.4928 34.8032 53.4906 34.6729 53.4881C34.6294 53.4873 34.586 53.4865 34.5425 53.4858C34.2859 53.4814 34.0337 53.4667 33.7788 53.4373C33.6718 53.4251 33.5653 53.4199 33.4577 53.4171C33.1944 53.4072 32.9337 53.3769 32.6721 53.3454C32.6167 53.3388 32.5613 53.3325 32.5059 53.3263C32.2516 53.2978 31.9988 53.2612 31.7459 53.2225C31.6769 53.212 31.608 53.2017 31.5391 53.1914C31.3296 53.1597 31.1222 53.1258 30.9155 53.0791C30.8278 53.0602 30.7398 53.0447 30.6514 53.0295C30.4438 52.9936 30.2376 52.9521 30.0316 52.9074C30.0121 52.9031 29.9926 52.8989 29.9725 52.8945C29.4351 52.7769 28.907 52.6246 28.3791 52.4702C28.3529 52.4626 28.3529 52.4626 28.3263 52.4548C28.0557 52.376 27.7864 52.2959 27.5265 52.1859C27.4367 52.1486 27.3466 52.1194 27.2528 52.0933C26.9787 52.0166 26.717 51.9119 26.4533 51.8053C26.4285 51.7953 26.4037 51.7854 26.3782 51.7751C25.4707 51.4095 24.5822 51.001 23.7279 50.5233C23.6588 50.4849 23.5895 50.447 23.5201 50.4092C22.8269 50.0295 22.1459 49.6184 21.5045 49.1562C21.4515 49.1183 21.398 49.0811 21.3445 49.0441C20.9797 48.7914 20.6306 48.523 20.2875 48.2418C20.2369 48.2005 20.1859 48.1597 20.1349 48.119C20.0043 48.0148 19.8748 47.9094 19.7453 47.8039C19.6927 47.7611 19.64 47.7184 19.5871 47.6759C19.3907 47.5175 19.2039 47.3499 19.0275 47.1693C18.9658 47.1066 18.9037 47.0515 18.8331 46.999C18.6384 46.8448 18.4688 46.6622 18.2944 46.4859C18.2581 46.4493 18.2217 46.4126 18.1852 46.376C18.1186 46.309 18.052 46.2419 17.9855 46.1747C17.8954 46.0837 17.805 45.9931 17.7139 45.9031C17.4578 45.6492 17.4578 45.6492 17.3508 45.5227C17.3096 45.4749 17.2667 45.4288 17.2235 45.3827C17.1088 45.2599 17.0032 45.1327 16.9007 44.9997C16.8232 44.8997 16.7409 44.8056 16.6555 44.7121C16.465 44.5019 16.2958 44.2768 16.1267 44.0494C16.0505 43.947 15.9732 43.8456 15.8955 43.7443C15.7343 43.5342 15.578 43.3216 15.4272 43.1039C15.4003 43.0651 15.3731 43.0264 15.3459 42.9878C15.0566 42.5751 14.7965 42.146 14.5412 41.7117C14.4882 41.6215 14.4348 41.5315 14.381 41.4418C14.2156 41.1654 14.0591 40.8849 13.9079 40.6005C13.8844 40.5563 13.8609 40.5121 13.8372 40.468C13.1387 39.1649 12.6046 37.7613 12.1657 36.3511C12.1409 36.272 12.1156 36.193 12.0902 36.1141C11.9547 35.6852 11.8576 35.2514 11.7648 34.8117C11.7348 34.6701 11.702 34.5295 11.6672 34.389C11.628 34.229 11.5948 34.0683 11.5647 33.9064C11.5608 33.8856 11.5569 33.8648 11.5528 33.8435C11.5329 33.7325 11.5221 33.629 11.5263 33.5162C11.5896 33.5796 11.5866 33.6298 11.6003 33.7184C11.7448 34.5846 11.9829 35.4387 12.255 36.2728C12.2654 36.3048 12.2757 36.3369 12.286 36.369C12.4311 36.8209 12.5901 37.2634 12.7715 37.702C12.8018 37.7768 12.8306 37.8521 12.8592 37.9276C12.9115 38.0645 12.9702 38.1974 13.0322 38.3302C13.0542 38.3778 13.0763 38.4255 13.0983 38.4731C13.1095 38.4972 13.1207 38.5213 13.1322 38.5461C13.1763 38.6416 13.22 38.7372 13.2637 38.8329C13.3052 38.9237 13.3469 39.0144 13.3886 39.1051C13.4134 39.1593 13.4379 39.2136 13.4623 39.268C13.5792 39.5259 13.7184 39.7698 13.8594 40.0151C13.9002 40.0867 13.9398 40.1587 13.9793 40.231C14.0812 40.4172 14.1884 40.6 14.2976 40.782C14.3117 40.8055 14.3257 40.829 14.3402 40.8532C14.5074 41.1306 14.6844 41.4011 14.8641 41.6705C14.8751 41.687 14.8861 41.7036 14.8975 41.7206C15.1934 42.1641 15.4941 42.6014 15.8318 43.0144C15.9142 43.1151 15.9953 43.2167 16.0754 43.3193C16.1817 43.4552 16.2894 43.5897 16.3999 43.7222C16.4104 43.7348 16.4209 43.7474 16.4317 43.7603C16.5642 43.9188 16.6996 44.0697 16.8475 44.2142C16.9014 44.2695 16.9496 44.3268 16.9977 44.3872C17.2317 44.6796 17.4986 44.9592 17.7835 45.2022C17.8512 45.2635 17.9145 45.3286 17.9785 45.3938C18.0897 45.507 18.2047 45.6076 18.3292 45.7062C18.3933 45.7598 18.4419 45.8222 18.4951 45.8865C18.5484 45.931 18.6031 45.9733 18.6579 46.0158C18.7294 46.074 18.7956 46.1362 18.8624 46.1997C18.9962 46.3258 19.1387 46.4354 19.2868 46.5441C19.3889 46.619 19.4886 46.6968 19.5883 46.7749C19.9953 47.0928 20.4089 47.403 20.8409 47.6862C20.868 47.7043 20.8952 47.7224 20.9223 47.7406C20.9366 47.7503 20.951 47.7599 20.9658 47.7698C20.9929 47.7879 21.0199 47.8061 21.0469 47.8243C21.0738 47.8422 21.1009 47.8599 21.1281 47.8773C21.1688 47.9048 21.2084 47.9341 21.2472 47.9643C21.4663 48.1285 21.644 48.1475 21.9121 48.1406C21.9516 48.1404 21.991 48.1402 22.0305 48.1401C22.1341 48.1396 22.2376 48.1378 22.3411 48.1358C22.4233 48.1343 22.5054 48.1338 22.5876 48.1334C22.9974 48.1311 23.4067 48.1203 23.8159 48.0979C23.8405 48.0966 23.8405 48.0966 23.8656 48.0953C24.2111 48.0763 24.5526 48.0341 24.8947 47.9823C24.9192 47.9786 24.9437 47.9749 24.969 47.9711C25.1268 47.9468 25.2841 47.9199 25.4412 47.8912C25.4627 47.8873 25.4842 47.8834 25.5063 47.8794C26.102 47.7699 26.6981 47.6282 27.2777 47.4519C27.3161 47.4403 27.3545 47.4288 27.393 47.4176C28.495 47.0892 29.5366 46.6165 30.5199 46.0231C30.5656 45.9958 30.6113 45.9686 30.657 45.9413C30.9138 45.7873 31.1645 45.6277 31.4081 45.4536C31.433 45.4359 31.433 45.4359 31.4585 45.4177C32.2026 44.8878 32.8876 44.2974 33.5323 43.6506C33.5835 43.5993 33.6348 43.548 33.6862 43.4968C33.7194 43.4636 33.7526 43.4303 33.7858 43.3971C33.8009 43.3821 33.8159 43.3671 33.8314 43.3516C33.919 43.2635 34.0025 43.173 34.0834 43.0788C34.1327 43.0221 34.1846 42.968 34.2363 42.9135C34.3581 42.7825 34.4641 42.642 34.57 42.498C34.6442 42.3972 34.7213 42.2987 34.7986 42.2002C34.9633 41.9893 35.1227 41.7748 35.2797 41.558C35.2915 41.5417 35.3033 41.5254 35.3154 41.5086C36.0114 40.5438 36.5762 39.4711 37.0703 38.39C37.0789 38.3712 37.0875 38.3524 37.0963 38.333C37.1536 38.2055 37.2045 38.0761 37.2541 37.9455C37.284 37.867 37.3144 37.7887 37.3451 37.7105C37.6601 36.937 37.6601 36.937 37.9033 36.14C37.9363 36.0022 37.9771 35.8676 38.0192 35.7323C38.1146 35.4251 38.193 35.1191 38.2491 34.802C38.2618 34.7309 38.2749 34.66 38.2882 34.589C38.3818 34.0882 38.4514 33.5868 38.5059 33.0802C38.6348 31.9141 38.9889 30.6538 39.7434 29.7345C39.7621 29.7116 39.7808 29.6887 39.8 29.6651C40.1582 29.25 40.7198 28.8959 41.2743 28.8411C41.5426 28.827 41.7873 28.8592 42.0436 28.9372C42.0591 28.9418 42.0746 28.9465 42.0907 28.9513C42.6694 29.1283 43.1874 29.4604 43.6636 29.8272C43.7564 29.8984 43.8521 29.9653 43.948 30.0321C44.1857 30.1985 44.4132 30.3736 44.6269 30.5701C44.6954 30.6321 44.7656 30.6917 44.8362 30.7511C45.0908 30.9655 45.3371 31.1885 45.583 31.4128C45.6324 31.4574 45.6824 31.501 45.733 31.5442C45.8201 31.6198 45.9007 31.7015 45.9817 31.7835C46.0919 31.8945 46.2086 31.9959 46.3294 32.0952C46.3924 32.1485 46.4514 32.2024 46.5073 32.2633C46.5073 32.2783 46.5073 32.2933 46.5073 32.3088C46.5199 32.3137 46.5324 32.3186 46.5454 32.3236C46.6162 32.3647 46.6645 32.4216 46.7179 32.4825C46.7401 32.5072 46.7622 32.5319 46.7844 32.5565C46.8007 32.5746 46.8007 32.5746 46.8174 32.5931C46.9339 32.7293 46.9339 32.7293 47.0766 32.8328C47.0766 32.8478 47.0766 32.8629 47.0766 32.8783C47.0917 32.8783 47.1067 32.8783 47.1222 32.8783C47.1503 32.907 47.1503 32.907 47.1848 32.9495C47.2655 33.0449 47.3522 33.1324 47.441 33.2201C47.536 33.3142 47.6286 33.4083 47.715 33.5104C47.7812 33.5863 47.8504 33.6593 47.9193 33.7326C48.0867 33.9112 48.0867 33.9112 48.1584 33.9946C48.2729 34.1276 48.3946 34.2542 48.5145 34.3822C48.5952 34.4683 48.6756 34.5545 48.7559 34.6408C48.8236 34.7134 48.8914 34.7858 48.9595 34.8578C49.0941 35.0005 49.2239 35.1441 49.3463 35.2975C49.4106 35.3748 49.4787 35.4478 49.5476 35.521C49.7197 35.7041 49.8769 35.897 50.0279 36.0978C50.0581 36.1388 50.0581 36.1388 50.1056 36.1589C50.1056 36.1739 50.1056 36.1889 50.1056 36.2044C50.1206 36.2044 50.1357 36.2044 50.1511 36.2044C50.1815 36.2378 50.2101 36.2728 50.238 36.3084C50.3243 36.4164 50.4131 36.5217 50.5041 36.6259C50.6065 36.7433 50.7065 36.8622 50.8045 36.9832C50.8669 37.0592 50.931 37.1337 50.9952 37.2082C51.0879 37.3157 51.178 37.4247 51.266 37.5361C51.3206 37.604 51.377 37.6702 51.4336 37.7365C51.5195 37.8372 51.6028 37.9395 51.6841 38.044C51.8624 38.273 52.047 38.4971 52.2359 38.7173C52.332 38.8295 52.4203 38.9438 52.5031 39.0663C52.545 39.124 52.5906 39.175 52.6392 39.2272C52.7413 39.337 52.8278 39.4551 52.9132 39.578C52.9731 39.666 52.9731 39.666 53.0662 39.7127C53.1668 39.5139 53.2657 39.3146 53.359 39.1122C53.4019 39.02 53.4466 38.929 53.4926 38.8383C53.5926 38.6405 53.6853 38.4401 53.7747 38.2373C53.7979 38.1849 53.8212 38.1325 53.8446 38.0801C53.977 37.7817 54.0998 37.48 54.2123 37.1735C54.2395 37.0997 54.2672 37.026 54.2951 36.9525C54.4624 36.5051 54.5965 36.048 54.7287 35.5893C54.7343 35.5699 54.7399 35.5506 54.7457 35.5306C55.1229 34.2206 55.3597 32.8947 55.4846 31.5371C55.4865 31.5161 55.4884 31.495 55.4904 31.4734C55.5284 31.0573 55.5511 30.642 55.5614 30.2243C55.5621 30.1962 55.5621 30.1962 55.5629 30.1674C55.571 29.8408 55.5763 29.5145 55.5714 29.1878C55.5708 29.1463 55.5708 29.1463 55.5701 29.104C55.55 27.9337 55.4556 26.7606 55.2298 25.6111C55.2267 25.5955 55.2236 25.5798 55.2204 25.5636C55.1162 25.0377 54.9785 24.5209 54.8369 24.0039C54.8267 23.9667 54.8267 23.9667 54.8163 23.9288C54.8035 23.8823 54.7907 23.8358 54.7779 23.7893C54.7514 23.6932 54.7262 23.5975 54.7055 23.5001C54.6842 23.4014 54.6547 23.307 54.6222 23.2115C54.6164 23.1943 54.6106 23.177 54.6046 23.1592C54.5863 23.1046 54.5679 23.0501 54.5494 22.9956C54.5372 22.9593 54.525 22.923 54.5128 22.8868C54.4892 22.8163 54.4654 22.7458 54.4415 22.6754C54.4232 22.6211 54.4053 22.5668 54.3878 22.5122C54.3104 22.2711 54.215 22.0365 54.1224 21.801C54.1086 21.7658 54.1086 21.7658 54.0944 21.7298C54.0328 21.5731 53.971 21.4165 53.9089 21.2599C53.8993 21.2359 53.8993 21.2359 53.8896 21.2113C53.2787 19.6701 52.3977 18.2032 51.4265 16.8631C51.4142 16.8461 51.4019 16.8291 51.3892 16.8116C51.0833 16.3903 50.764 15.9805 50.4266 15.5839C50.3582 15.5034 50.2914 15.4219 50.2252 15.3396C50.1571 15.2559 50.0868 15.1782 50.009 15.1035C49.9715 15.0659 49.9376 15.0272 49.9036 14.9866C49.8275 14.899 49.7468 14.817 49.6644 14.7354C49.6449 14.7161 49.6449 14.7161 49.625 14.6964C49.5707 14.6426 49.5162 14.5889 49.4616 14.5353C49.4214 14.4958 49.3814 14.4561 49.3413 14.4165C49.3227 14.3982 49.3226 14.3982 49.3036 14.3796C49.274 14.3502 49.2456 14.3196 49.2174 14.2888C49.2174 14.2738 49.2174 14.2588 49.2174 14.2433C49.2047 14.238 49.192 14.2327 49.1789 14.2273C49.1125 14.19 49.0675 14.1436 49.0142 14.0892C48.9984 14.0732 48.9984 14.0732 48.9822 14.0569C48.9485 14.0228 48.915 13.9885 48.8815 13.9542C48.7528 13.8231 48.6249 13.6927 48.485 13.5733C48.4133 13.5114 48.3453 13.4456 48.2766 13.3804C48.1574 13.2683 48.0362 13.1621 47.9083 13.06C47.852 13.014 47.7989 12.9658 47.7456 12.9163C47.6009 12.7845 47.4438 12.6692 47.2878 12.5513C47.203 12.4868 47.1193 12.4209 47.0354 12.3553C46.3882 11.8507 45.7193 11.3948 45.017 10.9712C44.9191 10.912 44.8217 10.8523 44.7243 10.7923C44.4138 10.6011 44.1007 10.4197 43.7744 10.2566C43.7472 10.2428 43.7199 10.2291 43.6927 10.2154C42.8372 9.78485 41.9629 9.3943 41.0631 9.06543C41.0154 9.04792 40.9678 9.03022 40.9202 9.01249C40.5176 8.86255 40.1169 8.72167 39.701 8.61281C39.6264 8.59267 39.5523 8.57097 39.4783 8.54885C38.2512 8.18537 36.9864 7.93382 35.7116 7.82292C35.6232 7.81511 35.535 7.80638 35.4467 7.79777C35.3768 7.79097 35.3069 7.78447 35.2369 7.77804C35.2028 7.77477 35.1688 7.77127 35.1347 7.7676C34.9923 7.7524 34.8505 7.74455 34.7075 7.73923C34.5521 7.73305 34.3971 7.72588 34.242 7.71502C34.102 7.70563 33.9633 7.7045 33.8231 7.70577C33.7666 7.70519 33.7141 7.7018 33.6584 7.69366C33.5083 7.67397 33.3613 7.67793 33.211 7.69331C33.0576 7.7078 32.9041 7.70981 32.7502 7.71259C31.8108 7.73062 30.8716 7.80041 29.946 7.96336C29.8287 7.98377 29.7113 8.00308 29.5939 8.02241C29.287 8.07294 28.9808 8.12588 28.6752 8.18346C28.6564 8.18694 28.6376 8.19043 28.6182 8.19402C27.9655 8.31547 27.3294 8.51156 26.6956 8.7065C26.6181 8.7303 26.5406 8.75393 26.463 8.77755C26.1947 8.85973 25.9301 8.94628 25.669 9.04915C25.6169 9.06917 25.5648 9.08916 25.5127 9.10913C25.439 9.1376 25.3653 9.16611 25.2916 9.19465C25.1816 9.23711 25.0717 9.27887 24.9603 9.31754C24.7683 9.38697 24.5837 9.47454 24.3979 9.55888C24.3572 9.57731 24.3165 9.59573 24.2758 9.61416C24.1555 9.66863 24.0354 9.72335 23.9154 9.77815C23.8984 9.78588 23.8814 9.79362 23.8639 9.80159C23.2866 10.0648 22.7252 10.3491 22.18 10.6742C22.1198 10.71 22.0595 10.7456 21.9992 10.7811C21.7059 10.9542 21.4209 11.1393 21.1369 11.3273C21.1134 11.3428 21.0899 11.3584 21.0656 11.3744C20.7975 11.5515 20.5307 11.7296 20.2715 11.9196C20.2555 11.9313 20.2395 11.9429 20.223 11.9549C19.9865 12.1271 19.7535 12.3031 19.5234 12.4836C19.4532 12.5387 19.3824 12.5929 19.3113 12.6468C19.0775 12.8242 18.8572 13.0168 18.6423 13.2166C18.5627 13.2902 18.4805 13.3598 18.3969 13.4288C18.2643 13.5388 18.1434 13.6585 18.0226 13.7812C17.9383 13.8668 17.8525 13.9484 17.7609 14.0261C17.6552 14.1182 17.5582 14.2192 17.4675 14.3259C17.3894 14.4169 17.305 14.5007 17.2198 14.585C17.1243 14.6797 17.031 14.7744 16.9441 14.8771C16.8957 14.9328 16.8454 14.9864 16.7949 15.0402C16.6737 15.1693 16.5576 15.3003 16.4468 15.4386C16.3863 15.513 16.3227 15.5844 16.2581 15.6553C16.2218 15.6967 16.1901 15.7393 16.158 15.7839C16.1039 15.838 16.1039 15.838 16.0412 15.8422C15.9417 15.8059 15.8529 15.7559 15.7623 15.7013C15.7945 15.6084 15.8391 15.5398 15.8989 15.4621C15.9079 15.4503 15.9169 15.4385 15.9262 15.4263C15.9453 15.4014 15.9645 15.3765 15.9837 15.3516C16.012 15.315 16.0401 15.2783 16.0681 15.2416C16.1253 15.1667 16.1828 15.0923 16.2405 15.0178C16.2506 15.0049 16.2606 14.9919 16.2709 14.9785C16.3943 14.8192 16.52 14.6625 16.6509 14.5093C16.7153 14.4341 16.7779 14.3577 16.8398 14.2803C16.9371 14.1604 17.042 14.0488 17.1481 13.9368C17.2242 13.8559 17.2964 13.774 17.365 13.6866C17.4677 13.5575 17.5837 13.4433 17.7016 13.3282C17.7915 13.2401 17.8762 13.1495 17.9583 13.0541C18.0033 13.0026 18.0507 12.9542 18.0994 12.9063C18.1168 12.8892 18.1341 12.872 18.152 12.8543C18.1753 12.8314 18.1753 12.8314 18.1991 12.8081C18.2193 12.7879 18.2395 12.7676 18.2603 12.7468C18.2777 12.7294 18.295 12.7121 18.313 12.6942C18.3247 12.6819 18.3364 12.6696 18.3485 12.657C18.3814 12.623 18.4154 12.5901 18.4496 12.5575C18.4646 12.5575 18.4797 12.5575 18.4951 12.5575C18.5027 12.5349 18.5102 12.5124 18.5179 12.4891C18.5536 12.454 18.5536 12.454 18.599 12.4165C18.6662 12.3596 18.7296 12.3014 18.7912 12.2385C18.863 12.1657 18.9374 12.0978 19.0149 12.0312C19.0715 11.9818 19.1262 11.9308 19.1812 11.8797C19.2877 11.7825 19.3983 11.693 19.5122 11.6048C19.6054 11.5324 19.6964 11.458 19.7861 11.3814C19.894 11.2894 20.0026 11.1985 20.1126 11.1091C20.1623 11.0687 20.2117 11.0281 20.261 10.9873C20.6069 10.7025 20.9662 10.436 21.3339 10.18C21.3937 10.1383 21.4532 10.0963 21.5128 10.0543C21.7675 9.8751 22.0247 9.70197 22.2897 9.53836C22.3459 9.50357 22.4019 9.46847 22.4579 9.43332C23.6422 8.69177 24.8989 8.01542 26.21 7.52607C26.3174 7.48582 26.4237 7.44405 26.5293 7.39938C27.3797 7.0401 28.2625 6.78041 29.1534 6.54321C29.1759 6.53722 29.1983 6.53124 29.2214 6.52507C29.9175 6.33961 30.6132 6.18134 31.3247 6.06676C31.4388 6.04838 31.5522 6.02808 31.6657 6.00643C32.1882 5.91336 32.7227 5.8681 33.2507 5.81873C33.3043 5.81364 33.3579 5.80833 33.4114 5.80303C33.7175 5.77332 34.0231 5.75499 34.3303 5.74302C34.354 5.74206 34.3777 5.7411 34.4021 5.74012C34.7492 5.7263 35.096 5.71879 35.4433 5.71881Z" fill="#FFFFFF"/>
<path id="Vector_2" d="M10.4781 0.00502812C10.3141 0.170867 10.1434 0.328965 9.96146 0.474892C9.86223 0.554756 9.77261 0.639979 9.68381 0.731181C9.63796 0.777124 9.59075 0.819864 9.54156 0.862173C9.42524 0.962404 9.31852 1.06891 9.21845 1.18538C9.15551 1.25853 9.08924 1.32686 9.0206 1.39469C8.93957 1.47489 8.86257 1.55654 8.78868 1.64332C8.75926 1.67711 8.72897 1.71015 8.69812 1.74263C8.5126 1.93877 8.35758 2.15504 8.20073 2.37428C8.18757 2.39253 8.17441 2.41078 8.16085 2.42959C7.93982 2.73654 7.73608 3.05306 7.54028 3.37666C7.52519 3.40147 7.52519 3.40147 7.50979 3.42678C7.16296 4.00197 6.91575 4.64194 6.72184 5.28316C6.71351 5.3106 6.70518 5.33803 6.6966 5.3663C6.63973 5.55972 6.59801 5.75296 6.561 5.95094C6.55436 5.98417 6.54769 6.01739 6.54098 6.05061C6.50629 6.23462 6.48238 6.41794 6.46563 6.60448C6.46372 6.62528 6.46181 6.64609 6.45984 6.66753C6.43478 6.97149 6.44958 7.26772 6.48414 7.56983C6.48616 7.58762 6.48819 7.60542 6.49028 7.62375C6.6418 8.93145 7.19247 10.1361 8.03009 11.1493C8.07703 11.2064 8.12313 11.2641 8.16942 11.3216C8.26102 11.4336 8.35784 11.54 8.45641 11.6458C8.50404 11.697 8.5497 11.7497 8.59519 11.8028C8.68013 11.9003 8.7721 11.9884 8.86688 12.0763C8.88388 12.0921 8.90088 12.108 8.9184 12.1243C8.96755 12.1701 9.01683 12.2157 9.06615 12.2613C9.07875 12.2731 9.09135 12.2848 9.10434 12.2969C9.25372 12.4358 9.40842 12.5662 9.56718 12.6942C9.59626 12.718 9.62532 12.7418 9.65436 12.7657C9.97632 13.0317 9.97632 13.0317 10.3201 13.268C10.4359 13.3399 10.5442 13.4199 10.6532 13.5015C10.9068 13.6908 11.1699 13.865 11.4347 14.0383C11.4619 14.0561 11.4619 14.0561 11.4897 14.0743C11.6 14.1465 11.7108 14.2179 11.8218 14.2889C11.8377 14.2991 11.8536 14.3092 11.8699 14.3197C12.7617 14.8907 13.6773 15.4288 14.6184 15.914C14.6743 15.943 14.73 15.9723 14.7857 16.0018C15.0634 16.1488 15.3428 16.2923 15.6237 16.4332C15.6576 16.4502 15.6576 16.4502 15.6922 16.4675C16.0756 16.6594 16.4629 16.8393 16.8564 17.0095C16.9779 17.0621 17.0986 17.1162 17.2192 17.1707C17.8682 17.4631 18.5286 17.7277 19.1937 17.9812C19.2372 17.9978 19.2806 18.0144 19.3241 18.0311C19.7217 18.184 19.7217 18.184 20.1303 18.3027C20.2298 18.3281 20.3255 18.3621 20.4223 18.3963C20.855 18.5486 21.2972 18.6616 21.7416 18.7737C21.8759 18.8076 22.0099 18.8424 22.1437 18.8781C23.2915 19.1816 24.4842 19.3609 25.6647 19.478C25.7177 19.4834 25.7707 19.489 25.8236 19.4947C26.0801 19.5217 26.336 19.541 26.5937 19.5528C26.6133 19.5537 26.633 19.5546 26.6532 19.5556C27.4054 19.5905 28.1594 19.5981 28.9124 19.5998C28.9281 19.5998 28.9438 19.5999 28.9601 19.6C29.1179 19.6004 29.2727 19.5959 29.4296 19.5797C29.5629 19.5683 29.6968 19.5674 29.8304 19.5642C30.4503 19.5466 31.0579 19.4946 31.6712 19.4062C31.8218 19.3846 31.9727 19.3648 32.1235 19.3449C32.2903 19.3228 32.4571 19.3006 32.6237 19.2773C33.249 19.1904 33.8731 19.1269 34.5048 19.1185C34.533 19.1181 34.533 19.1181 34.5617 19.1178C35.2504 19.1092 35.9249 19.1253 36.6077 19.2238C36.6661 19.2321 36.7245 19.2397 36.7829 19.2472C37.8718 19.391 38.9736 19.8053 39.8037 20.5335C39.8724 20.5937 39.9432 20.6507 40.0147 20.7075C40.1192 20.7928 40.205 20.8818 40.2894 20.9866C40.31 21.0109 40.3305 21.0352 40.3511 21.0595C40.7318 21.5154 40.9921 22.0267 41.1321 22.604C41.1514 22.6056 41.1514 22.6056 41.1711 22.6071C41.3081 22.6182 41.445 22.6302 41.5819 22.6428C41.6281 22.647 41.6742 22.6512 41.7204 22.6552C42.4065 22.7159 43.134 22.8454 43.7739 23.1052C43.8036 23.1172 43.8036 23.1172 43.8338 23.1294C44.4219 23.3712 44.9981 23.7186 45.3453 24.2671C45.3572 24.2848 45.3691 24.3025 45.3813 24.3207C45.5778 24.6257 45.6676 25.0007 45.6869 25.3606C45.6878 25.3769 45.6888 25.3932 45.6897 25.41C45.7182 26.4425 45.221 27.4266 44.682 28.2737C44.6665 28.2981 44.6509 28.3225 44.635 28.3477C44.4372 28.6556 44.4372 28.6556 44.366 28.7322C44.351 28.7322 44.3359 28.7322 44.3205 28.7322C44.3149 28.7148 44.3093 28.6974 44.3036 28.6794C44.0969 28.0871 43.6214 27.6203 43.0686 27.3428C42.5527 27.0944 42.0384 27.018 41.4694 27.0165C41.4404 27.0164 41.4113 27.0162 41.3814 27.0161C40.8666 27.02 40.3388 27.1556 39.8795 27.3881C39.8562 27.3996 39.8562 27.3996 39.8324 27.4114C39.5928 27.5304 39.3688 27.6664 39.1507 27.821C39.1268 27.8378 39.1029 27.8547 39.0783 27.8721C38.9089 27.9956 38.7554 28.1319 38.6042 28.2766C38.583 28.2965 38.5619 28.3165 38.5401 28.337C38.3772 28.4946 38.2385 28.6647 38.1031 28.8461C38.0938 28.8585 38.0844 28.8709 38.0748 28.8837C37.552 29.5804 37.1401 30.3883 36.9416 31.2381C36.9342 31.2693 36.9268 31.3004 36.9194 31.3316C36.821 31.7471 36.7404 32.1559 36.7063 32.5823C36.696 32.7071 36.6779 32.8293 36.658 32.9528C36.6114 33.2485 36.5937 33.5463 36.5738 33.8448C36.5519 34.1669 36.5166 34.4824 36.4615 34.8006C36.4402 34.9254 36.4263 35.0505 36.4136 35.1765C36.3094 36.0645 35.9571 36.9086 35.5297 37.6852C35.5192 37.7044 35.5087 37.7236 35.4979 37.7433C35.2608 38.1753 34.9865 38.57 34.6811 38.956C34.6152 39.04 34.5509 39.1252 34.4863 39.2102C34.3028 39.4507 34.1114 39.6798 33.9045 39.9005C33.8645 39.9434 33.825 39.9868 33.7855 40.0303C33.772 40.045 33.7586 40.0598 33.7447 40.0749C33.7185 40.1036 33.6925 40.1323 33.6665 40.1612C33.6356 40.1948 33.6034 40.2273 33.5711 40.2595C33.556 40.2595 33.541 40.2595 33.5255 40.2595C33.5244 40.242 33.5233 40.2245 33.5222 40.2064C33.469 39.4221 33.3424 38.6476 33.0952 37.9002C33.0669 37.8122 33.0411 37.7236 33.0154 37.6348C32.9561 37.4305 32.8898 37.2287 32.821 37.0274C32.8147 37.009 32.8084 36.9906 32.8019 36.9716C32.234 35.3165 31.3761 33.7903 30.3827 32.3544C30.3685 32.3339 30.3543 32.3133 30.3397 32.2921C30.1589 32.0303 29.9732 31.7724 29.7832 31.5173C29.7459 31.4671 29.7087 31.4169 29.6715 31.3666C29.5409 31.1909 29.4076 31.0185 29.2668 30.8509C29.2526 30.8339 29.2526 30.8339 29.2381 30.8167C29.1755 30.7421 29.1125 30.6678 29.0494 30.5936C29.0271 30.5674 29.0048 30.5412 28.9825 30.5149C28.8619 30.3726 28.7404 30.2316 28.6134 30.0948C28.5342 30.0093 28.4587 29.9223 28.3857 29.8314C28.3115 29.7392 28.2335 29.6552 28.1486 29.5728C28.0908 29.515 28.0382 29.4533 27.9849 29.3914C27.935 29.3351 27.8817 29.2828 27.828 29.2302C27.7897 29.1911 27.7544 29.1511 27.7192 29.1093C27.6021 28.9748 27.475 28.8502 27.3489 28.7243C27.3219 28.6974 27.295 28.6704 27.2681 28.6435C27.212 28.5873 27.1558 28.5311 27.0996 28.475C27.028 28.4035 26.9565 28.3319 26.885 28.2602C26.8295 28.2047 26.774 28.1492 26.7185 28.0937C26.6921 28.0673 26.6657 28.0409 26.6394 28.0145C26.4795 27.8544 26.3173 27.7 26.1425 27.5561C26.0606 27.487 25.9869 27.4112 25.9124 27.3344C25.7781 27.1969 25.6366 27.0747 25.4863 26.9553C25.3294 26.8288 25.1759 26.6991 25.0239 26.5668C24.8224 26.3914 24.6184 26.2195 24.4113 26.0509C24.3544 26.0041 24.2981 25.9566 24.2421 25.9089C23.8491 25.5738 23.4356 25.2692 23.0166 24.9677C22.9051 24.8873 22.7948 24.8055 22.6851 24.7227C22.3948 24.5038 22.0988 24.2929 21.8014 24.0838C21.7382 24.0394 21.6752 23.9947 21.6123 23.9498C21.2599 23.6987 20.9008 23.4592 20.5319 23.2331C20.4167 23.1624 20.3032 23.0899 20.1913 23.0141C20.0385 22.9106 19.8821 22.8135 19.725 22.7168C19.5946 22.6366 19.465 22.5553 19.3358 22.4731C18.8869 22.1881 18.4299 21.9154 17.9708 21.6472C17.9482 21.634 17.9257 21.6208 17.9024 21.6072C17.3549 21.2877 16.7993 20.983 16.2412 20.6823C16.1693 20.6436 16.0974 20.6047 16.0256 20.5657C15.7206 20.401 15.4137 20.2398 15.1056 20.081C15.0803 20.068 15.0803 20.068 15.0545 20.0546C14.8562 19.9522 14.6566 19.8531 14.4549 19.7574C14.1193 19.598 13.7872 19.4316 13.455 19.2654C13.3825 19.2292 13.31 19.193 13.2374 19.1568C12.846 18.9619 12.4563 18.7656 12.0744 18.5526C12.0091 18.5164 11.9434 18.4811 11.8775 18.4459C11.5837 18.2886 11.2948 18.1242 11.0078 17.9548C10.9279 17.9077 10.8478 17.8611 10.7676 17.8145C10.4728 17.6429 10.1801 17.469 9.89322 17.2842C9.83741 17.2485 9.78133 17.2132 9.72517 17.178C8.98804 16.7148 8.27229 16.2141 7.58583 15.6785C7.55965 15.6582 7.53346 15.638 7.50728 15.6177C7.34875 15.4944 7.19395 15.3676 7.0413 15.2371C6.97604 15.1814 6.90958 15.1273 6.84283 15.0734C6.73442 14.9852 6.63096 14.8924 6.52808 14.7978C6.4784 14.7523 6.42822 14.7076 6.37738 14.6633C6.09714 14.4193 5.82192 14.1693 5.56223 13.9035C5.51745 13.8552 5.51745 13.8552 5.46784 13.8333C5.46784 13.8182 5.46784 13.8032 5.46784 13.7877C5.4482 13.7796 5.4482 13.7796 5.42816 13.7713C5.36559 13.7358 5.32962 13.6942 5.2828 13.6396C5.21054 13.557 5.13653 13.4784 5.05791 13.4018C4.96061 13.3057 4.87439 13.2042 4.78916 13.0973C4.74207 13.0396 4.693 12.9851 4.64228 12.9305C4.50903 12.7842 4.39229 12.6253 4.27338 12.4674C4.24202 12.4261 4.21024 12.3852 4.17808 12.3445C3.418 11.3788 2.81026 10.2087 2.55276 9.00363C2.54776 8.98079 2.54277 8.95795 2.53762 8.93442C2.41641 8.37679 2.37966 7.8419 2.39334 7.27225C2.39379 7.24963 2.39424 7.22701 2.39471 7.2037C2.40342 6.89414 2.46688 6.59769 2.53568 6.29693C2.54203 6.26898 2.54203 6.26898 2.54852 6.24046C2.71343 5.52337 3.00017 4.86294 3.3954 4.24234C3.40571 4.22613 3.41603 4.20991 3.42666 4.1932C3.54305 4.01159 3.66601 3.83774 3.80533 3.67281C3.81984 3.65545 3.81984 3.65545 3.83465 3.63773C4.08009 3.34425 4.34113 3.06683 4.61097 2.79573C4.62775 2.77884 4.64453 2.76195 4.66182 2.74454C4.9583 2.44883 5.28758 2.18685 5.63105 1.94799C5.67529 1.91691 5.71904 1.88523 5.76275 1.85343C6.00519 1.67788 6.25633 1.52156 6.51545 1.3719C6.53274 1.36186 6.55003 1.35182 6.56785 1.34147C7.33634 0.897192 8.16798 0.578399 9.01491 0.319694C9.04063 0.311797 9.06635 0.303899 9.09285 0.295762C10.0923 -0.0101541 10.0923 -0.0101541 10.4781 0.00502812ZM35.393 21.7156C35.4225 21.7139 35.4519 21.7123 35.4822 21.7106C35.6043 21.704 35.7264 21.6982 35.8485 21.6928C35.876 21.6915 35.9035 21.6902 35.9318 21.6889C36.1723 21.6828 36.452 21.6983 36.6456 21.8523C36.6908 21.9048 36.6908 21.9048 36.731 21.9633C36.7541 21.9962 36.7541 21.9962 36.7776 22.0298C36.7942 22.0539 36.8107 22.078 36.8278 22.1029C37.1496 22.57 37.5911 22.9752 38.166 23.0911C38.8015 23.1965 39.4032 22.9604 39.9146 22.6008C39.9331 22.5868 39.9516 22.5729 39.9706 22.5585C39.9706 22.551 39.9706 22.5434 39.9706 22.5357C39.9297 22.5282 39.9297 22.5282 39.888 22.5206C39.6612 22.4772 39.4542 22.4231 39.2428 22.3285C39.191 22.3056 39.1389 22.2836 39.0867 22.2615C38.7341 22.1106 38.4367 21.9238 38.1344 21.6885C37.9568 21.5509 37.7903 21.4328 37.5793 21.3511C37.5649 21.3454 37.5505 21.3398 37.5357 21.3339C36.9453 21.1099 35.8414 21.2246 35.393 21.7156Z" fill="#FFFFFF"/>
<path id="Vector_3" d="M0.754331 11.0537C0.788024 11.1167 0.810332 11.176 0.827991 11.2451C0.924209 11.601 1.07072 11.9223 1.23739 12.2491C1.27523 12.3237 1.31205 12.3988 1.34859 12.4741C1.68033 13.1471 2.13458 13.7637 2.61185 14.3401C2.65927 14.3976 2.70594 14.4557 2.75276 14.5136C2.8345 14.6135 2.9196 14.7098 3.00648 14.8052C3.04874 14.8518 3.09021 14.8989 3.13138 14.9465C3.33125 15.1753 3.54043 15.3935 3.75551 15.6079C3.79921 15.6515 3.84278 15.6952 3.88635 15.739C4.02278 15.8755 4.15978 16.009 4.30709 16.1339C4.34753 16.1708 4.38787 16.2078 4.42808 16.245C4.53132 16.3391 4.63722 16.4288 4.74594 16.5166C4.78644 16.5493 4.82673 16.5823 4.86675 16.6155C4.96126 16.6941 5.0566 16.7708 5.15543 16.8439C5.17212 16.8562 5.18882 16.8686 5.20603 16.8813C5.23931 16.9058 5.2727 16.9302 5.30619 16.9544C5.34593 16.9836 5.38459 17.0143 5.42302 17.0452C5.42302 17.0602 5.42302 17.0753 5.42302 17.0907C5.43934 17.0962 5.45567 17.1017 5.47248 17.1074C5.54631 17.1405 5.5955 17.1813 5.65646 17.2346C6.08505 17.6006 6.5534 17.9166 7.02339 18.2265C7.06381 18.2533 7.10405 18.2803 7.14425 18.3074C7.31988 18.4256 7.49764 18.54 7.67707 18.6524C7.77104 18.7114 7.86394 18.7715 7.9554 18.8343C8.33956 19.0979 8.75346 19.3206 9.15797 19.5511C9.18382 19.5659 9.18382 19.5659 9.21019 19.581C9.45552 19.7211 9.70443 19.8536 9.95507 19.984C9.98866 20.0014 9.98866 20.0014 10.0229 20.0193C10.1633 20.0923 10.3037 20.1651 10.4442 20.2377C10.5304 20.2824 10.6167 20.3272 10.7028 20.3721C11.0449 20.5502 11.388 20.724 11.7371 20.8881C11.7998 20.918 11.862 20.9487 11.9241 20.9797C12.3323 21.1819 12.7521 21.3542 13.1728 21.5284C13.3468 21.6005 13.52 21.6747 13.6929 21.7495C13.8811 21.8308 14.0701 21.9092 14.2608 21.9844C14.4979 22.0781 14.7326 22.1771 14.9668 22.2778C14.9834 22.2849 14.9999 22.292 15.017 22.2993C15.0976 22.334 15.1781 22.3688 15.2586 22.4037C15.3197 22.4302 15.381 22.4564 15.4425 22.4822C15.6278 22.5608 15.8057 22.6489 15.9832 22.7439C16.1647 22.8407 16.3501 22.9285 16.5365 23.0156C17.0663 23.2634 17.5858 23.5257 18.0913 23.8205C18.1587 23.8597 18.2264 23.8983 18.2941 23.937C18.6467 24.1384 18.9938 24.3476 19.338 24.563C19.3594 24.5764 19.3807 24.5897 19.4027 24.6035C20.0439 25.0053 20.6685 25.4333 21.2874 25.8686C21.3403 25.9058 21.3934 25.9429 21.4465 25.98C21.6307 26.1088 21.8117 26.2405 21.9885 26.3794C22.0275 26.41 22.0666 26.4405 22.1057 26.4709C22.3347 26.6498 22.5593 26.8334 22.7808 27.0215C22.8997 27.1224 23.0202 27.2212 23.1413 27.3195C23.1705 27.3433 23.1998 27.3671 23.2291 27.3909C23.2445 27.4034 23.26 27.416 23.2759 27.4289C23.3076 27.4547 23.3394 27.4806 23.3711 27.5064C23.4384 27.5611 23.5057 27.6157 23.5734 27.6698C23.7226 27.7895 23.8623 27.9176 24.0016 28.0484C24.0572 28.1006 24.1138 28.1513 24.1718 28.2009C24.2587 28.2756 24.3378 28.3571 24.4171 28.4399C24.4752 28.4975 24.5384 28.5478 24.6023 28.5989C24.7368 28.708 24.8588 28.8266 24.9803 28.9498C25.0006 28.9702 25.021 28.9905 25.0419 29.0115C25.1294 29.0996 25.2153 29.1879 25.2959 29.2822C25.3795 29.3795 25.4722 29.4655 25.5667 29.5521C25.6787 29.6547 25.784 29.7586 25.8827 29.8742C25.9365 29.9358 25.9947 29.9922 26.0535 30.049C26.1377 30.1318 26.2163 30.2155 26.2898 30.3081C26.3809 30.423 26.4793 30.5293 26.5802 30.6356C26.6041 30.6609 26.6041 30.6609 26.6286 30.6867C26.6595 30.7193 26.6904 30.7519 26.7213 30.7845C26.8646 30.9358 26.9972 31.092 27.1247 31.2566C27.2034 31.3577 27.2868 31.4531 27.3733 31.5475C27.5397 31.7322 27.6904 31.9312 27.8432 32.1271C27.8803 32.1745 27.9175 32.2217 27.9547 32.269C28.1023 32.457 28.246 32.6472 28.385 32.8417C28.4533 32.9371 28.5226 33.0315 28.5937 33.1249C28.7747 33.3627 28.9415 33.6097 29.1081 33.8578C29.1219 33.8783 29.1357 33.8987 29.15 33.9199C29.4041 34.2971 29.6491 34.6793 29.8812 35.0705C29.9124 35.1229 29.9443 35.1749 29.9761 35.227C30.3203 35.7942 30.643 36.3838 30.9319 36.9813C30.9464 37.0111 30.961 37.0409 30.9756 37.0706C31.1057 37.3344 31.2202 37.6037 31.3313 37.8759C31.3935 38.0282 31.4578 38.1791 31.5264 38.3286C31.7169 38.7519 31.8509 39.1948 31.9847 39.6385C31.9951 39.6724 31.9951 39.6724 32.0056 39.707C32.0782 39.9458 32.1446 40.184 32.1918 40.4293C32.1955 40.4486 32.1992 40.4679 32.203 40.4878C32.2306 40.6404 32.2385 40.7876 32.2281 40.9427C32.1864 40.8801 32.1668 40.8334 32.1434 40.763C32.0899 40.6124 32.0183 40.4742 31.9435 40.3333C31.9293 40.3064 31.9151 40.2794 31.901 40.2524C31.8722 40.1976 31.8433 40.1428 31.8144 40.088C31.7756 40.0144 31.7372 39.9405 31.699 39.8666C31.5708 39.6186 31.4397 39.3726 31.3025 39.1295C31.2683 39.0688 31.2344 39.008 31.2005 38.9472C30.964 38.5248 30.7194 38.1183 30.429 37.7306C30.4167 37.7141 30.4044 37.6977 30.3918 37.6808C30.135 37.3386 29.8648 37.0074 29.5863 36.6826C29.5747 36.669 29.5631 36.6554 29.5511 36.6414C29.3901 36.4533 29.226 36.2687 29.0569 36.0879C29.0269 36.0555 28.9973 36.0228 28.9678 35.99C28.7843 35.7866 28.5915 35.5929 28.3976 35.3994C28.3407 35.3426 28.2839 35.2857 28.2271 35.2288C28.1905 35.1921 28.1538 35.1555 28.1171 35.1188C28.1004 35.1021 28.0837 35.0853 28.0665 35.068C27.9748 34.9767 27.8811 34.8891 27.7829 34.8048C27.7116 34.7429 27.6436 34.6774 27.5751 34.6124C27.4568 34.501 27.336 34.3953 27.2089 34.2938C27.1453 34.2416 27.0848 34.1869 27.0243 34.1311C26.9029 34.0196 26.7767 33.9156 26.6485 33.8122C26.6205 33.7892 26.5925 33.7662 26.5645 33.7431C26.3837 33.5946 26.2 33.4511 26.0121 33.3116C25.9332 33.253 25.8551 33.1932 25.7772 33.1332C25.5785 32.9801 25.3767 32.8317 25.1725 32.686C25.1402 32.6629 25.108 32.6398 25.0757 32.6167C24.495 32.1997 23.8927 31.8104 23.2866 31.4314C23.2304 31.3962 23.1744 31.3606 23.1184 31.325C22.8659 31.1656 22.6083 31.0196 22.3448 30.879C22.2118 30.8079 22.0808 30.7334 21.9499 30.6584C21.7319 30.5339 21.5102 30.4175 21.2868 30.303C21.1482 30.2317 21.0114 30.1587 20.8767 30.0803C20.7282 29.9944 20.5745 29.9241 20.4176 29.855C20.3018 29.804 20.188 29.7507 20.0753 29.6931C19.8673 29.5869 19.6548 29.4906 19.4425 29.3932C19.2236 29.2928 19.0053 29.1914 18.7885 29.0865C18.3653 28.8826 17.935 28.7044 17.4966 28.5358C17.3996 28.4984 17.3033 28.4596 17.2076 28.4191C17.0992 28.3734 16.9899 28.3336 16.8784 28.2963C16.6863 28.2306 16.4976 28.1577 16.309 28.0827C16.0746 27.9897 15.8393 27.9024 15.6007 27.8208C15.5254 27.7947 15.4504 27.7679 15.3754 27.7411C14.9226 27.5792 14.4673 27.4256 14.0107 27.2751C13.7751 27.1973 13.5409 27.1175 13.3085 27.0306C13.1838 26.984 13.0583 26.9412 12.9314 26.9009C12.742 26.8393 12.558 26.7682 12.3748 26.6901C12.2537 26.6389 12.1314 26.5937 12.0071 26.5509C11.7782 26.4716 11.5566 26.3764 11.3343 26.2801C11.2919 26.2618 11.2494 26.2435 11.2069 26.2252C10.908 26.096 10.6108 25.9635 10.3164 25.8241C10.2499 25.7926 10.1832 25.7615 10.1165 25.7305C9.83512 25.5986 9.5618 25.4554 9.29022 25.3044C9.22541 25.2687 9.16028 25.2337 9.09499 25.1989C8.74533 25.0123 8.40408 24.8134 8.06482 24.6086C8.04021 24.5938 8.01561 24.579 7.99026 24.5638C7.08895 24.0219 6.20427 23.4141 5.43085 22.6987C5.38287 22.6544 5.33424 22.6111 5.28495 22.5682C5.17796 22.4751 5.0727 22.3801 4.96754 22.2849C4.94772 22.267 4.92791 22.2492 4.90749 22.2308C4.73759 22.0765 4.57315 21.9174 4.41092 21.7551C4.36893 21.7131 4.32676 21.6714 4.28458 21.6296C4.25779 21.6029 4.23102 21.5761 4.20425 21.5494C4.19166 21.5369 4.17907 21.5245 4.16609 21.5117C4.07935 21.4244 4.07935 21.4244 4.07935 21.3736C4.06432 21.3736 4.04929 21.3736 4.0338 21.3736C4.00063 21.3369 3.96911 21.2986 3.93843 21.2597C3.87624 21.1819 3.81397 21.1049 3.7477 21.0305C3.6746 20.9478 3.60615 20.862 3.53775 20.7754C3.4926 20.7196 3.44612 20.6653 3.39902 20.6111C3.25143 20.4406 3.12263 20.2595 2.99453 20.0741C2.93727 19.992 2.87769 19.9117 2.81814 19.8313C2.7129 19.6821 2.7129 19.6821 2.7129 19.6195C2.69787 19.6195 2.68284 19.6195 2.66736 19.6195C2.64143 19.5852 2.64143 19.5852 2.61273 19.5366C2.60196 19.5185 2.59119 19.5005 2.58009 19.4818C2.56849 19.4619 2.55689 19.442 2.54494 19.4216C2.52673 19.3907 2.52673 19.3907 2.50815 19.3592C2.46993 19.2942 2.43198 19.229 2.39407 19.1638C2.38258 19.1443 2.3711 19.1247 2.35927 19.1045C2.04697 18.5712 1.77199 18.023 1.52865 17.4552C1.51817 17.4308 1.50768 17.4064 1.49688 17.3812C1.33661 17.0038 1.20935 16.6188 1.09594 16.2251C1.09114 16.2085 1.08633 16.1919 1.08138 16.1748C0.956802 15.7435 0.844354 15.3174 0.785311 14.8716C0.775443 14.8007 0.762992 14.7305 0.750222 14.6601C0.700792 14.3861 0.675547 14.1091 0.648233 13.8322C0.643085 13.7875 0.636664 13.7429 0.62894 13.6985C0.616009 13.6175 0.609703 13.5369 0.605053 13.4551C0.604096 13.4384 0.603138 13.4217 0.602152 13.4045C0.592199 13.2139 0.591483 13.0233 0.591943 12.8325C0.592065 12.7722 0.591943 12.712 0.591798 12.6518C0.591581 12.2793 0.617019 11.9151 0.666804 11.5461C0.67477 11.4869 0.68249 11.4277 0.690189 11.3684C0.695187 11.3307 0.700198 11.293 0.705224 11.2553C0.707526 11.2376 0.709828 11.2199 0.712199 11.2017C0.72893 11.0791 0.72893 11.0791 0.754331 11.0537Z" fill="#FFFFFF"/>
<path id="Vector_4" d="M0.0478325 19.7109C0.117683 19.7459 0.128395 19.8138 0.156009 19.8832C0.335331 20.311 0.599775 20.7013 0.8677 21.0778C0.87988 21.0951 0.892059 21.1124 0.904608 21.1303C1.05865 21.3493 1.2196 21.5604 1.38999 21.7669C1.45519 21.8461 1.51755 21.9272 1.57939 22.009C1.67737 22.1378 1.78211 22.2581 1.89253 22.3763C1.91106 22.3962 1.91106 22.3962 1.92996 22.4164C1.98563 22.476 2.04131 22.5356 2.09706 22.5952C2.17668 22.6804 2.25471 22.7665 2.33102 22.8547C2.54915 23.1051 2.77882 23.3375 3.03836 23.5453C3.14624 23.6317 3.2459 23.7248 3.34581 23.8201C3.48126 23.9489 3.62061 24.0673 3.769 24.1808C3.84362 24.238 3.91589 24.2977 3.98803 24.358C4.51078 24.7947 5.07007 25.1866 5.65026 25.5429C5.68035 25.5615 5.68035 25.5615 5.71105 25.5804C6.36893 25.986 7.04015 26.3607 7.72697 26.7145C7.76698 26.7352 7.80696 26.7558 7.84693 26.7765C8.23332 26.9761 8.62572 27.1571 9.03079 27.3156C9.08956 27.3388 9.1483 27.3621 9.20702 27.3854C9.22911 27.3941 9.22911 27.3941 9.25164 27.4031C9.39773 27.4612 9.54266 27.522 9.68763 27.5828C9.93682 27.6872 10.1868 27.7829 10.4427 27.8693C10.5307 27.8996 10.6179 27.932 10.7052 27.9641C10.9678 28.0604 11.2322 28.1466 11.5 28.2272C11.6197 28.2633 11.7389 28.3008 11.858 28.339C11.8925 28.35 11.9269 28.361 11.9614 28.372C12.0115 28.388 12.0616 28.4041 12.1117 28.4203C12.3114 28.4851 12.5115 28.5409 12.7156 28.5901C13.0271 28.6658 13.3314 28.7623 13.6365 28.8604C13.697 28.8799 13.7576 28.8992 13.8182 28.9185C14.207 29.0425 14.5951 29.1683 14.9816 29.2996C15.0623 29.3268 15.1432 29.3534 15.2241 29.38C16.0736 29.6592 16.9005 29.9889 17.7263 30.3307C17.8975 30.4015 18.0691 30.4712 18.2415 30.5392C18.466 30.6282 18.6855 30.7271 18.9048 30.8282C18.9289 30.8393 18.953 30.8504 18.9778 30.8618C19.3331 31.0254 19.6867 31.1924 20.039 31.3626C20.1155 31.3995 20.1922 31.4361 20.2688 31.4727C20.55 31.6069 20.8292 31.7435 21.1034 31.8915C21.1649 31.9246 21.2266 31.9575 21.2882 31.9904C21.721 32.222 22.1446 32.4674 22.5604 32.7283C22.6626 32.7921 22.7653 32.8526 22.8717 32.9091C23.1797 33.0726 23.4648 33.2731 23.7533 33.4682C23.8747 33.5502 23.9967 33.6313 24.119 33.712C24.4439 33.927 24.7618 34.1489 25.0643 34.3947C25.1647 34.4762 25.2673 34.5542 25.3712 34.6312C25.5124 34.7361 25.6497 34.8449 25.7857 34.9564C25.8832 35.0365 25.9818 35.1148 26.0815 35.1922C26.3104 35.3711 26.5284 35.5574 26.7315 35.7655C26.7817 35.8144 26.833 35.8571 26.8885 35.8999C27.1635 36.1136 27.4465 36.3713 27.6657 36.6431C27.7131 36.6995 27.7621 36.7424 27.8192 36.7883C27.873 36.8354 27.9172 36.8894 27.9634 36.9436C28.0304 37.0202 28.1 37.0943 28.1696 37.1685C28.6157 37.6453 29.011 38.1522 29.3905 38.6833C29.4268 38.7338 29.4634 38.7839 29.5002 38.8339C30.1187 39.6777 30.6713 40.6133 31.0442 41.5923C31.0836 41.6948 31.1248 41.7966 31.1658 41.8985C31.1874 41.9524 31.209 42.0064 31.2304 42.0604C31.2453 42.0973 31.2607 42.1339 31.2763 42.1705C31.2939 42.2188 31.2939 42.2188 31.2939 42.2872C31.2789 42.2872 31.2638 42.2872 31.2483 42.2872C31.2213 42.2532 31.196 42.2177 31.1715 42.1818C31.005 41.9471 30.8105 41.7348 30.6161 41.523C30.5707 41.4732 30.5265 41.4227 30.4826 41.3716C30.4139 41.2925 30.3406 41.2191 30.2659 41.1457C30.2275 41.1066 30.1925 41.0667 30.158 41.0242C30.1155 40.965 30.1155 40.965 30.0641 40.9431C30.0641 40.928 30.0641 40.913 30.0641 40.8975C30.0491 40.8975 30.034 40.8975 30.0185 40.8975C30.0185 40.8825 30.0185 40.8674 30.0185 40.8519C30.0035 40.8519 29.9885 40.8519 29.973 40.8519C29.973 40.8369 29.973 40.8219 29.973 40.8064C29.9504 40.7989 29.9279 40.7914 29.9047 40.7836C29.8695 40.7479 29.8695 40.7479 29.8321 40.7024C29.6943 40.5403 29.5417 40.3985 29.3809 40.2596C29.1612 40.0682 29.1612 40.0682 29.0862 39.9749C29.0133 39.8861 28.9261 39.8185 28.8366 39.7471C28.7614 39.6864 28.6882 39.6238 28.6151 39.5605C28.3141 39.301 28.0045 39.0516 27.6956 38.8016C27.6748 38.7848 27.654 38.768 27.6326 38.7506C27.4185 38.5783 27.2014 38.4109 26.9768 38.2524C26.8896 38.1907 26.8042 38.127 26.7194 38.0621C26.5765 37.9529 26.4318 37.8518 26.2781 37.7583C26.1244 37.6642 25.9749 37.5637 25.8253 37.4632C25.5743 37.2949 25.321 37.1307 25.0653 36.9697C25.0108 36.9352 24.9567 36.9003 24.9026 36.8651C24.6213 36.6831 24.3299 36.5214 24.0362 36.3602C23.9227 36.2975 23.81 36.2332 23.6973 36.169C23.5096 36.0624 23.3207 35.9583 23.1308 35.8557C23.1076 35.8432 23.0845 35.8307 23.0606 35.8177C22.725 35.6374 22.3817 35.4726 22.0384 35.3075C21.9894 35.2839 21.9405 35.2603 21.8915 35.2366C21.8694 35.2261 21.8694 35.2261 21.8469 35.2153C21.7863 35.186 21.7276 35.1559 21.6702 35.1208C21.6079 35.0842 21.5459 35.0602 21.478 35.0355C21.3238 34.9775 21.1758 34.9097 21.027 34.8391C20.8535 34.7578 20.6814 34.6802 20.5007 34.6163C20.3907 34.5767 20.2848 34.5302 20.1784 34.4819C19.7699 34.2967 19.3498 34.1454 18.9276 33.9948C18.9094 33.9883 18.8912 33.9818 18.8724 33.9751C18.6295 33.8886 18.3861 33.8035 18.1424 33.7194C18.0544 33.689 17.9666 33.6584 17.8787 33.6278C17.292 33.4234 16.7059 33.2291 16.1045 33.0729C16.0563 33.0603 16.0081 33.0475 15.9599 33.0347C15.6523 32.9529 15.3435 32.8757 15.0346 32.7988C14.958 32.7797 14.8814 32.7605 14.8048 32.7414C14.7548 32.7289 14.7048 32.7165 14.6548 32.704C14.5408 32.6756 14.4268 32.6471 14.3129 32.6182C14.106 32.5657 13.8994 32.5166 13.6895 32.477C13.5492 32.4502 13.4101 32.4221 13.2717 32.3866C13.1798 32.3631 13.0907 32.3449 12.9963 32.3346C12.8422 32.3145 12.6938 32.2797 12.5437 32.2393C12.402 32.203 12.2605 32.1833 12.1156 32.1651C11.8543 32.1316 11.5993 32.0775 11.3427 32.0183C11.2689 32.0012 11.195 31.9845 11.1211 31.9679C11.0733 31.957 11.0254 31.9461 10.9776 31.9352C10.956 31.9303 10.9343 31.9254 10.912 31.9203C10.7909 31.8923 10.6721 31.8603 10.5536 31.8227C10.4976 31.8068 10.4421 31.7965 10.3847 31.7871C10.2136 31.7579 10.0484 31.7081 9.88197 31.6597C9.86466 31.6547 9.84734 31.6497 9.8295 31.6445C9.70405 31.6083 9.57875 31.5715 9.45353 31.5344C9.42925 31.5272 9.42925 31.5272 9.40448 31.5199C8.92681 31.3784 8.45946 31.2159 7.99599 31.0332C7.97003 31.023 7.97003 31.023 7.94355 31.0126C7.07407 30.6703 6.22101 30.2838 5.436 29.7729C5.36972 29.73 5.30309 29.6876 5.23641 29.6453C4.65144 29.2739 4.08939 28.8829 3.57782 28.4134C3.49587 28.3404 3.41422 28.2682 3.3273 28.2012C3.31227 28.1885 3.29724 28.1759 3.28175 28.1628C3.28175 28.1478 3.28175 28.1327 3.28175 28.1172C3.26823 28.1111 3.25471 28.105 3.24077 28.0987C3.19043 28.0715 3.15772 28.0443 3.11762 28.0039C3.10434 27.9905 3.09107 27.9772 3.07739 27.9635C3.06357 27.9494 3.04975 27.9353 3.03551 27.9207C3.01403 27.899 3.01403 27.899 2.99212 27.8768C2.90878 27.792 2.82763 27.7061 2.75083 27.6152C2.70341 27.56 2.65376 27.5071 2.60422 27.4537C2.48525 27.3231 2.37671 27.1858 2.26896 27.0458C2.23202 26.9982 2.19457 26.951 2.15702 26.9039C0.847997 25.2537 0.082829 23.1267 0.00228435 20.85C0.0019394 20.8283 0.00159446 20.8066 0.00123906 20.7843C-0.00213809 20.5307 0.00134197 20.2776 0.012248 20.0242C0.0131397 20.0032 0.0140315 19.9821 0.0149502 19.9605C0.015908 19.941 0.0168658 19.9215 0.0178526 19.9014C0.0186874 19.8843 0.0195223 19.8673 0.0203824 19.8497C0.0251028 19.8016 0.0349007 19.7575 0.0478325 19.7109Z" fill="#FFFFFF"/>
<path id="Vector_5" d="M47.1003 15.8606C47.1153 15.8606 47.1303 15.8606 47.1458 15.8606C47.2158 16.0263 47.2709 16.1939 47.3223 16.3661C47.4324 16.7286 47.5554 17.0865 47.6791 17.4445C47.8685 17.9946 47.8685 17.9946 47.9201 18.2527C48.7694 18.2527 49.6186 18.2527 50.4936 18.2527C50.4424 18.3552 50.4424 18.3552 50.3725 18.4029C50.3496 18.4188 50.3496 18.4188 50.3261 18.4351C50.3095 18.4463 50.2929 18.4575 50.2758 18.4691C50.2405 18.4935 50.2051 18.518 50.1698 18.5424C50.1426 18.5611 50.1426 18.5611 50.1149 18.5801C50.0315 18.6374 49.9486 18.6955 49.8659 18.7539C49.8499 18.7651 49.8339 18.7764 49.8174 18.788C49.7073 18.8658 49.5991 18.9459 49.4916 19.0272C49.2254 19.2286 48.9513 19.4185 48.6757 19.6067C48.6049 19.6551 48.5348 19.7039 48.4667 19.7562C48.4806 19.8835 48.5126 19.9965 48.5543 20.1174C48.564 20.1462 48.564 20.1462 48.5739 20.1756C48.5878 20.2167 48.6018 20.2578 48.6158 20.2989C48.6526 20.4069 48.6889 20.515 48.7252 20.6232C48.7325 20.6446 48.7397 20.6661 48.7471 20.6883C48.8075 20.8684 48.8642 21.0495 48.9194 21.2313C48.9855 21.4491 49.0574 21.6634 49.1392 21.8758C49.1798 21.9829 49.2072 22.0797 49.2183 22.1938C49.1488 22.162 49.0937 22.1239 49.0347 22.0757C48.9624 22.0185 48.8897 21.9672 48.8112 21.919C48.6322 21.8073 48.4652 21.679 48.2962 21.553C48.0209 21.3479 47.7446 21.1445 47.4626 20.9486C47.4208 20.9192 47.3795 20.8892 47.3383 20.859C47.3142 20.8418 47.2902 20.8247 47.2654 20.807C47.2448 20.792 47.2243 20.7771 47.2031 20.7616C47.1472 20.7288 47.1472 20.7288 47.0914 20.7526C47.0331 20.7809 46.9861 20.8115 46.9348 20.851C46.9166 20.8648 46.8984 20.8787 46.8797 20.893C46.8604 20.9078 46.8412 20.9227 46.8213 20.938C46.678 21.0469 46.5344 21.1549 46.3872 21.2584C46.3719 21.2691 46.3565 21.2799 46.3408 21.291C46.2479 21.3559 46.1548 21.4204 46.0616 21.4849C45.8308 21.6445 45.6024 21.8059 45.379 21.9757C45.2792 22.0514 45.1768 22.1232 45.0734 22.1938C45.0408 22.1074 45.0614 22.0587 45.0947 21.9746C45.1509 21.8264 45.1984 21.6764 45.2442 21.5246C45.3257 21.2564 45.411 20.9896 45.4976 20.723C45.5037 20.7039 45.5099 20.6848 45.5163 20.6651C45.5911 20.434 45.6684 20.2041 45.7501 19.9754C45.7759 19.9026 45.8008 19.8296 45.8249 19.7562C45.8019 19.7487 45.8019 19.7487 45.7783 19.7411C45.6908 19.7015 45.6215 19.647 45.5459 19.5882C45.4182 19.4906 45.2892 19.3955 45.1574 19.3035C45.0172 19.2054 44.879 19.105 44.7417 19.003C44.5799 18.883 44.4157 18.7673 44.2492 18.6538C44.1603 18.5932 44.0722 18.5314 43.9845 18.4691C43.9713 18.4598 43.958 18.4504 43.9444 18.4408C43.8196 18.3518 43.8196 18.3518 43.7753 18.2982C43.7753 18.2832 43.7753 18.2682 43.7753 18.2527C44.617 18.2452 45.4587 18.2376 46.326 18.2299C46.4086 17.9818 46.4913 17.7337 46.5765 17.4781C46.6032 17.3987 46.63 17.3193 46.6576 17.2375C46.7301 17.0203 46.7981 16.8018 46.866 16.5832C46.9411 16.3413 47.0184 16.1003 47.1003 15.8606Z" fill="#FFFFFF"/>
<path id="Vector_6" d="M39.0128 11.0762C39.0353 11.0837 39.0579 11.0912 39.0811 11.099C39.103 11.152 39.103 11.152 39.1226 11.2236C39.1342 11.264 39.1342 11.264 39.1461 11.3052C39.1523 11.3271 39.1523 11.3271 39.1587 11.3495C39.1822 11.4289 39.2088 11.5073 39.2353 11.5858C39.2466 11.6197 39.258 11.6535 39.2693 11.6873C39.2751 11.7045 39.2808 11.7217 39.2868 11.7394C39.3958 12.0641 39.5028 12.3894 39.6049 12.7164C39.6146 12.7471 39.6242 12.7778 39.6339 12.8084C39.6672 12.9148 39.6969 13.017 39.7188 13.1265C40.4478 13.1265 41.1768 13.1265 41.9279 13.1265C41.8793 13.2237 41.8306 13.2615 41.7442 13.3201C41.7232 13.3348 41.7232 13.3348 41.7018 13.3497C41.6715 13.3708 41.6412 13.3918 41.6109 13.4127C41.5306 13.4681 41.451 13.5244 41.3713 13.5807C41.3468 13.5979 41.3468 13.5979 41.3219 13.6155C41.2155 13.6906 41.1102 13.7668 41.0055 13.8441C40.8827 13.9348 40.7588 14.0238 40.634 14.1118C40.6177 14.1233 40.6014 14.1348 40.5846 14.1467C40.5147 14.1961 40.4445 14.2448 40.3733 14.2922C40.3527 14.306 40.3321 14.3197 40.3109 14.3339C40.2935 14.3452 40.2761 14.3564 40.2582 14.3681C40.2103 14.4107 40.2009 14.4293 40.197 14.4934C40.2122 14.5636 40.2122 14.5636 40.2397 14.6429C40.2449 14.6586 40.25 14.6743 40.2553 14.6905C40.2735 14.7464 40.2922 14.8021 40.3109 14.8579C40.3255 14.9018 40.34 14.9458 40.3546 14.9898C40.4257 15.2042 40.4974 15.4183 40.5696 15.6323C40.5945 15.7062 40.6193 15.7801 40.6441 15.854C40.6562 15.8901 40.6684 15.9262 40.6806 15.9622C40.8 16.3147 40.8 16.3147 40.8347 16.4981C40.7501 16.4569 40.6723 16.4079 40.5942 16.3557C40.5793 16.3458 40.5645 16.336 40.5492 16.3258C40.4085 16.2309 40.2725 16.1301 40.1365 16.0286C40.0084 15.9335 39.8781 15.8426 39.7458 15.7535C39.5999 15.6551 39.459 15.553 39.3231 15.4411C39.2382 15.3719 39.1578 15.3135 39.0583 15.2679C38.9499 15.2857 38.8617 15.3724 38.7765 15.4388C38.6567 15.5306 38.5357 15.6184 38.4093 15.7008C38.2733 15.7896 38.1432 15.8846 38.0139 15.9829C37.8854 16.0804 37.7543 16.1738 37.6221 16.2661C37.5269 16.3326 37.4341 16.4012 37.3426 16.4727C37.3047 16.4981 37.3047 16.4981 37.2592 16.4981C37.2741 16.3934 37.2999 16.2965 37.3319 16.1957C37.3394 16.1721 37.3394 16.1721 37.3471 16.1479C37.4005 15.9806 37.4562 15.814 37.5121 15.6475C37.5967 15.3957 37.6809 15.1437 37.7616 14.8906C37.7676 14.872 37.7736 14.8534 37.7797 14.8342C37.8226 14.6988 37.8603 14.5622 37.8968 14.425C37.8621 14.4006 37.8621 14.4006 37.8266 14.3756C37.5256 14.1638 37.2265 13.9496 36.9308 13.7304C36.7548 13.5999 36.5773 13.4742 36.3938 13.3543C36.3499 13.3256 36.3063 13.2967 36.2628 13.2674C36.2348 13.2489 36.2348 13.2489 36.2062 13.23C36.193 13.2184 36.1797 13.2068 36.166 13.1948C36.166 13.1723 36.166 13.1497 36.166 13.1265C36.8875 13.1265 37.609 13.1265 38.3523 13.1265C38.4075 12.9616 38.4075 12.9616 38.4576 12.7957C38.5748 12.389 38.7068 11.988 38.8422 11.587C38.8996 11.4169 38.9561 11.2465 39.0128 11.0762Z" fill="#FFFFFF"/>
<path id="Vector_7" d="M29.7213 11.4409C29.7364 11.4409 29.7514 11.4409 29.7669 11.4409C29.8168 11.5907 29.8667 11.7405 29.9166 11.8902C29.9259 11.9181 29.9259 11.9181 29.9354 11.9466C29.9485 11.9859 29.9615 12.0251 29.9746 12.0644C30.0142 12.1831 30.0538 12.3018 30.0935 12.4204C30.1026 12.4476 30.1117 12.4748 30.1211 12.5028C30.1388 12.5558 30.1566 12.6087 30.1743 12.6617C30.2333 12.8381 30.2911 13.0145 30.3362 13.1951C30.96 13.2026 31.5838 13.2101 32.2265 13.2179C32.2265 13.2329 32.2265 13.2479 32.2265 13.2634C32.1843 13.2925 32.1408 13.3196 32.0969 13.346C31.9516 13.436 31.8163 13.536 31.6813 13.6407C31.4467 13.8223 31.2047 13.9919 30.9601 14.1598C30.8882 14.2095 30.8171 14.2602 30.7462 14.3114C30.8099 14.7495 30.9885 15.1762 31.1328 15.5929C31.1742 15.7126 31.2156 15.8323 31.2563 15.9522C31.267 15.9838 31.267 15.9838 31.2779 16.016C31.2927 16.0655 31.2927 16.0655 31.2927 16.1111C31.2067 16.0714 31.1292 16.0198 31.0508 15.9673C31.0359 15.9573 31.021 15.9474 31.0057 15.9371C30.8352 15.8222 30.6692 15.7013 30.5031 15.5802C30.4494 15.5411 30.3956 15.5021 30.3417 15.4632C30.3152 15.444 30.3152 15.444 30.2881 15.4245C30.2532 15.3993 30.2183 15.3742 30.1833 15.3492C30.1089 15.2957 30.035 15.2419 29.9628 15.1855C29.9409 15.1686 29.919 15.1517 29.8964 15.1343C29.8782 15.1198 29.8599 15.1053 29.8412 15.0904C29.7742 15.055 29.7476 15.0658 29.6758 15.0859C29.6287 15.1104 29.6287 15.1104 29.5844 15.1425C29.5674 15.1543 29.5503 15.166 29.5328 15.1782C29.5147 15.1909 29.4966 15.2037 29.4779 15.2169C29.4589 15.2302 29.4398 15.2434 29.4202 15.2571C29.2403 15.3828 29.0624 15.5113 28.885 15.6405C28.831 15.6798 28.7769 15.7189 28.7227 15.7579C28.7045 15.771 28.6863 15.7841 28.6675 15.7977C28.6331 15.8225 28.5986 15.8473 28.5641 15.8721C28.5483 15.8835 28.5325 15.8949 28.5163 15.9067C28.5009 15.9177 28.4856 15.9287 28.4699 15.9401C28.4052 15.9876 28.3418 16.0367 28.2786 16.086C28.241 16.1111 28.241 16.1111 28.1955 16.1111C28.2117 16.0197 28.237 15.9335 28.2655 15.8452C28.2725 15.8235 28.2725 15.8235 28.2796 15.8013C28.2946 15.7546 28.3098 15.7079 28.325 15.6611C28.3301 15.6452 28.3353 15.6293 28.3406 15.6129C28.4041 15.4166 28.469 15.2209 28.539 15.0268C28.581 14.9099 28.6181 14.792 28.6537 14.6731C28.6771 14.5965 28.7031 14.5211 28.7303 14.4458C28.746 14.3953 28.746 14.3953 28.742 14.3114C28.7019 14.2729 28.7019 14.2729 28.6467 14.2402C28.5541 14.1791 28.4661 14.1153 28.3791 14.0465C28.2379 13.9361 28.0907 13.8353 27.9424 13.7348C27.8234 13.654 27.7062 13.5717 27.5905 13.4862C27.5126 13.4293 27.4327 13.3753 27.3527 13.3214C27.3073 13.2862 27.3073 13.2862 27.2617 13.2179C27.878 13.2103 28.4943 13.2028 29.1292 13.1951C29.2623 12.8348 29.2623 12.8348 29.3783 12.4703C29.4424 12.2564 29.5128 12.0459 29.5915 11.8368C29.6404 11.7063 29.6829 11.5749 29.7213 11.4409Z" fill="#FFFFFF"/>
<path id="Vector_8" d="M47.918 18.2524C48.7672 18.2524 49.6165 18.2524 50.4914 18.2524C50.4402 18.355 50.4402 18.355 50.3548 18.3891C50.3548 18.3591 50.3548 18.329 50.3548 18.298C49.5582 18.298 48.7615 18.298 47.9407 18.298C47.9332 18.283 47.9257 18.2679 47.918 18.2524Z" fill="#FFFFFF"/>
<path id="Vector_9" d="M39.7207 13.1265C40.4497 13.1265 41.1787 13.1265 41.9298 13.1265C41.9148 13.1565 41.8997 13.1866 41.8842 13.2176C41.8617 13.2063 41.8617 13.2063 41.8387 13.1948C41.772 13.192 41.7058 13.1906 41.6391 13.1901C41.6081 13.1898 41.6081 13.1898 41.5765 13.1894C41.508 13.1887 41.4395 13.1882 41.3709 13.1876C41.3235 13.1871 41.2761 13.1867 41.2287 13.1862C41.1037 13.1849 40.9787 13.1838 40.8537 13.1827C40.7263 13.1815 40.5988 13.1803 40.4714 13.179C40.2211 13.1766 39.9709 13.1743 39.7207 13.172C39.7207 13.157 39.7207 13.142 39.7207 13.1265Z" fill="#FFFFFF"/>
<path id="Vector_10" d="M48.377 18.2524C49.0759 18.2524 49.7748 18.2524 50.4949 18.2524C50.4799 18.2825 50.4649 18.3126 50.4494 18.3436C50.4268 18.3436 50.4043 18.3436 50.3811 18.3436C50.3886 18.3285 50.3961 18.3135 50.4038 18.298C49.735 18.2905 49.0661 18.283 48.377 18.2752C48.377 18.2677 48.377 18.2602 48.377 18.2524Z" fill="#FFFFFF"/>
<path id="Vector_11" d="M40.1307 13.1263C40.7244 13.1263 41.3181 13.1263 41.9298 13.1263C41.9148 13.1564 41.8998 13.1865 41.8843 13.2174C41.8617 13.2062 41.8617 13.2062 41.8387 13.1947C41.8387 13.1871 41.8387 13.1796 41.8387 13.1719C41.2751 13.1644 40.7114 13.1568 40.1307 13.1491C40.1307 13.1416 40.1307 13.1341 40.1307 13.1263Z" fill="#FFFFFF"/>
<path id="Vector_12" d="M31.1347 15.6557C31.1858 15.7323 31.2118 15.8096 31.24 15.8963C31.2453 15.9119 31.2505 15.9275 31.2559 15.9436C31.2941 16.0596 31.2941 16.0596 31.2941 16.1113C31.2284 16.0818 31.1832 16.0507 31.1347 15.9974C31.1474 15.9671 31.1474 15.9671 31.1603 15.9362C31.1833 15.8492 31.172 15.8256 31.1347 15.7468C31.1347 15.7167 31.1347 15.6866 31.1347 15.6557Z" fill="#FFFFFF"/>
<path id="Vector_13" d="M32.1567 40.3965C32.1643 40.3965 32.1718 40.3965 32.1795 40.3965C32.2208 40.5805 32.2304 40.7549 32.2251 40.9432C32.146 40.8246 32.1536 40.6976 32.1553 40.5588C32.1554 40.5431 32.1555 40.5274 32.1556 40.5113C32.1559 40.473 32.1563 40.4347 32.1567 40.3965Z" fill="#FFFFFF"/>
<path id="Vector_14" d="M45.0944 21.9883C45.1019 22.0108 45.1094 22.0334 45.1172 22.0566C45.1547 22.0566 45.1923 22.0566 45.231 22.0566C45.1257 22.1677 45.1257 22.1677 45.0488 22.1933C45.0599 22.1222 45.0716 22.0567 45.0944 21.9883Z" fill="#FFFFFF"/>
<path id="Vector_15" d="M40.6544 15.9514C40.6939 16.0108 40.7156 16.0559 40.7383 16.1223C40.7445 16.1399 40.7507 16.1575 40.7571 16.1757C40.7682 16.2248 40.7682 16.2248 40.7455 16.2932C40.6999 16.2476 40.6999 16.2476 40.6971 16.165C40.698 16.1396 40.6989 16.1143 40.6999 16.0881C40.6849 16.0881 40.6698 16.0881 40.6544 16.0881C40.6544 16.043 40.6544 15.9979 40.6544 15.9514Z" fill="#FFFFFF"/>
<path id="Vector_16" d="M28.2427 15.9514C28.2578 15.974 28.2728 15.9966 28.2883 16.0198C28.3033 16.0273 28.3183 16.0348 28.3338 16.0426C28.2484 16.1109 28.2484 16.1109 28.1972 16.1109C28.2171 16.0027 28.2171 16.0027 28.2427 15.9514Z" fill="#FFFFFF"/>
<path id="Vector_17" d="M11.4788 33.2425C11.4863 33.2425 11.4938 33.2425 11.5016 33.2425C11.524 33.3348 11.5262 33.4211 11.5244 33.5159C11.5168 33.5159 11.5093 33.5159 11.5016 33.5159C11.4792 33.4235 11.4769 33.3373 11.4788 33.2425Z" fill="#FFFFFF"/>
<path id="Vector_18" d="M11.4571 33.1283C11.4799 33.2195 11.4799 33.2195 11.4799 33.2195L11.4571 33.1283Z" fill="#FFFFFF"/>
<path id="Vector_19" d="M11.4355 32.9463C11.4583 33.0374 11.4583 33.0374 11.4583 33.0374L11.4355 32.9463Z" fill="#FFFFFF"/>
</g>
</svg>
