<svg preserveAspectRatio="none" width="100%" height="100%" overflow="visible" style="display: block;" viewBox="0 0 54.0001 48.4858" fill="none" xmlns="http://www.w3.org/2000/svg">
<g id="Symbol-AmeriTech-Colored">
<path id="Vector" d="M32.1219 5.18242C32.1489 5.18239 32.1489 5.18239 32.1764 5.18236C32.2269 5.18237 32.2774 5.18255 32.3279 5.18282C32.3426 5.18285 32.3573 5.18287 32.3724 5.1829C32.4549 5.18368 32.5323 5.19268 32.6134 5.20694C32.6465 5.20827 32.6796 5.20872 32.7127 5.20823C32.7313 5.20805 32.7498 5.20787 32.7689 5.20769C32.7887 5.20744 32.8085 5.20719 32.8289 5.20694C33.4235 5.20362 34.0162 5.25475 34.6065 5.32307C34.6291 5.32567 34.6517 5.32827 34.6749 5.33095C35.0241 5.37149 35.3715 5.42019 35.7185 5.47663C35.739 5.47993 35.7595 5.48322 35.7806 5.48662C36.0097 5.52374 36.2349 5.56825 36.4601 5.62435C36.5736 5.65217 36.6861 5.67284 36.8019 5.68883C37.0693 5.72711 37.3296 5.79974 37.5906 5.86817C37.6333 5.87936 37.676 5.89047 37.7188 5.90157C38.6612 6.14657 38.6612 6.14657 39.0891 6.31371C39.1935 6.35444 39.2975 6.38774 39.4054 6.41735C39.6804 6.49706 39.9442 6.60586 40.209 6.71415C40.2237 6.72015 40.2384 6.72615 40.2536 6.73233C40.7884 6.95074 41.3138 7.18449 41.8335 7.4371C41.9516 7.49455 42.0699 7.55153 42.1894 7.60629C42.5978 7.79408 42.9809 8.02818 43.3631 8.26346C43.4379 8.30947 43.5128 8.35522 43.5878 8.40093C43.6588 8.4442 43.7296 8.48763 43.8004 8.53106C43.8123 8.53835 43.8242 8.54565 43.8365 8.55316C43.8917 8.58696 43.9467 8.62085 44.0018 8.65486C44.0491 8.68411 44.0966 8.71318 44.1442 8.74212C44.7387 9.10616 45.2936 9.53762 45.8326 9.97859C45.8923 10.0274 45.9524 10.0756 46.0128 10.1234C46.1255 10.2134 46.2352 10.3066 46.3449 10.4002C46.3809 10.4309 46.417 10.4616 46.4531 10.4922C46.5904 10.6089 46.725 10.7277 46.857 10.8503C46.9022 10.8918 46.9478 10.9323 46.994 10.9725C47.2617 11.2065 47.5136 11.4575 47.7646 11.7092C47.8168 11.7615 47.8691 11.8137 47.9214 11.866C47.9552 11.8998 47.989 11.9336 48.0227 11.9674C48.0381 11.9827 48.0535 11.998 48.0693 12.0138C48.1526 12.0975 48.2325 12.1829 48.3093 12.2725C48.3621 12.3334 48.4176 12.3915 48.4729 12.4501C48.57 12.5538 48.6618 12.6602 48.7506 12.7712C48.7972 12.8278 48.8461 12.8815 48.896 12.9353C48.9824 13.0293 49.0619 13.1267 49.1399 13.2276C49.2003 13.3056 49.2619 13.3825 49.3246 13.4587C50.0478 14.3383 50.6701 15.3049 51.2309 16.2942C51.2435 16.3163 51.2562 16.3384 51.2692 16.3612C51.7502 17.2057 52.1693 18.0836 52.5233 18.9885C52.5425 19.037 52.5619 19.0854 52.5815 19.1336C52.6679 19.3457 52.7449 19.5604 52.8189 19.7771C52.8255 19.7963 52.8321 19.8156 52.8389 19.8354C53.0028 20.3167 53.1434 20.8045 53.2788 21.2944C53.2935 21.3474 53.3083 21.4005 53.3232 21.4535C53.4313 21.8413 53.5153 22.2326 53.5929 22.6276C53.5974 22.6503 53.6019 22.673 53.6065 22.6963C53.6546 22.943 53.6983 23.1885 53.7284 23.438C53.7344 23.4826 53.7406 23.5271 53.7469 23.5716C53.7625 23.6836 53.7778 23.7957 53.7931 23.9077C53.8051 23.9953 53.8176 24.0827 53.8304 24.1702C53.8871 24.559 53.9271 24.9466 53.9516 25.3388C53.9529 25.3595 53.9542 25.3802 53.9555 25.4016C53.9679 25.6016 53.9798 25.8008 53.9749 26.0012C53.9749 26.0623 53.9749 26.0623 53.9862 26.1309C54.0039 26.2632 53.9997 26.3967 53.9995 26.5299C53.9995 26.5594 53.9995 26.5889 53.9995 26.6184C53.9996 26.68 53.9995 26.7416 53.9994 26.8032C53.9993 26.8818 53.9994 26.9605 53.9995 27.0391C53.9996 27.0999 53.9995 27.1608 53.9995 27.2216C53.9995 27.2506 53.9995 27.2796 53.9995 27.3086C53.9996 27.3492 53.9995 27.3898 53.9994 27.4304C53.9994 27.4534 53.9994 27.4764 53.9993 27.5001C53.9965 27.5719 53.9868 27.6409 53.9761 27.7119C53.9737 27.7424 53.9718 27.773 53.9706 27.8036C53.9699 27.8201 53.9692 27.8366 53.9685 27.8536C53.9678 27.871 53.9672 27.8883 53.9665 27.9062C53.9649 27.9441 53.9632 27.9819 53.9616 28.0197C53.9592 28.0786 53.9567 28.1374 53.9544 28.1962C53.9464 28.3968 53.9368 28.5932 53.9023 28.7914C53.8893 28.8742 53.8884 28.956 53.8871 29.0397C53.8786 29.3012 53.8326 29.5569 53.79 29.8145C53.7659 29.9619 53.7465 30.1098 53.7271 30.2579C53.7012 30.452 53.6697 30.6429 53.6258 30.8337C53.606 30.9218 53.5906 31.0105 53.5752 31.0995C53.393 32.1467 53.0675 33.1637 52.7145 34.1641C52.6976 34.2122 52.681 34.2603 52.6645 34.3084C52.5877 34.5312 52.5002 34.7489 52.41 34.9666C52.396 35.0005 52.3821 35.0344 52.3682 35.0682C52.3264 35.1695 52.2844 35.2707 52.2423 35.3718C52.235 35.3894 52.2276 35.4071 52.2201 35.4253C52.1981 35.4781 52.176 35.5309 52.1539 35.5837C52.1473 35.5995 52.1407 35.6154 52.1339 35.6317C52.0816 35.7564 52.0236 35.8776 51.9614 35.9977C51.9218 36.075 51.8831 36.1527 51.8447 36.2305C51.7299 36.4625 51.6145 36.6935 51.4867 36.9187C51.4353 37.0094 51.3883 37.1012 51.3432 37.1952C51.1459 37.6009 50.8976 37.9873 50.653 38.3656C50.6312 38.3995 50.6094 38.4335 50.5876 38.4674C50.0785 39.2581 49.5173 40.0124 48.9064 40.7273C48.8771 40.7616 48.848 40.7961 48.8189 40.8306C48.697 40.9748 48.5713 41.1147 48.4417 41.2521C48.3815 41.3161 48.3222 41.3803 48.2652 41.4471C48.1911 41.5334 48.1098 41.6122 48.0285 41.6916C47.9846 41.7354 47.944 41.781 47.9037 41.828C47.8284 41.9144 47.7491 41.996 47.668 42.0769C47.6535 42.0915 47.6389 42.106 47.624 42.121C47.5935 42.1515 47.563 42.182 47.5324 42.2124C47.4861 42.2587 47.4399 42.305 47.3937 42.3513C47.3639 42.3812 47.3341 42.411 47.3042 42.4408C47.2838 42.4613 47.2838 42.4613 47.263 42.4821C47.1831 42.5616 47.1011 42.6374 47.0157 42.7109C46.9618 42.7576 46.9099 42.8063 46.8578 42.855C46.7838 42.9235 46.709 42.989 46.6294 43.0511C46.5484 43.1145 46.4733 43.182 46.3985 43.2524C46.149 43.4863 45.8755 43.6931 45.6048 43.9017C45.5707 43.928 45.5366 43.9544 45.5025 43.9808C45.278 44.1548 45.0507 44.322 44.815 44.4807C44.7465 44.5269 44.6795 44.5748 44.6132 44.6241C44.4802 44.7219 44.3413 44.81 44.2023 44.8987C44.1477 44.9336 44.0932 44.9685 44.0387 45.0035C43.8382 45.1319 43.6373 45.2593 43.432 45.38C43.3994 45.3992 43.3669 45.4184 43.3343 45.4377C42.7454 45.7865 42.1409 46.0935 41.5246 46.3905C41.487 46.4087 41.4494 46.4268 41.4119 46.445C41.178 46.5584 40.943 46.6664 40.7026 46.7654C40.6562 46.7845 40.6099 46.8038 40.5636 46.8231C40.3046 46.9307 40.0438 47.0334 39.7769 47.1198C39.633 47.1669 39.4897 47.2156 39.3468 47.2657C38.8176 47.4509 38.2838 47.6153 37.7437 47.7658C37.6966 47.7789 37.6496 47.7922 37.6025 47.8055C37.0381 47.9632 36.4575 48.0564 35.8814 48.1603C35.8157 48.1722 35.7501 48.1843 35.6844 48.1964C35.4813 48.234 35.2784 48.27 35.0735 48.2967C35.0356 48.3016 35.0356 48.3016 34.9969 48.3067C34.6299 48.3535 34.2616 48.388 33.8931 48.4205C33.8661 48.4229 33.8391 48.4253 33.8113 48.4278C33.1538 48.4843 32.4887 48.4916 31.8291 48.4825C31.8123 48.4823 31.7954 48.482 31.778 48.4818C31.6599 48.4802 31.5418 48.4782 31.4237 48.4759C31.3843 48.4751 31.3449 48.4744 31.3055 48.4738C31.073 48.4698 30.8444 48.4564 30.6134 48.4298C30.5164 48.4188 30.4199 48.4141 30.3224 48.4115C30.0837 48.4025 29.8474 48.3751 29.6104 48.3466C29.5602 48.3406 29.5099 48.3348 29.4597 48.3292C29.2292 48.3034 29.0001 48.2702 28.7709 48.2352C28.7084 48.2257 28.646 48.2163 28.5835 48.2069C28.3936 48.1782 28.2056 48.1475 28.0183 48.1052C27.9389 48.0881 27.8591 48.074 27.779 48.0603C27.5908 48.0277 27.4039 47.9901 27.2173 47.9495C27.1996 47.9457 27.182 47.9419 27.1637 47.9379C26.6766 47.8313 26.198 47.6933 25.7196 47.5534C25.6959 47.5465 25.6959 47.5465 25.6717 47.5394C25.4265 47.468 25.1824 47.3954 24.9469 47.2957C24.8655 47.2619 24.7838 47.2354 24.6989 47.2118C24.4504 47.1423 24.2132 47.0474 23.9742 46.9507C23.9517 46.9417 23.9293 46.9327 23.9061 46.9234C23.0837 46.592 22.2784 46.2218 21.5042 45.7889C21.4416 45.7541 21.3788 45.7197 21.3159 45.6854C20.6876 45.3414 20.0704 44.9687 19.4891 44.5498C19.4411 44.5155 19.3926 44.4818 19.3441 44.4482C19.0135 44.2193 18.6971 43.976 18.3861 43.7211C18.3403 43.6837 18.2941 43.6467 18.2478 43.6099C18.1295 43.5154 18.0121 43.4199 17.8948 43.3243C17.8471 43.2854 17.7993 43.2468 17.7514 43.2083C17.5734 43.0647 17.4041 42.9128 17.2442 42.7491C17.1883 42.6923 17.132 42.6423 17.068 42.5948C16.8916 42.455 16.7378 42.2895 16.5798 42.1297C16.5469 42.0965 16.5139 42.0634 16.4809 42.0302C16.4205 41.9694 16.3601 41.9086 16.2998 41.8477C16.2182 41.7653 16.1362 41.6831 16.0537 41.6016C15.8216 41.3715 15.8216 41.3715 15.7246 41.2568C15.6872 41.2134 15.6484 41.1717 15.6092 41.1299C15.5053 41.0187 15.4096 40.9034 15.3167 40.7828C15.2464 40.6922 15.1719 40.6069 15.0945 40.5222C14.9219 40.3316 14.7685 40.1276 14.6152 39.9215C14.5462 39.8287 14.4761 39.7368 14.4057 39.6451C14.2596 39.4547 14.1179 39.262 13.9813 39.0646C13.9569 39.0295 13.9322 38.9944 13.9076 38.9594C13.6453 38.5854 13.4096 38.1965 13.1783 37.8029C13.1302 37.7212 13.0819 37.6396 13.0331 37.5583C12.8832 37.3077 12.7413 37.0536 12.6043 36.7958C12.583 36.7557 12.5617 36.7157 12.5403 36.6757C11.9072 35.4947 11.4231 34.2226 11.0253 32.9446C11.0029 32.8729 10.9799 32.8013 10.9569 32.7298C10.8341 32.341 10.7461 31.9479 10.662 31.5493C10.6348 31.4211 10.6051 31.2936 10.5735 31.1663C10.5381 31.0213 10.5079 30.8757 10.4807 30.7289C10.4771 30.7101 10.4736 30.6913 10.4699 30.6719C10.4519 30.5713 10.4421 30.4775 10.4458 30.3753C10.5032 30.4327 10.5005 30.4783 10.5129 30.5585C10.6438 31.3436 10.8597 32.1176 11.1063 32.8736C11.1157 32.9026 11.125 32.9317 11.1343 32.9608C11.2659 33.3703 11.41 33.7714 11.5743 34.1689C11.6019 34.2367 11.628 34.3049 11.6538 34.3733C11.7012 34.4974 11.7545 34.6179 11.8107 34.7382C11.8306 34.7814 11.8506 34.8246 11.8706 34.8677C11.8807 34.8896 11.8908 34.9114 11.9013 34.9339C11.9413 35.0204 11.9809 35.1071 12.0205 35.1938C12.0581 35.2761 12.0959 35.3583 12.1337 35.4405C12.1562 35.4896 12.1784 35.5388 12.2005 35.5881C12.3064 35.8219 12.4325 36.0429 12.5603 36.2653C12.5973 36.3301 12.6332 36.3954 12.669 36.4609C12.7614 36.6297 12.8586 36.7953 12.9575 36.9603C12.9702 36.9816 12.983 37.0029 12.9961 37.0248C13.1477 37.2762 13.3081 37.5214 13.4709 37.7655C13.4809 37.7805 13.4909 37.7955 13.5012 37.8109C13.7693 38.2129 14.0419 38.6092 14.3479 38.9835C14.4226 39.0748 14.4961 39.1669 14.5687 39.2598C14.665 39.383 14.7627 39.5049 14.8628 39.625C14.8723 39.6364 14.8818 39.6478 14.8916 39.6596C15.0117 39.8032 15.1344 39.94 15.2685 40.0709C15.3173 40.121 15.361 40.173 15.4046 40.2277C15.6167 40.4927 15.8585 40.7461 16.1167 40.9663C16.1781 41.0219 16.2355 41.0809 16.2935 41.14C16.3943 41.2426 16.4985 41.3337 16.6114 41.4231C16.6694 41.4717 16.7134 41.5283 16.7617 41.5865C16.81 41.6268 16.8596 41.6652 16.9093 41.7037C16.9741 41.7565 17.0341 41.8128 17.0946 41.8704C17.2158 41.9846 17.345 42.084 17.4792 42.1825C17.5717 42.2504 17.6621 42.3209 17.7525 42.3917C18.1213 42.6798 18.4962 42.9609 18.8877 43.2176C18.9123 43.234 18.9369 43.2504 18.9614 43.2669C18.9745 43.2756 18.9875 43.2844 19.0009 43.2934C19.0254 43.3098 19.0499 43.3262 19.0744 43.3427C19.0988 43.359 19.1233 43.375 19.148 43.3908C19.1849 43.4157 19.2207 43.4423 19.2559 43.4696C19.4545 43.6184 19.6156 43.6357 19.8586 43.6294C19.8943 43.6292 19.9301 43.629 19.9658 43.629C20.0597 43.6285 20.1535 43.6269 20.2474 43.625C20.3218 43.6237 20.3963 43.6233 20.4707 43.6229C20.8422 43.6208 21.2131 43.611 21.584 43.5907C21.6063 43.5895 21.6063 43.5895 21.629 43.5883C21.9421 43.5711 22.2516 43.5329 22.5616 43.486C22.5839 43.4826 22.6061 43.4793 22.629 43.4758C22.7721 43.4538 22.9146 43.4294 23.057 43.4034C23.0765 43.3999 23.0959 43.3963 23.116 43.3927C23.6559 43.2935 24.1961 43.165 24.7214 43.0053C24.7562 42.9947 24.791 42.9843 24.8259 42.9741C25.8247 42.6765 26.7687 42.2481 27.6598 41.7104C27.7012 41.6856 27.7427 41.6609 27.7841 41.6362C28.0168 41.4966 28.244 41.352 28.4647 41.1942C28.4874 41.1781 28.4874 41.1781 28.5104 41.1617C29.1848 40.6814 29.8056 40.1463 30.3899 39.5601C30.4363 39.5136 30.4829 39.4672 30.5294 39.4207C30.5595 39.3906 30.5896 39.3605 30.6197 39.3303C30.6333 39.3167 30.647 39.3031 30.661 39.2891C30.7404 39.2093 30.8161 39.1273 30.8895 39.0419C30.9341 38.9905 30.9812 38.9415 31.028 38.8921C31.1384 38.7733 31.2345 38.646 31.3304 38.5155C31.3977 38.4241 31.4675 38.3348 31.5376 38.2456C31.6869 38.0545 31.8314 37.86 31.9736 37.6636C31.9843 37.6488 31.995 37.6341 32.006 37.6189C32.6368 36.7444 33.1487 35.7723 33.5964 34.7924C33.6042 34.7754 33.612 34.7583 33.62 34.7408C33.6719 34.6252 33.718 34.5079 33.763 34.3896C33.7901 34.3184 33.8177 34.2475 33.8455 34.1766C34.131 33.4756 34.131 33.4756 34.3514 32.7532C34.3813 32.6284 34.4183 32.5064 34.4564 32.3838C34.5429 32.1053 34.614 31.828 34.6648 31.5406C34.6763 31.4762 34.6882 31.4119 34.7002 31.3476C34.7851 30.8937 34.8482 30.4392 34.8976 29.9801C35.0144 28.9233 35.3353 27.7811 36.0191 26.9479C36.036 26.9272 36.053 26.9064 36.0704 26.885C36.395 26.5088 36.904 26.1879 37.4065 26.1382C37.6497 26.1254 37.8714 26.1546 38.1037 26.2253C38.1178 26.2295 38.1319 26.2337 38.1464 26.238C38.6709 26.3985 39.1404 26.6994 39.572 27.0319C39.6561 27.0965 39.7428 27.1571 39.8298 27.2176C40.0452 27.3684 40.2514 27.5272 40.445 27.7053C40.5071 27.7614 40.5707 27.8154 40.6347 27.8693C40.8654 28.0636 41.0887 28.2657 41.3115 28.4689C41.3563 28.5093 41.4016 28.5489 41.4475 28.5881C41.5264 28.6566 41.5995 28.7306 41.6729 28.8049C41.7728 28.9056 41.8786 28.9975 41.988 29.0875C42.0451 29.1357 42.0986 29.1846 42.1492 29.2397C42.1492 29.2534 42.1492 29.267 42.1492 29.281C42.1606 29.2854 42.172 29.2899 42.1837 29.2944C42.248 29.3317 42.2917 29.3833 42.3401 29.4385C42.3602 29.4608 42.3803 29.4832 42.4004 29.5055C42.4152 29.5219 42.4152 29.5219 42.4302 29.5387C42.5358 29.6621 42.5358 29.6621 42.6652 29.7559C42.6652 29.7695 42.6652 29.7831 42.6652 29.7972C42.6789 29.7972 42.6925 29.7972 42.7065 29.7972C42.732 29.8232 42.732 29.8232 42.7633 29.8617C42.8364 29.9481 42.915 30.0274 42.9955 30.1069C43.0815 30.1922 43.1655 30.2775 43.2438 30.3701C43.3038 30.4388 43.3665 30.5049 43.4289 30.5714C43.5807 30.7333 43.5807 30.7333 43.6456 30.8089C43.7494 30.9294 43.8597 31.0441 43.9684 31.1601C44.0415 31.2381 44.1143 31.3163 44.1872 31.3945C44.2485 31.4603 44.3099 31.5259 44.3717 31.5912C44.4937 31.7205 44.6113 31.8506 44.7222 31.9897C44.7805 32.0597 44.8423 32.1259 44.9047 32.1922C45.0606 32.3581 45.2031 32.533 45.34 32.715C45.3673 32.7522 45.3673 32.7522 45.4104 32.7703C45.4104 32.7839 45.4104 32.7976 45.4104 32.8116C45.424 32.8116 45.4376 32.8116 45.4517 32.8116C45.4792 32.8419 45.5051 32.8736 45.5304 32.9058C45.6086 33.0038 45.6891 33.0992 45.7716 33.1936C45.8644 33.3 45.955 33.4077 46.0438 33.5175C46.1004 33.5863 46.1584 33.6539 46.2166 33.7214C46.3006 33.8188 46.3823 33.9176 46.4621 34.0186C46.5116 34.0801 46.5627 34.1401 46.614 34.2001C46.6918 34.2914 46.7673 34.3841 46.841 34.4788C47.0026 34.6864 47.1698 34.8894 47.3411 35.0891C47.4282 35.1908 47.5082 35.2943 47.5832 35.4054C47.6212 35.4576 47.6626 35.5039 47.7066 35.5512C47.7991 35.6507 47.8775 35.7577 47.955 35.8691C48.0092 35.9489 48.0092 35.9489 48.0936 35.9912C48.1848 35.811 48.2744 35.6304 48.359 35.447C48.3978 35.3634 48.4384 35.2809 48.48 35.1987C48.5707 35.0194 48.6546 34.8378 48.7357 34.654C48.7567 34.6065 48.7779 34.559 48.799 34.5115C48.9191 34.2411 49.0304 33.9677 49.1323 33.6899C49.1569 33.623 49.182 33.5563 49.2073 33.4896C49.359 33.0842 49.4805 32.6698 49.6003 32.2542C49.6054 32.2366 49.6105 32.219 49.6157 32.2009C49.9576 31.0136 50.1722 29.812 50.2853 28.5816C50.2871 28.5626 50.2889 28.5435 50.2907 28.5239C50.3251 28.1468 50.3456 27.7704 50.355 27.3918C50.3557 27.3663 50.3557 27.3663 50.3563 27.3403C50.3637 27.0443 50.3685 26.7485 50.364 26.4524C50.3635 26.4148 50.3635 26.4148 50.3629 26.3765C50.3447 25.3159 50.2591 24.2527 50.0544 23.2109C50.0516 23.1967 50.0489 23.1825 50.046 23.1678C49.9515 22.6912 49.8267 22.2228 49.6983 21.7543C49.6891 21.7206 49.6891 21.7206 49.6797 21.6862C49.6681 21.644 49.6565 21.6019 49.6449 21.5597C49.6209 21.4727 49.5981 21.3859 49.5793 21.2976C49.56 21.2082 49.5332 21.1226 49.5038 21.0361C49.4985 21.0205 49.4933 21.0048 49.4879 20.9887C49.4713 20.9392 49.4545 20.8898 49.4378 20.8404C49.4268 20.8075 49.4157 20.7747 49.4047 20.7418C49.3832 20.6779 49.3617 20.614 49.3401 20.5502C49.3234 20.501 49.3072 20.4518 49.2913 20.4024C49.2212 20.1838 49.1348 19.9712 49.0508 19.7577C49.0383 19.7258 49.0383 19.7258 49.0255 19.6933C48.9697 19.5512 48.9136 19.4092 48.8573 19.2674C48.8487 19.2456 48.8487 19.2456 48.8399 19.2233C48.2862 17.8265 47.4877 16.497 46.6075 15.2825C46.5964 15.2671 46.5852 15.2517 46.5737 15.2359C46.2965 14.854 46.0071 14.4826 45.7013 14.1232C45.6393 14.0502 45.5788 13.9763 45.5187 13.9018C45.457 13.8259 45.3933 13.7555 45.3228 13.6878C45.2888 13.6537 45.2582 13.6187 45.2273 13.5818C45.1583 13.5024 45.0852 13.4281 45.0106 13.3542C44.9929 13.3367 44.9929 13.3367 44.9748 13.3188C44.9256 13.2701 44.8762 13.2214 44.8268 13.1729C44.7903 13.137 44.754 13.1011 44.7177 13.0651C44.7008 13.0486 44.7008 13.0486 44.6835 13.0317C44.6567 13.0051 44.6309 12.9774 44.6054 12.9495C44.6054 12.9358 44.6054 12.9222 44.6054 12.9082C44.5939 12.9034 44.5824 12.8986 44.5705 12.8937C44.5104 12.8598 44.4696 12.8178 44.4213 12.7686C44.4069 12.754 44.4069 12.754 44.3923 12.7392C44.3617 12.7083 44.3313 12.6773 44.301 12.6462C44.1844 12.5273 44.0684 12.4092 43.9416 12.3009C43.8767 12.2448 43.815 12.1852 43.7527 12.1262C43.6448 12.0245 43.5349 11.9283 43.419 11.8357C43.368 11.794 43.3198 11.7504 43.2715 11.7055C43.1403 11.5861 42.998 11.4815 42.8566 11.3747C42.7798 11.3162 42.7038 11.2566 42.6278 11.1971C42.0413 10.7397 41.4351 10.3266 40.7986 9.94265C40.7099 9.88906 40.6215 9.83492 40.5333 9.78051C40.2519 9.60722 39.9681 9.44288 39.6724 9.29499C39.6477 9.28256 39.623 9.27013 39.5984 9.25769C38.823 8.86748 38.0306 8.51353 37.2151 8.21547C37.1719 8.1996 37.1287 8.18356 37.0856 8.16748C36.7207 8.0316 36.3576 7.90392 35.9807 7.80526C35.913 7.78701 35.8459 7.76733 35.7788 7.74729C34.6667 7.41786 33.5204 7.18989 32.3651 7.08938C32.285 7.0823 32.205 7.07439 32.125 7.06658C32.0616 7.06043 31.9982 7.05453 31.9348 7.0487C31.9039 7.04574 31.8731 7.04256 31.8422 7.03924C31.7132 7.02546 31.5846 7.01835 31.455 7.01353C31.3142 7.00793 31.1737 7.00143 31.0332 6.99159C30.9063 6.98308 30.7806 6.98205 30.6535 6.9832C30.6023 6.98268 30.5547 6.97961 30.5043 6.97223C30.3682 6.95439 30.235 6.95797 30.0988 6.97191C29.9597 6.98504 29.8206 6.98687 29.6811 6.98938C28.8297 7.00573 27.9786 7.06898 27.1397 7.21666C27.0334 7.23516 26.927 7.25266 26.8205 7.27017C26.5424 7.31597 26.2649 7.36395 25.9879 7.41614C25.9709 7.41929 25.9538 7.42245 25.9363 7.4257C25.3447 7.53578 24.7683 7.71349 24.1938 7.89016C24.1236 7.91174 24.0533 7.93315 23.983 7.95456C23.7398 8.02904 23.5001 8.10748 23.2634 8.20071C23.2162 8.21885 23.169 8.23697 23.1217 8.25507C23.0549 8.28087 22.9881 8.30672 22.9214 8.33258C22.8217 8.37106 22.7221 8.40891 22.6211 8.44396C22.4472 8.50688 22.2798 8.58625 22.1114 8.66268C22.0745 8.67938 22.0376 8.69608 22.0007 8.71278C21.8918 8.76215 21.7829 8.81175 21.6741 8.86141C21.6587 8.86842 21.6433 8.87543 21.6275 8.88265C21.1043 9.12121 20.5954 9.37882 20.1013 9.67351C20.0468 9.70598 19.9921 9.7382 19.9374 9.77035C19.6716 9.92729 19.4133 10.095 19.156 10.2654C19.1347 10.2795 19.1133 10.2936 19.0914 10.3081C18.8484 10.4686 18.6066 10.63 18.3717 10.8022C18.3571 10.8128 18.3426 10.8233 18.3277 10.8342C18.1134 10.9903 17.9022 11.1498 17.6936 11.3134C17.63 11.3633 17.5659 11.4124 17.5014 11.4613C17.2895 11.6221 17.0898 11.7966 16.8951 11.9777C16.823 12.0444 16.7485 12.1075 16.6727 12.17C16.5526 12.2697 16.4429 12.3782 16.3335 12.4894C16.257 12.567 16.1793 12.6409 16.0962 12.7114C16.0005 12.7948 15.9126 12.8863 15.8303 12.983C15.7596 13.0655 15.6831 13.1415 15.6059 13.2179C15.5193 13.3037 15.4348 13.3895 15.356 13.4826C15.3121 13.5331 15.2666 13.5817 15.2208 13.6304C15.111 13.7474 15.0057 13.8662 14.9053 13.9915C14.8505 14.0589 14.7929 14.1236 14.7343 14.1879C14.7014 14.2254 14.6727 14.264 14.6435 14.3044C14.5945 14.3534 14.5945 14.3534 14.5377 14.3573C14.4475 14.3243 14.367 14.279 14.2849 14.2296C14.3142 14.1454 14.3546 14.0832 14.4087 14.0128C14.4169 14.0021 14.4251 13.9914 14.4335 13.9804C14.4508 13.9578 14.4682 13.9352 14.4856 13.9127C14.5112 13.8795 14.5367 13.8462 14.5621 13.8129C14.6139 13.7451 14.6661 13.6776 14.7183 13.6102C14.7275 13.5984 14.7366 13.5866 14.7459 13.5745C14.8577 13.4301 14.9717 13.2881 15.0903 13.1493C15.1487 13.0811 15.2054 13.0119 15.2614 12.9417C15.3496 12.8331 15.4447 12.7319 15.5409 12.6304C15.6099 12.5571 15.6753 12.4829 15.7375 12.4036C15.8306 12.2867 15.9357 12.1831 16.0425 12.0788C16.124 11.999 16.2008 11.9169 16.2752 11.8304C16.3159 11.7837 16.359 11.7399 16.4031 11.6965C16.4188 11.6809 16.4346 11.6654 16.4508 11.6494C16.4719 11.6286 16.4719 11.6286 16.4934 11.6074C16.5117 11.5891 16.53 11.5708 16.5489 11.5519C16.5646 11.5362 16.5804 11.5204 16.5966 11.5042C16.6073 11.4931 16.6179 11.4819 16.6289 11.4705C16.6586 11.4397 16.6895 11.4099 16.7205 11.3803C16.7341 11.3803 16.7477 11.3803 16.7617 11.3803C16.7685 11.3599 16.7754 11.3394 16.7824 11.3184C16.8147 11.2865 16.8147 11.2865 16.8559 11.2526C16.9167 11.201 16.9742 11.1482 17.0301 11.0913C17.0951 11.0253 17.1625 10.9637 17.2328 10.9033C17.2841 10.8586 17.3337 10.8123 17.3835 10.7661C17.48 10.678 17.5803 10.5968 17.6835 10.5169C17.768 10.4513 17.8504 10.3838 17.9318 10.3144C18.0295 10.231 18.128 10.1487 18.2277 10.0676C18.2727 10.031 18.3175 9.99424 18.3622 9.9573C18.6756 9.69911 19.0013 9.45759 19.3345 9.22564C19.3887 9.18783 19.4427 9.14975 19.4966 9.11167C19.7275 8.94927 19.9606 8.79236 20.2007 8.64408C20.2517 8.61256 20.3025 8.58075 20.3532 8.54888C21.4265 7.87682 22.5655 7.26384 23.7537 6.82035C23.851 6.78386 23.9474 6.746 24.0431 6.70552C24.8139 6.3799 25.6139 6.14455 26.4214 5.92957C26.4417 5.92415 26.462 5.91872 26.483 5.91313C27.1138 5.74505 27.7444 5.60161 28.3892 5.49777C28.4926 5.48111 28.5954 5.46271 28.6982 5.44308C29.1718 5.35874 29.6562 5.31772 30.1347 5.27298C30.1833 5.26836 30.2319 5.26355 30.2804 5.25875C30.5578 5.23182 30.8347 5.21521 31.1131 5.20436C31.1346 5.20349 31.1561 5.20262 31.1783 5.20173C31.4928 5.18921 31.8071 5.1824 32.1219 5.18242Z" fill="var(--fill-0, #0C273C)"/>
<path id="Vector_2" d="M9.49704 0.004557C9.34841 0.154857 9.19368 0.298142 9.02877 0.430396C8.93883 0.502777 8.85761 0.580015 8.77713 0.662672C8.73558 0.70431 8.69279 0.743045 8.64821 0.78139C8.54279 0.87223 8.44607 0.968754 8.35538 1.07432C8.29833 1.14061 8.23827 1.20254 8.17607 1.26401C8.10263 1.3367 8.03284 1.4107 7.96587 1.48935C7.93921 1.51997 7.91176 1.54991 7.8838 1.57935C7.71566 1.75711 7.57517 1.95312 7.43302 2.15182C7.42109 2.16836 7.40916 2.1849 7.39687 2.20194C7.19655 2.48013 7.0119 2.767 6.83445 3.06027C6.82077 3.08276 6.82077 3.08276 6.80682 3.1057C6.49248 3.62699 6.26843 4.20701 6.09269 4.78815C6.08514 4.81301 6.0776 4.83788 6.06982 4.86349C6.01827 5.03879 5.98047 5.21392 5.94692 5.39335C5.9409 5.42347 5.93486 5.45358 5.92878 5.48368C5.89734 5.65046 5.87567 5.8166 5.86049 5.98566C5.85876 6.00451 5.85703 6.02337 5.85524 6.0428C5.83253 6.31828 5.84594 6.58676 5.87726 6.86056C5.8791 6.87669 5.88093 6.89281 5.88283 6.90942C6.02015 8.0946 6.51922 9.18634 7.27837 10.1047C7.32091 10.1564 7.36269 10.2086 7.40464 10.2608C7.48766 10.3623 7.5754 10.4587 7.66474 10.5546C7.70791 10.6011 7.74929 10.6487 7.79051 10.6969C7.8675 10.7852 7.95085 10.8652 8.03674 10.9447C8.05215 10.9591 8.06756 10.9735 8.08344 10.9883C8.12799 11.0298 8.17265 11.0712 8.21735 11.1125C8.22877 11.1231 8.24019 11.1337 8.25195 11.1447C8.38735 11.2706 8.52755 11.3888 8.67143 11.5048C8.69779 11.5264 8.72412 11.5479 8.75044 11.5695C9.04223 11.8107 9.04223 11.8107 9.35385 12.0248C9.45879 12.09 9.55692 12.1625 9.65571 12.2365C9.88555 12.408 10.124 12.5659 10.3639 12.7229C10.3886 12.7391 10.3886 12.7391 10.4138 12.7556C10.5138 12.821 10.6142 12.8857 10.7148 12.9501C10.7292 12.9593 10.7436 12.9685 10.7584 12.978C11.5666 13.4955 12.3964 13.9831 13.2494 14.4229C13.3 14.4492 13.3505 14.4757 13.401 14.5025C13.6527 14.6357 13.9059 14.7658 14.1604 14.8934C14.1912 14.9088 14.1912 14.9088 14.2225 14.9246C14.57 15.0985 14.9211 15.2615 15.2777 15.4157C15.3878 15.4634 15.4972 15.5125 15.6065 15.5619C16.1947 15.8269 16.7932 16.0667 17.396 16.2964C17.4354 16.3114 17.4748 16.3265 17.5142 16.3416C17.8745 16.4803 17.8745 16.4803 18.2448 16.5878C18.335 16.6108 18.4218 16.6416 18.5095 16.6726C18.9016 16.8107 19.3024 16.913 19.7052 17.0147C19.8269 17.0454 19.9483 17.0769 20.0696 17.1092C21.1098 17.3843 22.1907 17.5469 23.2607 17.653C23.3087 17.6578 23.3567 17.6629 23.4047 17.6681C23.6372 17.6926 23.8691 17.71 24.1026 17.7207C24.1204 17.7216 24.1382 17.7224 24.1565 17.7233C24.8383 17.755 25.5216 17.7619 26.204 17.7633C26.2183 17.7634 26.2325 17.7634 26.2472 17.7635C26.3903 17.7639 26.5306 17.7598 26.6728 17.7452C26.7936 17.7348 26.9149 17.734 27.0361 17.7311C27.5978 17.7151 28.1485 17.668 28.7044 17.5879C28.8409 17.5684 28.9776 17.5504 29.1143 17.5323C29.2655 17.5123 29.4166 17.4922 29.5677 17.471C30.1343 17.3923 30.7 17.3347 31.2725 17.3272C31.298 17.3268 31.298 17.3268 31.324 17.3265C31.9482 17.3187 32.5595 17.3333 33.1783 17.4226C33.2312 17.4301 33.2842 17.437 33.3372 17.4438C34.324 17.5742 35.3226 17.9496 36.0749 18.6096C36.1371 18.6641 36.2013 18.7158 36.2661 18.7673C36.3608 18.8446 36.4386 18.9252 36.5151 19.0202C36.5337 19.0423 36.5523 19.0643 36.571 19.0863C36.916 19.4995 37.1519 19.9629 37.2788 20.4861C37.2963 20.4875 37.2963 20.4875 37.3142 20.4889C37.4384 20.4989 37.5624 20.5098 37.6865 20.5212C37.7283 20.5251 37.7702 20.5288 37.812 20.5324C38.4338 20.5875 39.0932 20.7049 39.6731 20.9403C39.7 20.9512 39.7 20.9512 39.7274 20.9623C40.2604 21.1814 40.7826 21.4962 41.0972 21.9933C41.108 22.0094 41.1188 22.0254 41.1299 22.042C41.3079 22.3183 41.3893 22.6582 41.4068 22.9844C41.4077 22.9991 41.4085 23.0139 41.4094 23.0291C41.4352 23.9649 40.9846 24.8568 40.4961 25.6246C40.482 25.6467 40.468 25.6688 40.4535 25.6916C40.2743 25.9706 40.2743 25.9706 40.2097 26.0401C40.1961 26.0401 40.1825 26.0401 40.1684 26.0401C40.1634 26.0243 40.1583 26.0085 40.1531 25.9923C39.9658 25.4554 39.5348 25.0324 39.0338 24.7809C38.5663 24.5557 38.1002 24.4865 37.5845 24.4851C37.5582 24.485 37.5319 24.4849 37.5047 24.4848C37.0382 24.4883 36.5599 24.6112 36.1436 24.8219C36.1224 24.8324 36.1224 24.8324 36.1008 24.843C35.8838 24.9509 35.6808 25.0741 35.4831 25.2142C35.4614 25.2295 35.4398 25.2448 35.4175 25.2606C35.2639 25.3725 35.1248 25.496 34.9877 25.6271C34.9686 25.6452 34.9494 25.6633 34.9297 25.6819C34.782 25.8248 34.6563 25.9789 34.5336 26.1433C34.5252 26.1546 34.5167 26.1658 34.508 26.1774C34.0342 26.8088 33.6608 27.541 33.481 28.3112C33.4743 28.3394 33.4676 28.3677 33.4608 28.3959C33.3716 28.7725 33.2986 29.143 33.2677 29.5295C33.2584 29.6425 33.2419 29.7533 33.224 29.8652C33.1817 30.1332 33.1657 30.4031 33.1476 30.6737C33.1278 30.9656 33.0958 31.2515 33.0459 31.5399C33.0266 31.653 33.0139 31.7664 33.0024 31.8805C32.9079 32.6854 32.5887 33.4504 32.2013 34.1542C32.1918 34.1716 32.1823 34.189 32.1725 34.2069C31.9576 34.5984 31.7091 34.9561 31.4323 35.306C31.3725 35.3821 31.3142 35.4592 31.2557 35.5363C31.0894 35.7543 30.9159 35.9619 30.7284 36.1619C30.6922 36.2009 30.6563 36.2402 30.6205 36.2796C30.6084 36.2929 30.5962 36.3063 30.5836 36.32C30.5599 36.346 30.5362 36.3721 30.5127 36.3982C30.4847 36.4287 30.4556 36.4581 30.4262 36.4873C30.4126 36.4873 30.399 36.4873 30.385 36.4873C30.3839 36.4714 30.3829 36.4556 30.3819 36.4392C30.3337 35.7283 30.2189 35.0264 29.9949 34.3491C29.9693 34.2693 29.9459 34.189 29.9226 34.1085C29.8688 33.9233 29.8088 33.7405 29.7464 33.5581C29.7407 33.5414 29.735 33.5246 29.7291 33.5074C29.2145 32.0075 28.4369 30.6242 27.5366 29.3229C27.5237 29.3043 27.5109 29.2856 27.4976 29.2664C27.3338 29.0292 27.1655 28.7954 26.9933 28.5642C26.9595 28.5187 26.9257 28.4732 26.892 28.4277C26.7737 28.2684 26.6529 28.1122 26.5252 27.9602C26.5124 27.9449 26.5124 27.9449 26.4992 27.9292C26.4425 27.8616 26.3854 27.7943 26.3282 27.7271C26.308 27.7033 26.2878 27.6795 26.2676 27.6557C26.1583 27.5267 26.0481 27.399 25.9331 27.275C25.8613 27.1975 25.7929 27.1187 25.7267 27.0363C25.6595 26.9527 25.5888 26.8766 25.5118 26.8019C25.4594 26.7496 25.4118 26.6936 25.3635 26.6375C25.3183 26.5864 25.2699 26.5391 25.2213 26.4914C25.1866 26.456 25.1546 26.4197 25.1226 26.3818C25.0166 26.2599 24.9013 26.147 24.787 26.0329C24.7626 26.0085 24.7382 25.9841 24.7139 25.9597C24.663 25.9087 24.6121 25.8578 24.5611 25.807C24.4962 25.7422 24.4314 25.6773 24.3666 25.6123C24.3163 25.562 24.266 25.5117 24.2157 25.4614C24.1918 25.4375 24.1679 25.4136 24.144 25.3896C23.9991 25.2445 23.8521 25.1046 23.6937 24.9742C23.6195 24.9116 23.5527 24.8429 23.4852 24.7732C23.3635 24.6486 23.2352 24.5379 23.099 24.4296C22.9568 24.315 22.8176 24.1974 22.6799 24.0776C22.4973 23.9186 22.3124 23.7628 22.1247 23.61C22.0731 23.5676 22.0221 23.5246 21.9713 23.4813C21.6152 23.1776 21.2405 22.9016 20.8607 22.6283C20.7597 22.5554 20.6596 22.4813 20.5602 22.4063C20.2972 22.2078 20.0288 22.0168 19.7593 21.8273C19.7021 21.787 19.6449 21.7465 19.5879 21.7058C19.2686 21.4782 18.9431 21.2612 18.6088 21.0562C18.5044 20.9921 18.4015 20.9265 18.3001 20.8578C18.1616 20.764 18.0199 20.6759 17.8775 20.5883C17.7593 20.5156 17.6418 20.4419 17.5248 20.3674C17.1179 20.1092 16.7037 19.862 16.2877 19.6189C16.2672 19.607 16.2468 19.595 16.2257 19.5827C15.7294 19.2931 15.2259 19.017 14.7201 18.7445C14.6549 18.7093 14.5898 18.6741 14.5247 18.6388C14.2483 18.4894 13.9702 18.3434 13.6909 18.1995C13.668 18.1877 13.668 18.1877 13.6446 18.1756C13.4649 18.0827 13.284 17.9929 13.1012 17.9062C12.7971 17.7617 12.4961 17.6109 12.195 17.4603C12.1293 17.4274 12.0635 17.3946 11.9978 17.3619C11.6431 17.1852 11.2899 17.0073 10.9437 16.8143C10.8845 16.7814 10.825 16.7495 10.7653 16.7176C10.499 16.575 10.2372 16.426 9.97711 16.2725C9.90467 16.2298 9.83205 16.1875 9.7594 16.1453C9.49218 15.9898 9.2269 15.8322 8.96693 15.6648C8.91635 15.6324 8.86552 15.6004 8.81462 15.5685C8.14656 15.1486 7.49787 14.6948 6.87573 14.2095C6.852 14.1911 6.82827 14.1727 6.80454 14.1543C6.66086 14.0426 6.52056 13.9277 6.38222 13.8094C6.32307 13.7589 6.26284 13.7099 6.20234 13.6611C6.10409 13.5811 6.01033 13.497 5.91709 13.4113C5.87206 13.37 5.82659 13.3295 5.78051 13.2894C5.52652 13.0683 5.2771 12.8417 5.04173 12.6008C5.00115 12.557 5.00115 12.557 4.95619 12.5371C4.95619 12.5235 4.95619 12.5099 4.95619 12.4958C4.93839 12.4885 4.93839 12.4885 4.92023 12.481C4.86352 12.4488 4.83092 12.4111 4.78849 12.3616C4.72299 12.2868 4.65592 12.2155 4.58467 12.1461C4.49649 12.059 4.41835 11.967 4.34109 11.8701C4.29842 11.8178 4.25395 11.7684 4.20798 11.719C4.08722 11.5864 3.98142 11.4424 3.87365 11.2992C3.84523 11.2618 3.81642 11.2247 3.78728 11.1878C3.09841 10.3126 2.54761 9.25219 2.31424 8.16001C2.30971 8.13931 2.30519 8.11862 2.30052 8.09729C2.19067 7.59191 2.15736 7.10713 2.16976 6.59086C2.17017 6.57036 2.17058 6.54986 2.171 6.52873C2.1789 6.24818 2.23641 5.9795 2.29876 5.70693C2.30452 5.68159 2.30452 5.68159 2.3104 5.65575C2.45985 5.00585 2.71973 4.40729 3.07793 3.84485C3.08728 3.83015 3.09663 3.81545 3.10626 3.80031C3.21175 3.63572 3.32319 3.47815 3.44945 3.32868C3.4626 3.31294 3.4626 3.31294 3.47602 3.29688C3.69846 3.0309 3.93504 2.77947 4.1796 2.53378C4.19481 2.51847 4.21002 2.50316 4.22569 2.48739C4.49439 2.21938 4.79282 1.98195 5.10411 1.76547C5.1442 1.7373 5.18385 1.70859 5.22346 1.67976C5.44319 1.52067 5.6708 1.37899 5.90564 1.24336C5.92131 1.23426 5.93698 1.22516 5.95313 1.21578C6.64962 0.813127 7.40333 0.524204 8.17091 0.28974C8.19422 0.282582 8.21753 0.275424 8.24155 0.26805C9.14733 -0.00920273 9.14733 -0.00920272 9.49704 0.004557ZM32.0775 19.6809C32.1041 19.6794 32.1308 19.6779 32.1583 19.6764C32.2689 19.6704 32.3796 19.6652 32.4903 19.6602C32.5152 19.6591 32.5401 19.6579 32.5658 19.6567C32.7837 19.6512 33.0372 19.6653 33.2127 19.8048C33.2536 19.8524 33.2536 19.8524 33.2901 19.9054C33.311 19.9352 33.311 19.9352 33.3323 19.9657C33.3473 19.9875 33.3623 20.0094 33.3778 20.0319C33.6695 20.4553 34.0696 20.8224 34.5906 20.9275C35.1666 21.0231 35.7119 20.809 36.1754 20.4831C36.1922 20.4705 36.2089 20.4578 36.2261 20.4448C36.2261 20.438 36.2261 20.4312 36.2261 20.4242C36.1891 20.4174 36.1891 20.4174 36.1512 20.4105C35.9457 20.3712 35.7581 20.3221 35.5665 20.2364C35.5196 20.2156 35.4723 20.1956 35.425 20.1757C35.1055 20.0389 34.8359 19.8696 34.562 19.6564C34.4011 19.5316 34.2501 19.4246 34.0589 19.3505C34.0459 19.3454 34.0328 19.3403 34.0194 19.335C33.4843 19.1319 32.4838 19.2359 32.0775 19.6809Z" fill="var(--fill-0, #0C273C)"/>
<path id="Vector_3" d="M0.683039 10.018C0.713576 10.075 0.733793 10.1288 0.749798 10.1914C0.837 10.5139 0.969783 10.8051 1.12084 11.1013C1.15513 11.169 1.1885 11.237 1.22162 11.3052C1.52227 11.9152 1.93397 12.474 2.36652 12.9964C2.40949 13.0485 2.45179 13.1012 2.49422 13.1537C2.5683 13.2442 2.64543 13.3315 2.72417 13.418C2.76247 13.4602 2.80006 13.5029 2.83736 13.546C3.01851 13.7533 3.20809 13.9511 3.40302 14.1455C3.44262 14.185 3.48211 14.2246 3.5216 14.2642C3.64525 14.388 3.76941 14.509 3.90292 14.6222C3.93957 14.6556 3.97613 14.6892 4.01257 14.7228C4.10613 14.8082 4.20211 14.8895 4.30064 14.969C4.33736 14.9986 4.37386 15.0285 4.41013 15.0587C4.49579 15.1299 4.5822 15.1994 4.67176 15.2656C4.6869 15.2768 4.70203 15.288 4.71763 15.2995C4.74779 15.3217 4.77805 15.3438 4.8084 15.3658C4.84442 15.3922 4.87946 15.42 4.91429 15.448C4.91429 15.4617 4.91429 15.4753 4.91429 15.4893C4.92908 15.4943 4.94387 15.4993 4.95912 15.5044C5.02602 15.5345 5.07061 15.5714 5.12585 15.6197C5.51429 15.9514 5.93875 16.2378 6.36471 16.5187C6.40134 16.543 6.43781 16.5674 6.47424 16.592C6.63342 16.6992 6.79452 16.8028 6.95714 16.9047C7.04231 16.9582 7.1265 17.0126 7.20939 17.0695C7.55756 17.3084 7.93268 17.5102 8.29929 17.7192C8.32271 17.7326 8.32271 17.7326 8.34661 17.7462C8.56895 17.8732 8.79454 17.9934 9.02169 18.1115C9.05214 18.1273 9.05214 18.1273 9.0832 18.1435C9.21038 18.2096 9.33764 18.2756 9.46496 18.3415C9.54316 18.3819 9.6213 18.4225 9.69939 18.4632C10.0094 18.6246 10.3204 18.7822 10.6367 18.9309C10.6936 18.958 10.7499 18.9858 10.8063 19.0139C11.1762 19.1971 11.5567 19.3533 11.9379 19.5112C12.0957 19.5766 12.2526 19.6437 12.4093 19.7116C12.5798 19.7853 12.7512 19.8563 12.924 19.9245C13.1389 20.0094 13.3516 20.0991 13.5638 20.1903C13.5788 20.1968 13.5938 20.2032 13.6093 20.2099C13.6824 20.2413 13.7554 20.2728 13.8283 20.3045C13.8837 20.3285 13.9392 20.3522 13.9949 20.3756C14.1629 20.4468 14.3241 20.5267 14.485 20.6128C14.6495 20.7006 14.8175 20.7801 14.9864 20.859C15.4666 21.0837 15.9374 21.3213 16.3956 21.5885C16.4567 21.624 16.518 21.6591 16.5794 21.6941C16.8989 21.8766 17.2136 22.0662 17.5255 22.2615C17.5448 22.2736 17.5642 22.2857 17.5841 22.2981C18.1652 22.6624 18.7313 23.0502 19.2922 23.4447C19.3402 23.4785 19.3883 23.5121 19.4364 23.5457C19.6033 23.6625 19.7674 23.7818 19.9277 23.9076C19.963 23.9354 19.9984 23.963 20.0338 23.9906C20.2414 24.1527 20.4449 24.3192 20.6457 24.4896C20.7535 24.581 20.8627 24.6706 20.9724 24.7597C20.9989 24.7813 21.0254 24.8028 21.052 24.8244C21.066 24.8358 21.0799 24.8471 21.0944 24.8588C21.1232 24.8822 21.1519 24.9057 21.1807 24.9291C21.2416 24.9787 21.3027 25.0281 21.3641 25.0772C21.4993 25.1857 21.6259 25.3017 21.7521 25.4203C21.8025 25.4676 21.8538 25.5136 21.9064 25.5585C21.9851 25.6262 22.0568 25.7001 22.1286 25.7751C22.1814 25.8274 22.2386 25.8729 22.2965 25.9192C22.4184 26.0181 22.529 26.1256 22.6391 26.2372C22.6575 26.2557 22.676 26.2742 22.695 26.2932C22.7742 26.373 22.8521 26.453 22.9251 26.5385C23.0009 26.6267 23.0849 26.7046 23.1706 26.7831C23.2721 26.8761 23.3675 26.9703 23.4569 27.075C23.5057 27.1309 23.5585 27.182 23.6118 27.2335C23.6881 27.3085 23.7593 27.3843 23.8259 27.4683C23.9085 27.5724 23.9977 27.6687 24.0891 27.7651C24.1108 27.788 24.1108 27.788 24.1329 27.8114C24.1609 27.8409 24.1889 27.8705 24.217 27.9C24.3469 28.0372 24.4671 28.1787 24.5826 28.3279C24.6539 28.4196 24.7295 28.5059 24.8079 28.5915C24.9587 28.7589 25.0953 28.9392 25.2338 29.1168C25.2673 29.1598 25.3011 29.2026 25.3348 29.2455C25.4686 29.4159 25.5988 29.5882 25.7248 29.7645C25.7867 29.851 25.8495 29.9365 25.9139 30.0211C26.078 30.2366 26.2292 30.4605 26.3801 30.6853C26.3927 30.7039 26.4052 30.7225 26.4181 30.7416C26.6484 31.0835 26.8705 31.4299 27.0808 31.7844C27.1091 31.8319 27.138 31.8791 27.1668 31.9263C27.4788 32.4403 27.7712 32.9747 28.0331 33.5162C28.0462 33.5432 28.0594 33.5702 28.0727 33.5972C28.1906 33.8362 28.2944 34.0803 28.3951 34.327C28.4514 34.465 28.5096 34.6017 28.5719 34.7372C28.7445 35.1209 28.8659 35.5223 28.9873 35.9244C28.9966 35.9552 28.9966 35.9552 29.0062 35.9865C29.072 36.203 29.1321 36.4189 29.1749 36.6412C29.1782 36.6587 29.1816 36.6761 29.1851 36.6941C29.2101 36.8325 29.2172 36.9658 29.2078 37.1065C29.17 37.0497 29.1523 37.0074 29.1311 36.9435C29.0826 36.8071 29.0176 36.6818 28.9498 36.5542C28.937 36.5297 28.9241 36.5053 28.9113 36.4808C28.8852 36.4311 28.8591 36.3815 28.8329 36.3319C28.7977 36.2651 28.7629 36.1982 28.7283 36.1311C28.6121 35.9064 28.4932 35.6835 28.3689 35.4631C28.338 35.4081 28.3072 35.353 28.2765 35.2979C28.0622 34.915 27.8405 34.5467 27.5773 34.1953C27.5661 34.1804 27.555 34.1655 27.5435 34.1502C27.3108 33.84 27.0659 33.5399 26.8136 33.2455C26.803 33.2332 26.7925 33.2209 26.7817 33.2082C26.6357 33.0377 26.487 32.8704 26.3337 32.7065C26.3066 32.6772 26.2797 32.6475 26.253 32.6178C26.0867 32.4334 25.9119 32.2579 25.7362 32.0825C25.6846 32.031 25.6332 31.9795 25.5817 31.9279C25.5485 31.8947 25.5153 31.8614 25.482 31.8282C25.4669 31.813 25.4518 31.7979 25.4362 31.7822C25.353 31.6994 25.2681 31.62 25.1791 31.5437C25.1145 31.4875 25.0529 31.4281 24.9908 31.3693C24.8836 31.2683 24.774 31.1725 24.6589 31.0805C24.6013 31.0332 24.5464 30.9836 24.4915 30.9331C24.3815 30.832 24.2672 30.7378 24.151 30.644C24.1256 30.6232 24.1002 30.6023 24.0749 30.5814C23.911 30.4468 23.7445 30.3168 23.5743 30.1904C23.5027 30.1372 23.432 30.0831 23.3614 30.0287C23.1813 29.8899 22.9984 29.7554 22.8133 29.6234C22.7841 29.6024 22.7548 29.5815 22.7256 29.5605C22.1992 29.1826 21.6534 28.8298 21.1041 28.4863C21.0532 28.4544 21.0024 28.4222 20.9517 28.3899C20.7228 28.2454 20.4893 28.1131 20.2505 27.9857C20.13 27.9212 20.0113 27.8537 19.8926 27.7858C19.6951 27.6729 19.4941 27.5674 19.2917 27.4636C19.166 27.3991 19.0421 27.3329 18.92 27.2618C18.7854 27.184 18.6462 27.1202 18.504 27.0576C18.399 27.0114 18.2958 26.9631 18.1937 26.9108C18.0052 26.8147 17.8126 26.7273 17.6202 26.6391C17.4218 26.5481 17.2239 26.4562 17.0274 26.3611C16.6439 26.1763 16.2539 26.0148 15.8566 25.8621C15.7687 25.8282 15.6815 25.7929 15.5946 25.7562C15.4964 25.7148 15.3974 25.6788 15.2963 25.6449C15.1223 25.5854 14.9512 25.5194 14.7803 25.4514C14.5678 25.3671 14.3546 25.288 14.1384 25.214C14.0701 25.1904 14.0021 25.1661 13.9342 25.1418C13.5238 24.995 13.1112 24.8559 12.6973 24.7195C12.4838 24.649 12.2715 24.5766 12.0609 24.4979C11.9479 24.4556 11.8341 24.4169 11.7191 24.3803C11.5475 24.3245 11.3807 24.2601 11.2147 24.1893C11.105 24.1429 10.9941 24.1018 10.8815 24.0631C10.674 23.9913 10.4731 23.905 10.2717 23.8177C10.2332 23.8011 10.1948 23.7845 10.1563 23.7679C9.88533 23.6508 9.61599 23.5307 9.34921 23.4044C9.28892 23.3759 9.22849 23.3477 9.16803 23.3195C8.91299 23.2 8.66528 23.0702 8.41914 22.9334C8.36041 22.9011 8.30137 22.8693 8.2422 22.8378C7.9253 22.6687 7.61603 22.4884 7.30855 22.3028C7.28626 22.2894 7.26396 22.276 7.24098 22.2622C6.42412 21.7711 5.62234 21.2202 4.92138 20.5718C4.8779 20.5317 4.83383 20.4924 4.78916 20.4536C4.69218 20.3692 4.59679 20.2831 4.50148 20.1968C4.48352 20.1806 4.46556 20.1644 4.44706 20.1477C4.29308 20.0079 4.14405 19.8637 3.99702 19.7166C3.95896 19.6786 3.92074 19.6408 3.88252 19.6029C3.85824 19.5787 3.83397 19.5545 3.80971 19.5302C3.7983 19.5189 3.78689 19.5077 3.77513 19.4961C3.69651 19.4169 3.69651 19.4169 3.69651 19.3709C3.68289 19.3709 3.66927 19.3709 3.65523 19.3709C3.62517 19.3376 3.5966 19.3029 3.5688 19.2677C3.51243 19.1972 3.456 19.1273 3.39594 19.0599C3.32969 18.985 3.26765 18.9072 3.20566 18.8288C3.16474 18.7782 3.12262 18.7289 3.07993 18.6798C2.94617 18.5253 2.82943 18.3612 2.71334 18.1932C2.66145 18.1188 2.60744 18.046 2.55348 17.9731C2.4581 17.8379 2.4581 17.8379 2.4581 17.7811C2.44448 17.7811 2.43085 17.7811 2.41682 17.7811C2.39333 17.7501 2.39333 17.7501 2.36731 17.706C2.35755 17.6897 2.34779 17.6733 2.33773 17.6564C2.32722 17.6384 2.31671 17.6203 2.30588 17.6018C2.28937 17.5738 2.28937 17.5738 2.27253 17.5452C2.23789 17.4863 2.2035 17.4273 2.16914 17.3682C2.15873 17.3504 2.14832 17.3327 2.1376 17.3144C1.85456 16.8311 1.60535 16.3343 1.38481 15.8197C1.37531 15.7975 1.3658 15.7754 1.35601 15.7526C1.21076 15.4106 1.09543 15.0616 0.992643 14.7048C0.988289 14.6897 0.983935 14.6747 0.979449 14.6592C0.86654 14.2683 0.764628 13.8822 0.711117 13.4781C0.702173 13.4139 0.690889 13.3502 0.679315 13.2864C0.634517 13.0381 0.611638 12.7871 0.586883 12.5362C0.582217 12.4956 0.576398 12.4551 0.569397 12.4149C0.557678 12.3415 0.551963 12.2685 0.547749 12.1943C0.546881 12.1792 0.546013 12.1641 0.545119 12.1485C0.536099 11.9757 0.53545 11.803 0.535867 11.63C0.535978 11.5755 0.535867 11.5209 0.535736 11.4663C0.535539 11.1288 0.558593 10.7987 0.603714 10.4642C0.610933 10.4105 0.61793 10.3569 0.624908 10.3032C0.629437 10.269 0.633979 10.2348 0.638534 10.2006C0.64062 10.1846 0.642706 10.1686 0.644855 10.1521C0.660018 10.041 0.660018 10.041 0.683039 10.018Z" fill="var(--fill-0, #AF2838)"/>
<path id="Vector_4" d="M0.0433508 17.8634C0.106657 17.8951 0.116365 17.9566 0.141392 18.0196C0.303911 18.4072 0.543577 18.761 0.786399 19.1022C0.797437 19.1179 0.808476 19.1336 0.819849 19.1498C0.959455 19.3482 1.10533 19.5396 1.25975 19.7267C1.31884 19.7985 1.37536 19.872 1.43141 19.9461C1.52021 20.0629 1.61513 20.1719 1.71521 20.2791C1.732 20.2971 1.732 20.2971 1.74913 20.3154C1.79958 20.3694 1.85005 20.4235 1.90057 20.4774C1.97273 20.5546 2.04345 20.6327 2.11261 20.7126C2.3103 20.9395 2.51845 21.1501 2.75367 21.3385C2.85145 21.4168 2.94177 21.5011 3.03231 21.5876C3.15507 21.7043 3.28137 21.8116 3.41585 21.9144C3.48348 21.9663 3.54899 22.0204 3.61437 22.075C4.08813 22.4709 4.59502 22.826 5.12085 23.149C5.14812 23.1658 5.14812 23.1658 5.17595 23.183C5.77218 23.5505 6.38051 23.8901 7.00298 24.2108C7.03923 24.2295 7.07547 24.2482 7.1117 24.2669C7.46189 24.4479 7.81752 24.6118 8.18463 24.7555C8.2379 24.7766 8.29113 24.7977 8.34435 24.8188C8.36437 24.8267 8.36437 24.8267 8.38479 24.8348C8.51719 24.8875 8.64854 24.9426 8.77993 24.9977C9.00577 25.0923 9.23232 25.1791 9.46427 25.2573C9.54399 25.2848 9.62303 25.3142 9.70218 25.3433C9.94018 25.4305 10.1798 25.5087 10.4225 25.5817C10.531 25.6145 10.639 25.6484 10.7469 25.683C10.7782 25.693 10.8094 25.703 10.8407 25.713C10.8861 25.7275 10.9315 25.742 10.9769 25.7567C11.1578 25.8154 11.3392 25.866 11.5242 25.9106C11.8065 25.9792 12.0823 26.0667 12.3588 26.1556C12.4136 26.1732 12.4686 26.1907 12.5235 26.2083C12.8758 26.3207 13.2276 26.4347 13.5778 26.5536C13.651 26.5783 13.7243 26.6024 13.7976 26.6265C14.5675 26.8796 15.317 27.1783 16.0654 27.4881C16.2206 27.5523 16.3761 27.6155 16.5323 27.6771C16.7358 27.7577 16.9347 27.8474 17.1335 27.939C17.1553 27.9491 17.1771 27.9591 17.1996 27.9694C17.5217 28.1177 17.8421 28.2691 18.1614 28.4234C18.2307 28.4568 18.3002 28.49 18.3697 28.5231C18.6245 28.6448 18.8775 28.7685 19.126 28.9027C19.1818 28.9327 19.2377 28.9625 19.2936 28.9923C19.6858 29.2022 20.0697 29.4246 20.4465 29.6611C20.5391 29.7189 20.6322 29.7738 20.7287 29.8249C21.0078 29.9731 21.2662 30.1549 21.5277 30.3316C21.6377 30.406 21.7483 30.4794 21.8591 30.5526C22.1536 30.7475 22.4417 30.9486 22.7158 31.1713C22.8069 31.2452 22.8998 31.3159 22.994 31.3857C23.122 31.4807 23.2464 31.5793 23.3696 31.6805C23.458 31.753 23.5474 31.824 23.6377 31.8942C23.8452 32.0563 24.0428 32.2251 24.2268 32.4137C24.2723 32.4581 24.3189 32.4968 24.3692 32.5355C24.6183 32.7291 24.8749 32.9628 25.0735 33.2091C25.1164 33.2602 25.1609 33.2991 25.2127 33.3407C25.2613 33.3833 25.3014 33.4323 25.3434 33.4814C25.4041 33.5509 25.4671 33.618 25.5302 33.6853C25.9345 34.1174 26.2928 34.5768 26.6367 35.0581C26.6696 35.1039 26.7028 35.1493 26.7361 35.1946C27.2966 35.9593 27.7975 36.8073 28.1355 37.6946C28.1712 37.7875 28.2085 37.8797 28.2456 37.972C28.2652 38.0209 28.2848 38.0699 28.3042 38.1188C28.3177 38.1522 28.3317 38.1854 28.3458 38.2186C28.3617 38.2624 28.3617 38.2624 28.3617 38.3243C28.3481 38.3243 28.3345 38.3243 28.3205 38.3243C28.2959 38.2935 28.273 38.2614 28.2508 38.2288C28.0999 38.0161 27.9236 37.8237 27.7475 37.6318C27.7064 37.5866 27.6662 37.5409 27.6264 37.4946C27.5642 37.4228 27.4977 37.3563 27.43 37.2898C27.3953 37.2544 27.3635 37.2182 27.3323 37.1797C27.2938 37.126 27.2938 37.126 27.2472 37.1062C27.2472 37.0925 27.2472 37.0789 27.2472 37.0649C27.2336 37.0649 27.2199 37.0649 27.2059 37.0649C27.2059 37.0512 27.2059 37.0376 27.2059 37.0236C27.1923 37.0236 27.1786 37.0236 27.1646 37.0236C27.1646 37.0099 27.1646 36.9963 27.1646 36.9823C27.1442 36.9755 27.1237 36.9687 27.1027 36.9616C27.0708 36.9293 27.0708 36.9293 27.0369 36.8881C26.912 36.7411 26.7737 36.6126 26.628 36.4868C26.4288 36.3132 26.4288 36.3132 26.3609 36.2287C26.2949 36.1482 26.2158 36.0869 26.1347 36.0222C26.0665 35.9672 26.0002 35.9105 25.9339 35.8532C25.6612 35.618 25.3806 35.3919 25.1006 35.1654C25.0818 35.1501 25.0629 35.1349 25.0435 35.1192C24.8495 34.9629 24.6527 34.8112 24.4491 34.6676C24.3701 34.6117 24.2928 34.5539 24.2159 34.4951C24.0863 34.3961 23.9552 34.3046 23.816 34.2198C23.6766 34.1345 23.5411 34.0434 23.4055 33.9524C23.178 33.7998 22.9485 33.651 22.7168 33.5051C22.6674 33.4738 22.6183 33.4422 22.5693 33.4103C22.3143 33.2453 22.0503 33.0988 21.7841 32.9527C21.6812 32.8959 21.5791 32.8376 21.4769 32.7794C21.3068 32.6828 21.1356 32.5884 20.9635 32.4955C20.9425 32.4841 20.9215 32.4728 20.8999 32.461C20.5958 32.2976 20.2846 32.1482 19.9735 31.9986C19.9291 31.9773 19.8847 31.9558 19.8403 31.9344C19.8203 31.9248 19.8203 31.9248 19.7999 31.915C19.745 31.8885 19.6918 31.8613 19.6398 31.8294C19.5833 31.7962 19.5271 31.7745 19.4656 31.7521C19.3258 31.6995 19.1917 31.6381 19.0569 31.5741C18.8996 31.5004 18.7437 31.4301 18.5799 31.3721C18.4802 31.3363 18.3842 31.2942 18.2877 31.2504C17.9175 31.0825 17.5367 30.9454 17.1541 30.8089C17.1376 30.803 17.1211 30.7971 17.1042 30.7911C16.884 30.7126 16.6634 30.6356 16.4425 30.5593C16.3628 30.5317 16.2831 30.5041 16.2035 30.4763C15.6718 30.2911 15.1406 30.115 14.5956 29.9734C14.5518 29.962 14.5082 29.9504 14.4645 29.9388C14.1857 29.8646 13.9059 29.7947 13.6259 29.725C13.5565 29.7076 13.4871 29.6903 13.4176 29.673C13.3723 29.6617 13.327 29.6504 13.2817 29.6391C13.1783 29.6134 13.0751 29.5875 12.9719 29.5613C12.7843 29.5137 12.5971 29.4692 12.4068 29.4333C12.2797 29.4091 12.1536 29.3835 12.0281 29.3514C11.9449 29.3301 11.8641 29.3136 11.7786 29.3043C11.6389 29.286 11.5044 29.2545 11.3684 29.2179C11.24 29.185 11.1117 29.1671 10.9804 29.1506C10.7436 29.1203 10.5125 29.0712 10.28 29.0176C10.2131 29.0021 10.1461 28.987 10.0791 28.9719C10.0357 28.9621 9.99239 28.9522 9.94905 28.9423C9.92942 28.9379 9.90978 28.9334 9.88956 28.9288C9.77979 28.9034 9.67215 28.8744 9.56475 28.8403C9.51399 28.8259 9.46373 28.8166 9.41168 28.8081C9.25666 28.7816 9.10686 28.7365 8.95606 28.6926C8.94037 28.6881 8.92468 28.6835 8.90851 28.6789C8.79481 28.646 8.68125 28.6127 8.56777 28.5791C8.54576 28.5726 8.54576 28.5726 8.52331 28.5659C8.09039 28.4376 7.66684 28.2904 7.24679 28.1248C7.22327 28.1156 7.22327 28.1156 7.19926 28.1061C6.41125 27.7959 5.63812 27.4456 4.92666 26.9826C4.86659 26.9437 4.80621 26.9053 4.74578 26.867C4.21561 26.5303 3.70623 26.1759 3.24259 25.7505C3.16832 25.6843 3.09431 25.6189 3.01554 25.5582C3.00192 25.5467 2.9883 25.5352 2.97426 25.5233C2.97426 25.5097 2.97426 25.4961 2.97426 25.4821C2.96201 25.4765 2.94975 25.471 2.93712 25.4652C2.8915 25.4406 2.86185 25.4159 2.82551 25.3793C2.81348 25.3672 2.80144 25.3552 2.78905 25.3428C2.77652 25.33 2.764 25.3172 2.75109 25.304C2.73163 25.2843 2.73163 25.2843 2.71177 25.2642C2.63624 25.1873 2.56269 25.1094 2.49309 25.0271C2.45011 24.977 2.40511 24.9291 2.36022 24.8807C2.25239 24.7623 2.15402 24.6379 2.05637 24.511C2.02288 24.4679 1.98894 24.4251 1.95491 24.3824C0.768542 22.8869 0.0750682 20.9591 0.00207031 18.8957C0.00175769 18.8761 0.00144506 18.8564 0.00112296 18.8362C-0.00193776 18.6063 0.00121623 18.377 0.0111004 18.1473C0.0119086 18.1282 0.0127168 18.1092 0.0135494 18.0896C0.0144175 18.0719 0.0152855 18.0542 0.0161798 18.036C0.0169365 18.0206 0.0176931 18.0051 0.0184726 17.9892C0.0227507 17.9456 0.0316306 17.9056 0.0433508 17.8634Z" fill="var(--fill-0, #0C273C)"/>
<path id="Vector_5" d="M42.687 14.3741C42.7006 14.3741 42.7142 14.3741 42.7283 14.3741C42.7917 14.5243 42.8416 14.6761 42.8882 14.8322C42.988 15.1608 43.0995 15.4851 43.2116 15.8096C43.3833 16.3081 43.3833 16.3081 43.43 16.5421C44.1997 16.5421 44.9694 16.5421 45.7624 16.5421C45.716 16.6349 45.716 16.6349 45.6527 16.6782C45.6318 16.6926 45.6318 16.6926 45.6106 16.7074C45.5955 16.7176 45.5805 16.7277 45.565 16.7382C45.533 16.7603 45.5009 16.7825 45.4689 16.8047C45.4443 16.8215 45.4443 16.8215 45.4192 16.8388C45.3436 16.8907 45.2685 16.9434 45.1935 16.9963C45.179 17.0065 45.1645 17.0167 45.1495 17.0272C45.0498 17.0978 44.9517 17.1703 44.8542 17.244C44.613 17.4265 44.3645 17.5987 44.1148 17.7692C44.0506 17.8131 43.9871 17.8573 43.9254 17.9047C43.938 18.0201 43.967 18.1225 44.0047 18.232C44.0136 18.2582 44.0136 18.2582 44.0226 18.2848C44.0352 18.3221 44.0478 18.3593 44.0605 18.3966C44.0938 18.4944 44.1268 18.5924 44.1597 18.6904C44.1662 18.7099 44.1728 18.7294 44.1795 18.7494C44.2342 18.9127 44.2856 19.0768 44.3356 19.2416C44.3955 19.439 44.4608 19.6332 44.5348 19.8257C44.5717 19.9227 44.5965 20.0105 44.6065 20.1139C44.5436 20.0851 44.4937 20.0506 44.4401 20.0068C44.3747 19.955 44.3088 19.9085 44.2376 19.8649C44.0754 19.7637 43.924 19.6473 43.7709 19.5332C43.5214 19.3473 43.2709 19.1629 43.0154 18.9854C42.9774 18.9588 42.94 18.9316 42.9027 18.9042C42.8809 18.8886 42.8591 18.8731 42.8366 18.8571C42.818 18.8435 42.7994 18.8299 42.7802 18.8159C42.7295 18.7862 42.7295 18.7862 42.6789 18.8078C42.6261 18.8334 42.5835 18.8611 42.537 18.8969C42.5206 18.9095 42.5041 18.922 42.4871 18.935C42.4696 18.9484 42.4522 18.9619 42.4342 18.9758C42.3043 19.0745 42.1742 19.1724 42.0407 19.2661C42.0268 19.2759 42.0129 19.2856 41.9986 19.2957C41.9145 19.3546 41.8301 19.413 41.7456 19.4714C41.5365 19.6161 41.3295 19.7624 41.127 19.9163C41.0365 19.9848 40.9437 20.0499 40.85 20.1139C40.8205 20.0356 40.8392 19.9914 40.8694 19.9152C40.9203 19.7809 40.9633 19.6449 41.0048 19.5074C41.0787 19.2644 41.156 19.0225 41.2344 18.7809C41.24 18.7636 41.2456 18.7463 41.2514 18.7284C41.3192 18.519 41.3893 18.3107 41.4634 18.1034C41.4867 18.0374 41.5093 17.9712 41.5311 17.9047C41.5102 17.8979 41.5102 17.8979 41.4889 17.891C41.4096 17.8551 41.3468 17.8057 41.2783 17.7525C41.1625 17.664 41.0456 17.5778 40.9261 17.4944C40.7991 17.4055 40.6739 17.3145 40.5494 17.2221C40.4028 17.1133 40.254 17.0085 40.1031 16.9056C40.0225 16.8506 39.9427 16.7947 39.8632 16.7382C39.8512 16.7297 39.8392 16.7213 39.8268 16.7126C39.7137 16.6319 39.7137 16.6319 39.6735 16.5833C39.6735 16.5697 39.6735 16.5561 39.6735 16.5421C40.4364 16.5352 41.1992 16.5284 41.9852 16.5214C42.0601 16.2966 42.1351 16.0717 42.2123 15.8401C42.2365 15.7681 42.2608 15.6961 42.2858 15.622C42.3515 15.4252 42.4132 15.2271 42.4747 15.029C42.5427 14.8098 42.6128 14.5914 42.687 14.3741Z" fill="var(--fill-0, #AF2838)"/>
<path id="Vector_6" d="M35.3593 10.0387C35.3797 10.0455 35.4002 10.0524 35.4212 10.0594C35.4411 10.1074 35.4411 10.1074 35.4589 10.1724C35.4694 10.209 35.4694 10.209 35.4801 10.2463C35.4858 10.2662 35.4858 10.2662 35.4916 10.2864C35.5128 10.3584 35.537 10.4295 35.561 10.5006C35.5712 10.5313 35.5815 10.562 35.5918 10.5926C35.597 10.6082 35.6022 10.6238 35.6076 10.6398C35.7065 10.9341 35.8034 11.2289 35.896 11.5253C35.9047 11.5531 35.9135 11.5809 35.9222 11.6087C35.9524 11.7051 35.9793 11.7977 35.9992 11.8969C36.6599 11.8969 37.3205 11.8969 38.0013 11.8969C37.9572 11.985 37.9131 12.0193 37.8348 12.0724C37.8158 12.0857 37.8158 12.0857 37.7963 12.0993C37.7689 12.1183 37.7415 12.1374 37.714 12.1563C37.6412 12.2066 37.5691 12.2576 37.4969 12.3086C37.4747 12.3242 37.4747 12.3242 37.452 12.3402C37.3557 12.4082 37.2602 12.4773 37.1653 12.5473C37.054 12.6295 36.9417 12.7102 36.8286 12.7899C36.8139 12.8004 36.7991 12.8108 36.7839 12.8216C36.7205 12.8663 36.6569 12.9104 36.5923 12.9535C36.5737 12.9659 36.555 12.9784 36.5358 12.9912C36.5201 13.0014 36.5043 13.0117 36.4881 13.0222C36.4446 13.0608 36.4361 13.0777 36.4326 13.1357C36.4463 13.1994 36.4463 13.1994 36.4713 13.2712C36.4759 13.2855 36.4806 13.2997 36.4854 13.3144C36.5019 13.365 36.5189 13.4156 36.5358 13.4661C36.549 13.506 36.5622 13.5458 36.5754 13.5857C36.6398 13.78 36.7048 13.974 36.7703 14.168C36.7928 14.2349 36.8153 14.3019 36.8378 14.3689C36.8488 14.4016 36.8598 14.4343 36.8709 14.467C36.9791 14.7864 36.9791 14.7864 37.0105 14.9527C36.9338 14.9153 36.8634 14.8709 36.7925 14.8236C36.7791 14.8146 36.7656 14.8057 36.7518 14.7965C36.6243 14.7105 36.501 14.6191 36.3778 14.5272C36.2617 14.441 36.1436 14.3586 36.0237 14.2778C35.8914 14.1886 35.7637 14.0961 35.6405 13.9947C35.5636 13.9319 35.4908 13.879 35.4006 13.8377C35.3023 13.8539 35.2223 13.9324 35.1452 13.9926C35.0366 14.0758 34.927 14.1554 34.8123 14.23C34.6891 14.3106 34.5712 14.3966 34.454 14.4857C34.3375 14.5741 34.2188 14.6588 34.0989 14.7424C34.0127 14.8027 33.9285 14.8648 33.8456 14.9296C33.8113 14.9527 33.8113 14.9527 33.77 14.9527C33.7835 14.8577 33.8069 14.7699 33.836 14.6786C33.8428 14.6572 33.8428 14.6572 33.8497 14.6353C33.8981 14.4836 33.9486 14.3326 33.9993 14.1817C34.0759 13.9535 34.1522 13.7252 34.2254 13.4958C34.2308 13.4789 34.2362 13.462 34.2418 13.4446C34.2806 13.3219 34.3148 13.1981 34.3479 13.0738C34.3164 13.0516 34.3164 13.0516 34.2842 13.029C34.0115 12.8371 33.7404 12.643 33.4724 12.4443C33.3129 12.3259 33.152 12.2121 32.9857 12.1034C32.946 12.0774 32.9064 12.0512 32.867 12.0247C32.8416 12.0079 32.8416 12.0079 32.8157 11.9907C32.8037 11.9802 32.7917 11.9697 32.7793 11.9589C32.7793 11.9384 32.7793 11.918 32.7793 11.8969C33.4332 11.8969 34.087 11.8969 34.7607 11.8969C34.8108 11.7475 34.8108 11.7475 34.8561 11.5972C34.9624 11.2285 35.082 10.8652 35.2047 10.5017C35.2567 10.3476 35.308 10.1931 35.3593 10.0387Z" fill="var(--fill-0, #AF2838)"/>
<path id="Vector_7" d="M26.9377 10.3687C26.9513 10.3687 26.9649 10.3687 26.9789 10.3687C27.0242 10.5045 27.0694 10.6402 27.1146 10.7759C27.1231 10.8012 27.1231 10.8012 27.1317 10.827C27.1435 10.8626 27.1554 10.8982 27.1672 10.9338C27.203 11.0414 27.239 11.1489 27.275 11.2564C27.2832 11.2811 27.2915 11.3057 27.3 11.3311C27.316 11.3791 27.3321 11.4271 27.3482 11.4751C27.4017 11.635 27.454 11.7949 27.4949 11.9585C28.0603 11.9653 28.6256 11.9721 29.2081 11.9792C29.2081 11.9928 29.2081 12.0064 29.2081 12.0205C29.1699 12.0468 29.1304 12.0714 29.0907 12.0953C28.959 12.1769 28.8364 12.2675 28.714 12.3624C28.5013 12.527 28.282 12.6807 28.0604 12.8328C27.9952 12.8779 27.9308 12.9239 27.8665 12.9702C27.9242 13.3673 28.0861 13.754 28.2169 14.1317C28.2544 14.2401 28.292 14.3486 28.3288 14.4573C28.3385 14.486 28.3385 14.486 28.3484 14.5152C28.3618 14.56 28.3618 14.56 28.3618 14.6013C28.2839 14.5654 28.2136 14.5186 28.1425 14.471C28.129 14.462 28.1156 14.4529 28.1017 14.4437C27.9472 14.3395 27.7967 14.2299 27.6462 14.1201C27.5975 14.0847 27.5488 14.0494 27.4999 14.0142C27.4759 13.9968 27.4759 13.9968 27.4513 13.979C27.4197 13.9562 27.388 13.9335 27.3564 13.9108C27.289 13.8623 27.2219 13.8136 27.1565 13.7624C27.1366 13.7471 27.1168 13.7318 27.0963 13.7161C27.0798 13.7029 27.0633 13.6898 27.0463 13.6762C26.9856 13.6442 26.9615 13.654 26.8964 13.6722C26.8537 13.6944 26.8537 13.6944 26.8136 13.7235C26.7981 13.7341 26.7827 13.7448 26.7668 13.7558C26.7504 13.7674 26.734 13.779 26.7171 13.7909C26.6998 13.8029 26.6825 13.8149 26.6647 13.8273C26.5017 13.9412 26.3404 14.0577 26.1797 14.1748C26.1308 14.2104 26.0817 14.2458 26.0326 14.2812C26.0161 14.2931 25.9996 14.305 25.9826 14.3172C25.9514 14.3398 25.9201 14.3623 25.8889 14.3848C25.8746 14.3951 25.8602 14.4054 25.8455 14.416C25.8316 14.426 25.8178 14.4361 25.8035 14.4464C25.7449 14.4894 25.6874 14.5339 25.6301 14.5786C25.596 14.6013 25.596 14.6013 25.5548 14.6013C25.5695 14.5184 25.5924 14.4404 25.6182 14.3603C25.6245 14.3406 25.6245 14.3406 25.631 14.3206C25.6446 14.2782 25.6584 14.2359 25.6721 14.1935C25.6768 14.1791 25.6815 14.1647 25.6863 14.1498C25.7438 13.9719 25.8027 13.7945 25.8661 13.6186C25.9042 13.5127 25.9378 13.4058 25.9701 13.2981C25.9912 13.2287 26.0149 13.1603 26.0395 13.0921C26.0537 13.0463 26.0537 13.0463 26.0501 12.9702C26.0138 12.9354 26.0138 12.9354 25.9637 12.9057C25.8798 12.8504 25.8001 12.7925 25.7212 12.7302C25.5932 12.6301 25.4598 12.5388 25.3254 12.4476C25.2175 12.3745 25.1113 12.2998 25.0065 12.2223C24.9359 12.1708 24.8635 12.1218 24.791 12.073C24.7498 12.0411 24.7498 12.0411 24.7085 11.9792C25.267 11.9724 25.8256 11.9655 26.401 11.9585C26.5216 11.632 26.5216 11.632 26.6268 11.3017C26.6849 11.1078 26.7487 10.917 26.82 10.7276C26.8643 10.6092 26.9028 10.4902 26.9377 10.3687Z" fill="var(--fill-0, #AF2838)"/>
<path id="Vector_8" d="M43.4293 16.5427C44.1989 16.5427 44.9686 16.5427 45.7616 16.5427C45.7152 16.6356 45.7152 16.6356 45.6378 16.6665C45.6378 16.6393 45.6378 16.612 45.6378 16.5839C44.9158 16.5839 44.1938 16.5839 43.4499 16.5839C43.4431 16.5703 43.4363 16.5567 43.4293 16.5427Z" fill="var(--fill-0, black)"/>
<path id="Vector_9" d="M35.9993 11.8964C36.66 11.8964 37.3207 11.8964 38.0014 11.8964C37.9878 11.9237 37.9741 11.9509 37.9601 11.979C37.9397 11.9688 37.9397 11.9688 37.9188 11.9584C37.8584 11.9558 37.7984 11.9545 37.7379 11.9541C37.7098 11.9538 37.7098 11.9538 37.6812 11.9535C37.6191 11.9529 37.557 11.9523 37.4949 11.9518C37.4519 11.9514 37.4089 11.951 37.366 11.9505C37.2527 11.9494 37.1394 11.9484 37.0262 11.9474C36.9106 11.9463 36.7951 11.9452 36.6796 11.944C36.4528 11.9418 36.2261 11.9397 35.9993 11.9377C35.9993 11.9241 35.9993 11.9105 35.9993 11.8964Z" fill="var(--fill-0, black)"/>
<path id="Vector_10" d="M43.8423 16.5427C44.4758 16.5427 45.1092 16.5427 45.7619 16.5427C45.7483 16.5699 45.7346 16.5972 45.7206 16.6252C45.7002 16.6252 45.6797 16.6252 45.6587 16.6252C45.6655 16.6116 45.6723 16.598 45.6793 16.5839C45.0731 16.5771 44.4669 16.5703 43.8423 16.5633C43.8423 16.5565 43.8423 16.5497 43.8423 16.5427Z" fill="var(--fill-0, black)"/>
<path id="Vector_11" d="M36.37 11.8964C36.9081 11.8964 37.4462 11.8964 38.0006 11.8964C37.987 11.9237 37.9734 11.9509 37.9593 11.979C37.9389 11.9688 37.9389 11.9688 37.918 11.9584C37.918 11.9515 37.918 11.9447 37.918 11.9377C37.4072 11.9309 36.8963 11.9241 36.37 11.9171C36.37 11.9103 36.37 11.9034 36.37 11.8964Z" fill="var(--fill-0, black)"/>
<path id="Vector_12" d="M28.2181 14.1888C28.2644 14.2582 28.288 14.3283 28.3136 14.4069C28.3183 14.421 28.3231 14.4351 28.328 14.4497C28.3626 14.5549 28.3626 14.5549 28.3626 14.6017C28.3031 14.575 28.2621 14.5468 28.2181 14.4985C28.2296 14.471 28.2296 14.471 28.2414 14.443C28.2622 14.3642 28.252 14.3428 28.2181 14.2714C28.2181 14.2441 28.2181 14.2169 28.2181 14.1888Z" fill="var(--fill-0, black)"/>
<path id="Vector_13" d="M29.1456 36.6113C29.1524 36.6113 29.1592 36.6113 29.1662 36.6113C29.2037 36.7781 29.2124 36.9361 29.2075 37.1068C29.1359 36.9993 29.1427 36.8842 29.1443 36.7584C29.1444 36.7442 29.1445 36.73 29.1446 36.7154C29.1448 36.6807 29.1452 36.646 29.1456 36.6113Z" fill="var(--fill-0, black)"/>
<path id="Vector_14" d="M40.8702 19.928C40.877 19.9485 40.8838 19.9689 40.8908 19.99C40.9249 19.99 40.9589 19.99 40.994 19.99C40.8985 20.0906 40.8985 20.0906 40.8289 20.1139C40.8389 20.0494 40.8495 19.9901 40.8702 19.928Z" fill="var(--fill-0, black)"/>
<path id="Vector_15" d="M36.8446 14.4572C36.8805 14.511 36.9002 14.5519 36.9207 14.6121C36.9264 14.6281 36.932 14.644 36.9378 14.6605C36.9478 14.705 36.9478 14.705 36.9272 14.7669C36.8859 14.7256 36.8859 14.7256 36.8833 14.6508C36.8842 14.6278 36.885 14.6048 36.8859 14.5811C36.8723 14.5811 36.8587 14.5811 36.8446 14.5811C36.8446 14.5402 36.8446 14.4994 36.8446 14.4572Z" fill="var(--fill-0, black)"/>
<path id="Vector_16" d="M25.5967 14.4572C25.6104 14.4777 25.624 14.4981 25.638 14.5192C25.6516 14.526 25.6653 14.5328 25.6793 14.5398C25.6019 14.6018 25.6019 14.6018 25.5555 14.6018C25.5735 14.5037 25.5735 14.5037 25.5967 14.4572Z" fill="var(--fill-0, black)"/>
<path id="Vector_17" d="M10.4043 30.1274C10.4112 30.1274 10.418 30.1274 10.425 30.1274C10.4453 30.2111 10.4473 30.2892 10.4456 30.3751C10.4388 30.3751 10.432 30.3751 10.425 30.3751C10.4047 30.2915 10.4027 30.2133 10.4043 30.1274Z" fill="var(--fill-0, black)"/>
<path id="Vector_18" d="M10.3831 30.0243C10.4037 30.1069 10.4037 30.1069 10.4037 30.1069L10.3831 30.0243Z" fill="var(--fill-0, black)"/>
<path id="Vector_19" d="M10.3639 29.8589C10.3846 29.9415 10.3846 29.9415 10.3846 29.9415L10.3639 29.8589Z" fill="var(--fill-0, black)"/>
</g>
</svg>
